<?xml version="1.0" encoding="utf-8"?>
<!-- Generator: Adobe Illustrator 24.3.0, SVG Export Plug-In . SVG Version: 6.00 Build 0)  -->
<svg version="1.1" id="Layer_1" xmlns="http://www.w3.org/2000/svg" xmlns:xlink="http://www.w3.org/1999/xlink" x="0px" y="0px"
	 viewBox="0 0 512 512" style="enable-background:new 0 0 512 512;" xml:space="preserve">
<style type="text/css">
	.st0{fill:#FFFFFF;}
	.st1{fill:#F70099;}
	.st2{fill:#FF9FCB;}
	.st3{fill:#FF1F3A;}
</style>
<g>
	<g id="_15">
		<path class="st0" d="M256.8,68l0.7,57.2c44.3-39.3,112.1-35.3,151.4,9c32.2,36.3,36,89.6,9.4,130.1l-0.1,0.1
			c-1.3,2-2.6,3.9-4.1,5.7l-55.6,78.2l19.8,14.6l-53.4,72.2l-18.1-13.4L291.1,444l-67.6-47.6c-51,30.2-116.8,13.3-146.9-37.7
			c-20.8-35.2-19.8-79.2,2.7-113.5l0.1-0.1c1.3-2,2.7-3.9,4.1-5.8l61.6-86.6l-37-24.6L256.8,68 M328.7,222.9
			c5.2,0,10.1-2.3,13.4-6.3l1.6-2.3c4.9-8.3,2.2-19.1-6.2-24c-8.3-4.9-19.1-2.2-24,6.2s-2.2,19.1,6.2,24
			C322.5,222.1,325.5,222.9,328.7,222.9 M221.5,210.7c-0.1-1.8-0.1-3.5-0.1-5.3c0-0.6,0-1.1,0-1.6l-1.7-1.1l-3.7,5.2
			C217.9,208.7,219.7,209.6,221.5,210.7 M168.8,321.7c9.7,0,17.5-7.8,17.5-17.5c0-9.7-7.8-17.5-17.5-17.5c-5.2,0-10.2,2.3-13.5,6.3
			l-1.6,2.3c-4.9,8.3-2.2,19,6.1,24C162.5,320.8,165.6,321.7,168.8,321.7 M256.8,44c-3.1,0-6.1,0.6-9,1.8L98.9,106
			c-12.3,5-18.2,19-13.2,31.3c1.8,4.5,4.9,8.3,9,11l16.4,10.9l-47,66.1c-1.7,2.2-3.2,4.4-4.8,6.7v0.1
			c-14.1,21.4-21.6,46.5-21.6,72.1c0,72.4,58.9,131.3,131.3,131.3c18.1,0,36-3.7,52.6-11l55.8,39.2c4,2.8,8.8,4.3,13.7,4.3
			c1.4,0,2.8-0.1,4.1-0.4c6.3-1.1,11.8-4.6,15.5-9.8l1.6-2.3c10.6,6.5,24.5,3.9,31.9-6.2l53.4-72.2c7.9-10.7,5.7-25.7-5-33.6
			l-0.8-0.6l41.8-58.7c1.6-2.2,3.2-4.4,4.7-6.6l0.1-0.1l0.1-0.1C452.5,256,460,231,460,205.4c0-72.4-58.9-131.3-131.3-131.3
			c-16.3,0-32.5,3-47.7,8.9l-0.2-15.4C280.6,54.5,269.9,43.9,256.8,44L256.8,44z"/>
		<path class="st1" d="M168.9,411.4c-59.2,0-107.3-48-107.3-107.2c0-21,6.1-41.5,17.6-59l0.1-0.1c1.3-2,2.7-3.9,4.1-5.8l61.6-86.5
			l-37-24.6L256.8,68l2,160.7l-39.1-26l-3.7,5.1c53.2,26.1,75.3,90.3,49.2,143.6C247.2,388.1,209.8,411.4,168.9,411.4L168.9,411.4z
			 M153.9,295.2c-5,8.4-2.3,19.2,6.1,24.2c8.4,5,19.2,2.3,24.2-6.1c5-8.4,2.3-19.2-6.1-24.2c-7.4-4.5-17-2.8-22.6,3.8L153.9,295.2z"
			/>
		<path class="st1" d="M291.1,444l-73.4-51.7l16.9-24.1l-21.8-16.1l47.5-64.1c-3-2.5-5.9-5.2-8.6-8c-41.3-42.5-40.2-110.5,2.3-151.7
			s110.5-40.2,151.7,2.3c35,36.1,40.3,91.6,12.6,133.7l-0.1,0.1c-1.3,2-2.6,3.9-4.1,5.7l-55.6,78.2l19.8,14.6l-53.4,72.2l-18.1-13.4
			L291.1,444z M328.7,187.8c-9.7,0-17.5,7.8-17.5,17.5c0,9.7,7.8,17.5,17.5,17.5c5.2,0,10.2-2.3,13.5-6.3l1.6-2.3
			c4.9-8.3,2.2-19-6.1-24C334.9,188.7,331.8,187.8,328.7,187.8L328.7,187.8z"/>
		<path class="st2" d="M168.9,402.5c-54.3,0-98.3-44-98.3-98.3c0-19.2,5.6-38,16.2-54v-0.1c1.2-1.8,2.5-3.6,3.8-5.4l67-94.2
			L127,130.2l121-49l1.6,130.5l-32.2-21.4l-15.2,21.3c51.1,18.4,77.5,74.8,59.1,125.9C247.3,376.5,210.3,402.5,168.9,402.5
			L168.9,402.5z M106.4,304.1c-0.4,34.5,27.1,62.8,61.6,63.2c34.5,0.4,62.8-27.1,63.2-61.6c0-0.5,0-1.1,0-1.6
			c0.4,34.5-27.1,62.8-61.6,63.2c-34.5,0.4-62.8-27.1-63.2-61.6C106.4,305.2,106.4,304.7,106.4,304.1z M146.3,290.3
			c-7.7,12.5-3.8,28.8,8.6,36.5c12.5,7.7,28.8,3.8,36.5-8.6c7.7-12.5,3.8-28.8-8.6-36.5c-11.3-7-26.1-4.5-34.5,5.8L146.3,290.3z
			 M231.2,304.1L231.2,304.1z M231.2,304.1L231.2,304.1z M106.4,304.1L106.4,304.1z M231.2,304.1L231.2,304.1z M106.4,304L106.4,304
			z M231.2,304L231.2,304z M115.4,272c-5.9,9.6-9,20.7-9,32c0-11.3,3.1-22.4,9-32.1V272z M231.2,304L231.2,304z M231.2,304
			L231.2,304z M231.2,304L231.2,304z M231.2,303.9L231.2,303.9z M231.2,303.9L231.2,303.9z M231.2,303.8L231.2,303.8z M231.2,303.8
			L231.2,303.8z M231.2,303.8L231.2,303.8z M231.2,303.7L231.2,303.7z M231.2,303.7L231.2,303.7z M231.2,303.6L231.2,303.6z
			 M221.1,270c6.5,9.9,10.1,21.5,10.2,33.4C231.1,291.5,227.6,279.9,221.1,270z M119.5,266l-0.2,0.2c-0.9,1.2-1.8,2.4-2.6,3.6
			l-0.2,0.3L119.5,266z M137.5,240.6l-17.9,25.2l0.3-0.3c11.8-15.1,29.9-23.8,49-23.8h1.3L137.5,240.6L137.5,240.6z M184,243.6
			c7,1.8,13.6,4.7,19.6,8.7C197.6,248.3,191,245.4,184,243.6z M203.6,138l4.7,3.2l-32.1,45l32.1-45.1l4.6,3l-0.1-9.9L203.6,138z"/>
		<path class="st2" d="M288.9,431.5l-58.8-41.3l16.8-23.9l-21.6-16l42.7-57.7l20.3,15l6.9-9.7c-51.1-18.4-77.6-74.8-59.2-125.9
			s74.8-77.6,125.9-59.2s77.6,74.8,59.2,125.9c-2.6,7.3-6.1,14.2-10.3,20.7l-0.1,0.1c-1.2,1.8-2.5,3.6-3.8,5.4l-60.8,85.5l19.6,14.5
			L323,422.6L304.7,409L288.9,431.5z M280.2,381.5l16.3-23.2L280.2,381.5z M314.9,371.9l0.6,0.5L314.9,371.9z M296.5,358.3l6.4,4.7
			L296.5,358.3z M327.4,267.8l32.6,1l-34.8,48.9l52.8-74.3l0.2-0.2c0.9-1.2,1.8-2.4,2.6-3.6l0.2-0.3l0,0l-3.3,4.7
			c-11.8,15.1-29.9,23.8-49,23.8L327.4,267.8z M294.2,257.4c5.7,3.8,12,6.6,18.6,8.4C306.2,264,299.9,261.2,294.2,257.4L294.2,257.4
			z M266.3,206.2c0.1,11.8,3.6,23.4,10.1,33.3C269.9,229.5,266.4,218,266.3,206.2L266.3,206.2z M391.1,205.6c0,11.3-3.1,22.3-9,32
			C388,228,391.1,216.9,391.1,205.6L391.1,205.6z M328.7,178.9c-14.6-0.1-26.5,11.8-26.6,26.4c-0.1,14.6,11.8,26.5,26.4,26.6
			c8.1,0,15.7-3.6,20.8-9.9l2-2.8c7.7-12.4,3.8-28.7-8.6-36.4C338.4,180.2,333.6,178.8,328.7,178.9L328.7,178.9z M266.3,206.1
			L266.3,206.1z M266.3,206.1L266.3,206.1z M266.3,206L266.3,206z M266.3,206L266.3,206z M266.3,206L266.3,206z M266.3,206
			L266.3,206z M266.3,205.9L266.3,205.9z M266.3,205.9L266.3,205.9z M266.3,205.9L266.3,205.9z M266.3,205.8L266.3,205.8z
			 M266.3,205.8L266.3,205.8z M391.1,205.7L391.1,205.7z M266.3,205.7L266.3,205.7z M266.3,205.7L266.3,205.7z M391.1,205.7
			L391.1,205.7z M266.3,205.7L266.3,205.7z M266.3,205.6L266.3,205.6z"/>
		<path class="st0" d="M168.9,393.5c-49.3,0-89.3-39.9-89.4-89.2c0-17.5,5.1-34.5,14.7-49.1c1.2-1.8,2.4-3.4,3.6-5.1l72.5-101.9
			l-24.1-16l93-37.7l1.2,100.4L215.1,178l-27.6,38.8c48.2,10.4,79,57.9,68.6,106.1C247.3,364.1,211,393.5,168.9,393.5z M109.1,265.1
			c-21.5,33-12.2,77.2,20.8,98.7s77.2,12.2,98.7-20.8s12.2-77.2-20.8-98.7c-10.9-7.1-23.5-11.1-36.5-11.5l-16.7-0.6l56.1-78.8
			l11.5,7.6l-0.5-40l-37.1,15l11.2,7.4l-83.5,117.4c-1,1.3-2,2.7-3,4.1L109.1,265.1z M168.8,357.6c-29.5,0-53.4-23.9-53.4-53.4
			c0-10.2,2.9-20.1,8.4-28.7l0.2-0.4l2.8-4c18.3-23.2,51.8-27.2,75-8.9s27.2,51.8,8.9,75C200.7,350,185.3,357.6,168.8,357.6
			L168.8,357.6z M138.8,285.3c-10.5,16.6-5.5,38.6,11.2,49c16.6,10.5,38.6,5.5,49-11.2c10.5-16.6,5.5-38.6-11.2-49
			c-15.3-9.6-35.4-6.2-46.7,7.9L138.8,285.3z"/>
		<path class="st0" d="M286.7,419l-44.1-31l16.7-23.7L238,348.4l32-43.3l20.4,15.1l19.6-27.5c-48.3-10.3-79.1-57.8-68.8-106.1
			c10.3-48.3,57.8-79.1,106.1-68.8s79.1,57.8,68.8,106.1c-2.3,10.8-6.6,21.2-12.7,30.4v0.1c-1.1,1.7-2.3,3.4-3.5,5l-66,92.8
			l19.5,14.4l-32,43.3l-18.5-13.7L286.7,419z M267.7,383.6l14.6,10.4l16.2-23l18.8,13.9l10.7-14.4l-19.2-14.2l6.1-8.7l70.3-98.9
			c1-1.3,2-2.7,2.9-4.1l0.1-0.1c21.5-33,12.2-77.2-20.8-98.7s-77.2-12.2-98.7,20.8s-12.2,77.2,20.8,98.7
			c10.9,7.1,23.5,11.1,36.5,11.5l16.7,0.5l-43.2,60.8l-5.3,7.5l-20.7-15.3l-10.7,14.4l21.1,15.6L267.7,383.6z M328.7,258.8
			c-29.5,0-53.5-23.9-53.6-53.4c0-29.5,23.9-53.5,53.4-53.6s53.5,23.9,53.6,53.4c0,10.2-2.9,20.2-8.4,28.8l-0.2,0.4l-2.9,4
			C360.6,251.3,345.1,258.8,328.7,258.8L328.7,258.8z M328.7,169.9c-19.6,0-35.5,15.8-35.5,35.4s15.8,35.5,35.4,35.5
			c10.8,0,21.1-4.9,27.8-13.4l2.3-3.2c10.4-16.6,5.5-38.4-11.1-48.9C342,171.8,335.4,169.9,328.7,169.9L328.7,169.9z"/>
		<path class="st3" d="M171.5,223.8l41.3-58.1l18.4,12.2l-0.9-70.2l-65.1,26.4l17.7,11.7l-78,109.6c-1.2,1.5-3.3,4.7-3.3,4.7l0,0
			c-24.3,37.1-14,86.9,23.1,111.2c37.1,24.3,86.9,14,111.2-23.1c24.3-37.1,14-86.9-23.1-111.2C200.6,228.9,186.3,224.3,171.5,223.8
			L171.5,223.8z M168.9,348.6c-24.5,0-44.4-19.8-44.5-44.4c0-8.5,2.4-16.8,7-23.9l2.6-3.6c15.2-19.3,43.1-22.6,62.4-7.4
			c19.3,15.2,22.6,43.1,7.4,62.4C195.4,342.3,182.5,348.6,168.9,348.6L168.9,348.6z"/>
		<path class="st3" d="M409,205.4c0-44.4-36-80.4-80.4-80.4s-80.4,36-80.4,80.4c0,43.4,34.4,78.9,77.7,80.3l-32.9,46.2l-0.7,1
			l-20.5-15.2l-21.4,28.9l21.2,15.7l-16.6,23.6l29.4,20.7l16.1-22.9l18.6,13.8l21.4-28.9l-19.3-14.3l1.1-1.6l70.1-98.6
			c1.1-1.5,2.3-3.1,3.3-4.6l0,0l0,0C404.5,236.4,409,221.1,409,205.4z M366.1,229.2l-2.6,3.6c-15.2,19.1-43,22.3-62.1,7.2
			c-19.1-15.2-22.3-43-7.2-62.1s43-22.3,62.1-7.2C374.1,184.8,378.3,210.1,366.1,229.2z"/>
	</g>
</g>
</svg>
