<?xml version="1.0" encoding="utf-8"?>
<!-- Generator: Adobe Illustrator 26.0.1, SVG Export Plug-In . SVG Version: 6.00 Build 0)  -->
<svg version="1.1" id="Layer_1" xmlns="http://www.w3.org/2000/svg" xmlns:xlink="http://www.w3.org/1999/xlink" x="0px" y="0px"
	 width="512px" height="512px" viewBox="0 0 512 512" style="enable-background:new 0 0 512 512;" xml:space="preserve">
<style type="text/css">
	.st0{fill:#FFFFFF;}
	.st1{fill:url(#SVGID_1_);}
	.st2{fill:#D6A98A;}
	.st3{fill:#B80044;}
	.st4{fill:#7E002B;}
	.st5{fill:#9B0038;}
	.st6{fill:#680023;}
	.st7{fill:#DB975A;}
	.st8{fill:#CD004C;}
	.st9{fill:#DC0053;}
	.st10{fill:#D89F71;}
	.st11{fill:#F3005C;}
	.st12{opacity:0.58;fill:#D89F71;enable-background:new    ;}
	.st13{opacity:0.62;fill:#E2B393;enable-background:new    ;}
	.st14{fill:#BF6740;}
	.st15{opacity:0.4;fill:#3A1E14;enable-background:new    ;}
	.st16{fill:url(#SVGID_00000100346321750139779870000002632493330364145558_);}
	.st17{fill:url(#SVGID_00000118361211239758647300000003978868905705858695_);}
	.st18{fill:#DA0000;}
</style>
<g>
	<path class="st0" d="M249.5,106.1c2.4,0,4.8,0.1,7.2,0.4l0,0c7.2,0.9,14.2,2.9,20.8,6l0,0c3,1.4,5.9,3,8.6,4.9l0,0
		c-0.1,3.1,0.2,6.2,0.9,9.3c1.7,8.7,6.4,22.5,19.8,36c7.4,7.5,14.3,15.5,20.7,23.9c0.6,0.9,1.3,1.7,1.9,2.6c1.1,1.5,2.2,3.1,3.4,4.7
		c0.8,1.2,1.7,2.4,2.5,3.6c2.6,3.9,5.1,7.9,7.5,12c4.7,3.8,8.5,8.5,11.2,13.8l-0.9,1.5c2.9,5.2,6.5,12.2,4.7,12.2
		c-0.6-0.1-1.2-0.4-1.7-0.9c0.5,1.1,0.7,1.8,0.7,1.8l-0.6-0.7c1.4,3.6,2.7,7.3,3.9,11l15.6,12.4l0.1,0.1c-0.4-1-0.7-2-1.1-3l0,0
		c-10.1-17.6-3.7-28.4,2.8-32.2c0-0.4,0.1-0.8,0.2-1.1l0.1-0.3c0.1-0.2,0.1-0.5,0.2-0.7s0.2-0.6,0.2-0.9c0-0.1,0.1-0.3,0.1-0.4
		s0.1-0.3,0.2-0.5c0.6-1.8,1.6-3.5,2.8-5.1l0.1-0.1c0,0,0.2-0.2,0.5-0.6c2.9-3.3,6.5-5,9.2-5c1.4-0.1,2.7,0.6,3.4,1.8
		c0,0.1,0.1,0.2,0.1,0.3c0.1,0.2,0.2,0.4,0.3,0.5c2.5,3.8,5,7.6,7.5,11.4c3.8,5.6,8.6,12.6,13.1,19.8c0.1,0.2,0.2,0.4,0.4,0.5
		c0.5,0.9,1.1,1.7,1.6,2.6l0.5,0.8c4.4,6.9,8.4,14,11.9,21.4c0,0.1,0.1,0.2,0.1,0.2v0.1l0,0l0,0c11.8,26.7,11.6,55.7-3.5,83.5
		l-0.1,0.1c-2.3,4.1-4.7,8.1-7.5,11.9l0,0c-0.8,1.2-1.6,2.3-2.5,3.5l0,0l0,0l0,0l-0.5,0.6l-0.5,0.6l0,0l-1,1.2l-0.4,0.5l-1.3,1.8
		l-1,1.3l0,0c-1.2,1.5-2.5,3-3.9,4.4l0,0l-0.1,0.1c-2.6,2.7-5.5,5.1-8.6,7.2L399,387l-0.2,0.1l-0.2,0.1
		c-10.1,9.4-23.4,14.5-37.2,14.5c-4,0-7.9-0.4-11.8-1.3c-5.4,14.9-12,27.8-19.9,35.9l0,0l-0.4,0.2c-3.1,1.5-6.4,2.7-9.8,3.4l0,0
		c-3.9,0.8-7.9,1.2-11.8,1.2c-21.1,0-44-10-66.2-10c-8.3-0.1-16.5,1.6-24,5l-0.1,0.1l0,0c-0.9,0.4-1.8,0.9-2.7,1.4s-1.8,1-2.7,1.4
		l0,0h-0.1c-8,3.8-17.4,6.2-27.4,7.6l0,0c-7.3,0.9-14.7,1.4-22.1,1.4c-10.4,0-20.9-0.8-31.2-2.2l0,0c-7.8-1-15.5-2.6-23.1-4.7l0,0
		c-0.9-0.2-2-0.6-3.1-0.9c-4.2-1.4-6.9-2.7-7.9-3.8c-5-5.9-34-47.7-35.7-124.9c0-1.3,0-2.6-0.1-3.9s0-2.6,0-4s0-2.7,0-4
		s0-2.7,0.1-4.1c0.4-19.9,3.8-39.6,10.3-58.4l0,0c-1.9,0,2.5-8.4,5.5-13.6c0.8-1.8,1.7-3.6,2.5-5.3c0.9-1.9,2-4.2,3.5-6.7
		s2.7-4.8,4.1-7s2.8-4.4,4.2-6.5c0.9-1.4,1.9-2.7,2.8-4c1.9-2.6,3.7-5.1,5.6-7.4l1.4-1.7c11.4-14,21.6-22.3,24.8-25.9
		c2.3-2.7,4.2-5.8,5.5-9.2c0.4-1,0.8-2,1.2-3.1c2.3-6.5,4.3-14.4,9.3-25.3c0.3-0.6,0.6-1.2,0.9-1.8c0.2-0.3,0.3-0.7,0.5-1l0.1-0.2
		c0.1-0.3,0.3-0.5,0.5-0.8l0,0c2.2-3.2,5.2-4.4,8.8-4.4c7.9,0,19.1,5.5,32.2,7.4c0.7,0.1,1.4,0.2,2,0.3c2.2,0.3,4.5,0.4,6.8,0.4
		c8.7,0,17.3-2.3,24.9-6.7c1.6-0.9,3.1-1.7,4.7-2.4l0,0c1.1-0.5,2.2-1,3.3-1.4l0,0l0,0c7.3-3,15.1-4.6,23-4.6 M223.1,352.7H221
		c-1.7,0.6-3.4,0.9-5.2,0.9s-3.5-0.3-5.2-0.9h-3.8l2.3,13.3l0,0l5.1,30l6.5-31.9l0,0L223.1,352.7 M249.5,85.1c-10.5,0-20.9,2-30.6,6
		c-1.8,0.7-3.6,1.5-5.3,2.3l-0.3,0.2c-1.8,0.9-3.5,1.8-5.1,2.7c-4.4,2.6-9.4,3.9-14.4,3.9c-1.4,0-2.9-0.1-4.3-0.3
		c-0.5,0-0.9-0.1-1.4-0.2c-4.9-0.9-9.7-2-14.4-3.6c-6.7-2-13.7-4.1-20.9-4.1c-10.9,0-20.1,4.7-26.1,13.4c-0.1,0.1-0.1,0.2-0.2,0.3
		c-0.4,0.6-0.7,1.2-1.1,1.7l-0.3,0.6c-0.4,0.7-0.8,1.5-1.2,2.2s-0.7,1.4-1,2.1c-3.3,7.2-6.1,14.6-8.4,22.1c-0.6,1.9-1.1,3.5-1.7,5
		c-0.3,0.8-0.6,1.5-0.8,2.1c-0.4,1.2-1.1,2.4-1.9,3.4c-0.5,0.5-2.1,2-3.3,3.2c-7.8,7.2-15.1,15-21.9,23.2l-1.5,1.9
		c-2.1,2.6-4.2,5.4-6.2,8.2c-1.1,1.5-2.1,3-3.1,4.5c-1.6,2.4-3.2,4.8-4.7,7.3s-3,5.1-4.5,7.7s-2.9,5.4-4.1,7.9
		c-0.8,1.6-1.5,3.2-2.3,4.8c-3.8,6.6-7.7,13.7-8.2,21.1c-6.2,19.5-9.6,39.8-10,60.2c0,1.4-0.1,2.9-0.1,4.3s0,2.9,0,4.3s0,2.8,0,4.2
		s0,2.8,0.1,4.1c0.8,35.1,6.9,67.5,18,96.3c7.9,20.5,17.2,35.3,22.7,41.8c3.7,4.3,8.8,7.3,17.1,10c1.5,0.5,3,1,4.4,1.3
		c8.4,2.3,17,4,25.6,5.2l0,0c11.3,1.6,22.7,2.4,34.1,2.5c8.3,0,16.7-0.5,25-1.6l0,0c12.6-1.7,23.8-4.8,33.1-9.2
		c0.4-0.2,0.8-0.4,1.1-0.5c1.1-0.6,2.2-1.1,3.1-1.6l0.7-0.4c0.5-0.2,1-0.5,1.5-0.7c4.6-2,9.6-2.9,14.6-2.8c8.9,0,18.8,2.2,29.3,4.6
		c11.9,2.7,24.1,5.4,36.9,5.4c5.5,0,11-0.5,16.3-1.7l0,0h0.2c4.9-1.1,9.6-2.7,14.1-4.9l0.5-0.2l0.3-0.2c2.1-1.1,4-2.5,5.7-4.2
		c6.8-7.1,12.9-16.4,18.3-28.2c17.8-0.3,35-7,48.4-18.8c3.9-2.7,7.5-5.7,10.8-9c0.3-0.3,0.5-0.5,0.8-0.8c1.6-1.7,3.2-3.5,4.7-5.4
		l0.3-0.4l1-1.3l1.3-1.6l0.1-0.1l0.2-0.3l0.9-1.1l0.6-0.9l0.3-0.3l0.2-0.3l0.1-0.2l0.1-0.1c1.3-1.6,2.3-3.2,3.1-4.3
		c3.1-4.4,6-9,8.6-13.8l0.2-0.3c17.5-31.2,19.1-68.9,4.4-101.5c-0.1-0.3-0.3-0.6-0.4-0.9l-0.1-0.2c-3.8-8.2-8.2-16.1-13-23.7
		l-0.3-0.6l-0.2-0.2c-0.6-0.9-1.1-1.8-1.7-2.7l-0.1-0.2l-0.2-0.4c-4.9-7.6-9.8-14.9-13.4-20.2c-2.1-3.1-4.5-6.7-6.8-10.3
		c-4.3-8.1-12.8-13-21.9-12.9c-9,0-18.4,4.5-25,12.2l-0.4,0.5c-1.9-2.4-4.1-4.6-6.3-6.7c-2-3.4-4.2-6.8-6.4-10.1
		c-0.9-1.3-1.8-2.7-2.7-3.9c-1.2-1.7-2.4-3.4-3.7-5.1l-2.1-2.8c-6.9-9.1-14.5-17.8-22.5-26c-9.5-9.6-12.9-19-14.1-25.1
		c-0.3-1.4-0.4-2.8-0.5-4.3c0.7-7.1-2.4-13.2-8.1-17.7l-0.4-0.3c-2.1-1.5-4.3-2.9-6.5-4.2c-2-1.2-4-2.2-5.9-3
		c-8.5-4-17.7-6.7-27.1-7.8h-0.1C255.9,85.3,252.7,85.1,249.5,85.1L249.5,85.1z"/>
	<path class="st0" d="M385.1,109.9c0.5,0,1,0.1,1.5,0.3l0,0c1.9,0.8,2.8,3.1,2,5c-0.1,0.2-0.2,0.4-0.3,0.6l-37.8,56.3l31.2-60.1
		C382.3,110.7,383.6,109.9,385.1,109.9 M385.1,88.9L385.1,88.9c-9.3,0-17.7,5.2-22,13.4l-31.3,60.1c-5.3,10.3-1.3,23,9,28.3
		c9.5,4.9,21.1,1.9,27.1-6.9l37.8-56.3c7.6-11.4,4.6-26.8-6.8-34.5C394.8,90.4,390,88.9,385.1,88.9L385.1,88.9z"/>
	<path class="st0" d="M444.4,194.1c2.1,0.1,3.8,1.9,3.7,4.1c-0.1,2-1.7,3.6-3.7,3.7h-0.3l-68.2-4.8l68.3-3H444.4 M444.4,173h-1.1
		l-68.4,3c-11.6,0.5-20.6,10.3-20.1,21.9c0.5,10.7,8.9,19.3,19.5,20l68.2,4.7c0.6,0,1.1,0.1,1.7,0.1c13.7-0.3,24.6-11.6,24.4-25.4
		C468.5,184,457.7,173.3,444.4,173L444.4,173z"/>
	<path class="st0" d="M438.1,133.5c2.9,0,5.2,2.3,5.2,5.2c0,1.9-1.1,3.7-2.8,4.6l-81.7,43.5l76.2-52.4
		C436,133.8,437,133.5,438.1,133.5 M438.1,112.5c-5.3,0-10.5,1.6-14.9,4.6L347,169.6c-9.6,6.6-12,19.6-5.4,29.2
		c6.1,8.8,17.8,11.7,27.2,6.6l81.7-43.5c12.8-6.8,17.6-22.7,10.8-35.5C456.7,117.9,447.8,112.5,438.1,112.5L438.1,112.5z"/>
	<path class="st0" d="M331,69.9c3,0,5.4,2.4,5.4,5.4c0,0.2,0,0.3,0,0.5l-8,94.8l-2.8-95.1c-0.1-2.8,2-5.2,4.8-5.5L331,69.9
		 M331,48.9c-0.9,0-1.7,0-2.6,0.1c-13.8,1.4-24.1,13.2-23.8,27l2.7,95.1c0.3,11.1,9.3,20.1,20.4,20.4h0.6c10.9,0,20-8.4,20.9-19.2
		l8-94.8c1.2-14.5-9.6-27.3-24.1-28.5C332.4,48.9,331.7,48.9,331,48.9L331,48.9z"/>
	
		<radialGradient id="SVGID_1_" cx="214.4468" cy="-1239.48" r="205.6133" gradientTransform="matrix(1 0 0 1.22 0 1850.9301)" gradientUnits="userSpaceOnUse">
		<stop  offset="1.000000e-02" style="stop-color:#CE6A14"/>
		<stop  offset="2.000000e-02" style="stop-color:#CF6C18"/>
		<stop  offset="0.12" style="stop-color:#D27934"/>
		<stop  offset="0.23" style="stop-color:#D48247"/>
		<stop  offset="0.33" style="stop-color:#D68753"/>
		<stop  offset="0.44" style="stop-color:#D68957"/>
		<stop  offset="0.57" style="stop-color:#D88E5E"/>
		<stop  offset="0.77" style="stop-color:#DE9D70"/>
		<stop  offset="0.99" style="stop-color:#E9B48F"/>
		<stop  offset="1" style="stop-color:#E9B590"/>
	</radialGradient>
	<path class="st1" d="M306.7,162.7c-22.1-22.3-20.6-45.3-20.6-45.3s-31.4-23.5-67.6-2.9s-66.2-15.1-75.8,4.8s-9,30.3-16.9,39.4
		s-62.5,49.4-64.7,136.8s30.3,134.6,35.7,140.9c5.8,6.8,80,21.8,117.6,1.3s80.5,16.1,115.1-1.3c26-27,38.4-105.6,38.4-138.8
		C368,246.4,342,198.3,306.7,162.7z M214.2,396l-7.4-43.3h16.3L214.2,396z"/>
	<polygon class="st2" points="220.7,364.1 214.2,396 209.1,366 214.2,398.6 	"/>
	<path class="st2" d="M67.9,297.6c0.2-15.4,1.8-29.7,6.2-42.4c10.6-30.6,72.6-58.8,115.8-1.1c1.3-2.5-14.6-48-97.7-41.2
		c16.9-28.8,37-46.8,41.2-54c6-10.3,11.4-24.9,13.4-43.2c0.2-0.7,0.5-1.3,1-1.9c-2.3,1.1-4.1,3-5.1,5.3c-9.6,20-9,30.3-16.9,39.4
		S63.3,207.9,61,295.4S91.3,430,96.7,436.3c0.8,1,6.8,3.7,10.9,4.7C102.4,434.3,66.4,386.5,67.9,297.6z"/>
	<path class="st2" d="M306.7,162.7c-22.1-22.3-20.6-45.3-20.6-45.3c-2.7-1.9-5.6-3.5-8.6-4.9c0,4.4-2.4,26.3,16.1,46.6
		c16.5,18,33.6,39.4,46.7,62.7c-90.4-33.5-121.1,60.2-114.8,63.7c38.9-91,115.8-62.1,128.4-36.9c9.8,19.6,8.9,35.3,8.9,49
		c0,43.5-19.7,113.9-43.5,142.5c3.5-0.9,6.9-2.1,10.2-3.6c26-27,38.4-105.6,38.4-138.8C368,246.4,342,198.3,306.7,162.7z"/>
	<path class="st3" d="M73.9,232.7c0,0,5.1-14.3,13.4-21.7s46.7-29,128.5-29s121.5,25.2,127.9,31.6s13.1,24.3,13.1,24.3
		s-30.7-39.2-68-23.1s-68.9,37.8-69.7,82.8s6.3,52.3,6.3,52.3s-3.1,3.7-9.5,3.7s-13.4-4.9-13.4-4.9s9.7-12.7,5.8-51.1
		c-3.7-36.2-22.1-67-57.7-80.4C109.4,201.7,73.9,232.7,73.9,232.7z"/>
	<path class="st4" d="M76.2,228.1c0,0,1.3-15.4,27.8-44.6c0,0-17.4,25.3-8.5,20.1c12.2-7.1,26.9-11.8,39.4-14.9
		c27.9-6.9,62-10.1,96.1-8.9c50.1,1.8,108.7,14.1,122.8,43.4l-2.9,4.8c-10.9-22.7-58.2-40.6-120.1-42.8
		C168.3,183.1,93.1,198.6,76.2,228.1z"/>
	<path class="st5" d="M214.4,345.6c8.2,0,9.8,2.5,9.8,2.5s-6.6-37.7-6.8-51.8c-0.1-4.8,2.4-19.1,2.4-25c0-1.5-2.4,5.2-2.4,3.8
		c-0.1-7.9-0.6-17.4-1-18.8c-1.1-3.6-3.3,8.9-4.1,15c-0.2,1.4-3.6-7.9-3.7-6.3c-0.7,6.7,2.2,25.4,2.5,31.4
		c0.6,14.6-6.7,51.6-6.7,51.6S206.2,345.6,214.4,345.6z"/>
	<path class="st6" d="M214.5,338.5c4.4,0,9.7,9.5,9.7,9.5s-7.4-30.2-7.6-44.4c-0.1-6.1-1-20.4-2.1-21s-2.7,12.9-2.4,19.9
		c0.6,14.6-7.8,45.3-7.8,45.3S210,338.5,214.5,338.5z"/>
	<path class="st7" d="M214.7,172.6c0,0,11-32.9,11.8-61.9l-8,3.9C219.4,156.8,214.7,172.3,214.7,172.6z"/>
	<path class="st8" d="M76.2,228.1c0,0,19.5-43,139.1-43c116.4,0,134.5,40.9,134.5,40.9s-35.6-25.6-77.8-8.5
		c-21.7,8.8-36.1,23.6-48.3,53.5c-1.1,2.6,2.8-17.5,2.2-23c-0.2-1.9-4.9,13-5,10.7c-1-12.9-2-30.6-5.1-30.6
		c-2.4,0-4.1,18.8-6.6,31.4c-0.2,1.2-4.7-21.3-4.9-20.2c-1.1,4.7,0.8,33.2,0,30.8c-10.1-30.7-35.2-49.5-56.5-55.7
		C105.7,202,76.2,228.1,76.2,228.1z"/>
	<path class="st9" d="M76.2,228.1c0,0,19.5-43,139.1-43c116.4,0,134.5,40.9,134.5,40.9s-31.4-24.5-74.4-9.6
		c-16.8,5.8-28.7,16.2-34.1,23.4c-2.9,3.8-8.6-1.5-6.4-11.7c0.6-2.6-9.4,4.8-9.7,1.8c-1.2-14.3-6.3-26.1-9.1-26.1s-8.5,9.1-9.5,24.3
		c-0.2,4.1-12.5-5.5-13.2-2.1c-1.2,5.3-5,15.4-7.1,13.4c-8.9-9.1-17.4-18.9-38.7-25.1C105.7,202,76.2,228.1,76.2,228.1z"/>
	<path class="st7" d="M176.6,245.5c-17.8-21.4-50.2-26.1-66-21.9c-24.4,6.6-36.7,28-41.7,52.8C57.6,332.2,93.5,429,107.7,441.2
		c0,0,11,2.6,23.1,4.7c-10-23.9-33.7-90.1-1.8-90.1c40.6,0,54.7-19.5,61.1-41.1S195.1,267.8,176.6,245.5z"/>
	<path class="st10" d="M160.7,243.5c-16.3-14.8-42.6-10.4-52.2-6.6c-16.5,6.6-27.3,27.1-30,45.5c-3.4,23.8,1,61,11.7,68.5
		c9.5,6.6,14.6-20.9,37-20.5c19.9,0.4,40.2-9.2,46.7-34.3C179.8,273.7,174.7,256.2,160.7,243.5z"/>
	<path class="st2" d="M134.5,243.5c-15.2-1.4-25.8,5.9-27.7,10.8c-2.8,7.4,3.5,16,22.9,18.1c17.3,1.9,27.3-3.9,27.9-10.3
		S148.2,244.8,134.5,243.5z"/>
	<path class="st11" d="M104.8,204.6c0,0,31.7-19.5,110.2-19.5s112.4,21.2,112.4,21.2s-39.1-13.9-111.7-13.9S104.8,204.6,104.8,204.6
		z"/>
	<path class="st12" d="M110.8,191.7c-1.1,0.4,3-5.4,7.1-9.7c9.1-9.6,22.4-25.2,28-37c4.9-10.1,6.4-23.2,7.1-31.9
		c7.5,0.5,19.9,6.1,33.9,7.7c-0.5,11.5-2.4,40.4,0.1,50.5c1.1,4.4-18.8,4.5-35.7,8.2C133.5,183.5,116.3,189.9,110.8,191.7z"/>
	<path class="st13" d="M283,175.5c-8.7-9.6-14.9-15.6-20.7-27.2c-4.9-10-5-29.6-5.6-41.8c-10.4-0.6-25.5,1.5-33.6,5.6
		c0.5,11.5,2.1,41.6,1,55.9c-0.4,4.5,23,2.4,39.2,6.1C280.5,178.1,286.9,179.9,283,175.5z"/>
	<path class="st13" d="M121.5,182c-1.1,1,30.8-19.4,34.2-42s5-25.4,5-25.4s14.2,4.4,19.6,5.4c-3.9,10.1-6.8,42.1-5.5,46.2
		S129,175,121.5,182z"/>
	<path class="st4" d="M79.4,219.4c0,0,25.7-19.4,71.5-22c-20,5-52.7,12.6-71.5,32.8S79.4,219.4,79.4,219.4z"/>
	<path class="st4" d="M349.8,219.4c0,0-25.7-19.4-71.5-22c20,5,52.7,12.6,71.5,32.8S349.8,219.4,349.8,219.4z"/>
	<path class="st4" d="M220.8,266.3c3.4-19.4,15.4-38.2,29.8-44.5c-8.1,8.4-16.8,17.1-24,41.9c-2,6.7-8,30.1-8.8,30.2
		C215.9,294.3,219.4,274.5,220.8,266.3z"/>
	<path class="st4" d="M212.8,273.8c-0.5-19.7-9.6-39.9-22.9-48c6.8,9.4,14,19.2,17.5,44.7c1,6.9,3.5,30.8,4.3,31.1
		C213.6,302.1,213,282.1,212.8,273.8z"/>
	<path class="st4" d="M130.1,210.8c0,0,27.5,2.4,47.4,19.8c21.3,18.7,28.8,45.2,28.8,45.2s-5.2-29.2-26.9-48.2
		S130.1,210.8,130.1,210.8z"/>
	<path class="st4" d="M299.7,210.7c0,0-26.7,1-47.4,18.5c-21.3,18-29.2,42.7-29.2,42.7s4.5-25.2,25.6-44.2S299.7,210.7,299.7,210.7z
		"/>
	<path class="st14" d="M275.5,384.9c-15.5-9.8-28.5-23.1-37.9-38.9c-15.3-26-12.1-60.5-12.1-60.5s-14,25.8,1.6,59.5
		c2,4.2,4.3,8.3,7.1,12.1c-4.6-5-7.6-8.4-7.6-8.4s-3.8,6.1-8.1,27.3s-1.4,60.4-1.4,60.4c6.2-3.3,13-5,20-5
		c-0.9-47.4,14.2-57.1,14.2-57.1l-1.9-1.8C257.2,378.4,266.1,382.6,275.5,384.9z"/>
	<path class="st14" d="M210.6,376c-4.3-21.2-8.2-27.3-8.2-27.3s-4.6,5.2-11.2,12.1c4-4.8,7.3-10.1,9.9-15.8
		c15.6-33.7,1.6-59.5,1.6-59.5s3.1,34.5-12.1,60.5c-9.4,15.8-22.4,29.1-37.9,38.9c10.6-2.6,20.5-7.6,28.9-14.6
		c-1.4,1.4-2.9,2.7-4.3,4c0,0,14.1,26.5,6.8,72.4c9.4-1.7,18.6-4.3,27.5-7.6C211.7,439.1,214.9,397.2,210.6,376z"/>
	<path class="st15" d="M289.9,362.6l-57.5-45.7c-5.7-4.6-7.6-12.8-3.6-19c4.2-6.5,12.9-8.3,19.4-4c0.3,0.2,0.7,0.5,1,0.7l46.5,37
		c0.9,0.7,2.3,0.6,3.1-0.4l0.1-0.1c0.7-0.9,0.6-2.3-0.4-3.1l-63.1-50.1c-5.7-4.6-7.6-12.8-3.6-19c4.2-6.5,12.9-8.3,19.4-4
		c0.3,0.2,0.7,0.5,1,0.7l57.7,45.9c0.9,0.7,2.3,0.6,3-0.3l0.1-0.1c0.8-0.9,0.6-2.3-0.3-3l0,0l-68-54.1c-5.7-4.6-7.6-12.8-3.6-19
		c4.2-6.5,12.9-8.3,19.4-4c0.3,0.2,0.6,0.4,1,0.7l70.3,55.9c1,0.7,2.3,0.6,3.1-0.4l0,0c0.7-0.9,0.6-2.3-0.4-3.1l-58.6-46.6
		c-5.7-4.6-7.6-12.8-3.6-19c4.2-6.5,12.9-8.3,19.4-4c0.3,0.2,0.7,0.5,1,0.7l76,60.4l0,0l8.6,6.9c1.1,0.9,2.7,0.7,3.6-0.4
		c0.5-0.6,0.7-1.5,0.5-2.2c-1.2-4.6-3.1-11.2-5.9-18.7l0,0c-15.9-28.2,8.7-40,11.7-33.4c2.2,4.8,26.7,37.5,35.6,57.6
		c13.5,30.6,11.3,64.1-11.1,95.5c-0.8,1.2-1.6,2.4-2.6,3.6l-1,1.2l-1.3,1.7l-2.4,3c-19.8,24.7-55.8,28.8-80.6,9.2L289.9,362.6
		L289.9,362.6z"/>
	
		<linearGradient id="SVGID_00000050653977384716304450000003995732345691059900_" gradientUnits="userSpaceOnUse" x1="1285.4985" y1="191.14" x2="1285.4985" y2="282.16" gradientTransform="matrix(-0.99 0.11 0.11 0.99 1583.17 -67.6)">
		<stop  offset="0" style="stop-color:#EDC3A0"/>
		<stop  offset="0.54" style="stop-color:#EDB280"/>
		<stop  offset="1" style="stop-color:#DE9866"/>
	</linearGradient>
	<path style="fill:url(#SVGID_00000050653977384716304450000003995732345691059900_);" d="M296.9,357.6l-57.5-45.7
		c-5.7-4.6-7.6-12.8-3.6-19c4.2-6.5,12.9-8.3,19.4-4c0.3,0.2,0.7,0.5,1,0.7l46.5,37c0.9,0.7,2.3,0.6,3.1-0.4l0.1-0.1
		c0.7-0.9,0.6-2.3-0.4-3.1l-63.1-50.1c-5.7-4.6-7.6-12.8-3.6-19c4.2-6.5,12.9-8.3,19.4-4c0.3,0.2,0.7,0.5,1,0.7l57.7,45.9
		c0.9,0.7,2.3,0.6,3-0.3l0.1-0.1c0.8-0.9,0.6-2.3-0.3-3l0,0l-68-54.1c-5.7-4.6-7.6-12.8-3.6-19c4.2-6.5,12.9-8.3,19.4-4
		c0.3,0.2,0.6,0.4,1,0.7l70.3,55.9c1,0.7,2.3,0.6,3.1-0.4l0,0c0.7-0.9,0.6-2.3-0.4-3.1l-58.6-46.6c-5.7-4.6-7.6-12.8-3.6-19
		c4.2-6.5,12.9-8.3,19.4-4c0.3,0.2,0.7,0.5,1,0.7l76,60.4l0,0l8.6,6.9c1.1,0.9,2.7,0.7,3.6-0.4c0.5-0.6,0.7-1.5,0.5-2.2
		c-1.2-4.6-3.1-11.2-5.9-18.7l0,0c-15.9-28.2,8.7-40,11.7-33.4c2.2,4.8,26.7,37.5,35.6,57.6c13.5,30.6,11.3,64.1-11.1,95.5
		c-0.8,1.2-1.6,2.4-2.6,3.6l-1,1.2l-1.3,1.7l-2.4,3c-19.8,24.7-55.8,28.8-80.6,9.2L296.9,357.6L296.9,357.6z"/>
	
		<radialGradient id="SVGID_00000170247965649362425010000004320640065954007472_" cx="335.8196" cy="297.1813" r="101.0266" gradientUnits="userSpaceOnUse">
		<stop  offset="0.23" style="stop-color:#EDB280"/>
		<stop  offset="0.8" style="stop-color:#DF9C62"/>
		<stop  offset="1" style="stop-color:#D68957"/>
	</radialGradient>
	<path style="fill:url(#SVGID_00000170247965649362425010000004320640065954007472_);" d="M300.4,353.3l-0.9,1.1l-0.9,1.1l-0.9,1.1
		l-0.9,1.1l0,0L239.3,312l0,0c-0.9-0.7-1.6-1.5-2.3-2.3c-1.5-1.9-2.6-4.2-3.1-6.6s-0.4-4.8,0.4-7.1c0.3-0.8,0.6-1.5,1-2.2
		c0.3-0.5,0.4-0.8,0.4-0.8v-0.1c0,0,0.2-0.3,0.6-0.8c0.5-0.7,1.1-1.3,1.8-1.9c2-1.8,4.5-3,7.1-3.4s5.3-0.1,7.8,1
		c0.8,0.3,1.6,0.8,2.3,1.3l0.8,0.6l0,0l46.5,37h0.1c0.5,0.3,1,0.5,1.6,0.4s1.1-0.4,1.4-0.8l0,0l0.1-0.1l0,0c0.3-0.4,0.5-1,0.5-1.6
		c-0.1-0.6-0.3-1.1-0.8-1.5l0,0l-63-50.1l0,0c-2.7-2.2-4.6-5.3-5.4-8.8c-0.5-2.4-0.3-4.8,0.4-7.1c0.3-1.1,0.8-2.1,1.4-3l0,0
		c0,0,0.2-0.3,0.6-0.8c0.5-0.7,1.1-1.4,1.8-1.9c4-3.6,9.8-4.6,14.8-2.5c0.8,0.3,1.6,0.7,2.3,1.2l0.8,0.6l0,0l57.7,45.9l0,0
		c0.9,0.7,2.2,0.6,3-0.3l0,0l0,0l0,0c0.4-0.4,0.5-1,0.5-1.6c0-0.4-0.2-0.8-0.4-1.1c-0.1-0.2-0.2-0.3-0.4-0.4l0,0l-68-54.1h-0.1
		c-0.9-0.7-1.6-1.5-2.3-2.3c-1.5-1.9-2.6-4.1-3.1-6.5s-0.4-4.8,0.4-7.1c0.3-1.1,0.8-2.1,1.4-3V220l0.6-0.8c0.5-0.7,1.1-1.4,1.8-1.9
		c4-3.7,9.8-4.6,14.8-2.5c0.8,0.3,1.6,0.7,2.3,1.2l0.8,0.6l0,0l70.3,55.9l0,0c0.9,0.7,2.2,0.6,3-0.3h0.1l0,0l0.3-0.2
		c0.6-0.9,0.4-2.1-0.4-2.8l0,0l-57.4-45.7l0,0c-1.4-1.1-2.6-2.4-3.6-3.8c-3.5-4.8-4.3-11.4-1.2-16v-0.1c0,0,0.2-0.3,0.6-0.8
		c0.5-0.7,1.1-1.4,1.8-1.9c2-1.8,4.5-2.9,7.2-3.3c2.8-0.4,5.6,0.1,8.2,1.2c0.9,0.4,1.7,0.8,2.5,1.4l0.9,0.6l0,0l75.1,59.7l0,0
		c1.7,1.3,3.3,2.6,5,4c1.2,1,2.4,1.9,3.6,2.8l0,0c0.5,0.4,1.2,0.6,1.8,0.6c0.7-0.1,1.3-0.4,1.7-0.9c0.5-0.6,0.8-1.4,0.6-2.2v-0.1
		c0,0-1.2-4.7-2.7-9.4s-3.2-9.2-3.2-9.2V246c0,0-0.2-0.4-0.6-1.2c-0.6-1-1.1-2.1-1.6-3.2c-1.5-3.3-2.5-6.8-3-10.4
		c-0.5-3.6,0-7.3,1.4-10.7c0.4-1.1,1-2.2,1.7-3.2l0.8-1.1c0.4-0.6,0.9-1.1,1.5-1.6c1.2-1.1,2.5-2.1,3.9-2.8c1.4-0.8,3-1.1,4.7-1.1
		c0.5,0,1.1,0.2,1.6,0.4l0.5,0.3c0,0,0.2,0.2,0.5,0.4c0.1,0.2,0.2,0.3,0.3,0.5v0.1c0.1,0.3,0.3,0.6,0.5,0.9
		c12,18.7,25.6,36.6,35.1,56.7v0.1l1.6,4c0.6,1.3,1.1,2.8,1.7,4.7c0.3,0.9,0.6,1.9,1,2.9s0.6,2.1,0.9,3.3c3,11.2,3.9,22.9,2.5,34.4
		c-1.5,11.5-5,22.6-10.4,32.9c-1,2.1-2.2,3.9-3.2,5.6s-1.9,3.1-2.7,4.2c-1.5,2.3-2.4,3.6-2.4,3.6l0,0l-2.5,3.5l0,0l-0.9,1.2l0,0
		L414,372l0,0l-2.4,3l0,0l-2.6,2.9l-1.3,1.5l-1.8,1.6c-1.4,1.3-2.8,2.6-4.4,3.7l-2.6,2c-1,0.6-2,1.2-3,1.8
		c-6.9,4.2-14.7,6.8-22.7,7.7c-5.5,0.5-11,0.4-16.5-0.5c-2.5-0.5-4.9-1.1-7.4-1.9L346,393l-3-1.3c-1.8-0.7-3.5-1.6-5.1-2.6l-2.1-1.2
		c-0.6-0.4-1.2-0.8-1.7-1.2l-3.1-2.3l0,0l-34-26.9l0,0l0.9-1.1l0.9-1.1l0.9-1.1l0.9-1.1l0,0l30.3,24.1l0,0l2.4,1.6
		c0.4,0.3,0.8,0.5,1.2,0.9l1.6,0.8c1.2,0.7,2.5,1.3,3.8,1.8l2.3,0.8l2.5,0.6c1.8,0.4,3.7,0.7,5.6,0.8c4.3,0.1,8.5-0.3,12.7-1.3
		c4.4-1.3,8.6-3,12.6-5.2c1.9-1.3,3.9-2.2,5.5-3.6c0.9-0.6,1.7-1.3,2.5-1.8s1.5-1.3,2.2-1.9c1.3-1.1,2.6-2.3,3.7-3.5
		c0.5-0.5,1-1.1,1.5-1.5l1.2-1.4c1.4-1.7,2.3-2.6,2.3-2.6l0,0l2.4-3l0,0l1.3-1.6l0,0l0.9-1.2l0,0l2.3-3.2h0.1c0,0,0.8-1.3,2.4-3.5
		c0.8-1.1,1.7-2.4,2.6-4s2.1-3.2,3.2-5.2c4.6-7.6,9.8-18.2,12.3-29c2.4-9.6,2.9-19.5,1.4-29.3c-0.1-1-0.3-1.9-0.4-2.8
		s-0.4-1.7-0.6-2.5c-0.3-1.5-0.7-2.9-1-4c-0.7-2.2-1.1-3.4-1.1-3.4l0,0c-3.1-8.5-7.9-17-12.9-25.6S396,226,390,216.6l0,0
		c0,0-0.5,0.2-1,0.4c-0.9,0.5-1.7,1.1-2.5,1.8c-0.4,0.3-0.7,0.7-1,1.1l-0.5,0.8c-0.5,0.7-0.8,1.4-1.1,2.2c-1,2.5-1.4,5.3-1,7.9
		c0.4,3,1.2,6,2.5,8.7c1.1,2.5,1.9,3.7,2.2,4.5v0.1c0.2,0.5,1.9,5,4.3,11.7c0.9,2.6,2.1,6,3.1,8.9s1.8,5.5,1.9,7.2
		c0,3.2-0.6,3.8-0.6,3.9l0,0c-0.2,0.4-0.4,0.8-0.7,1.2c-0.3,0.5-0.7,0.9-1.1,1.2c0,0-1.1,1-2.2,2.3c-0.5,0.6-1,1.3-1.4,1.6
		s-0.5,0.6-0.6,0.6h-0.1c-1.8,1.5-4.4,3.8-9.6,2.1c-15.9-9.5-18.6-22.2-21.5-24.6c0,0-0.1,0,0,0L296,204.7l0,0
		c-1.8-1.5-4.1-2.1-6.4-1.7c-1.6,0.3-3,0.9-4.2,2c-0.5,0.5-1,1-1.4,1.7l0,0c-0.9,1.4-1.3,3-1.1,4.6c0,0.5,0.1,1.1,0.3,1.6
		c0.3,0.7,0.6,1.5,0.8,2.2c0,0.3,0.7,0.9,1.3,1.5l1.7,1.7c0.3,0.3,0.6,0.6,0.9,0.9c0.1,0.1,0.3,0.3,0.4,0.4s0.1,0.1,0.2,0.2
		s0.4,0.3,0.6,0.5c2,1.6,4,3.2,6,4.8s4.1,3.2,6.1,4.9l3.5,2.8c2.8,2.3,5.6,4.6,8.4,7c11.2,9.3,22.6,18.7,33.3,27.6
		c1,0.8,0.6,0.6,0.7,0.8c0,0.1,0,0.2,0,0.3c0,0.2,0,0.4,0,0.6c0,0.4,0,0.8,0,1.2c0,0.8,0,1.6,0,2.4c0.2,2-0.5,2.1-0.9,3
		c-0.3,0.3-0.5,0.7-0.8,1s-0.4,0.3-0.6,0.5c-0.4,0.2-0.9,0.7-0.9,0.6s-0.4,0.2-0.3,0.2l0.2-0.1l0,0l3.6-3.9l0,0
		c-0.3,0.6-0.6,1.2-1,1.8c-0.1,0.1-0.1,0.1-0.2,0.2l0,0v0.1c-0.4,0.4-0.8,0.8-1.2,1.1c-0.6,0.4-0.6,0.5-0.6,0.4l0,0l-79.1-56.4l0,0
		c-0.6-0.4-1.2-0.8-1.9-1.1c-1.5-0.6-3.1-0.8-4.7-0.6c-1.6,0.3-3.1,1-4.2,2.1c-0.6,0.5-1.1,1-1.6,1.6l0,0c-0.3,0.5-0.6,1.1-0.8,1.7
		c-0.4,1.4-0.5,2.9-0.2,4.3c0.3,1.5,1,2.9,2,4.1c0.4,0.5,0.9,1,1.5,1.5l0,0l68.1,54.1l0.2,0.1c0.5,0.4,0.9,0.9,1.2,1.4
		c0.8,1.1,1.3,2.4,1.4,3.8s-0.1,2.8-0.7,4c-0.2,0.4-0.4,0.8-0.7,1.2c-0.1,0.1-0.2,0.2-0.3,0.3l0,0h-0.1l-0.1,0.1
		c-0.4,0.5-0.8,0.9-1.3,1.2c-1.1,0.8-2.4,1.3-3.8,1.4s-2.7-0.1-4-0.7c-0.3-0.1-0.6-0.3-0.8-0.4l-0.4-0.3l-0.1-0.1l-0.3-0.2
		L256,254.8l0,0c-0.6-0.4-1.2-0.8-1.9-1.1c-3-1.3-6.6-0.7-9,1.5c-0.5,0.5-1,1-1.4,1.6l0,0c-0.3,0.5-0.6,1.1-0.8,1.7
		c-0.4,1.4-0.5,2.9-0.2,4.3c0.3,1.5,1,2.9,2,4.1c0.4,0.6,0.9,1.1,1.5,1.5l0,0l67.3,55.7l0,0c-0.1,0.3-0.2,0.5-0.3,0.8
		c-0.2,0.5-0.5,1-0.9,1.4v0.1l-0.1,0.2l-0.1,0.1c0,0-2.9,3.7-4.5,5.6c-0.3,0.4-0.7,0.8-1.1,1.2l0,0l4-5.5l0,0v-0.1v-0.1
		c0,0.1,0,0.1,0,0.2s-0.1,0.2-0.1,0.2c-0.1,0.1-0.3,0.4-0.6,0.7c-2,3.2-2.1,3.5-2.7,3.9l-2.8,1.3l-0.7,0.3c-0.1,0-0.2,0.1-0.4,0.2
		l-0.2,0.1h-0.1c0,0,0,0.1-0.3-0.2c-3.7-2.8-7.4-5.7-11.1-8.6s-7.5-5.9-11.3-8.9l-5.7-4.5l-2.9-2.3l-1.4-1.1l-0.7-0.6
		c-3.7-3.2-7.4-6.5-11.2-9.8c-0.9-0.8-1.9-1.6-2.9-2.5c-0.2-0.2-0.4-0.4-0.7-0.6c-0.1-0.1-0.2-0.1-0.2-0.2c-0.1-0.1-0.3-0.2-0.5-0.3
		c-0.6-0.4-1.3-0.9-2-1.3s-1.3-0.9-2-1.3l-0.5-0.3c-0.1,0-0.2,0-0.3,0h-0.6c-0.7,0-1.5-0.1-2.2-0.1c-0.9,0.1-1.8,0.4-2.6,0.8
		c-0.6,0.3-1.3,0.8-1.8,1.2c-0.5,0.5-1,1-1.4,1.6l0,0c-0.3,0.5-0.6,1.1-0.8,1.7c-0.4,1.4-0.5,2.9-0.2,4.3c0.3,1.5,1,2.9,2,4.1
		c0.4,0.5,0.9,1,1.5,1.5l0,0l57.5,45.7L300.4,353.3z"/>
	<path class="st18" d="M350.4,172.1l31.2-60.1c0.9-1.8,3.1-2.5,4.9-1.8l0,0c1.9,0.8,2.8,3.1,2,5c-0.1,0.2-0.2,0.4-0.3,0.6
		L350.4,172.1z"/>
	<path class="st18" d="M314.4,176.8l-44.6-51c-1.3-1.5-1.2-3.8,0.2-5.2l0,0c1.5-1.5,3.9-1.5,5.4,0c0.2,0.2,0.3,0.3,0.5,0.5
		L314.4,176.8z"/>
	<path class="st18" d="M375.9,197l68.3-3c2-0.1,3.8,1.4,4,3.4l0,0c0.2,2.1-1.3,4-3.4,4.3c-0.2,0-0.5,0-0.7,0L375.9,197z"/>
	<path class="st18" d="M358.9,186.9l76.2-52.4c2.3-1.6,5.3-1.1,7.1,1.1l0,0c1.8,2.3,1.4,5.6-0.8,7.3c-0.2,0.2-0.5,0.4-0.8,0.5
		L358.9,186.9z"/>
	<path class="st18" d="M328.3,170.5l-2.7-95.1c-0.1-2.8,2-5.2,4.8-5.5l0,0c3-0.3,5.6,1.9,5.9,4.8c0,0.3,0,0.7,0,1L328.3,170.5z"/>
	<path class="st18" d="M296.1,179.6L223,159.1c-2.2-0.6-3.5-2.8-3.1-5l0,0c0.5-2.3,2.7-3.8,5.1-3.3c0.3,0.1,0.5,0.1,0.8,0.2
		L296.1,179.6z"/>
</g>
</svg>
