<?xml version="1.0" encoding="utf-8"?>
<!-- Generator: Adobe Illustrator 26.0.1, SVG Export Plug-In . SVG Version: 6.00 Build 0)  -->
<svg version="1.1" id="Layer_1_copy" xmlns="http://www.w3.org/2000/svg" xmlns:xlink="http://www.w3.org/1999/xlink" x="0px"
	 y="0px" width="512px" height="512px" viewBox="0 0 512 512" style="enable-background:new 0 0 512 512;" xml:space="preserve">
<style type="text/css">
	.st0{fill:#FFFFFF;}
	.st1{fill:#FFDCA9;}
	.st2{fill:#F47F00;}
	.st3{fill:#FFBC00;}
	.st4{fill:#FF8E00;}
	.st5{fill:#FFA300;}
	.st6{fill:#822717;}
	.st7{fill:#AC7436;}
	.st8{fill:#FF7BBD;}
	.st9{opacity:0.68;fill:#FF3BB0;enable-background:new    ;}
	.st10{opacity:0.68;}
	.st11{fill:#FF61BF;}
	.st12{fill:#FF4AC8;}
	.st13{fill:#A9692D;}
	.st14{fill:#45DB48;}
	.st15{fill:#72C1DD;}
	.st16{fill:#FFF200;}
	.st17{fill:#F7941D;}
	.st18{fill:#DD76A8;}
	.st19{fill:#BE1E2D;}
	.st20{fill:#EDC27E;}
</style>
<g>
	<path class="st0" d="M176.3,67.2c-9.8,0-19.3,3.4-27,9.5c-0.1,0.1-0.1,0.1-0.2,0.2C86,89,41.3,133.9,44.1,183.6
		c0,0.7,0.1,1.5,0.2,2.2l0.5,3.6c-0.1,3.1-0.1,6.2,0,9.3c1.2,21.5,9.9,41.7,25.3,58.2c7.5,8.1,16.4,15.1,26.4,20.9
		c-1.1,1.6-2,3.3-3,4.9c0,0.1-0.1,0.1-0.1,0.2c-8.9,16.3-11.3,35-6.9,54c4.9,21,18.2,43,39.5,65.3l0.1,0.1
		c5.5,5.7,12.9,8.8,20.8,8.8c9.7,0,18.6-4.7,24-12.5c2.2-3.3,3.7-6.9,4.4-10.8c0.9,0.1,1.8,0.1,2.6,0.1c5,0,9.8-1.2,14-3.4
		c3.1,3.2,6.3,6.4,9.5,9.4l0.4,0.4c0,0,0,0,0.1,0.1l1,1c0.3,0.3,0.5,0.5,0.8,0.8l1,0.9c0,0,0,0,0.1,0.1l0.9,0.8
		c0.1,0.1,0.3,0.3,0.4,0.4l0.9,0.8l1.5,1.3c0.1,0.1,0.1,0.1,0.2,0.2l0.9,0.8l0.9,0.8c0.2,0.2,0.5,0.4,0.7,0.6l0.8,0.6l0.7,0.6
		c0.6,0.5,1.1,0.9,1.7,1.4c0.1,0.1,0.2,0.1,0.3,0.2l0.9,0.7l0.8,0.6l0.1,0.1l0.8,0.7l0.9,0.7c0.1,0.1,0.1,0.1,0.2,0.2l1.3,1
		c0.2,0.1,0.3,0.3,0.5,0.4l0.5,0.3c1.1,0.9,2.2,1.7,3.3,2.5l0.4,0.3c0.2,0.2,0.4,0.3,0.6,0.5l1,0.7c0,0,0.1,0,0.1,0.1l0.7,0.5
		l0.7,0.5c0.1,0,0.1,0.1,0.2,0.1l0.6,0.4l0.9,0.7c0.1,0.1,0.2,0.2,0.4,0.3l0.8,0.5l0.7,0.5c0.1,0.1,0.2,0.1,0.2,0.2l0.6,0.4
		c0.1,0,0.1,0.1,0.2,0.1l0.6,0.4l0.4,0.3c0.1,0,0.1,0.1,0.2,0.1l1.1,0.7c0.1,0.1,0.2,0.1,0.3,0.2l0.4,0.2l0.5,0.3
		c0.2,0.1,0.4,0.3,0.6,0.4l0.2,0.1c0.4,0.2,0.7,0.4,0.9,0.5h0.1l0.3,0.2c0.1,0.1,0.2,0.1,0.3,0.2l0.6,0.4l0.4,0.2
		c0.1,0,0.1,0.1,0.2,0.1l0.5,0.3l0.2,0.1c0.1,0.1,0.2,0.1,0.3,0.2l0.7,0.4c0.1,0.1,0.2,0.1,0.3,0.2l0.2,0.1l0.4,0.2
		c0.1,0.1,0.2,0.1,0.3,0.2l0.1,0.1l0.4,0.2c0.1,0,0.2,0.1,0.3,0.1h0.1l0.3,0.2c0.1,0.1,0.3,0.2,0.4,0.2c0.3,0.2,0.6,0.3,0.9,0.5
		l0.3,0.1c0.2,0.1,0.4,0.2,0.6,0.3c34.1,18.8,66,28.4,94.8,28.4c26,0,46.2-8.2,57.5-16.6c2.2,0.1,4.6,0.2,7.2,0.2
		c21.6,0,40.8-5.9,55.6-17.1c5.3-3.7,9.1-9.2,10.8-15.7c1.8-7,1-14.9-2.5-24.2c-1.9-5-4.6-10.4-7.3-14.8
		c-3.2-5.1-10.8-16.9-24.5-22.6c-4.1-1.7-8.3-2.5-12.4-2.5c-6.6,0-12.6,2.1-17.5,5.9c-4,2.7-7,6.7-8.6,11.5
		c-0.6,1.4-1.7,2.9-2.6,3.9c-0.6-0.6-1.3-1.1-1.9-1.6c-3.2-2.6-7.8-6.1-13.6-10.4c-22.5-16.8-67.3-50.2-89-82.8
		c12.3,1.7,27.3,7,43.9,15.6c4,2.1,8.6,3.2,13.1,3.2c10.1,0,19.5-5.4,24.7-14.2c5.2-8.9,5.3-19.6,0.3-28.6
		c-5.7-10.2-15.6-25-30.4-37.1c-0.3-0.3-0.7-0.5-1-0.8c3.4-9.4,1.6-19.7-4.8-27.6c-10.4-12.7-22.2-21.9-35.3-27.5
		c-4.2-20-16.3-38.1-34.8-51.9c-17.8-13.2-41.1-21.9-66.2-24.7C193.6,69.9,185.1,67.2,176.3,67.2L176.3,67.2z"/>
	<path class="st1" d="M161.9,251.4c0,0,68.8-16.4,70.6-14.5s10.1,63.6,10.1,63.6l-32.9,15.8L161.9,251.4z"/>
	<path class="st2" d="M136.5,339.3c11.5,9,23.5,19.3,39.6,24.4c4.2,1.3,8.5-1.7,6.7-4.6c-5.9-9.6-27.6-66.1,14.3-81.6
		c-1.4-1.6-26.7,1-27.4,0.1C135.2,286.5,133.5,322.5,136.5,339.3z"/>
	<path class="st2" d="M226.3,295.9c0,0,2.8-34.2,28.7-46.5c1.2,2.5,2.5,7.1,3.8,9.7C250.2,264.3,231.7,277.1,226.3,295.9z"/>
	<path class="st2" d="M227.8,182.1L227.8,182.1c0,0,51-36.6,90.8,12c2.7,3.4-0.4,8.4-4.5,7.2c-15.8-4.8-42.1-8.2-56.3,15.1
		c-5.5,1.4-11,3.2-16.2,5.4C236.2,208.8,231.6,195.6,227.8,182.1z"/>
	<path class="st3" d="M237.8,221.5c1.9-1.6,3.9-3,6-4.3c5.7-2.4,11.6-4.3,17.6-5.8c51.4-12.2,79.4,23.9,90.9,44.6
		c2.3,4.1-2,8.7-6.1,6.6c-42.7-22-70.2-22.1-87.8-13.9c-28.1,13.1-32.2,46.2-32.2,46.2C201,256.3,225.8,231.3,237.8,221.5z"/>
	<path class="st2" d="M151.9,267.1c-11.7,7.1-21,17.6-26.8,30.1c-0.6-31.4,22.2-48.7,22.2-48.7l0,0
		C148.7,254.9,150.2,261.1,151.9,267.1L151.9,267.1z"/>
	<path class="st4" d="M105.2,225.7c14.1-8.8,27-11.6,38.5-10.9c0.1,9.3,1,18.7,2.6,27.9c0.4,1.9,0.7,3.9,1.1,5.8
		c0.1,0.6,0.2,1.2,0.4,1.8c-10.8-12.6-28.3-15.8-40.5-16.3C103,233.8,101.6,228,105.2,225.7z"/>
	<path class="st3" d="M167.5,289.9c7.2-6.1,16.8-10.5,29.6-12.4l29.2,18.4c5.4-18.8,23.9-31.7,32.5-36.8c1.8,3.6,3.8,7.4,5.9,11.3
		c25.4,48.4,97.8,96.3,114.1,109.7c7,5.8,22.9,21.6,7.2,37c0,0-39.7,38.1-129.8-12.1c0,0-45.6-23.5-79.3-79.9
		c-5.7-9.5-10.7-19.4-15-29.7C163.6,293.5,165.5,291.6,167.5,289.9z"/>
	<path class="st5" d="M167.5,289.9c7.2-6.1,16.8-10.5,29.6-12.4l4.1,2.6c33.8,69.4,88.9,97.8,88.9,97.8c46.7,26,78.9,33.9,99.1,35.4
		c-0.4,0.7-0.9,1.3-1.5,1.9l-0.1,0.1c-0.2,0.3-0.4,0.5-0.7,0.8l-0.2,0.2c-0.3,0.3-0.6,0.6-0.9,0.9c0,0-39.7,38.1-129.8-12.1l0,0l0,0
		l0-0.1h-0.1l-0.3-0.1l-0.1-0.1l-0.3-0.1l-0.1-0.1l-0.4-0.2l-0.2-0.1L254,404l-0.2-0.1l-0.4-0.2l-0.3-0.2l-0.7-0.4l-0.3-0.2
		l-0.5-0.3l-0.4-0.2l-0.6-0.4l-0.4-0.3c-0.3-0.2-0.6-0.3-0.8-0.5l-0.5-0.3l-0.6-0.4l-0.5-0.3l-1.1-0.7l-0.5-0.4l-0.7-0.5l-0.6-0.4
		l-0.7-0.5l-0.8-0.5l-1-0.7l-0.7-0.5l-0.8-0.5l-0.7-0.5l-1-0.7l-1-0.8l-0.8-0.6l-0.8-0.6c-0.3-0.2-0.6-0.4-0.8-0.6l-1-0.7l-1.3-1
		l-0.9-0.7l-0.9-0.7l-0.9-0.7l-1-0.8c-0.5-0.4-0.9-0.8-1.4-1.2l-0.9-0.8l-1-0.8l-0.9-0.8l-0.9-0.8l-1.6-1.4l-1-0.9l-0.9-0.8l-1-0.9
		l-1-1l-1.5-1.5l-1-1l-1-1l-1-1l-1-1l-1.7-1.7c-0.3-0.3-0.7-0.7-1-1s-0.7-0.7-1-1l-1-1.1l-1.1-1.2l-1.6-1.7
		c-0.4-0.4-0.8-0.8-1.1-1.2L204,362l-1-1.2l-1-1.2c-0.6-0.7-1.2-1.4-1.8-2.1l-1-1.1l-1.1-1.3l-1-1.2l-1.1-1.4
		c-0.5-0.6-0.9-1.2-1.4-1.8l-1.4-1.7l-1-1.3l-1.1-1.4l-1-1.3c-0.6-0.8-1.2-1.6-1.8-2.5l-0.9-1.2c-0.4-0.5-0.8-1.1-1.1-1.6l-0.9-1.4
		l-1.2-1.7l-1-1.6c-0.5-0.8-1-1.6-1.6-2.4c-0.3-0.5-0.6-0.9-0.9-1.4l-1.1-1.8c-0.3-0.5-0.6-0.9-0.9-1.4l-1.8-2.9l0,0
		c-0.5-0.8-1-1.6-1.4-2.4l-0.7-1.1l-1.4-2.4c-0.2-0.4-0.4-0.8-0.6-1.2c-0.5-0.9-0.9-1.7-1.4-2.6c-0.2-0.4-0.4-0.7-0.6-1
		c-0.5-0.9-1-1.9-1.5-2.8l-0.4-0.9c-0.5-1-1-2-1.5-3c-0.1-0.2-0.2-0.5-0.3-0.7c-0.5-1.1-1-2.2-1.6-3.3l-0.2-0.5
		c-0.5-1.2-1.1-2.3-1.6-3.5l-0.1-0.3c-0.6-1.3-1.1-2.5-1.6-3.8C163.6,293.5,165.5,291.6,167.5,289.9z"/>
	<path class="st3" d="M114.7,294.5c6.3-11.3,16.6-20.9,29.6-27.4h42.5l39.6,28.8c0,0-27.2-15.2-30.2-19.4c-4.4,1.9-23.6,2-34.7,11.4
		c-2.2,1.6-4.3,3.3-6.1,5.1c-14.1,14-16,34.3-13.1,53.7c1.9,11.9,5.1,23.7,9.6,35.1c1.6,4.3-4.8,7.3-8.1,3.8
		C103.3,343.7,104.1,313.8,114.7,294.5z"/>
	<path class="st2" d="M166.5,288.9c7.2-6.1,16.8-10.5,29.6-12.4l5.1,3.6l0,0l25.1,15.8l-20.9-9.6l-12.6-5.5c0,0-23.5,8.6-29.9,35.6
		c0,0-10.5-11.4-11-12.7C153.6,301.7,164.5,290.6,166.5,288.9z"/>
	<path class="st3" d="M420.9,367.9c0,0-11.2,29.9-39.2,17.6l7.2,27.6c0,0,33.8,7.4,57.9-11.2L420.9,367.9z"/>
	<path class="st6" d="M420.5,373.4c0.9,6,1.9,14.1,7.1,19.3s14.8,11.7,19.1,9.3c4.4-2.4-1.4-15.7-5.5-22.1
		c-2.4-3.8-6.9-10.6-13.4-13.2C421.4,364,419.3,368.8,420.5,373.4z"/>
	<path class="st7" d="M262.9,205.1c-5.8,7.6-11.1,7.7-19.5,21.3c-3.6,5.9-11,3.4-18.2,6.6c-2.8,1.2-8.1,11.6-11,12.7
		c-7.2,2.6-11.4-3.5-19.4-2.1c-4.5,0.8-12.2,4.7-16.9,5.1c-6.2,0.5-11.7-2.1-17.6-2.4c-7.4-0.3-15,0.1-22.2,0.2
		c-14.8,0.3-16.3-7.3-23.5-10.3c-9.2-3.9-20.6-3.5-23.8-11.3C81.1,201.8,72,199.1,69,188.4c-0.2,3-0.3,6-0.1,8.9
		c2.5,45.9,51.9,79.2,110.3,74.3s103.6-46.1,101.1-92c-0.1-2.9-0.5-5.7-1-8.6C277.8,183.2,270.9,194.5,262.9,205.1z"/>
	<path class="st8" d="M169.6,98.3c-58.3,4.9-103.8,42.5-101.5,84c0.9,16.5,11.4,15.6,22.7,42.5c3.3,7.9,14.7,7.5,23.8,11.3
		c7.2,3,8.7,10.7,23.5,10.3c7.1-0.2,14.8-0.5,22.2-0.2c6,0.2,11.4,2.9,17.6,2.4c4.7-0.4,12.4-4.3,16.9-5.1c8-1.4,12.1,4.6,19.4,2.1
		c2.9-1,8.2-11.5,11-12.7c7.3-3.2,14.6-0.7,18.2-6.6c8.3-13.6,13.6-13.6,19.5-21.3c9.5-12.4,17.3-25.9,16.5-40.5
		C277.1,123.1,227.9,93.4,169.6,98.3z M173.8,193.7c-19.8,1.6-36.5-8.1-37.2-21.9s14.7-26.2,34.5-27.9s36.5,8.1,37.2,21.9
		S193.6,192,173.8,193.7z"/>
	<path class="st9" d="M216.4,158.6c-25-17.8-65.1-3.5-79.8,15.9c-1.4,2.3-2.3,4.9-2.7,7.6l0,0c0,0.7,0,1.4,0.1,2.1
		c0.3,3.6,1.6,7,3.8,9.9c2.2,2.6,4.9,4.7,7.9,6.2c6.6,3.3,14,4.4,21.2,4.9s14.3,0.6,21.2-1.3c9.6-2.7,18.2-8.3,24.5-16.1
		c1.5-1.9,2.9-4,4-6.2c1.3-2.4,2.1-5.1,2.4-7.9c0.1-2.6-0.2-5.2-1-7.6C217.2,163.5,219.1,160.3,216.4,158.6z"/>
	<g class="st10">
		<path class="st11" d="M189,150.4c9.8,0,19.4,2.4,27.4,8.1c2.8,1.8,0.8,5,1.5,7.4c0.8,2.5,1.1,5,1,7.6c-0.3,2.8-1.1,5.4-2.4,7.9
			c-1.1,2.2-2.5,4.3-4,6.2c-9.2,11.5-23.1,18-37.8,17.7c-2.6,0-5.3-0.1-7.9-0.3c-7.1-0.5-14.6-1.6-21.2-4.9
			c-3.1-1.5-5.8-3.6-7.9-6.2c-2.2-2.8-3.5-6.3-3.8-9.8c-0.1-0.7-0.1-1.4-0.1-2.1l0,0c0.4-2.7,1.3-5.3,2.7-7.6
			C146.5,161.3,168.2,150.4,189,150.4 M189,144.4c-21.6,0-45.6,11.1-57.2,26.4l-0.3,0.4l-0.2,0.4c-1.6,2.8-2.8,5.8-3.3,9l0,0l0,0
			c0,0.2-0.1,0.4-0.1,0.6l0,0v0.4v0.4c0,1,0,1.9,0.1,2.6c0.4,4.7,2.2,9.3,5.1,13c2.7,3.3,6.1,6,9.9,7.8c8.1,4.1,16.8,5.1,23.5,5.6
			c3.3,0.2,5.8,0.3,8.3,0.3c16.5,0.3,32.2-7.1,42.5-20c1.8-2.3,3.3-4.7,4.6-7.3c3.3-6,4-13.1,1.9-19.6c0-0.2,0-0.6,0.1-0.9
			c0.2-2.1,0.7-7-4.1-10.1C211.3,147.5,200.7,144.4,189,144.4L189,144.4z"/>
	</g>
	<g class="st10">
		<path class="st12" d="M189,150.4c9.8,0,19.4,2.4,27.4,8.1c2.8,1.8,0.8,5,1.5,7.4c0.8,2.5,1.1,5,1,7.6c-0.3,2.8-1.1,5.4-2.4,7.9
			c-1.1,2.2-2.5,4.3-4,6.2c-9.2,11.5-23.1,18-37.8,17.7c-2.6,0-5.3-0.1-7.9-0.3c-7.1-0.5-14.6-1.6-21.2-4.9
			c-3.1-1.5-5.8-3.6-7.9-6.2c-2.2-2.8-3.5-6.3-3.8-9.8c-0.1-0.7-0.1-1.4-0.1-2.1l0,0c0.4-2.7,1.3-5.3,2.7-7.6
			C146.5,161.3,168.2,150.4,189,150.4 M189,147.4c-20.7,0-43.7,10.6-54.8,25.2l-0.1,0.2L134,173c-1.6,2.6-2.6,5.5-3.1,8.6v0.1v0.2
			v0.2c0,0.9,0,1.7,0.1,2.4c0.3,4.2,1.9,8.1,4.5,11.4c2.4,3,5.5,5.4,8.9,7c7.6,3.8,15.9,4.8,22.3,5.3c3.2,0.2,5.7,0.3,8.1,0.3
			c15.6,0.3,30.5-6.7,40.2-18.9c1.7-2.1,3.1-4.4,4.3-6.8c1.5-2.8,2.4-5.9,2.7-9c0.1-2.9-0.2-5.9-1.1-8.7c-0.1-0.6-0.1-1.1,0-1.7
			c0.2-1.8,0.5-5.2-2.8-7.4C210,150.4,200,147.4,189,147.4L189,147.4z"/>
	</g>
	<path class="st13" d="M171,143.9c-19.8,1.7-35.2,14.1-34.5,27.9c0.2,3.4,1.3,6.6,3.3,9.4l0,0c0,0,0.2-15.7,32.2-20.9
		c17.7-2.8,28.8,4.8,35.3,12.1c0.7-2.1,1-4.4,0.9-6.6C207.5,152,190.8,142.2,171,143.9z"/>
	<path class="st0" d="M157.1,114.1l-2.4,0.7c-0.5,0.2-1-0.1-1.2-0.5l-3-8.5c-0.1-0.5,0.2-1,0.6-1.1l0,0l2.4-0.7
		c0.5-0.2,1,0.1,1.2,0.5l3,8.5C157.9,113.4,157.6,113.9,157.1,114.1L157.1,114.1z"/>
	<path class="st0" d="M252.6,129.4l0.5,2.1c0.1,0.5-0.3,1-0.8,1.1l-10.2,2.2c-0.5,0.1-1-0.1-1.2-0.6l-0.5-2.1
		c-0.1-0.5,0.3-1,0.8-1.1l10.2-2.2C252,128.7,252.5,128.9,252.6,129.4z"/>
	<path class="st0" d="M221.4,227.4h-2.6c-0.5,0.1-0.9-0.3-1-0.8c0,0,0,0,0-0.1l0.4-9c0.1-0.5,0.5-0.9,1-0.9h2.6
		c0.5-0.1,0.9,0.3,1,0.8v0.1l-0.4,9C222.3,227,221.9,227.4,221.4,227.4z"/>
	<path class="st0" d="M132.6,201.2l-2.3-0.9c-0.4-0.1-0.6-0.6-0.5-1c0,0,0-0.1,0.1-0.1l4.8-8.2c0.3-0.5,0.9-0.6,1.4-0.4l2.3,0.9
		c0.4,0.1,0.6,0.6,0.5,1c0,0,0,0.1-0.1,0.1l-4.7,8.2C133.7,201.3,133.1,201.5,132.6,201.2z"/>
	<path class="st0" d="M85.4,205.6l-1.6-1.7c-0.3-0.3-0.3-0.8,0-1.1l0.1-0.1l8.2-5.9c0.4-0.3,1-0.3,1.4,0.1l1.6,1.7
		c0.3,0.3,0.3,0.8,0,1.1l-0.1,0.1l-8.2,5.9C86.4,206,85.8,206,85.4,205.6z"/>
	<path class="st14" d="M231.9,149.4l-2.3,1c-0.5,0.3-1.1,0.1-1.3-0.4l-4.4-8c-0.2-0.4,0-0.9,0.4-1.1h0.1l2.3-1
		c0.5-0.2,1-0.1,1.3,0.4l4.4,8C232.6,148.6,232.4,149.1,231.9,149.4C232,149.3,231.9,149.4,231.9,149.4z"/>
	<path class="st14" d="M102.5,139.9l-2.3-0.9c-0.4-0.1-0.6-0.6-0.5-1c0-0.1,0-0.1,0.1-0.2l4.8-8.2c0.3-0.5,0.9-0.6,1.3-0.4l2.3,0.9
		c0.4,0.1,0.6,0.6,0.5,1c0,0.1,0,0.1-0.1,0.2l-4.8,8.2C103.5,139.9,103,140.1,102.5,139.9z"/>
	<path class="st14" d="M125.7,186.2l-3.1,0.3c-0.5,0-0.8-0.4-0.8-0.9l0,0l-0.5-8.9c-0.1-0.5,0.2-0.9,0.7-1l3.1-0.3
		c0.5,0,0.8,0.4,0.8,0.9l0,0l0.5,8.9C126.5,185.7,126.2,186.1,125.7,186.2z"/>
	<path class="st15" d="M139,150.5l-1.3,2c-0.3,0.4-0.9,0.6-1.4,0.4l-9-4.2c-0.4-0.2-0.6-0.6-0.4-1c0-0.1,0-0.1,0.1-0.2l1.3-2
		c0.3-0.4,0.9-0.6,1.4-0.4l9,4.2c0.4,0.2,0.6,0.6,0.5,1C139.1,150.4,139,150.5,139,150.5z"/>
	<path class="st15" d="M102.7,216.7l-2-1.3c-0.4-0.2-0.5-0.7-0.3-1.1l0.1-0.1l6.5-7.3c0.4-0.4,1-0.5,1.4-0.2l2,1.3
		c0.4,0.2,0.5,0.7,0.3,1.1c0,0.1-0.1,0.1-0.1,0.2l-6.5,7.3C103.7,216.9,103.1,217,102.7,216.7z"/>
	<path class="st15" d="M267,156.5v2.2c0,0.5-0.5,0.9-1,0.9l-10.4,0.5c-0.5,0.1-0.9-0.3-1-0.8l0,0v-2.2c0-0.5,0.5-0.9,1-0.9l10.4-0.5
		C266.5,155.7,266.9,156,267,156.5L267,156.5z"/>
	<path class="st14" d="M245.4,180.6l-2.4-0.7c-0.4-0.1-0.7-0.5-0.6-1c0-0.1,0-0.1,0.1-0.2l3.9-8.5c0.2-0.5,0.8-0.7,1.3-0.6l2.4,0.7
		c0.4,0.1,0.7,0.5,0.6,1v0.1l-3.9,8.5C246.5,180.5,246,180.7,245.4,180.6z"/>
	<path class="st14" d="M187.2,222.7l0.5-2.2c0.2-0.5,0.7-0.8,1.2-0.7l10.2,1.2c0.5,0,0.8,0.4,0.8,0.9v0.1l-0.5,2.2
		c-0.1,0.5-0.7,0.9-1.2,0.7l-10.3-1.3C187.5,223.6,187.2,223.2,187.2,222.7L187.2,222.7z"/>
	<path class="st16" d="M175.7,128.5l-2.5-0.3c-0.5,0-0.8-0.4-0.8-0.9v-0.1l2-8.9c0.1-0.5,0.6-0.8,1.2-0.7l2.5,0.3
		c0.5,0,0.8,0.4,0.8,0.9v0.1l-2,8.9C176.7,128.3,176.2,128.6,175.7,128.5z"/>
	<path class="st16" d="M168.6,214.3l-3.1,0.2c-0.4,0-0.8-0.4-0.8-0.8c0,0,0,0,0-0.1l-0.5-8.9c-0.1-0.5,0.2-0.9,0.7-1l3.1-0.3
		c0.5,0,0.8,0.4,0.8,0.9l0,0l0.5,8.9C169.3,213.7,169,214.2,168.6,214.3z"/>
	<path class="st16" d="M96.1,183.2V181c0-0.5,0.5-0.9,1-0.9l10.4-0.5c0.5-0.1,0.9,0.3,1,0.8l0,0v2.2c0,0.5-0.5,0.9-1,0.9L97.1,184
		C96.6,184.1,96.2,183.7,96.1,183.2L96.1,183.2z"/>
	<path class="st16" d="M258.1,200.4l-1.9,1.5c-0.4,0.3-1,0.3-1.4,0l-6.8-6.5c-0.3-0.3-0.3-0.8,0-1.1l0.1-0.1l1.9-1.5
		c0.4-0.3,1-0.3,1.4,0l6.8,6.5c0.3,0.3,0.3,0.8,0,1.1C258.2,200.3,258.1,200.3,258.1,200.4z"/>
	<path class="st17" d="M199.1,141.7l-1.4-1.8c-0.3-0.4-0.2-0.9,0.2-1.2c0,0,0.1,0,0.1-0.1l8.8-5.2c0.5-0.3,1-0.2,1.4,0.2l1.4,1.8
		c0.3,0.4,0.2,0.9-0.2,1.2c0,0-0.1,0-0.1,0.1l-8.8,5.2C200.1,142.2,199.5,142.1,199.1,141.7z"/>
	<path class="st18" d="M214,119.4l-1.4-1.8c-0.3-0.4-0.2-0.9,0.2-1.1l0.1-0.1l8.8-5.2c0.5-0.3,1-0.2,1.4,0.2l1.4,1.8
		c0.3,0.4,0.2,0.9-0.2,1.1l-0.1,0.1l-8.8,5.2C214.9,119.9,214.4,119.8,214,119.4z"/>
	<path class="st18" d="M226,193.7l1.9-1.5c0.4-0.3,1-0.3,1.4,0l6.8,6.5c0.3,0.3,0.3,0.8,0,1.1l-0.1,0.1l-1.9,1.5
		c-0.4,0.3-1,0.3-1.4,0l-6.8-6.5c-0.3-0.3-0.3-0.8,0-1.1C225.9,193.7,226,193.7,226,193.7z"/>
	<path class="st18" d="M124.7,213.6l1.1-2.1c0.3-0.5,0.8-0.7,1.3-0.5l9.5,3.4c0.4,0.1,0.7,0.6,0.6,1c0,0.1,0,0.1-0.1,0.2l-1,2
		c-0.3,0.5-0.8,0.7-1.3,0.5l-9.5-3.4C124.9,214.6,124.6,214.2,124.7,213.6C124.6,213.7,124.6,213.7,124.7,213.6z"/>
	<path class="st18" d="M99.6,161.5l1.1-2.1c0.3-0.5,0.9-0.7,1.4-0.5l9.5,3.4c0.4,0.1,0.7,0.6,0.5,1c0,0,0,0.1-0.1,0.1l-1.1,2.1
		c-0.3,0.5-0.8,0.7-1.3,0.5l-9.5-3.4c-0.4-0.1-0.6-0.6-0.5-1C99.5,161.6,99.5,161.6,99.6,161.5z"/>
	<path class="st19" d="M217.2,175.4l-0.6-2.1c-0.1-0.5,0.2-1,0.7-1.1l0,0l10.1-2.7c0.5-0.2,1,0.1,1.2,0.6l0.6,2.1
		c0.1,0.5-0.2,1-0.7,1.1l0,0l-10.1,2.7C218,176.1,217.4,175.8,217.2,175.4z"/>
	<path class="st19" d="M134.7,124l2.5-0.7c0.5-0.2,1,0.1,1.2,0.6l2.6,8.6c0.1,0.5-0.2,1-0.7,1.1l0,0l-2.5,0.6
		c-0.5,0.2-1-0.1-1.2-0.6l-2.6-8.7C133.9,124.6,134.2,124.1,134.7,124z"/>
	<path class="st19" d="M91.4,145.8l1.2,1.9c0.2,0.4,0.1,0.9-0.2,1.1c0,0-0.1,0-0.1,0.1l-9.1,4.8c-0.5,0.3-1,0.1-1.4-0.3l-1.2-1.9
		c-0.2-0.4-0.1-0.9,0.3-1.2c0,0,0.1,0,0.1-0.1l9.1-4.8C90.5,145.3,91.1,145.4,91.4,145.8z"/>
	<path class="st19" d="M129.5,231.8l-0.6-2.1c-0.1-0.5,0.2-1,0.7-1.1l0,0l10.1-2.7c0.5-0.2,1,0.1,1.2,0.6l0.6,2.1
		c0.1,0.5-0.2,1-0.7,1.1l0,0l-10.1,2.7C130.2,232.5,129.7,232.3,129.5,231.8z"/>
	<path class="st17" d="M193.6,104.1l0.7-2.2c0.2-0.5,0.7-0.8,1.2-0.6l10,2.1c0.4,0.1,0.8,0.5,0.7,0.9c0,0,0,0,0,0.1l-0.7,2.2
		c-0.2,0.5-0.7,0.8-1.3,0.6l-10-2.1C193.8,105,193.5,104.6,193.6,104.1L193.6,104.1z"/>
	<path class="st17" d="M160.3,234.7l1.6-1.8c0.4-0.4,1-0.5,1.4-0.2l8.1,5.3c0.4,0.2,0.5,0.7,0.3,1.1l-0.1,0.1L170,241
		c-0.4,0.4-1,0.5-1.4,0.2l-8.1-5.3C160.1,235.7,160,235.2,160.3,234.7C160.3,234.8,160.3,234.7,160.3,234.7z"/>
	<path class="st17" d="M200.5,195.4l2.1-1.4c0.4-0.3,1-0.2,1.4,0.1l6.1,7.1c0.3,0.3,0.2,0.8-0.1,1.1l-0.1,0.1l-2.1,1.4
		c-0.4,0.3-1,0.2-1.4-0.1l-6.1-7.1c-0.3-0.4-0.2-0.9,0.1-1.2C200.4,195.5,200.5,195.5,200.5,195.4z"/>
	<path class="st17" d="M76.5,165.9l2.5-0.1c0.5-0.1,0.9,0.3,1,0.8l0,0l0.1,9c0,0.5-0.5,0.9-1,0.9l-2.6,0.1c-0.5,0.1-0.9-0.3-1-0.8
		l0,0l-0.1-9C75.5,166.3,75.9,165.9,76.5,165.9z"/>
	<path class="st1" d="M139.3,155.2c-0.7,5.2-1.2,10.3-1.6,15.4c0,0.3-0.1,0.6-0.1,0.9l0,0c-0.3,4.9-0.4,9.6-0.4,14.3
		c4.1,4.2,9.2,7.4,14.8,9.2c5.7,1.8,11.8,2.6,17.8,2.2c9.1-0.5,18-3,26.1-7.3c2.6-1.4,5-3,7.4-4.7c5.1-3.6,9.9-8.4,12-14.8l0,0
		c-0.5-1.5-0.9-3-1.4-4.4s-0.9-3-1.4-4.5c-4-13.5-7.8-28-12.6-45.6c-0.1-0.5-0.3-1.1-0.4-1.6l-0.2-0.5l-0.3-1
		c-0.1-0.2-0.1-0.4-0.2-0.6s-0.2-0.6-0.3-0.8l-0.2-0.7c-0.1-0.2-0.2-0.5-0.3-0.7s-0.2-0.4-0.3-0.7s-0.2-0.4-0.3-0.7l-0.3-0.7
		l-0.3-0.6l-0.3-0.7l-0.3-0.5c-0.1-0.2-0.2-0.4-0.3-0.7l-0.2-0.5c-0.1-0.2-0.2-0.4-0.4-0.7s-0.1-0.3-0.2-0.4s-0.3-0.4-0.4-0.7
		l-0.2-0.4l-0.4-0.7l-0.1,0l-0.4-0.7l-0.2-0.2l-0.5-0.7l-0.1-0.2l-0.5-0.7l-0.1-0.1l-0.6-0.7v-0.1L191,98l0,0l-0.5-0.5
		c-6.8-7.5-18.3-8.4-26.2-2c-8.6,6.8-13.8,17.8-13.8,17.8C144.9,126.6,141.2,140.7,139.3,155.2L139.3,155.2z"/>
	<path class="st20" d="M139.3,155.2c-0.7,5.2-1.2,10.3-1.6,15.4c0,0.3-0.1,0.6-0.1,0.9l0,0c-0.3,4.9-0.4,9.6-0.4,14.3
		c4.1,4.2,9.2,7.4,14.8,9.2c5.7,1.8,11.8,2.6,17.8,2.2c0.3,0,0.6,0,0.9-0.1c0-0.3-0.1-0.6-0.2-0.9c-4.8-24.1-9.2-68.8,0.7-104.3
		c-2.5,0.7-4.9,1.9-7,3.6c-8.6,6.8-13.8,17.8-13.8,17.8C144.8,126.4,141.3,140.9,139.3,155.2L139.3,155.2z"/>
</g>
</svg>
