<?xml version="1.0" encoding="utf-8"?>
<!-- Generator: Adobe Illustrator 26.0.1, SVG Export Plug-In . SVG Version: 6.00 Build 0)  -->
<svg version="1.1" id="Layer_1_copy" xmlns="http://www.w3.org/2000/svg" xmlns:xlink="http://www.w3.org/1999/xlink" x="0px"
	 y="0px" width="512px" height="512px" viewBox="0 0 512 512" style="enable-background:new 0 0 512 512;" xml:space="preserve">
<style type="text/css">
	.st0{fill:#FFFFFF;}
	.st1{fill:url(#SVGID_1_);}
	.st2{fill:#3B1E46;}
	.st3{opacity:0.9;fill:#3B1E46;enable-background:new    ;}
	.st4{opacity:0.85;fill:#3B1E46;enable-background:new    ;}
	.st5{opacity:0.8;fill:#3B1E46;enable-background:new    ;}
	.st6{opacity:0.7;fill:#3B1E46;enable-background:new    ;}
	.st7{opacity:0.65;fill:#3B1E46;enable-background:new    ;}
	.st8{opacity:0.6;fill:#3B1E46;enable-background:new    ;}
	.st9{opacity:0.55;fill:#3B1E46;enable-background:new    ;}
	.st10{opacity:0.5;fill:#3B1E46;enable-background:new    ;}
	.st11{opacity:0.45;fill:#3B1E46;enable-background:new    ;}
	.st12{opacity:0.4;fill:#3B1E46;enable-background:new    ;}
	.st13{opacity:0.35;fill:#3B1E46;enable-background:new    ;}
	.st14{opacity:0.3;fill:#3B1E46;enable-background:new    ;}
	.st15{opacity:0.25;fill:#3B1E46;enable-background:new    ;}
	.st16{opacity:0.2;fill:#3B1E46;enable-background:new    ;}
	.st17{opacity:0.18;fill:#3B1E46;enable-background:new    ;}
	.st18{opacity:0.16;fill:#3B1E46;enable-background:new    ;}
	.st19{opacity:0.14;fill:#3B1E46;enable-background:new    ;}
	.st20{opacity:0.1;fill:#3B1E46;enable-background:new    ;}
	.st21{opacity:6.000000e-02;fill:#3B1E46;enable-background:new    ;}
	.st22{opacity:4.000000e-02;fill:#3B1E46;enable-background:new    ;}
	.st23{opacity:2.000000e-02;fill:#3B1E46;enable-background:new    ;}
	.st24{fill:url(#SVGID_00000085961431764631244920000004267391471531950237_);}
	.st25{opacity:0.2;}
	.st26{fill:#1D4900;}
	.st27{display:none;opacity:0.2;}
	.st28{display:inline;fill:#1D4900;}
	.st29{fill:url(#SVGID_00000170957504771472064480000001646597949848190593_);}
	.st30{fill:url(#SVGID_00000064324509038412674390000009624023582290734779_);}
	.st31{fill:url(#SVGID_00000156587925216087897820000004834867061882130322_);}
	.st32{fill:url(#SVGID_00000005974987550959178630000017946125597345755014_);}
	.st33{fill:url(#SVGID_00000136390450340143935250000014734177979762925959_);}
	.st34{fill:url(#SVGID_00000085222727835050973490000004871473264761268411_);}
	.st35{fill:url(#SVGID_00000052789507026165553340000007133936325659691419_);}
</style>
<g>
	<path class="st0" d="M122.3,46.7h-1.1c-0.7,0-1.4,0-2.1,0.1c-10.1,0.9-19.2,5.7-25.6,13.5c-4.5,5.5-7.4,12-8.3,18.9
		c-19.9,9.4-32.5,23.2-37.6,41.4c-5.3,19-1.1,38.1,2.5,54.9c2.7,12.3,5.7,26.3,2.3,31.8c-3.8,4.5-6.1,10.1-6.4,16
		c-0.4,7.3,2.3,14.5,7.4,19.8c4.6,4.8,10.8,7.7,17.5,8.2c0.6,0,1.2,0.1,1.8,0.1l0,0c0.8,0,1.7,0,2.5,0c0.1,0.3,0.1,0.5,0.2,0.8
		c0.2,0.7,0.4,1.4,0.6,2.1c0.3,0.9,0.5,1.8,0.8,2.6c0.2,0.7,0.4,1.4,0.7,2.2c0.3,0.9,0.5,1.7,0.8,2.6c0.2,0.7,0.5,1.4,0.7,2.1l0,0.2
		c0.3,0.8,0.5,1.6,0.8,2.3c0.2,0.6,0.4,1.2,0.6,1.8l0.1,0.4l0.2,0.5c0.2,0.6,0.4,1.3,0.7,1.9c0.2,0.6,0.4,1.2,0.6,1.8l0.2,0.6
		c0.5,1.4,1,2.9,1.6,4.3l0.2,0.6c0.2,0.6,0.5,1.2,0.7,1.8c0.2,0.6,0.5,1.2,0.7,1.9l0.2,0.6l0.2,0.4c0.2,0.6,0.5,1.2,0.7,1.7
		c0.3,0.7,0.6,1.4,0.9,2.2l0.1,0.3l0.1,0.1c0.3,0.7,0.5,1.3,0.8,2c0.3,0.8,0.7,1.6,1.1,2.5c0.3,0.7,0.6,1.4,0.9,2
		c0.4,0.8,0.7,1.7,1.1,2.5c0.3,0.6,0.6,1.3,0.9,1.9c0.4,0.9,0.8,1.7,1.2,2.6c0.2,0.5,0.5,1,0.7,1.5l0.1,0.3c0.4,0.9,0.9,1.8,1.3,2.7
		c0.2,0.3,0.3,0.7,0.5,1l0.2,0.4c2.5,5,5.2,10,7.9,14.8l0.1,0.1l0.3,0.5c0.7,1.1,1.3,2.3,2,3.4l0,0c0.1,0.2,0.2,0.3,0.3,0.5
		c0.1,0.1,0.1,0.2,0.2,0.3c0.6,1,1.1,1.9,1.7,2.8c0.4,0.6,0.8,1.3,1.2,2c0.4,0.7,0.8,1.3,1.2,1.9c0.6,0.9,1.1,1.8,1.7,2.7
		c0.3,0.5,0.6,1,1,1.5c0.6,1,1.3,1.9,2,2.9l0.2,0.2c0.2,0.4,0.5,0.7,0.7,1.1c0.7,1,1.3,1.9,2,2.8l0.3,0.4c0.3,0.4,0.5,0.7,0.8,1.1
		c0.6,0.8,1.2,1.6,1.7,2.4l0.3,0.4c0.3,0.5,0.7,0.9,1,1.4c0.3,0.4,0.6,0.7,0.8,1.1l0.3,0.4c9.4,12.4,19.8,24.1,31.1,34.7l0.2,0.2
		c0.9,0.8,2,1.9,3.3,3c17.8,16.2,37.7,30.1,59.1,41.2c4.3,2.3,8.8,4.6,13.6,6.9c37.5,17.5,82.1,28,119.2,28
		c23.7,0,44.6-4.1,61.9-12.2c21.3-9.9,36.8-25.4,46.2-46.1c8.1-17.8,10.4-37.5,6.7-56.9c-3.7-19.2-12.9-36.6-26.7-50.3
		c-0.9-0.9-1.8-1.8-2.8-2.7c-19.2-17.7-42.9-28.3-63.3-28.3c-0.8,0-1.7,0-2.5,0h-0.4l0,0c-0.7,0-1.5,0-2.2-0.1c-0.3,0-0.6,0-0.9,0
		c-0.7,0-1.5-0.1-2.2-0.1h-0.3h-0.4c-1.7-0.1-3.3-0.2-4.8-0.4h-0.2c-0.7-0.1-1.4-0.2-2.1-0.2h-0.1c-0.3,0-0.5-0.1-0.8-0.1
		c-0.7-0.1-1.4-0.2-2.1-0.3l-0.4-0.1l-0.4-0.1c-2.3-0.4-4.7-0.8-7-1.2l-0.3-0.1L345,266c-0.7-0.2-1.5-0.3-2.2-0.5l-0.2-0.1l-0.3-0.1
		c-3.4-0.8-6.7-1.7-10-2.7l0,0c-18.2-5.7-35.6-15.3-51.7-28.4c-8-6.5-15.6-13.9-22.6-22c2.5-2.7,4.4-5.9,5.7-9.3
		c2.6-7.2,2.2-15.2-1.1-22.1c-3-6.1-8-10.8-14.2-13.6c-9.3-4.4-14-15.5-20.7-33.2c-4.9-13-10.5-27.7-20.5-40.2
		c-12.6-15.7-29.8-24.8-51.1-27c-0.1,0-0.1,0-0.2,0c-2-3.8-4.7-7.3-8-10.2C140.8,50.2,131.8,46.7,122.3,46.7L122.3,46.7z"/>
	
		<linearGradient id="SVGID_1_" gradientUnits="userSpaceOnUse" x1="193.5515" y1="124.9629" x2="299.8569" y2="309.0878" gradientTransform="matrix(1 0 0 -1 0 514)">
		<stop  offset="0" style="stop-color:#542E5E"/>
		<stop  offset="0.19" style="stop-color:#7C4A86"/>
		<stop  offset="0.51" style="stop-color:#BE8EC8"/>
		<stop  offset="1" style="stop-color:#E6D4EA"/>
	</linearGradient>
	<path class="st1" d="M419.6,314.8c22.7,20.9,29.9,54.2,17.2,82.4c-31.2,69.1-149.1,44.3-207.7,12.1C128.4,356.5,84,253.8,86,145.4
		c0.2-8.6,108.3-8.8,110.4,0.5c14.5,64.9,82.8,147,176.2,147C387.4,292.9,405.4,301.7,419.6,314.8z"/>
	<path class="st2" d="M93.8,150.1c1.8-3.3,3.9-6.5,6.3-9.4v14.2c-5.1,9.5-7.3,20.3-6.4,31c0.8,9.5,2,18.9,3.6,28.2
		c6,35,17.8,68.2,35.6,97.9c22.6,37.6,55.2,69.1,97.6,92c28.6,15.4,71,29.6,110.3,31.3c9.1,0.4,18.2,0.1,27.2-1
		c28.3-3.5,52.2-15.6,63.5-41c6.7-15.2,7.6-32.3,2.5-48.1c-3.8-11.8-10.6-22.5-19.8-30.8c-13.7-12.6-31-21.1-45.4-21.2
		c-49.1-0.3-91-23.9-121.3-55.5c-12.1-12.6-22.5-26.6-31.1-41.8c-0.1-0.3-0.3-0.6-0.5-1l-0.4-1.1c29.4,51.3,85.9,99,157,99
		c14.9,0,32.8,8.8,47,21.9c22.7,20.9,29.9,54.2,17.2,82.4c-15.6,34.5-52.9,45.6-93.6,44s-84.8-15.8-114.1-31.8
		c-42.1-21.8-77.2-55-101.4-95.7c-23.4-39.1-36.5-84.2-40.4-131.4c-0.9-10.9,1.3-21.9,6.4-31.7"/>
	<path class="st3" d="M100.3,154.5c1.8-3.3,3.9-6.4,6.3-9.2v14c-5.1,9.3-7.3,19.8-6.4,30.3c0.8,9.1,1.9,18.2,3.4,27.1
		c5.8,33.5,17.3,65.3,34.5,93.8c21.9,36.1,53.3,66.2,93.8,88.2c27.6,15,68.6,28.9,106.5,30.7c8.8,0.5,17.5,0.2,26.2-0.8
		c27.6-3.2,50.8-14.7,61.5-39.2c6.3-14.6,7-31.1,2-46.2c-3.8-11.3-10.4-21.5-19.3-29.5c-13.3-12-29.9-20.2-43.8-20.4
		c-47.2-0.6-87.5-23.4-116.8-53.7c-12.1-12.5-22.5-26.6-31-41.8l0,0c-0.3-0.7-0.6-1.4-0.9-2.1c8.6,15.2,19.1,29.2,31.1,41.8
		c30.3,31.6,72.2,55.2,121.3,55.5c14.4,0.1,31.7,8.6,45.4,21.2c9.2,8.4,16,19,19.7,30.9c5.1,15.8,4.1,32.9-2.6,48.1
		c-11.4,25.4-35.2,37.5-63.5,41c-9,1.1-18.1,1.4-27.2,1c-39.3-1.7-81.8-15.9-110.3-31.3c-42.4-22.9-75-54.4-97.6-92
		c-17.9-29.7-29.6-63-35.6-97.9c-1.6-9.3-2.8-18.7-3.6-28.2c-0.9-10.7,1.3-21.5,6.4-31"/>
	<path class="st4" d="M106.8,158.9c1.8-3.2,3.9-6.2,6.3-9v13.8c-5.1,9-7.3,19.4-6.4,29.7c0.7,8.8,1.8,17.4,3.3,25.9
		c5.5,31.7,16.8,62.2,33.5,89.7c21.1,34.5,51.4,63.4,90,84.5c26.7,14.7,66.1,28.2,102.7,30.1c8.4,0.5,16.9,0.3,25.3-0.6
		c26.9-2.9,49.4-13.8,59.5-37.3c6-14.1,6.5-29.8,1.4-44.3c-3.7-10.9-10.2-20.6-18.8-28.2c-12.8-11.5-28.8-19.3-42.1-19.6
		c-45.3-0.8-84.1-22.8-112.2-52c-12.3-12.7-22.8-27-31.3-42.5l0,0l-0.2-0.4c-0.1-0.1-0.2-0.5-0.4-0.8c8.5,15.2,18.9,29.2,31,41.8
		c29.2,30.3,69.6,53.2,116.8,53.7c13.9,0.2,30.5,8.4,43.8,20.4c8.9,8,15.6,18.2,19.3,29.6c5.1,15.1,4.3,31.6-2,46.2
		c-10.7,24.5-33.9,36-61.5,39.2c-8.7,1-17.5,1.2-26.2,0.8c-37.9-1.8-78.9-15.7-106.5-30.7c-40.5-22-71.9-52.2-93.8-88.2
		c-17.3-28.5-28.7-60.3-34.5-93.8c-1.6-8.9-2.8-18-3.5-27.2c-0.9-10.5,1.3-21.1,6.4-30.3"/>
	<path class="st5" d="M113.3,163.3c1.8-3.1,3.9-6.1,6.3-8.7v13.5c-5,8.8-7.3,18.9-6.4,29c0.7,8.4,1.8,16.7,3.2,24.8
		c5.3,30.3,16.3,59.4,32.3,85.6c20.4,33,49.5,60.5,86.2,80.8c25.8,14.3,63.7,27.5,98.9,29.6c8.1,0.5,16.3,0.4,24.4-0.4
		c26.1-2.6,48-12.8,57.5-35.5c5.6-13.5,5.9-28.6,0.9-42.3c-3.7-10.3-10-19.5-18.2-26.8c-12.3-10.9-27.6-18.5-40.5-18.9
		c-43.4-1.2-80.6-22.3-107.7-50.2c-12.5-12.9-23.2-27.5-31.6-43.4l0,0l-0.5-1.1c8.5,15.5,19,29.8,31.3,42.4
		c28.2,29.1,67,51.1,112.2,52c13.4,0.3,29.3,8.1,42.1,19.6c8.5,7.6,15,17.3,18.7,28.1c5,14.4,4.5,30.2-1.4,44.3
		c-10.1,23.6-32.7,34.4-59.5,37.3c-8.4,0.9-16.9,1.1-25.3,0.6c-36.5-2-76-15.5-102.7-30.1c-38.6-21.2-68.9-50-90-84.5
		c-16.7-27.6-28-58-33.5-89.7c-1.5-8.5-2.6-17.2-3.3-25.9c-0.9-10.3,1.4-20.6,6.4-29.7"/>
	<path class="st6" d="M119.8,167.7c1.8-3.1,3.9-5.9,6.3-8.5v13.3c-5,8.5-7.3,18.4-6.4,28.3c0.6,7.9,1.7,15.8,3.1,23.7
		C128,253.3,138.6,281,154,306c19.7,31.5,47.7,57.7,82.4,77.1c24.9,13.9,61.3,26.8,95,29c7.8,0.5,15.7,0.5,23.5-0.2
		c25.4-2.3,46.6-11.9,55.5-33.6c5.2-12.9,5.3-27.4,0.3-40.4c-3.7-9.8-9.8-18.5-17.7-25.4c-11.9-10.4-26.5-17.6-38.9-18.1
		c-41.5-1.5-77.2-21.8-103.2-48.5c-12.4-12.7-23-27.2-31.3-42.9c-0.3-0.8-0.7-1.5-1.1-2.3v-0.1l-0.1-0.2
		c8.5,15.9,19.1,30.5,31.6,43.4c27.1,28,64.3,49.1,107.7,50.3c12.8,0.4,28.1,7.9,40.5,18.9c8.2,7.2,14.5,16.4,18.2,26.7
		c5,13.7,4.7,28.8-0.9,42.3c-9.5,22.6-31.4,32.9-57.5,35.5c-8.1,0.8-16.3,0.9-24.4,0.4c-35.2-2.1-73.1-15.3-98.9-29.6
		c-36.6-20.3-65.8-47.8-86.2-80.8c-16.1-26.3-27-55.3-32.3-85.6c-1.5-8.1-2.6-16.4-3.2-24.8c-0.8-10.1,1.4-20.2,6.5-29"/>
	<path class="st7" d="M126.3,172.2c1.8-3,4-5.8,6.4-8.4c-0.1,0.2-0.1,0.3-0.1,0.5v12.6c-5,8.3-7.3,17.9-6.5,27.6
		c0.6,7.6,1.6,15.1,3,22.6c5.1,27.5,15.3,53.8,30.1,77.4c19,30,45.8,54.9,78.6,73.3c23.9,13.5,58.8,26.1,91.2,28.4
		c7.5,0.6,15.1,0.6,22.6,0c24.6-1.9,45.2-11,53.5-31.8c4.9-12.4,4.8-26.1-0.2-38.4c-3.7-9.3-9.6-17.5-17.2-24
		c-11.4-9.9-25.4-16.8-37.2-17.3c-39.6-1.9-73.7-21.2-98.7-46.7c-12.6-12.8-23.2-27.5-31.4-43.5l0,0c-0.1-0.2-0.2-0.5-0.3-0.7
		s-0.2-0.5-0.3-0.7c8.3,15.7,18.8,30.2,31.3,42.9c26.1,26.7,61.7,46.9,103.2,48.5c12.3,0.5,27,7.7,38.9,18.1
		c7.9,6.9,14,15.6,17.7,25.4c5,13,4.9,27.5-0.3,40.4c-8.9,21.7-30.1,31.3-55.5,33.6c-7.8,0.7-15.7,0.8-23.5,0.2
		c-33.8-2.3-70.2-15.1-95-29c-34.7-19.4-62.7-45.6-82.4-77.1c-15.5-25-26-52.6-31.2-81.5c-1.5-7.8-2.5-15.7-3.1-23.7
		c-0.8-9.9,1.4-19.7,6.4-28.3"/>
	<path class="st8" d="M132.8,176.6c7.8-12.6,21.6-20.9,37.3-19.9c14.5,0.6,28.2,8.5,37,20.6l0,0c1,2.2,2,4.3,3.1,6.4
		c-8.4-12.2-21.7-20.1-35.8-20.9c-14.8-1.1-27.6,6.5-35,18.1v-11.2c-0.1,0.2,0.6,0.2,0.6,0.4c0,3.6,0,7.9-0.8,11l0,0
		c-5,8-7.2,17.4-6.5,26.8c0.6,7.2,1.6,14.3,2.9,21.4c5,26.1,14.8,50.9,29.1,73.3c18.2,28.4,43.8,52,74.7,69.6
		c23,13.1,56.3,25.4,87.4,27.9c7.2,0.6,14.4,0.7,21.6,0.2c23.8-1.6,43.8-10.1,51.4-29.9c4.5-11.8,4.2-24.9-0.8-36.5
		c-3.7-8.7-9.4-16.5-16.7-22.6c-10.9-9.3-24.3-15.9-35.6-16.5c-37.8-2.2-70.2-20.7-94.2-45c-12.9-13-23.6-28-31.8-44.3l-0.1-0.1
		c-0.2-0.4-0.3-0.7-0.5-1.1c8.3,16,18.9,30.6,31.5,43.5c25,25.5,59,44.9,98.7,46.8c11.8,0.5,25.8,7.5,37.2,17.3
		c7.6,6.5,13.5,14.8,17.2,24.1c5,12.3,5.1,26.1,0.2,38.5c-8.2,20.8-28.8,29.8-53.5,31.8c-7.5,0.6-15.1,0.6-22.6,0
		c-32.4-2.4-67.3-14.9-91.2-28.4c-32.8-18.5-59.6-43.4-78.6-73.3c-14.8-23.7-25.1-49.9-30.1-77.4c-1.4-7.5-2.4-15-3-22.6
		c-0.8-9.6,1.5-19.3,6.5-27.6"/>
	<path class="st9" d="M139.3,181.1c7.4-11.7,20.3-19.3,35-18.2c14.1,0.8,27.4,8.7,35.8,20.9l0,0c0,0,0,0.1,0.1,0.1
		c0.5,1.1,1.1,2.2,1.6,3.3c0.1,0.2,0.2,0.4,0.3,0.6c0.4,1,0.9,1.9,1.4,2.9c-8-12.5-21.2-20.7-35-21.6c-13.6-1.1-25.6,5.7-32.7,16.5
		v-9.4c0,0.2,1,0.7,1,0.9c0.2,2.9-0.2,5.9-1.1,8.6l0,0c-5,7.8-7.2,16.9-6.5,26.1c0.6,6.8,1.5,13.6,2.8,20.3
		c4.9,24.6,14.4,48.1,28,69.2c17.4,26.9,42,49.2,70.9,65.9c22.1,12.7,53.9,24.7,83.6,27.2c6.9,0.6,13.8,0.7,20.7,0.3
		c23.2-1.3,42.5-9.1,49.5-28c4.1-11.2,3.7-23.7-1.3-34.6c-3.7-8.2-9.2-15.5-16.2-21.2c-10.5-8.8-23.1-15-33.9-15.8
		c-35.9-2.5-66.8-20.2-89.7-43.3c-13-13.1-23.8-28.2-31.9-44.7l-0.3-0.6l-0.3-0.6c-0.1-0.2-0.2-0.4-0.2-0.6
		c8.2,16.4,18.9,31.3,31.8,44.3c23.9,24.3,56.4,42.8,94.2,45c11.3,0.6,24.6,7.2,35.6,16.5c7.3,6.1,13,13.9,16.7,22.6
		c5,11.6,5.3,24.7,0.8,36.5c-7.6,19.9-27.5,28.3-51.5,29.9c-7.2,0.5-14.4,0.4-21.6-0.2c-31-2.5-64.4-14.8-87.4-27.9
		c-30.9-17.6-56.5-41.2-74.7-69.6c-14.2-22.4-24-47.3-29-73.3c-1.4-7.1-2.3-14.2-2.9-21.4c-0.8-9.4,1.5-18.8,6.5-26.8"/>
	<path class="st10" d="M145.8,185.5c7.1-10.8,19.1-17.7,32.7-16.5c13.9,0.9,27,9.2,35.1,21.6l0,0l0.3,0.6l0.2,0.4
		c0.3,0.6,0.5,1.1,0.8,1.7l0.3,0.6c0.3,0.6,0.6,1.1,0.9,1.8l0.2,0.4c0.4,0.8,0.7,1.5,1.1,2.3c-7.6-13.2-20.8-22.1-34.7-23.2
		c-12.6-1.3-23.7,4.9-30.4,14.8v-7.6c0,0.2,0.1,0.1,0.1,0.3c0,2.4,1.1,4.5-0.3,7.5l0,0c-4.9,7.4-7.2,16.4-6.5,25.3
		c0.5,6.4,1.4,12.8,2.7,19.1c4.7,23.2,13.9,45.3,26.9,65.1c16.7,25.4,40,46.4,67,62.3c21.2,12.4,51.5,23.9,79.7,26.7
		c6.6,0.6,13.2,0.8,19.8,0.5c22.5-1,41.1-8.2,47.5-26.2c3.8-10.7,3.1-22.4-1.9-32.6c-3.7-7.7-9.1-14.4-15.7-19.8
		c-10-8.2-22-14.1-32.3-15c-34-2.8-63.3-19.7-85.1-41.5c-13.1-13.1-23.9-28.4-31.9-45.2c0-0.1-0.1-0.2-0.1-0.2l-0.6-1.3
		c8.1,16.5,18.8,31.6,31.8,44.6c22.9,23.1,53.8,40.8,89.6,43.2c10.8,0.7,23.5,7,33.9,15.8c6.9,5.8,12.5,13,16.2,21.2
		c5,10.9,5.5,23.3,1.3,34.6c-7,18.9-26.3,26.8-49.5,28c-6.9,0.4-13.8,0.3-20.7-0.3c-29.6-2.6-61.5-14.5-83.6-27.2
		c-28.9-16.7-53.4-39-70.9-65.9c-13.6-21.1-23.1-44.6-28-69.2c-1.3-6.7-2.3-13.5-2.8-20.3c-0.8-9.2,1.5-18.3,6.5-26.1"/>
	<path class="st11" d="M152.3,190c6.7-9.9,17.8-16.1,30.4-14.8c13.8,1.1,27.1,10,34.7,23.2v0.1l0,0c0.1,0.1,0.1,0.3,0.2,0.4l0,0
		c0.4,0.8,0.7,1.5,1.1,2.3l0.1,0.3c0.4,1,0.9,1.9,1.4,2.9l0,0c0.3,0.6,0.5,1.1,0.8,1.7l0.3,0.6c-7-14.2-20.5-24-34.5-25.4
		c-11.6-1.4-21.8,4.1-28.1,13.1v-5.8c0,0.2,1.6,1.8,1.6,2l-1.7,4c-4.9,7.2-7.2,15.9-6.5,24.5c0.5,6.1,1.4,12.1,2.6,18.1
		c4.6,21.8,13.4,42.5,25.8,61c16,23.8,38.2,43.5,63.2,58.4c20.2,12,49,23.2,75.9,26.1c6.3,0.7,12.6,1,18.9,0.8
		c21.8-0.6,39.7-7.3,45.4-24.3c3.4-10.1,2.5-21.2-2.5-30.6c-3.7-7.2-8.9-13.5-15.2-18.5c-9.5-7.7-20.9-13.3-30.6-14.2
		c-32.1-3.1-59.9-19.1-80.6-39.7c-13.7-13.6-24.8-29.6-32.8-47.2c8,16.8,18.8,32,32,45.2c21.8,21.9,51.1,38.7,85.1,41.5
		c10.3,0.8,22.3,6.8,32.3,15c6.6,5.4,11.9,12.1,15.6,19.8c5,10.2,5.7,21.9,1.9,32.6c-6.4,18-25,25.2-47.5,26.2
		c-6.6,0.3-13.2,0.1-19.8-0.5c-28.2-2.9-58.5-14.5-79.6-26.8c-27-15.8-50.4-36.8-67.1-62.2c-13-19.8-22.1-41.9-26.9-65.1
		c-1.3-6.3-2.2-12.7-2.7-19.1c-0.8-8.9,1.5-17.8,6.5-25.3"/>
	<path class="st12" d="M158.6,194.8c-4.9,7.2-7.2,15.9-6.5,24.5c0.5,6,1.4,12.1,2.6,18c4.6,21.8,13.4,42.5,25.8,61
		c16,23.8,38.1,43.5,63.2,58.4c20.2,12,49,23.2,75.9,26.1c6.3,0.7,12.6,1,18.9,0.8c21.8-0.6,39.7-7.3,45.4-24.3
		c3.4-10.1,2.5-21.2-2.5-30.6c-3.7-7.2-8.9-13.5-15.2-18.5c-9.5-7.7-20.9-13.3-30.6-14.2c-32.1-3.1-59.9-19.1-80.6-39.7
		c-13.7-13.6-24.8-29.6-32.8-47.2c0-0.1-0.1-0.2-0.1-0.2l-0.6-1.3l-0.3-0.6c-7-14.2-20.5-24-34.5-25.4c-11.6-1.4-21.8,4.1-28.1,13.1
		l0,0 M165.2,199.2c5.9-8.1,15.3-12.9,25.8-11.4c13.5,1.5,26.7,11.6,33.3,26c7.8,16.6,18.4,31.7,31.5,44.6
		c19.7,19.3,45.9,34.5,76.2,37.9c9.2,1,20,6.3,29,13.4c6,4.6,11,10.4,14.7,17c4.9,8.8,6,19.2,3,28.8c-5.1,16.1-22.4,22.2-43.4,22.5
		c-6,0.1-12-0.2-18-0.9c-25.5-3.1-52.8-13.9-72.1-25.5c-23.2-14-44.3-32.4-59.4-54.7c-11.8-17.2-20.2-36.6-24.7-56.9
		c-1.2-5.6-2-11.2-2.5-16.9c-0.7-8.4,1.6-16.8,6.5-23.7"/>
	<path class="st13" d="M165.1,199.3c-4.9,6.9-7.2,15.3-6.5,23.7c0.4,5.7,1.3,11.3,2.5,16.9c4.5,20.4,12.9,39.7,24.7,56.9
		c15.2,22.3,36.2,40.7,59.4,54.7c19.3,11.6,46.6,22.5,72.1,25.5c6,0.7,12,1,18,0.9c21-0.3,38.3-6.4,43.5-22.5c3-9.6,1.9-20-3-28.7
		c-3.7-6.6-8.7-12.4-14.7-17c-9.1-7.1-19.8-12.4-29-13.5c-30.2-3.4-56.4-18.6-76.1-38c-13.1-12.9-23.7-28-31.5-44.6
		c-6.6-14.4-19.8-24.4-33.3-26c-10.6-1.5-19.9,3.4-25.8,11.4 M171.8,203.7c5.5-7.2,14-11.4,23.5-9.8c12.5,1.7,24.8,11.2,31.4,24.7
		c7.6,15.5,17.8,29.6,30.2,41.6c18.6,18.2,43.3,32.6,71.6,36.3c8.7,1.1,18.8,6.1,27.4,12.7c5.7,4.3,10.4,9.6,14.1,15.7
		c4.9,8,6.2,17.8,3.6,26.8c-4.6,15.2-21.3,20.7-41.5,20.6c-5.7,0-11.4-0.4-17-1.1c-24.1-3.2-49.9-13.7-68.3-25
		c-21.3-13-41.1-30.2-55.6-51c-11.2-15.9-19.2-33.9-23.6-52.8c-1.1-5.2-1.9-10.4-2.4-15.7C164.5,218.5,166.8,210.4,171.8,203.7"/>
	<path class="st14" d="M171.7,203.8c-4.9,6.6-7.2,14.7-6.5,22.9c0.4,5.3,1.2,10.6,2.4,15.7c4.4,19,12.4,36.9,23.6,52.8
		c14.5,20.8,34.3,37.9,55.6,51c18.4,11.3,44.2,21.8,68.2,25c5.6,0.7,11.3,1.1,17,1.1c20.3,0,36.9-5.5,41.5-20.6
		c2.7-9,1.4-18.8-3.6-26.8c-3.7-6.1-8.5-11.4-14.2-15.7c-8.6-6.6-18.6-11.5-27.4-12.7c-28.4-3.6-53-18-71.6-36.3
		c-12.4-12.1-22.5-26.2-30.1-41.7c-6.5-13.5-18.9-23-31.4-24.7C185.7,192.3,177.2,196.5,171.7,203.8 M368.2,347.9
		c-3.9,14.2-19.9,19.2-39.4,18.8c-5.4-0.1-10.8-0.5-16.1-1.3c-22.7-3.3-47-13.5-64.4-24.4c-19.4-12.1-38-28-51.8-47.2
		c-10.6-14.7-18.2-31.2-22.5-48.8c-1.1-4.8-1.8-9.6-2.2-14.5c-0.7-7.9,1.6-15.7,6.5-22v-0.3c0-0.1,0-0.2,0.1-0.4v0.6
		c5.1-6.3,12.7-9.9,21.2-8.2C211,202,222.5,211,229,223.6c7.4,14.4,17.1,27.5,28.8,38.8c17.6,17,40.6,30.6,67.1,34.5
		c8.2,1.2,17.6,5.9,25.7,11.9c5.3,3.9,9.9,8.8,13.6,14.3C369,330.4,370.5,339.5,368.2,347.9L368.2,347.9z"/>
	<path class="st15" d="M178.1,208.4c-4.9,6.3-7.2,14.2-6.4,22.1c0.4,4.9,1.1,9.8,2.3,14.6c4.3,17.6,11.9,34.1,22.5,48.8
		c13.8,19.2,32.4,35.2,51.8,47.2c17.5,10.9,41.7,21.1,64.4,24.4c5.4,0.8,10.7,1.2,16.1,1.3c19.6,0.4,35.5-4.5,39.5-18.8
		c2.3-8.5,0.8-17.6-4.1-24.9c-3.7-5.5-8.3-10.4-13.6-14.3c-8.1-6-17.5-10.7-25.7-11.9c-26.5-3.9-49.5-17.5-67.1-34.5
		c-11.6-11.3-21.4-24.4-28.8-38.8c-6.4-12.6-18-21.6-29.4-23.4c-8.5-1.7-16.1,1.9-21.2,8.2 M362.9,344.1
		c-3.4,13.3-18.6,17.7-37.5,16.9c-5.1-0.2-10.2-0.7-15.2-1.5c-21.3-3.4-44.1-13.2-60.6-23.8c-17.5-11.1-34.9-25.9-48-43.5
		c-9.9-13.4-17.2-28.5-21.3-44.6c-1.1-4.4-1.8-8.9-2.1-13.5c-1.3-16.4,10.6-31.3,25.5-27.8c10.4,1.9,21,10.4,27.4,22.2
		c7.2,13.3,16.5,25.4,27.4,35.9c16.5,15.8,38,28.6,62.5,32.8c7.7,1.3,16.5,5.7,24.1,11.1c5,3.6,9.5,8,13.1,12.9
		C363.1,327.8,364.8,336.2,362.9,344.1z"/>
	<path class="st16" d="M358.2,321.2c-3.7-5-8.1-9.3-13.1-12.9c-7.6-5.5-16.4-9.8-24.1-11.1c-24.6-4.2-46.1-17-62.5-32.8
		c-10.9-10.5-20.2-22.6-27.4-35.9c-6.4-11.8-17-20.2-27.4-22.2c-14.9-3.5-26.8,11.4-25.5,27.8c0.3,4.5,1.1,9,2.1,13.5
		c4.2,16.1,11.4,31.3,21.4,44.6c13,17.6,30.5,32.4,48,43.5c16.5,10.5,39.3,20.4,60.6,23.8c5,0.8,10.1,1.3,15.2,1.5
		c18.8,0.8,34-3.6,37.5-16.9C364.9,336.2,363.1,327.8,358.2,321.2z M357.6,340.4c-2.7,12.4-17.3,16.2-35.4,15
		c-4.8-0.3-9.6-0.8-14.3-1.6c-20-3.6-41.2-13-56.7-23.2S219.3,307,207,290.8c-9.5-12.5-16.6-26.4-20.3-40.5c-1-4-1.7-8.2-2.1-12.3
		c-1.1-15.2,9.6-29.1,23.2-25.3c9.3,2.1,19.1,10,25.4,20.9c7,12.2,15.8,23.3,26,33c15.4,14.6,35.4,26.6,58,31
		c7.2,1.4,15.3,5.4,22.5,10.4c4.7,3.2,9,7.1,12.7,11.5C357.3,325.2,359.2,332.9,357.6,340.4L357.6,340.4z"/>
	<path class="st17" d="M352.4,319.4c-3.7-4.4-7.9-8.3-12.6-11.5c-7.2-4.9-15.3-8.9-22.5-10.4c-22.7-4.5-42.6-16.5-58-31
		c-10.2-9.7-19-20.8-26-33c-6.3-10.9-16.1-18.8-25.4-20.9c-13.6-3.7-24.4,10.2-23.2,25.4c0.3,4.2,1,8.3,2,12.3
		c3.7,14.1,10.8,28,20.3,40.5c12.3,16.2,28.6,29.6,44.2,39.8s36.8,19.7,56.7,23.2c4.7,0.8,9.5,1.4,14.3,1.6
		c18.2,1.1,32.7-2.7,35.4-15C359.2,332.9,357.3,325.2,352.4,319.4z M352.4,336.6c-2.1,11.4-16,14.7-33.4,13.2c-4.5-0.4-9-1-13.4-1.9
		c-18.6-3.7-38.3-12.8-53-22.7c-13.7-9.2-28.8-21.4-40.3-36c-8.9-11.4-15.7-23.8-19.2-36.4c-1-3.7-1.7-7.4-1.9-11.2
		c-1.1-13.9,8.7-26.8,20.9-22.8c8.3,2.3,17.3,9.6,23.4,19.6c6.8,11.1,15.1,21.2,24.6,30.1c14.4,13.4,32.8,24.5,53.5,29.3
		c6.7,1.5,14.1,5.2,20.8,9.6c4.4,2.9,8.5,6.3,12.1,10.2c4.8,5,7,12.1,5.7,19L352.4,336.6z"/>
	<path class="st18" d="M346.5,317.5c-3.6-3.9-7.7-7.3-12.1-10.2c-6.7-4.4-14.1-8-20.8-9.6c-20.8-4.8-39.1-15.9-53.5-29.3
		c-9.5-8.9-17.8-18.9-24.6-30c-6.2-10.1-15.2-17.5-23.5-19.7c-12.2-4-21.9,8.9-20.9,22.8c0.3,3.8,0.9,7.5,1.9,11.2
		c3.5,12.6,10.3,25.1,19.2,36.4c11.5,14.6,26.6,26.8,40.3,36c14.6,9.9,34.4,19,53,22.7c4.4,0.9,8.9,1.5,13.4,1.9
		c17.4,1.5,31.3-1.8,33.4-13.2C353.6,329.7,351.4,322.6,346.5,317.5z M197.6,226.8v5.9C197.6,230.8,197.6,228.8,197.6,226.8z
		 M347.1,332.8c-1.5,10.5-14.8,13.2-31.4,11.4c-4.2-0.4-8.4-1.1-12.5-2c-17.2-3.8-35.4-12.5-49.1-22.1
		c-11.8-8.2-25.7-19.2-36.5-32.3c-8.2-10.1-14.8-21.3-18.1-32.4c-1-3.3-1.6-6.7-1.8-10.1c-1-12.7,7.7-24.6,18.6-20.3
		c7.2,2.4,15.4,9.2,21.5,18.4c6.6,10,14.4,19.1,23.3,27.2c13.3,12.2,30.1,22.5,49,27.6c6.8,2,13.2,5,19.2,8.8
		c4.1,2.6,8.1,5.5,11.7,8.7C345.6,320,347.9,326.4,347.1,332.8L347.1,332.8z"/>
	<path class="st19" d="M340.8,315.7c-3.6-3.3-7.5-6.2-11.6-8.8c-5.9-3.8-12.4-6.8-19.2-8.8c-18.9-5-35.7-15.4-49-27.5
		c-8.8-8.1-16.6-17.3-23.3-27.2c-6.1-9.2-14.2-16-21.5-18.4c-10.8-4.2-19.5,7.7-18.6,20.3c0.2,3.4,0.9,6.8,1.8,10.1
		c3.3,11.1,9.8,22.3,18.1,32.3c10.8,13.1,24.7,24.1,36.5,32.3c13.7,9.5,32,18.3,49.1,22.1c4.1,0.9,8.3,1.6,12.5,2
		c16.7,1.9,29.9-0.8,31.4-11.4C348,326.4,345.6,320,340.8,315.7z M204.1,233.1c0-0.1,0-0.1,0-0.2V233.1z M341.8,329
		c-0.9,9.6-13.5,11.8-29.4,9.5c-3.9-0.5-7.7-1.3-11.5-2.2c-15.8-3.9-32.6-12.3-45.3-21.6c-10-7.2-22.6-17-32.7-28.6
		c-7.7-8.9-13.9-18.6-17-28.3c-0.9-2.9-1.5-5.9-1.7-8.9c-0.9-11.4,6.8-22.3,16.3-17.9c6.2,2.5,13.4,8.8,19.5,17.1
		c6.4,8.9,13.7,17,21.9,24.3c12.2,11,27.5,20.5,44.5,25.8c6.1,2.1,12,4.8,17.5,8.1c3.9,2.2,7.6,4.7,11.1,7.4
		C339.6,317.3,342.3,323.1,341.8,329z"/>
	<path class="st20" d="M334.9,313.8c-3.6-2.7-7.3-5.1-11.2-7.3c-5.5-3.3-11.4-6-17.5-8c-17-5.3-32.2-14.9-44.5-25.8
		c-8.1-7.3-15.4-15.5-21.8-24.4c-6-8.3-13.3-14.6-19.5-17.1c-9.5-4.5-17.1,6.4-16.3,17.9c0.2,3,0.8,6,1.7,8.9
		c3.1,9.6,9.3,19.4,17,28.2c10,11.6,22.7,21.4,32.7,28.6c12.7,9.2,29.5,17.6,45.3,21.6c3.8,0.9,7.7,1.6,11.5,2.2
		c15.9,2.3,28.5,0.1,29.4-9.5C342.3,323.1,339.7,317.3,334.9,313.8z M210.6,239.4v-0.1V239.4z M336.5,325.3
		c-0.4,8.6-12.2,10.3-27.4,7.6c-3.4-0.6-7-1.4-10.6-2.4c-15-4.4-29-11.5-41.5-20.9c-8.1-6.2-19.6-14.8-28.9-24.9
		c-7.1-7.6-13-16-15.9-24.1c-0.9-2.5-1.4-5.1-1.6-7.8c-0.8-10.2,5.8-20.1,14-15.4c6.5,4.5,12.4,9.8,17.5,15.9
		c6.2,7.7,13,14.9,20.5,21.4c11.8,10.4,25.3,18.6,40,24.1c5.5,2.1,10.8,4.5,15.9,7.3c3.8,2,7.3,4,10.6,6
		C333.8,314.7,336.6,319.8,336.5,325.3L336.5,325.3z"/>
	<path class="st21" d="M329.1,312c-3.3-2-6.8-4-10.6-6c-5.1-2.8-10.4-5.2-15.9-7.3c-14.7-5.5-28.2-13.7-40-24.1
		c-7.5-6.5-14.3-13.7-20.5-21.4c-5.1-6-11-11.4-17.5-15.8c-8.1-4.7-14.8,5.2-14,15.4c0.2,2.6,0.8,5.2,1.7,7.7
		c2.9,8.2,8.8,16.5,15.9,24.1c9.3,10,20.7,18.6,28.9,24.9c12.4,9.4,26.5,16.5,41.5,20.9c3.7,1,7.2,1.8,10.6,2.4
		c15.2,2.7,27.1,1,27.4-7.6C336.7,319.8,333.8,314.7,329.1,312z M305.8,327.2c-3.1-0.7-6.4-1.5-9.7-2.6
		c-13.7-4.5-26.4-11.4-37.6-20.4c-6.3-5.2-16.4-12.6-25-21.1c-6.5-6.4-12.1-13.4-14.8-20c-0.8-2.1-1.4-4.4-1.5-6.7
		c-0.6-8.9,4.9-17.8,11.7-12.9c5.5,4.5,10.7,9.4,15.4,14.6c5.9,6.6,12.3,12.8,19.1,18.5c10.7,9.1,22.6,16.6,35.5,22.3
		c4.6,2,9.5,4.3,14.3,6.5c3.4,1.6,6.8,3.2,10.1,4.6c4.6,1.9,7.7,6.3,8,11.3C331.5,329.1,320.3,330.4,305.8,327.2L305.8,327.2z"/>
	<path class="st22" d="M323.3,310.1c-3.3-1.5-6.6-3-10.1-4.6c-4.8-2.3-9.6-4.5-14.3-6.5c-12.8-5.7-24.8-13.2-35.5-22.3
		c-6.8-5.7-13.2-11.9-19.2-18.5c-4.8-5.3-10-10.1-15.5-14.6c-6.8-5-12.3,3.9-11.6,12.9c0.2,2.3,0.7,4.5,1.5,6.7
		c2.7,6.7,8.3,13.6,14.8,20c8.6,8.5,18.7,16,25,21.1c11.2,9,24,16,37.7,20.4c3.3,1.1,6.6,1.9,9.7,2.6c14.5,3.1,25.7,1.9,25.5-5.8
		C331,316.5,327.9,312,323.3,310.1z M302.6,321.6C288.9,318,272,309.9,260,299c-7.9-7.2-29-21.2-34.9-33.4
		c-4.1-8.5,1.1-22.4,7.9-15.9c5.6,5.4,16.6,17.2,31.3,29c14.7,11.8,33,23.8,53.1,29.5c4.5,1.1,7.9,4.8,8.6,9.4
		C326.8,324.4,316.3,325.2,302.6,321.6L302.6,321.6z"/>
	<path class="st23" d="M302.5,321.6c-13.7-3.6-30.6-11.7-42.6-22.6c-7.9-7.2-29-21.2-34.9-33.4c-4.1-8.5,1.1-22.4,7.9-15.9
		c5.6,5.4,16.6,17.2,31.3,29c14.7,11.8,33,23.8,53.1,29.5c4.5,1.1,7.9,4.8,8.6,9.4C326.8,324.4,316.3,325.2,302.5,321.6z"/>
	
		<linearGradient id="SVGID_00000110463609120618422550000007502168322524184214_" gradientUnits="userSpaceOnUse" x1="21.7413" y1="490.9847" x2="174.5535" y2="527.8645" gradientTransform="matrix(1 -5.000000e-02 -5.000000e-02 -1 68.48 670.86)">
		<stop  offset="0" style="stop-color:#0C7336"/>
		<stop  offset="0.83" style="stop-color:#77BD50"/>
	</linearGradient>
	<path style="fill:url(#SVGID_00000110463609120618422550000007502168322524184214_);" d="M123.4,92.4
		C21,112,100.3,185.1,70.9,222.6c-1.2,1-1.3,2.8-0.2,3.9c0.5,0.5,1.2,0.9,2,0.9c34.6-0.1,50-22.8,51.5-46.7c0-1.4,1.1-2.5,2.6-2.5
		c0.9,0,1.8,0.4,2.3,1.2c19.4,26.6,77.5,32.6,109.8,17.7c2.3-1,3.3-3.6,2.2-5.7c-0.5-1-1.3-1.7-2.4-2.2
		C189.6,166.9,219.3,75.3,123.4,92.4z"/>
	<g class="st25">
		<path class="st26" d="M145.1,93.3c38.3,0,47.5,24.5,57.4,50.4c7.3,19.2,14.9,39.2,34.9,48.3c0,0,0.1,0,0.1,0.1
			c0.4,0.1,0.6,0.4,0.8,0.7c0.2,0.4,0.1,0.7,0,0.9c-0.1,0.3-0.4,0.6-0.8,0.8c0,0,0,0-0.1,0c-10.8,5-25.1,7.7-40.4,7.7
			c-29.1,0-54.9-9.6-65.7-24.4c-1-1.6-2.8-2.5-4.7-2.5l0,0c-1.5,0-2.8,0.6-3.9,1.6c-1,1-1.7,2.4-1.7,3.8c-0.7,12-5.2,22.8-12.5,30.3
			c-8.5,8.8-20.4,13.4-35.4,13.5c11.8-15.1,7.4-35.2,3.2-54.6c-4-18.2-8.1-36.9,1.3-51.1c7.4-11.2,22.5-18.8,46.2-23.4
			C131.6,94,138.7,93.3,145.1,93.3 M145.1,90.3c-6.4,0-13.6,0.7-21.7,2.1C21,112,100.3,185.1,70.9,222.6c-1.2,1-1.3,2.8-0.2,3.9
			c0.5,0.5,1.2,0.9,2,0.9c34.6-0.1,50-22.8,51.5-46.7c0-1.4,1.1-2.5,2.6-2.5l0,0c0.9,0,1.8,0.5,2.2,1.2
			c12.4,17.1,40.9,25.7,68.2,25.7c15.2,0,30.1-2.7,41.6-8c2.3-1,3.3-3.6,2.2-5.7c-0.5-1-1.3-1.7-2.4-2.2
			C193.7,168.8,214.8,90.3,145.1,90.3L145.1,90.3z"/>
	</g>
	<g class="st25">
		<path class="st26" d="M144.1,93.3c36.2,0,44.7,22.4,54.6,48.4c7.1,18.8,14.5,38.1,33.3,48.4c-9.9,3.9-22.5,6-35.8,6
			c-28.2,0-53-9.1-63.3-23.1c-1.6-2.4-4.3-3.8-7.2-3.8c0,0,0,0-0.1,0c-2.2,0-4.3,0.9-5.9,2.4s-2.5,3.7-2.6,5.9
			c-0.7,11.2-4.8,21.3-11.6,28.4c-6.8,7.1-16,11.2-27.4,12.3c8.4-15.3,4.3-33.9,0.4-52c-4-18.4-7.8-35.7,0.8-48.8
			c6.9-10.5,21.4-17.7,44.2-22.1C130.9,94,137.9,93.3,144.1,93.3 M145.1,90.3c-6.4,0-13.6,0.7-21.7,2.1
			C21,112,100.3,185.1,70.9,222.6c-1.2,1-1.3,2.8-0.2,3.9c0.5,0.5,1.2,0.9,2,0.9c34.6-0.1,50-22.8,51.5-46.7c0-1.4,1.1-2.5,2.6-2.5
			l0,0c0.9,0,1.8,0.5,2.2,1.2c12.4,17.1,40.9,25.7,68.2,25.7c15.2,0,30.1-2.7,41.6-8c2.3-1,3.3-3.6,2.2-5.7c-0.5-1-1.3-1.7-2.4-2.2
			C193.7,168.8,214.8,90.3,145.1,90.3L145.1,90.3z"/>
	</g>
	<g class="st27">
		<path class="st28" d="M143.1,98.3c20.5,0,29.7,7.6,34.8,13.4c7.7,8.6,12.2,20.5,17,33.1c6.3,16.6,13.3,35.1,29.2,46.5
			c-8.5,2.5-18.4,3.8-28.9,3.8c-12.9,0-25.9-2.1-36.7-5.9c-11-3.9-19.3-9.4-24.1-15.9c-2.2-3.2-5.7-5-9.6-5h-0.1c-3,0-5.8,1.2-8,3.2
			c-2.2,2.1-3.4,4.9-3.5,7.9c-0.7,10.5-4.5,19.9-10.8,26.4c-5.2,5.4-12,9-20.3,10.6c5.6-15.3,1.8-32.9-1.7-48.9
			c-3.9-17.7-7.5-34.5,0.4-46.5c6.3-9.6,20.6-16.6,42.3-20.8C130.3,98.9,137.1,98.3,143.1,98.3 M145.1,90.3
			c-6.4,0-13.6,0.7-21.7,2.1C21,112,100.3,185.1,70.9,222.6c-1.2,1-1.3,2.8-0.2,3.9c0.5,0.5,1.2,0.9,2,0.9
			c34.6-0.1,50-22.8,51.5-46.7c0-1.4,1.1-2.5,2.6-2.5l0,0c0.9,0,1.8,0.5,2.2,1.2c12.4,17.1,40.9,25.7,68.2,25.7
			c15.2,0,30.1-2.7,41.6-8c2.3-1,3.3-3.6,2.2-5.7c-0.5-1-1.3-1.7-2.4-2.2C193.7,168.8,214.8,90.3,145.1,90.3L145.1,90.3z"/>
	</g>
	
		<linearGradient id="SVGID_00000130629857033764915470000016086785050808122785_" gradientUnits="userSpaceOnUse" x1="78.7475" y1="504.4747" x2="176.7713" y2="528.1318" gradientTransform="matrix(1 -5.000000e-02 -5.000000e-02 -1 68.48 670.86)">
		<stop  offset="0" style="stop-color:#6BA24D"/>
		<stop  offset="1" style="stop-color:#0C7A35"/>
	</linearGradient>
	<path style="fill:url(#SVGID_00000130629857033764915470000016086785050808122785_);" d="M123,92.4c-42.1,14.9,5.1,86.3,5.6,87
		C148,206,206.1,212,238.4,197.1c2.3-1,3.3-3.6,2.2-5.7c-0.5-1-1.3-1.7-2.4-2.2C189.2,166.8,218.9,75.3,123,92.4z"/>
	<g class="st25">
		
			<linearGradient id="SVGID_00000108306019156018876810000010763885930316198025_" gradientUnits="userSpaceOnUse" x1="116.4914" y1="347.9278" x2="223.3288" y2="379.4341" gradientTransform="matrix(1 0 0 -1 0 512)">
			<stop  offset="0" style="stop-color:#0C7A35"/>
			<stop  offset="1" style="stop-color:#2C4220"/>
		</linearGradient>
		<path style="fill:url(#SVGID_00000108306019156018876810000010763885930316198025_);" d="M144.7,93.3c38.3,0,47.5,24.5,57.4,50.4
			c7.3,19.2,14.9,39.2,34.9,48.3c0,0,0.1,0,0.1,0.1c0.4,0.1,0.6,0.4,0.8,0.7c0.2,0.4,0.1,0.7,0,0.9c-0.1,0.3-0.4,0.6-0.8,0.8
			c0,0,0,0-0.1,0c-10.8,5-25.1,7.7-40.4,7.7c-29.1,0-54.9-9.6-65.7-24.4c-10.9-16.7-27.5-50-21-69.1c2.2-6.4,6.7-10.8,13.8-13.3
			C131.3,93.9,138.3,93.3,144.7,93.3 M144.7,90.3c-6.4,0-13.6,0.7-21.7,2.1c-42.1,14.9,5.1,86.3,5.6,87
			c12.4,17.1,40.9,25.7,68.2,25.7c15.2,0,30.1-2.7,41.6-8c2.3-1,3.3-3.6,2.2-5.7c-0.5-1-1.3-1.7-2.4-2.2
			C193.3,168.7,214.4,90.3,144.7,90.3L144.7,90.3z"/>
	</g>
	<g class="st25">
		
			<linearGradient id="SVGID_00000031195159524900689240000000928209988582288063_" gradientUnits="userSpaceOnUse" x1="116.4914" y1="347.9278" x2="223.3288" y2="379.4341" gradientTransform="matrix(1 0 0 -1 0 512)">
			<stop  offset="0" style="stop-color:#0C7A35"/>
			<stop  offset="1" style="stop-color:#2C4220"/>
		</linearGradient>
		<path style="fill:url(#SVGID_00000031195159524900689240000000928209988582288063_);" d="M140.7,96.3c36.2,0,44.7,22.4,54.6,48.4
			c7.1,18.8,14.5,38.1,33.3,48.4c-9.9,3.9-22.5,6-35.8,6c-28.2,0-53-9.1-63.2-23.1c-1.4-2.2-8.2-12.8-13.9-26
			c-7.5-17.3-9.9-31.3-6.8-40.4c1.8-5.4,5.7-9.1,11.7-11.4C127.8,96.9,134.6,96.3,140.7,96.3 M144.7,90.3c-6.4,0-13.6,0.7-21.7,2.1
			c-42.1,14.9,5.1,86.3,5.6,87c12.4,17.1,40.9,25.7,68.2,25.7c15.2,0,30.1-2.7,41.6-8c2.3-1,3.3-3.6,2.2-5.7c-0.5-1-1.3-1.7-2.4-2.2
			C193.3,168.7,214.4,90.3,144.7,90.3L144.7,90.3z"/>
	</g>
	<g class="st25">
		
			<linearGradient id="SVGID_00000017498576017948239230000016820229250817003927_" gradientUnits="userSpaceOnUse" x1="116.4914" y1="347.9278" x2="223.3288" y2="379.4341" gradientTransform="matrix(1 0 0 -1 0 512)">
			<stop  offset="0" style="stop-color:#0C7A35"/>
			<stop  offset="1" style="stop-color:#2C4220"/>
		</linearGradient>
		<path style="fill:url(#SVGID_00000017498576017948239230000016820229250817003927_);" d="M136.7,99.3c20.5,0,29.7,7.6,34.8,13.4
			c7.7,8.6,12.2,20.5,17,33.1c6.3,16.6,13.3,35.1,29.2,46.5c-8.5,2.5-18.4,3.8-28.9,3.8c-12.9,0-25.9-2.1-36.7-5.9
			c-11-3.9-19.3-9.4-24.1-15.9c-9.6-14.7-26-46.8-20.3-63.7c1.5-4.5,4.6-7.5,9.7-9.4C124.3,99.9,130.8,99.3,136.7,99.3 M144.7,90.3
			c-6.4,0-13.6,0.7-21.7,2.1c-42.1,14.9,5.1,86.3,5.6,87c12.4,17.1,40.9,25.7,68.2,25.7c15.2,0,30.1-2.7,41.6-8
			c2.3-1,3.3-3.6,2.2-5.7c-0.5-1-1.3-1.7-2.4-2.2C193.3,168.7,214.4,90.3,144.7,90.3L144.7,90.3z"/>
	</g>
	
		<linearGradient id="SVGID_00000118387753652105519920000004484670478858138811_" gradientUnits="userSpaceOnUse" x1="108.7886" y1="428.8" x2="137.0234" y2="428.8" gradientTransform="matrix(1 0 0 -1 0 512)">
		<stop  offset="0" style="stop-color:#0C7336"/>
		<stop  offset="0.83" style="stop-color:#77BD50"/>
	</linearGradient>
	<path style="fill:url(#SVGID_00000118387753652105519920000004484670478858138811_);" d="M137,90.7c-4.6,0.4-9.1,1-13.7,1.8
		c-4.9,1-9.4,2-13.5,3.2c-0.3-2.9-0.6-6-1-9.6c-0.8-7.8,4.7-14.7,12.3-15.4h1.1c7.1,0,13.2,5.5,14,12.8
		C136.6,86.1,136.8,88.4,137,90.7z"/>
	<g class="st25">
		
			<linearGradient id="SVGID_00000078012354971812508290000011427524359989065652_" gradientUnits="userSpaceOnUse" x1="108.805" y1="428.8" x2="137.0398" y2="428.8" gradientTransform="matrix(1 0 0 -1 0 512)">
			<stop  offset="0" style="stop-color:#0C7336"/>
			<stop  offset="0.83" style="stop-color:#385926"/>
		</linearGradient>
		<path style="fill:url(#SVGID_00000078012354971812508290000011427524359989065652_);" d="M122.2,74.5c6,0,11.2,4.7,11.9,10.8
			c0.2,1.5,0.3,2.9,0.4,4.3c0,0.1,0,0.1,0,0.2c-4,0.4-7.9,0.9-11.8,1.6c-4,0.8-7.7,1.6-11.1,2.5c-0.1-0.6-0.1-1.2-0.2-1.8l-0.5-4.7
			c-0.3-3.2,0.6-6.4,2.6-8.8c1.9-2.3,4.6-3.7,7.6-4L122.2,74.5 M122.3,70.7h-1.1c-7.6,0.7-13.2,7.6-12.3,15.4c0.4,3.6,0.7,6.7,1,9.6
			c4.1-1.2,8.6-2.2,13.5-3.2c4.5-0.8,9.1-1.4,13.7-1.8c-0.2-2.3-0.4-4.6-0.7-7.2C135.6,76.2,129.4,70.7,122.3,70.7L122.3,70.7z"/>
	</g>
	<g class="st25">
		
			<linearGradient id="SVGID_00000165921235449175017080000009112888577903299714_" gradientUnits="userSpaceOnUse" x1="108.805" y1="428.8" x2="137.0398" y2="428.8" gradientTransform="matrix(1 0 0 -1 0 512)">
			<stop  offset="0" style="stop-color:#0C7336"/>
			<stop  offset="0.83" style="stop-color:#385926"/>
		</linearGradient>
		<path style="fill:url(#SVGID_00000165921235449175017080000009112888577903299714_);" d="M122.5,76.3c5.3,0,10,4.5,10.5,10.3
			c0.1,0.6,0.1,1.1,0.2,1.7c-3.6,0.5-7.2,1-10.8,1.7h-0.1c-3.3,0.7-6.4,1.4-9.3,2.1l-0.4-3.7c-0.3-3.1,0.5-6.1,2.3-8.4
			c1.6-2.1,3.9-3.4,6.4-3.7H122.5 M122.3,70.7h-1.1c-7.6,0.7-13.2,7.6-12.3,15.4c0.4,3.6,0.7,6.7,1,9.6c4.1-1.2,8.6-2.2,13.5-3.2
			c4.5-0.8,9.1-1.4,13.7-1.8c-0.2-2.3-0.4-4.6-0.7-7.2C135.6,76.2,129.4,70.7,122.3,70.7L122.3,70.7z"/>
	</g>
</g>
</svg>
