<?xml version="1.0" encoding="utf-8"?>
<!-- Generator: Adobe Illustrator 24.0.3, SVG Export Plug-In . SVG Version: 6.00 Build 0)  -->
<svg version="1.1" xmlns="http://www.w3.org/2000/svg" xmlns:xlink="http://www.w3.org/1999/xlink" x="0px" y="0px"
	 viewBox="0 0 512 512" style="enable-background:new 0 0 512 512;" xml:space="preserve">
<style type="text/css">
	.st0{fill:none;}
	.st1{fill:#FFFFFF;}
	.st2{fill:#ED0F49;}
	.st3{fill:#FFEBCA;}
	.st4{fill:#9B4231;}
	.st5{fill:#EAB363;}
	.st6{opacity:0.2;enable-background:new    ;}
	.st7{fill:#F7B5E5;}
	.st8{fill:#F9437C;}
	.st9{fill:#FFD7E5;}
	.st10{fill:#FF76A0;}
	.st11{fill:#BBD5FF;}
	.st12{fill:#85BC00;}
	.st13{fill:#00D871;}
	.st14{fill:#FFA300;}
	.st15{fill:#FF99FF;}
	.st16{fill:#E20569;}
	.st17{fill:#4BE08E;}
	.st18{fill:#06FFEC;}
	.st19{fill:#FFA403;}
	.st20{fill:#76D1FF;}
	.st21{fill:#6F00FF;}
	.st22{fill:#0050C4;}
	.st23{fill:#9772D3;}
	.st24{fill:#FFE564;}
	.st25{clip-path:url(#SVGID_2_);fill:#E5E5E5;}
	.st26{clip-path:url(#SVGID_4_);fill:#008BD8;}
	.st27{clip-path:url(#SVGID_6_);fill:#008BD8;}
	.st28{clip-path:url(#SVGID_8_);fill:#008BD8;}
	.st29{fill:#FFC639;}
	.st30{fill:#FF7900;}
	.st31{clip-path:url(#SVGID_10_);fill:#E5E5E5;}
	.st32{clip-path:url(#SVGID_12_);fill:#008BD8;}
	.st33{clip-path:url(#SVGID_14_);fill:#008BD8;}
	.st34{clip-path:url(#SVGID_16_);fill:#008BD8;}
	.st35{clip-path:url(#SVGID_18_);fill:#E5E5E5;}
	.st36{clip-path:url(#SVGID_20_);fill:#008BD8;}
	.st37{clip-path:url(#SVGID_22_);fill:#008BD8;}
	.st38{clip-path:url(#SVGID_24_);fill:#008BD8;}
	.st39{fill:#CAEFFF;}
	.st40{opacity:0.1;}
	.st41{fill:#3C0000;}
	.st42{fill:#C00000;}
	.st43{fill:#23292D;}
	.st44{fill:#F2F2F2;}
	.st45{opacity:0.6;fill:#3C5366;}
	.st46{fill:#3C5366;}
	.st47{fill:#1B2A35;}
	.st48{fill:#7B0000;}
	.st49{fill:#9EC3F2;}
	.st50{fill:#4D84C1;}
	.st51{opacity:0.74;fill:#7B0000;}
	.st52{opacity:0.74;fill:#C00000;}
	.st53{fill:#CBDCF4;}
	.st54{fill:#500000;}
	.st55{fill:#56AAE8;}
	.st56{fill:#FF9999;}
	.st57{opacity:0.3;fill:#FFFFFF;}
	.st58{opacity:0.3;}
	.st59{fill:#F98706;}
	.st60{fill:#FFCC00;}
	.st61{fill:#0092DB;}
	.st62{fill:#00B7FF;}
	.st63{fill:#50D6FF;}
	.st64{fill:#88E0FF;}
	.st65{fill:#DDA800;}
	.st66{fill:#F4C42A;}
	.st67{fill:#FFDB4D;}
	.st68{opacity:0.4;fill:#441F00;}
	.st69{fill:#CE8032;}
	.st70{fill:#6B8900;}
	.st71{fill:#9AC400;}
	.st72{fill:#C2DD00;}
	.st73{opacity:0.2;}
	.st74{fill:#E6F1FF;}
	.st75{fill:#0B0B0C;}
	.st76{fill:#0080FF;}
	.st77{fill:#FFED83;}
	.st78{fill:#AA6500;}
	.st79{clip-path:url(#SVGID_26_);}
	.st80{opacity:0.2;fill:#48A0FF;}
	.st81{fill:#E27100;}
	.st82{fill:#FFB000;}
	.st83{fill:#FFAA00;}
	.st84{fill:#FFDF7B;}
	.st85{opacity:0.2;fill:#F98706;}
	.st86{fill:#B6E7FF;}
	.st87{fill:#D9F4FF;}
	.st88{fill:#379AF4;}
	.st89{fill:#8FD4FF;}
	.st90{fill:#5FBBFF;}
	.st91{opacity:0.2;fill:#379AF4;}
	.st92{fill:#FFF0C5;}
	.st93{fill:#7599BC;}
	.st94{fill:#1D1D38;}
	.st95{opacity:0.15;fill:#0B0019;}
	.st96{opacity:0.05;fill:#FFFFFF;}
	.st97{fill:#618099;}
	.st98{fill:#494968;}
	.st99{fill:#595972;}
	.st100{fill:#E9BC00;}
	.st101{opacity:0.5;}
	.st102{fill:#DDDFE4;}
	.st103{opacity:0.3;fill:#0B0019;}
	.st104{opacity:0.08;fill:#FFFFFF;}
	.st105{fill:#5A5A84;}
	.st106{fill:#B3B3CE;}
	.st107{fill:#FD1B64;}
	.st108{fill:#D6004D;}
	.st109{fill:#920006;}
	.st110{fill:#8585A8;}
	.st111{fill:#171723;}
	.st112{opacity:0.1;fill:#FFFFFF;}
	.st113{opacity:0.2;fill:#0B0019;}
	.st114{fill:#547D9B;}
	.st115{fill:#A1D5FF;}
	.st116{fill:#00254D;}
	.st117{opacity:0.1;fill:#3E0A75;}
	.st118{opacity:0.4;fill:#FFFFFF;}
	.st119{fill:#2D5171;}
	.st120{fill:#B88352;}
	.st121{fill:#EFC478;}
	.st122{fill:#76838E;}
	.st123{fill:#B7A1E2;}
	.st124{fill:#FF4385;}
	.st125{fill:#D30041;}
	.st126{fill:#ED065F;}
	.st127{opacity:0.8;fill:#FFFFFF;}
	.st128{fill:#5D422A;}
	.st129{opacity:0.3;fill:#3E0A75;}
	.st130{fill:#FF7187;}
	.st131{fill:#CE4A69;}
	.st132{fill:#444468;}
	.st133{fill:#1A1A23;}
	.st134{fill:#1F95DD;}
	.st135{fill:#DA0000;}
	.st136{fill:#2C2C4C;}
	.st137{fill:#BCBCE8;}
	.st138{fill:#222B33;}
	.st139{fill:#394854;}
	.st140{fill:#273544;}
	.st141{fill:#86A9BF;}
	.st142{fill:#F79984;}
	.st143{fill:#0A0F11;}
	.st144{fill:#E07868;}
	.st145{fill:#D35440;}
	.st146{fill:#FFC2B8;}
	.st147{fill:#A53A2F;}
	.st148{fill:#C64E36;}
	.st149{fill:#070000;}
	.st150{fill:#230200;}
	.st151{fill:#540000;}
	.st152{fill:#AF8F08;}
	.st153{fill:#16D8C0;}
	.st154{fill:#75EFDD;}
	.st155{fill:#00AF96;}
	.st156{fill:#00846E;}
	.st157{fill:#FFE161;}
	.st158{fill:#05C4A8;}
	.st159{fill:#F3E9FF;}
	.st160{fill:#FFC5DB;}
	.st161{fill:#E5D2FF;}
	.st162{fill:#CDB3FF;}
	.st163{opacity:0.2;fill:#3E0A75;}
	.st164{fill:#A8003D;}
	.st165{fill:#AA6D35;}
	.st166{fill:#FFD6B8;}
	.st167{fill:#FFE697;}
	.st168{fill:#FFDD88;}
	.st169{fill:#FF5986;}
	.st170{opacity:0.4;fill:#C40059;}
	.st171{fill:#CC004E;}
	.st172{fill:#2D2D2D;}
	.st173{opacity:0.6;}
	.st174{fill:#3D3D3D;}
	.st175{fill:#4F4F4F;}
	.st176{fill:#636363;}
	.st177{fill:#E9F5FF;}
	.st178{fill:#C1E0F4;}
	.st179{fill:#E50000;}
	.st180{fill:#FF7373;}
	.st181{fill:#F25F5F;}
	.st182{fill:#FFB200;}
	.st183{opacity:0.5;fill:#FF7373;}
	.st184{fill:#FFCF7B;}
	.st185{fill:#00CEC3;}
	.st186{fill:#00EAD9;}
	.st187{fill:#00A599;}
	.st188{fill:#007F73;}
	.st189{fill:#DD5050;}
	.st190{fill:#FFA6A6;}
	.st191{fill:#45793B;}
	.st192{fill:#35612A;}
	.st193{fill:#235317;}
	.st194{fill:#5E8F44;}
	.st195{fill:#65954D;}
	.st196{fill:#930000;}
	.st197{fill:#F00000;}
	.st198{fill:#EAB80D;}
	.st199{fill:#FFD226;}
</style>
<g id="Credits_10_Birthday">
</g>
<g id="Credits_5000">
	<rect class="st0" width="512" height="512"/>
	<g>
		<path class="st39" d="M59.618,113h195.934c0,0,1.374-16.574-39.861-11.612c0,0,7.345-29.179-18.719-26.962
			S163.533,85.51,163.533,85.51s4.715-22.169-14.794-22.169s-24.386,18.179-21.726,21.726c0,0-9.311-10.641-16.849-6.207
			c-7.538,4.434-1.823,15.519-1.823,15.519s-14.385-11.085-25.346-3.104c0,0-10.975,2.217-9.195,11.971
			C73.8,103.245,52.524,99.255,59.618,113z"/>
		<path class="st39" d="M289.284,63h133.773c0,0,0.122-12.948-14.51-10.731c0,0-0.571-11.528-13.809-10.198
			c-13.238,1.33-10.578,7.538-10.578,7.538s-10.198-33.254-44.782-5.321c0,0-19.062-8.424-21.946,6.207
			C317.432,50.496,279.981,43.137,289.284,63z"/>
		<path class="st40" d="M47.495,289.503l166.229,138.96c0,0,49.87,34.303,105.911,12.001
			c42.362-16.859,136.303-64.124,136.303-64.124s77.04-26.763-79.678-64.794s-205.563-45.182-205.563-45.182
			S16.984,265.422,47.495,289.503z"/>
		<g class="st40">
			<path d="M48.932,302.517c13.28,9.532,26.197,19.5,38.986,29.621c6.429,5.019,12.726,10.197,19.085,15.3l18.879,15.547
				c12.529,10.432,24.9,21.055,37.151,31.82c12.248,10.769,24.366,21.694,36.118,33.059c-13.285-9.527-26.204-19.492-38.992-29.614
				c-12.785-10.126-25.45-20.395-37.958-30.853l-18.676-15.79c-6.159-5.342-12.38-10.61-18.47-16.036
				C72.808,324.799,60.688,313.876,48.932,302.517z"/>
		</g>
		<g class="st40">
			<path d="M66.797,335.01c9.662,6.513,18.958,13.466,28.144,20.551c9.17,7.103,18.196,14.379,27.099,21.803
				c8.903,7.423,17.678,15.001,26.308,22.751c8.616,7.767,17.119,15.67,25.253,24.015c-9.667-6.507-18.964-13.458-28.149-20.544
				c-9.17-7.103-18.197-14.379-27.094-21.809c-8.898-7.429-17.672-15.006-26.303-22.757C83.44,351.25,74.935,343.349,66.797,335.01z
				"/>
		</g>
		<g>
			<rect x="54.405" y="203.113" class="st41" width="22.023" height="23.656"/>
			<path class="st42" d="M462.049,242.539c-11.696-4.506-59.379-43.932-183.534-63.082c0,0-87.268-21.403-98.964-10.138
				c0,0-40.485-13.518-95.366,6.759c0,0-21.592-18.023-43.184,18.023c0,0,6.427,30.371,16.096,44.973
				c-0.376-6.956,0.212-13.235,1.659-18.044c-0.133-9.619,1.31-17.154,7.437-10.031c0,0,6.298,9.012,8.097,29.288
				c1.799,20.276,11.696,31.541,17.993,37.173c6.298,5.632,83.67,74.346,83.67,74.346s1.799-65.335,31.489-59.702
				c29.689,5.632,44.984,52.944,54.88,98.002c0,0,2.7,34.92,46.784,32.667c44.084-2.253,152.045-92.37,152.045-92.37
				s8.097-21.403-2.699-37.173c0,0,14.395,0,14.395-28.161C472.844,265.068,473.744,247.045,462.049,242.539z"/>
			<path class="st41" d="M176.008,351.806l77.558-18.023l-35.428-60.829C218.138,272.954,158.773,276.333,176.008,351.806z"/>
			<g>
				<path class="st43" d="M276.555,341.024c-9.947-33.25-30.865-54.897-46.798-48.489l-0.129-0.431l-27.768,12.391l13.192,44.11
					c0.856,5.345,2.092,10.826,3.74,16.336c1.646,5.504,3.598,10.681,5.774,15.474l13.679,45.737l27.768-12.391l-0.135-0.45
					C281.718,406.575,286.505,374.281,276.555,341.024z"/>
				
					<ellipse transform="matrix(0.9669 -0.2551 0.2551 0.9669 -85.9365 68.1923)" class="st43" cx="219.907" cy="365.373" rx="31.045" ry="63.144"/>
				
					<ellipse transform="matrix(0.9669 -0.2551 0.2551 0.9669 -85.9365 68.1923)" class="st44" cx="219.907" cy="365.373" rx="27.15" ry="55.223"/>
				
					<ellipse transform="matrix(0.9669 -0.2551 0.2551 0.9669 -85.9365 68.1923)" class="st45" cx="219.907" cy="365.373" rx="19.831" ry="40.335"/>
				
					<ellipse transform="matrix(0.9669 -0.2551 0.2551 0.9669 -85.7147 69.9022)" class="st46" cx="226.609" cy="365.373" rx="13.178" ry="26.804"/>
				
					<ellipse transform="matrix(0.9669 -0.2551 0.2551 0.9669 -84.4068 70.9745)" class="st47" cx="231.397" cy="360.868" rx="7.333" ry="14.915"/>
			</g>
			<g>
				<path class="st43" d="M100.735,233.532c-4.797-19.687-14.886-32.504-22.569-28.71l-0.062-0.255l-13.392,7.337l6.362,26.117
					c0.413,3.165,1.009,6.41,1.804,9.672c0.794,3.259,1.735,6.324,2.784,9.162l6.597,27.08l13.392-7.337l-0.065-0.266
					C103.225,272.344,105.533,253.223,100.735,233.532z"/>
				
					<ellipse transform="matrix(0.9818 -0.1901 0.1901 0.9818 -45.7861 18.4723)" class="st43" cx="73.415" cy="247.949" rx="15.123" ry="37.014"/>
				
					<ellipse transform="matrix(0.9818 -0.1901 0.1901 0.9818 -45.7861 18.4723)" class="st44" cx="73.415" cy="247.949" rx="13.226" ry="32.371"/>
				
					<ellipse transform="matrix(0.9818 -0.1901 0.1901 0.9818 -45.7861 18.4723)" class="st45" cx="73.415" cy="247.949" rx="9.66" ry="23.644"/>
				
					<ellipse transform="matrix(0.9818 -0.1901 0.1901 0.9818 -45.7272 19.0866)" class="st46" cx="76.647" cy="247.949" rx="6.419" ry="15.712"/>
				
					<ellipse transform="matrix(0.9818 -0.1901 0.1901 0.9818 -45.1781 19.4768)" class="st47" cx="78.956" cy="245.281" rx="3.572" ry="8.743"/>
			</g>
			<path class="st48" d="M306.405,361.944c0,0-9.897-22.529,0-45.058c0,0-162.148-115.529-264.748-123.855
				c-0.219,0.355-0.438,0.706-0.657,1.071c0,0,6.427,30.371,16.096,44.973c-0.376-6.956,0.212-13.235,1.659-18.044
				c-0.133-9.619,1.31-17.154,7.437-10.031c0,0,6.298,9.012,8.097,29.288c1.799,20.276,11.696,31.541,17.993,37.173
				c6.298,5.632,83.67,74.346,83.67,74.346s1.799-65.335,31.489-59.702c29.689,5.632,44.984,52.944,54.88,98.002
				c0,0,2.7,34.92,46.784,32.667c0.356-0.018,0.727-0.058,1.091-0.087L306.405,361.944z"/>
			<path class="st1" d="M224.698,301.099c0,0-95.53-74.33-127.918-49.548c0,0-12.595,5.632,28.79,38.3s52.819,39.878,52.819,39.878
				S179.878,267.288,224.698,301.099z"/>
			<g>
				
					<ellipse transform="matrix(0.1053 -0.9944 0.9944 0.1053 -49.7895 627.7394)" class="st49" cx="323.975" cy="341.54" rx="20.173" ry="10.256"/>
				
					<ellipse transform="matrix(0.1053 -0.9944 0.9944 0.1053 -52.1061 625.1644)" class="st50" cx="321.385" cy="341.54" rx="15.02" ry="7.636"/>
			</g>
			<g>
				
					<ellipse transform="matrix(0.1053 -0.9944 0.9944 0.1053 -18.5689 640.3397)" class="st49" cx="346.588" cy="330.49" rx="19.019" ry="9.669"/>
				
					<ellipse transform="matrix(0.1053 -0.9944 0.9944 0.1053 -20.6042 638.0775)" class="st50" cx="344.313" cy="330.49" rx="13.972" ry="7.103"/>
			</g>
			<path class="st51" d="M297.408,198.607c0,0,76.472,27.571,107.961,51.546c0,0,17.993,10.789,0,17.981
				c-17.994,7.192-67.223,23.87-67.223,23.87l-127.107-74.217c0,0-6.298-5.994,8.097-8.391L297.408,198.607z"/>
			<g>
				
					<ellipse transform="matrix(0.1181 -0.993 0.993 0.1181 138.7976 699.0007)" class="st49" cx="462.926" cy="271.359" rx="19.138" ry="7.344"/>
				
					<ellipse transform="matrix(0.1181 -0.993 0.993 0.1181 137.0215 697.0008)" class="st50" cx="460.912" cy="271.359" rx="14.085" ry="5.405"/>
			</g>
			<path class="st52" d="M292.01,200.86c0,0,76.472,25.909,107.961,48.438c0,0,17.994,10.138,0,16.897
				c-17.993,6.759-67.223,22.43-67.223,22.43l-127.107-69.741c0,0-6.298-5.632,8.097-7.885L292.01,200.86z"/>
			<g>
				
					<ellipse transform="matrix(0.1181 -0.993 0.993 0.1181 123.0333 697.0209)" class="st49" cx="453.929" cy="279.245" rx="14.467" ry="5.551"/>
				
					<ellipse transform="matrix(0.1181 -0.993 0.993 0.1181 121.459 695.7524)" class="st50" cx="452.428" cy="279.497" rx="10.47" ry="4.018"/>
			</g>
			<path class="st48" d="M205.641,218.884c0,0,145.431,73.537,150.088,102.103C355.729,320.987,371.181,292.103,205.641,218.884z"/>
			<path class="st53" d="M359.485,377.714c0,0-4.498-31.541,12.595-39.426c17.094-7.885,57.579-30.414,57.579-30.414
				s17.094-10.138,17.993,21.403L359.485,377.714z"/>
			<path class="st54" d="M145.362,208.745c0,0-48.583-7.885-36.887-22.529c0,0,16.194-12.391,34.188-9.012L145.362,208.745z"/>
			<path class="st46" d="M139.065,178.331c0,0-14.395,31.541,6.298,30.414c20.693-1.126,54.88-7.885,54.88-7.885
				s63.877-10.138,85.469-7.885l-19.793-43.932c0,0-1.799-12.391-22.492-12.391s-58.479-5.632-89.968,10.138
				C153.46,146.79,143.563,160.308,139.065,178.331z"/>
			<path class="st55" d="M282.327,189.258l-17.854-39.629c0,0-0.152-1.024-0.858-2.471c-2.156-3.226-7.357-7.628-19.71-7.628
				c-19.494,0-55.09-4.984-84.753,8.972c0,0-9.323,11.962-13.56,27.912c0,0-13.56,27.911,5.933,26.915s51.699-6.978,51.699-6.978
				S260.763,187.772,282.327,189.258z"/>
			<path class="st46" d="M366.922,377.288c0,0-3.735-26.188,10.458-32.735c14.193-6.547,47.807-25.253,47.807-25.253
				s14.193-8.418,14.94,17.77L366.922,377.288z"/>
			<path class="st53" d="M258.272,372.929l38.236,22.809c0,0,8.997,5.632,33.288-4.506c24.291-10.138,131.353-69.84,131.353-69.84
				s3.415,0.16,2.607-13.437c0,0,8.189-6.839,9.089,2.173c0.9,9.012-1.799,21.403-16.194,30.414
				c-14.395,9.012-47.683,37.173-136.751,74.346c0,0-12.595,3.379-27.89-6.759s-29.689-18.023-29.689-18.023L258.272,372.929z"/>
			<path class="st45" d="M472.646,308.871c-1.159,7.59-5.417,16.036-15.996,22.658c-14.395,9.012-47.683,37.173-136.751,74.346
				c0,0-12.595,3.379-27.89-6.759s-29.689-18.023-29.689-18.023l-1.577-6.69l-2.471-1.475l4.049,17.176
				c0,0,14.395,7.885,29.689,18.023s27.89,6.759,27.89,6.759c89.068-37.173,122.356-65.335,136.751-74.346
				c14.395-9.012,17.094-21.403,16.194-30.414C472.798,309.664,472.729,309.253,472.646,308.871z"/>
			<path class="st56" d="M47.298,189.596c0,0,20.693-30.414,44.084-2.253c0,0,8.997,13.518,49.482,27.035
				c0,0-33.288-4.506-52.181-25.909C73.558,171.335,50.896,182.837,47.298,189.596z"/>
			<path class="st57" d="M264.473,149.629c0,0-0.152-1.024-0.858-2.471c-2.156-3.226-7.357-7.628-19.71-7.628
				c-15.192,0-40.163-3.025-64.485,2.245c7.537,14.981,17.098,34.09,27.086,54.1c12.495-1.78,57.352-7.889,75.822-6.617
				L264.473,149.629z"/>
			<path class="st57" d="M264.473,149.629c0,0-0.152-1.024-0.858-2.471c-2.156-3.226-7.357-7.628-19.71-7.628
				c-11.431,0-28.398-1.711-46.46-0.314l25.979,54.39c18.724-2.364,45.629-5.262,58.903-4.348L264.473,149.629z"/>
			<path class="st57" d="M264.473,149.629c0,0-0.152-1.024-0.858-2.471c-2.156-3.226-7.357-7.628-19.71-7.628
				c-7.185,0-16.56-0.675-27.018-0.83l23.824,52.878c15.516-1.666,32.083-2.977,41.617-2.32L264.473,149.629z"/>
			<path class="st56" d="M444.537,292.004c0,0-10.158-22.038-27.487-30.122c0,0,18.026,14.289,23.802,30.122l-74.374,35.841
				C366.478,327.845,447.654,298.788,444.537,292.004z"/>
			<path class="st56" d="M330.705,316.792c0,0-66.925-59.831-157.835-95.332C172.87,221.46,261.788,242.472,330.705,316.792z"/>
			<path class="st56" d="M452.428,259.421c0,0-60.897-45.373-149.21-64.54C303.218,194.881,390.459,204.157,452.428,259.421z"/>
			<path class="st56" d="M292.263,204.239c0,0,125.043,46.467,111.039,56.119c0,0-25.69,11.131-69.311,23.081
				c0,0,42.326-15.348,63.14-24.019c0,0,10.158-3.749-25.993-19.215L292.263,204.239z"/>
		</g>
		<g>
			<path class="st58" d="M417.805,249.273c-17.674-18.349-51.429-26.853-64.583-29.577c0.392-1.605,0.293-3.344-0.411-4.978
				l-3.634-8.442c-1.023-2.377-3.079-3.985-5.417-4.544c-2.082-1.201-4.68-1.446-7.057-0.423l-5.484,2.361
				c-2.377,1.023-3.985,3.079-4.544,5.417c-0.169,0.293-0.322,0.594-0.452,0.906c-12.45-6.295-72.273-34.748-76.387-2.361
				l13.579,31.545c0,0,2,20.776,59.89-7.658c-7.686,14.553-16.926,36.258-16.047,55.231c0,0,4.179-4.967,13.448-10.088
				l18.911,18.783c0,0-2.671-45.02,2.05-67.346l1.441-0.62c1.832,2.204,3.816,3.951,3.816,3.951
				c18.698,8.695,54.954,47.325,54.954,47.325l-0.644-26.646C411.326,248.894,417.805,249.273,417.805,249.273z"/>
			<g>
				<g>
					<path class="st59" d="M276.609,228.616c0,0,2.268,23.595,72.024-13.91l-4.813-9.145
						C343.82,205.56,266.34,194.577,276.609,228.616z"/>
				</g>
				<g>
					<path class="st59" d="M429.781,196.601c0,0,6.784,22.712-71.961,14.236l1.015-10.285
						C358.836,200.552,426.477,161.201,429.781,196.601z"/>
				</g>
				<g>
					<path class="st60" d="M358.946,195.156c0,0,53.662-64.663,71.536-32.892l-0.7,34.337c0,0-5.847-27.576-71.934,13.757
						L358.946,195.156z"/>
				</g>
				<g>
					<path class="st60" d="M346.355,204.294c0,0-27.387,39.845-25.903,71.894c0,0,4.179-4.967,13.448-10.089l18.911,18.783
						c0,0-3.138-52.886,3.399-72.443C356.211,212.44,356.981,191.195,346.355,204.294z"/>
				</g>
				<g>
					<path class="st60" d="M360.977,208.111c0,0,47.765,7.495,70.023,30.603c0,0-6.48-0.379-16.571,2.833l0.644,26.646
						c0,0-36.256-38.63-54.954-47.325C360.119,220.868,344.159,206.825,360.977,208.111z"/>
				</g>
				<g>
					<path class="st59" d="M360.196,215.241l-5.071,2.183c-4.93,2.122-10.647-0.154-12.769-5.084l-2.183-5.071
						c-2.122-4.93,0.154-10.647,5.084-12.769l5.071-2.183c4.93-2.122,10.647,0.154,12.769,5.084l2.183,5.071
						C367.403,207.402,365.127,213.119,360.196,215.241z"/>
				</g>
				<g>
					<path class="st60" d="M341.686,200.603c0,0-74.062-39.696-78.656-3.533l13.579,31.545c0,0-4.968-27.748,71.82-14.343
						L341.686,200.603z"/>
				</g>
				<g>
					<path class="st60" d="M356.807,211.441l-2.113,0.91c-4.93,2.122-10.647-0.154-12.769-5.084l-0.91-2.113
						c-2.122-4.93,0.154-10.647,5.084-12.769l2.113-0.91c4.93-2.122,10.647,0.154,12.769,5.084l0.91,2.113
						C364.014,203.602,361.738,209.319,356.807,211.441z"/>
				</g>
			</g>
		</g>
	</g>
</g>
<g id="Credits_3000">
</g>
<g id="Credits_2000">
</g>
<g id="Credits_1000">
</g>
<g id="Credits_750">
</g>
<g id="Credits_500">
</g>
<g id="Credits_300">
</g>
<g id="Credits_200">
</g>
<g id="Credits_100">
</g>
<g id="Credits_75">
</g>
<g id="Credits_50">
</g>
<g id="Credits_25">
</g>
<g id="Credits_10">
</g>
<g id="Credits_5">
</g>
<g id="Credits_1">
</g>
</svg>
