<?xml version="1.0" encoding="utf-8"?>
<!-- Generator: Adobe Illustrator 24.3.0, SVG Export Plug-In . SVG Version: 6.00 Build 0)  -->
<svg version="1.1" id="Layer_29" xmlns="http://www.w3.org/2000/svg" xmlns:xlink="http://www.w3.org/1999/xlink" x="0px" y="0px"
	 viewBox="0 0 512 512" style="enable-background:new 0 0 512 512;" xml:space="preserve">
<style type="text/css">
	.st0{fill:#D78C4C;}
	.st1{fill:#EBA762;}
	.st2{fill:#EFEFEF;}
	.st3{opacity:0.3;}
	.st4{fill:#B7B7B7;}
	.st5{fill:#E5E5E5;}
	.st6{fill:#DBDBDB;}
	.st7{fill:url(#SVGID_1_);}
	.st8{fill:url(#SVGID_2_);}
	.st9{fill:url(#SVGID_3_);}
	.st10{fill:url(#SVGID_4_);}
	.st11{fill:url(#SVGID_5_);}
	.st12{fill:#A0A0A0;}
	.st13{fill:#FFFFFF;}
	.st14{fill:url(#SVGID_6_);}
	.st15{opacity:0.38;}
	.st16{fill:#828282;}
	.st17{fill:#575756;}
	.st18{fill:#87042A;}
	.st19{fill:#C6C6C5;}
	.st20{fill:#868686;}
	.st21{opacity:0.56;}
	.st22{fill:url(#SVGID_7_);}
	.st23{fill:url(#SVGID_8_);}
	.st24{fill:#E06890;}
	.st25{fill:#757575;}
	.st26{fill:#282828;}
	.st27{fill:#E5053B;}
	.st28{fill:url(#SVGID_9_);}
	.st29{fill:url(#SVGID_10_);}
	.st30{opacity:0.54;}
	.st31{fill:#5E5E5E;}
	.st32{opacity:0.2;}
	.st33{opacity:0.5;fill:#D78C4C;enable-background:new    ;}
	.st34{fill:#E8BA83;}
	.st35{fill:#EFB982;}
	.st36{fill:#915835;}
	.st37{fill:url(#SVGID_11_);}
	.st38{fill:#ADADAD;}
	.st39{fill:url(#SVGID_12_);}
	.st40{fill:#D8D8D8;}
	.st41{fill:#5B5B5B;}
	.st42{opacity:0.28;enable-background:new    ;}
	.st43{fill:#CE0229;}
</style>
<g>
	<g>
		<g>
			<polygon class="st0" points="126,420 263.3,397.1 263.3,225.6 126,282.4 			"/>
			<polygon class="st1" points="400.6,420 263.3,397.1 263.3,225.6 400.6,282.4 			"/>
		</g>
		<g>
			<g>
				<g>
					<path class="st2" d="M443.9,231.2L443.9,231.2c-4.7,8.5-17.7,18.8-39.1,26.5c0.1,0,0.2,0,0.3,0c11.1,0.2,16.4,3.2,17,7.2
						c0.5,2.8-1.4,6.2-5.3,9.3l0,0c-6,4.8-16.6,9.1-30.4,10.3c3.2,1.7,5.6,3.3,7.1,4.9c14.3,14.3-38,22-73.7-3l-6.4-70.4l22.2-11.3
						c11.1-5.4,22-11,32.6-17c16.4-9.3,32.2-19.3,47-30.6c4.3-3.3,10-4.5,15.2-2.9c3.5,1.1,6.3,3.2,8.2,6c4.8,7,4.7,18.5-0.7,30.7
						c-2.5,5.5-6,11.2-10.7,16.7l0,0c-3.1,3.6-6.6,7-10.7,10.3c10.6-3,18.3-3.1,23.2-1.4C446.1,218.9,447.6,224.5,443.9,231.2z"/>
				</g>
			</g>
			<g class="st3">
				<path class="st4" d="M443.9,231.2L443.9,231.2c-4,9.7-19.2,19.6-38.8,26.5c-6.5,2.3-13.4,4.3-20.6,5.9l-17.6,3.1
					c-5.8,15.5,50.8,6,47-6.2c4.3,1.4,6.9,2.9,8.2,4.4c2.6,3.1-0.1,6.3-5.3,9.3l0,0c-10.5,6-31.1,10.8-39.4,10.7c0,0-9.2,0-15.5-1.2
					s-5,13.9,30.5,5.9c0.4-0.1,0.7-0.2,1.1-0.2c14.3,14.3-38,22-73.7-3l-6.4-70.4l22.2-11.3c11.1-5.4,22-11,32.6-17l3.2,0.2
					c0,0-15.7,12.4-23,30c-3.2,7.8,4.5,15.7,12.4,12.6c33.1-13.2,60.7-34.1,77.8-70.3c0,0,6.6,13.1-0.7,30.7
					c-2.2,5.2-5.6,10.9-10.7,16.7l0,0c-5.1,5.8-12,11.7-21.1,17.5l-24.4,12.5c-12.2,24.2,54-1.3,58-21.2
					C444.9,221.1,445.9,226.1,443.9,231.2z"/>
			</g>
		</g>
		<g>
			<g>
				<g>
					<path class="st2" d="M65.9,231.2L65.9,231.2c4.7,8.5,17.7,18.8,39.1,26.5c-0.1,0-0.2,0-0.3,0c-11.1,0.2-16.4,3.2-17,7.2
						c-0.5,2.8,1.4,6.2,5.3,9.3l0,0c6,4.8,16.6,9.1,30.4,10.3c-3.2,1.7-5.6,3.3-7.1,4.9c-14.3,14.3,38,22,73.7-3l6.4-70.4
						l-22.2-11.3c-11.1-5.4-22-11-32.6-17c-16.4-9.3-32.2-19.3-47-30.6c-4.3-3.3-10-4.5-15.2-2.9c-3.5,1.1-6.3,3.2-8.2,6
						c-4.8,7-4.7,18.5,0.7,30.7c2.5,5.5,6,11.2,10.7,16.7l0,0c3.1,3.6,6.6,7,10.7,10.3c-10.6-3-18.3-3.1-23.2-1.4
						C63.6,218.9,62.2,224.5,65.9,231.2z"/>
				</g>
			</g>
			<g>
				<path class="st5" d="M65.9,231.2L65.9,231.2c4,9.7,19.2,19.6,38.8,26.5c6.5,2.3,13.4,4.3,20.6,5.9l17.6,3.1
					c5.8,15.5-50.8,6-47-6.2c-4.3,1.4-6.9,2.9-8.2,4.4c-2.6,3.1,0.1,6.3,5.3,9.3l0,0c10.5,6,31.1,10.8,39.4,10.7c0,0,9.2,0,15.5-1.2
					s5,13.9-30.5,5.9c-0.4-0.1-0.7-0.2-1.1-0.2c-14.3,14.3,38,22,73.7-3l6.4-70.4l-22.2-11.3c-11.1-5.4-22-11-32.6-17l-3.2,0.2
					c0,0,15.7,12.4,23,30c3.2,7.8-4.5,15.7-12.4,12.6c-33.1-13.2-60.7-34.1-77.8-70.3c0,0-6.6,13.1,0.7,30.7
					c2.2,5.2,5.6,10.9,10.7,16.7l0,0c5.1,5.8,12,11.7,21.1,17.5l24.4,12.5c12.2,24.2-54-1.3-58-21.2
					C64.9,221.1,63.8,226.1,65.9,231.2z"/>
			</g>
		</g>
		<g>
			<g>
				<g>
					<path class="st2" d="M65.9,231.2L65.9,231.2c4.7,8.5,17.7,18.8,39.1,26.5c-0.1,0-0.2,0-0.3,0c-11.1,0.2-16.4,3.2-17,7.2
						c-0.5,2.8,1.4,6.2,5.3,9.3l0,0c6,4.8,16.6,9.1,30.4,10.3c-3.2,1.7-5.6,3.3-7.1,4.9c-14.3,14.3,38,22,73.7-3l6.4-70.4
						l-22.2-11.3c-11.1-5.4-22-11-32.6-17c-16.4-9.3-32.2-19.3-47-30.6c-4.3-3.3-10-4.5-15.2-2.9c-3.5,1.1-6.3,3.2-8.2,6
						c-4.8,7-4.7,18.5,0.7,30.7c2.5,5.5,6,11.2,10.7,16.7l0,0c3.1,3.6,6.6,7,10.7,10.3c-10.6-3-18.3-3.1-23.2-1.4
						C63.6,218.9,62.2,224.5,65.9,231.2z"/>
				</g>
			</g>
			<g>
				<path class="st6" d="M65.9,231.2L65.9,231.2c4,9.7,19.2,19.6,38.8,26.5c6.5,2.3,13.4,4.3,20.6,5.9l17.6,3.1
					c5.8,15.5-50.8,6-47-6.2c-4.3,1.4-6.9,2.9-8.2,4.4c-2.6,3.1,0.1,6.3,5.3,9.3l0,0c10.5,6,31.1,10.8,39.4,10.7c0,0,9.2,0,15.5-1.2
					s5,13.9-30.5,5.9c-0.4-0.1-0.7-0.2-1.1-0.2c-14.3,14.3,38,22,73.7-3l6.4-70.4l-22.2-11.3c-11.1-5.4-22-11-32.6-17l-3.2,0.2
					c0,0,15.7,12.4,23,30c3.2,7.8-4.5,15.7-12.4,12.6c-33.1-13.2-60.7-34.1-77.8-70.3c0,0-6.6,13.1,0.7,30.7
					c2.2,5.2,5.6,10.9,10.7,16.7l0,0c5.1,5.8,12,11.7,21.1,17.5l24.4,12.5c12.2,24.2-54-1.3-58-21.2
					C64.9,221.1,63.8,226.1,65.9,231.2z"/>
			</g>
		</g>
		<g>
			<g>
				<linearGradient id="SVGID_1_" gradientUnits="userSpaceOnUse" x1="254.1933" y1="433.0086" x2="254.1933" y2="251.6">
					<stop  offset="0" style="stop-color:#A0A0A0"/>
					<stop  offset="0.88" style="stop-color:#B7B7B7"/>
				</linearGradient>
				<path class="st7" d="M331,367.8L331,367.8l-4.4,42.1c-0.5,4.8-2.1,9.4-4.9,13.3c-7.4,10.3-19.9,12.6-31.4,6.2
					c-10.1-5.6-16.1-16.4-16.2-27.9c0-3.5,0-7,0.1-10.2c0.1,0,0.2,0,0.2,0h-0.2l0,0c-11.6,2.2-23.2,2.5-34.8,0.9
					c-1.7-0.2-3.4-0.5-5.1-0.8v-0.1h-0.4c0.2,0,0.3,0.1,0.4,0.1c0.1,3.2,0.2,6.6,0.1,10.1c-0.1,11.5-6.1,22.3-16.2,27.9
					c-4,2.3-8.2,3.4-12.3,3.6c-7.4,0.2-14.4-3.1-19.2-9.7c-2.8-3.9-4.4-8.5-4.9-13.3l-4.4-42.1l0,0c-19.3-32.2-10.4-83.3,4.8-116.3
					H326C341.4,284.5,350.3,335.7,331,367.8z"/>
			</g>
			<g>
				<linearGradient id="SVGID_2_" gradientUnits="userSpaceOnUse" x1="234.1" y1="391.3535" x2="234.1" y2="391.2781">
					<stop  offset="0" style="stop-color:#A0A0A0"/>
					<stop  offset="0.88" style="stop-color:#B7B7B7"/>
				</linearGradient>
				<path class="st8" d="M234.3,391.3L234.3,391.3c-0.2,0.1-0.3,0-0.4,0H234.3z"/>
			</g>
			<g>
				<linearGradient id="SVGID_3_" gradientUnits="userSpaceOnUse" x1="234.1" y1="391.3535" x2="234.1" y2="391.2781">
					<stop  offset="0" style="stop-color:#A0A0A0"/>
					<stop  offset="0.88" style="stop-color:#B7B7B7"/>
				</linearGradient>
				<path class="st9" d="M233.9,391.3h0.4v0.1C234.2,391.3,234,391.3,233.9,391.3z"/>
			</g>
		</g>
		<path class="st12" d="M328.9,258c-0.9-2.2-4.5-9.9-5.4-12l-139,1c-0.8,1.7-3.7,7.9-4.5,9.7c-0.5,1.3-1,2.6-1.6,3.9
			c20.4,13.3,48.1,21.4,78.5,21.4c28.3,0,54.2-7,74-18.6C330.4,261.5,329.7,259.7,328.9,258z"/>
		<path class="st12" d="M326.1,251.5h-22.3c11.7,21.5,18.6,47.7,18.6,76c0,39.9-13.7,75.6-35.4,99.9c1,0.7,2,1.4,3.1,2
			c11.5,6.4,24,4.1,31.4-6.2c2.8-3.9,4.4-8.5,4.9-13.3l4.4-42.1l0,0C350.3,335.7,341.4,284.5,326.1,251.5z"/>
		<g>
			<g>
				<path class="st13" d="M307.7,432.5c-5.6,1.1-11.7,0.1-17.5-3.1c-10.1-5.6-16.1-16.4-16.2-27.9c0-3,0-6,0.1-8.8
					c0.6-0.1,1.2-0.1,1.8-0.2l-0.8-16l0,0c4.6,0,8.3,3.8,8.2,8.4l-0.1,6.5c-0.1,3.2-0.2,6.7-0.1,10.3c0.1,11.5,6.2,22.2,16.2,27.8
					C302.1,431,304.9,432,307.7,432.5z"/>
			</g>
		</g>
		<linearGradient id="SVGID_4_" gradientUnits="userSpaceOnUse" x1="258.4765" y1="402" x2="258.4765" y2="277.7">
			<stop  offset="0.4344" style="stop-color:#868686"/>
			<stop  offset="0.8283" style="stop-color:#B7B7B7"/>
		</linearGradient>
		<path class="st10" d="M197.4,277.7c0,0,63,21.3,107,0.3l16.6,89.9L263,402l-57-25.5C206,376.5,191.4,303.4,197.4,277.7z"/>
		<g class="st15">
			<ellipse class="st16" cx="255.5" cy="328.4" rx="41" ry="41"/>
		</g>
		<g>
			<path class="st17" d="M234.3,391.4c0.1,3.2,0.2,6.6,0.1,10.1c-0.1,11.5-6.1,22.3-16.2,27.9c-4,2.3-8.2,3.4-12.3,3.6
				c14.7-7.5,14.1-39.5,12.9-54.1c-0.3-3.5,3.1-6.2,6.4-5.1c5.8,1.8,8.5,2.7,8.5,2.7l2.8,15.3C235,391.5,236,391.7,234.3,391.4z"/>
		</g>
		<g>
			<path class="st17" d="M233.9,376.4c0,0,24.2,3.8,38.6,0v15.8l-35.8-0.5L233.9,376.4z"/>
		</g>
		<path class="st12" d="M297.8,276.9c0,0,10.9-3.1,19.3,8l12-2.5L318.5,262l-20.7,5.8V276.9z"/>
		<path class="st18" d="M325.5,250c-0.9-2.2-4.3-9.9-5.2-12l-132.6,1c-0.8,1.7-3.5,7.9-4.3,9.7c-0.5,1.3-1,2.6-1.5,3.9
			c19.5,13.3,45.9,21.4,74.9,21.4c27,0,51.7-7,70.6-18.6C327,253.5,326.3,251.7,325.5,250z"/>
		<g>
			<path class="st19" d="M374.3,179.8c0,12.3-2.8,23.3-7.8,33c-3.6,7-8.4,13.2-14.2,18.8c-2,1.9-4.1,3.8-6.4,5.5l0,0
				c-22.4,17.5-56,26.5-93.7,26.5c-4.9,0-9.7-0.2-14.4-0.5l0,0c-31.7-2-59.8-10.8-79.2-26l0,0c-1.9-1.5-3.8-3.1-5.5-4.7
				c-14.4-13.3-22.9-30.9-22.9-52.6c0-7.8,1.1-15.6,3.1-23c0.8-2.9,1.8-5.8,2.8-8.7l-0.2,0.1c2.7-23.8,5.7-47,10.6-68.9
				c2.3-10.3,5.1-20.3,8.5-30c4.3-12.4,19.2-17.2,29.9-9.8c15.4,10.8,30.3,25.9,38.8,38.5c8.6-1.7,17.5-2.6,26.7-2.6
				c5.1,0,10.2,0.3,15.1,0.8c5.3,0.6,10.5,1.5,15.5,2.6l-1-0.8c8.6-12.6,23.4-27.8,38.8-38.5c10.7-7.5,25.6-2.6,29.9,9.8
				C357,72.8,361.5,98.4,365,125c1,7.4,1.9,14.9,2.7,22.5C372,157.8,374.3,168.7,374.3,179.8z"/>
		</g>
		<g>
			<path class="st20" d="M178.2,118.2c0,21.8-16,39.4-35.8,39.4c-2.6,0-5-0.3-7.5-0.9c0.8-2.9,1.8-5.8,2.8-8.7l-0.2,0.1
				c2.7-23.8,5.7-47,10.6-68.9C165.2,82.4,178.2,98.6,178.2,118.2z"/>
		</g>
		<g>
			<path class="st20" d="M375.1,179.8c0,12.3-2.8,23.3-7.8,33c-9.4,4.8-19.8,7.4-30.6,7.4c-44.1,0-79.9-43.7-79.9-97.7
				c0-16.7,3.4-32.5,9.5-46.3c5.3,0.6,10.5,1.5,15.5,2.6l-1-0.8c8.6-12.6,23.4-27.8,38.8-38.5c10.7-7.5,25.6-2.6,29.9,9.8
				c8.2,23.5,12.8,49.1,16.3,75.7c1,7.4,1.9,14.9,2.7,22.5C372.8,157.8,375.1,168.7,375.1,179.8z"/>
		</g>
		<g class="st21">
			<linearGradient id="SVGID_5_" gradientUnits="userSpaceOnUse" x1="176.1" y1="55.1" x2="220.3" y2="55.1">
				<stop  offset="0" style="stop-color:#ABABAB"/>
				<stop  offset="0.1886" style="stop-color:#909090;stop-opacity:0.8491"/>
				<stop  offset="0.5942" style="stop-color:#4B4B4B;stop-opacity:0.5246"/>
				<stop  offset="1" style="stop-color:#000000;stop-opacity:0.2"/>
			</linearGradient>
			<path class="st11" d="M178,37.3c15.1,10.4,29.5,24.8,37.7,36.7c1.5-0.2,3.1-0.4,4.6-0.6c-8.8-11.5-21.9-24.4-35.4-33.8
				c-2.7-1.9-5.7-3-8.8-3.4C176.8,36.5,177.4,36.9,178,37.3z"/>
			<linearGradient id="SVGID_6_" gradientUnits="userSpaceOnUse" x1="213.7042" y1="262.5609" x2="356.2602" y2="72.4064">
				<stop  offset="0" style="stop-color:#ABABAB"/>
				<stop  offset="0.1886" style="stop-color:#909090;stop-opacity:0.8491"/>
				<stop  offset="0.5942" style="stop-color:#4B4B4B;stop-opacity:0.5246"/>
				<stop  offset="1" style="stop-color:#000000;stop-opacity:0.2"/>
			</linearGradient>
			<path class="st14" d="M367.7,147.5c-0.9-7.6-1.8-15.1-2.7-22.5c-3.5-26.6-8-52.2-16.3-75.7c-4.1-11.7-17.6-16.7-28.2-10.8
				c8.9-0.8,17.9,4.1,20.9,12.8c7.6,22,11.4,45.7,14.1,70.4c0.8,6.9,1.4,13.8,2.1,20.8c4,9.6,6,19.7,5.7,30
				c-0.3,11.4-3.4,21.4-8.7,30.2c-3.8,6.3-8.8,12-14.8,16.9c-2.1,1.7-4.2,3.3-6.5,4.9l0,0c-22.9,15.5-56.8,22.7-94.4,21.6
				c-4.9-0.1-9.7-0.4-14.4-0.9l0,0c-31.7-2.8-59.4-11.8-78.5-26.4l0,0c-1.9-1.4-3.7-2.9-5.4-4.5c-1.4-1.3-2.8-2.7-4.1-4.1
				c3.9,8.4,9.4,15.8,16.4,22.2c1.8,1.6,3.6,3.2,5.5,4.7l0,0c19.5,15.2,47.5,24,79.2,26l0,0c4.7,0.3,9.6,0.5,14.4,0.5
				c37.6,0,71.3-9,93.7-26.5l0,0c2.2-1.7,4.4-3.6,6.4-5.5c5.8-5.6,10.6-11.8,14.2-18.8c5-9.7,7.8-20.7,7.8-33
				C374.3,168.7,372,157.8,367.7,147.5z"/>
		</g>
		<g>
			<path class="st24" d="M193,88.8c-5.2-9.5-11.8-18.4-16.7-24.4c-2.6-3.2-7.7-2-8.6,2c-2.3,10-5.7,27-6.1,44.6l0,0"/>
		</g>
		<g>
			<path class="st25" d="M178.2,66.7c-0.2,0.3-0.3,0.7-0.4,1.1c-1.9,8.3-4.6,21.4-5.7,35.7l-10.5,7.4l0,0
				c0.5-17.6,3.8-34.5,6.1-44.6c0.9-4,6-5.1,8.6-2C177,65.1,177.6,65.9,178.2,66.7z"/>
		</g>
		<g>
			<path class="st24" d="M343.8,110.9L343.8,110.9c-0.5-17.6-3.8-34.5-6.1-44.6c-0.9-4-6-5.1-8.6-2c-4.8,6-11.5,14.9-16.7,24.4"/>
		</g>
		<g>
			<path class="st25" d="M338.5,70.3c-0.3,0.2-0.6,0.5-0.8,0.8c-4.7,5.9-11.3,14.7-16.4,24l-8.9-6.3c5.2-9.5,11.8-18.4,16.7-24.4
				c2.6-3.2,7.7-2,8.6,2C337.9,67.6,338.2,68.9,338.5,70.3z"/>
		</g>
		<g>
			<path class="st26" d="M264.4,188.7c0,3.4-4.7,6.1-10.4,6.1c-5.7,0-10.4-2.8-10.4-6.1c0-3.4,4.7-3.7,10.4-3.6
				C259.8,185,264.4,185.4,264.4,188.7z"/>
		</g>
		<g>
			<path class="st26" d="M278,192.4c0.1,2.7-0.4,5.7-2.3,8.3c-0.9,1.3-2.2,2.4-3.6,3.2s-3.1,1.2-4.7,1.3c-3.2,0.2-6.4-0.7-9-2.4
				c-1.3-0.8-2.5-1.9-3.6-3.1c-0.3-0.3-0.5-0.6-0.7-0.9l-0.3-0.5l-0.2-0.2c-0.1-0.1-0.1-0.2-0.1-0.1c0.2,0.3,0.5,0.4,0.7,0.4
				s0.5-0.1,0.7-0.4c0-0.1,0,0-0.1,0.1l-0.2,0.2l-0.3,0.5c-0.2,0.3-0.5,0.6-0.7,0.9c-1.1,1.2-2.3,2.2-3.6,3.1
				c-2.7,1.7-5.8,2.6-9,2.4c-1.6-0.1-3.2-0.6-4.7-1.3c-1.4-0.8-2.7-1.9-3.6-3.2c-1.8-2.6-2.3-5.6-2.2-8.3c0-0.5,0.4-0.8,0.9-0.8
				c0.4,0,0.7,0.3,0.8,0.6l0,0c0.8,2.4,1.8,4.7,3.4,6.1c1.6,1.5,3.5,2.1,5.5,2s4.1-0.9,5.8-2.1c0.9-0.6,1.6-1.3,2.3-2.1l0.5-0.6
				l0.5-0.8c0.9-1.3,2.5-2.1,4.1-2.1c1.5,0,3.2,0.8,4.1,2.1l0.5,0.8l0.5,0.6c0.6,0.8,1.4,1.5,2.3,2.1c1.7,1.2,3.7,2,5.8,2.1
				c2,0.1,4-0.5,5.5-1.9c1.6-1.4,2.7-3.7,3.4-6.1l0,0c0.1-0.4,0.6-0.7,1.1-0.5C277.7,191.7,278,192,278,192.4z"/>
		</g>
		<g>
			<path class="st26" d="M240.9,202.7c0,3.5,1,6.4,2.7,8.5c5,6.4,15.8,6.4,20.8,0c1.7-2.1,2.7-4.9,2.7-8.5c-5.1-1-9.6-2.9-13.1-5.9
				C250.4,200.1,246.1,202.4,240.9,202.7z"/>
		</g>
		<g>
			<path class="st27" d="M243.7,211.2c5,6.4,15.8,6.4,20.8,0C259.4,204.8,248.7,204.8,243.7,211.2z"/>
		</g>
		<g>
			<path class="st26" d="M254.1,218.9c-4.2,0-8.1-1.4-11-4.1c-2.3-2.1-5.1-5.9-5.1-12.1h5.9c0,7.1,5.1,10.3,10.2,10.3
				s10.2-3.2,10.2-10.3h5.9C270.1,213.3,262,218.9,254.1,218.9z"/>
		</g>
		<g>
			<radialGradient id="SVGID_7_" cx="303.2" cy="167.9" r="21.3413" gradientUnits="userSpaceOnUse">
				<stop  offset="0" style="stop-color:#000000"/>
				<stop  offset="0.2956" style="stop-color:#000202"/>
				<stop  offset="0.4188" style="stop-color:#000709"/>
				<stop  offset="0.5099" style="stop-color:#001116"/>
				<stop  offset="0.5853" style="stop-color:#001E27"/>
				<stop  offset="0.6508" style="stop-color:#00303E"/>
				<stop  offset="0.7096" style="stop-color:#00455A"/>
				<stop  offset="0.7621" style="stop-color:#005F7B"/>
				<stop  offset="0.7875" style="stop-color:#006D8E"/>
				<stop  offset="0.8656" style="stop-color:#006B8B"/>
				<stop  offset="0.9202" style="stop-color:#006382"/>
				<stop  offset="0.9675" style="stop-color:#005573"/>
				<stop  offset="1" style="stop-color:#004863"/>
			</radialGradient>
			<ellipse class="st22" cx="303.2" cy="167.9" rx="17.9" ry="24.3"/>
		</g>
		<g>
			<radialGradient id="SVGID_8_" cx="203.6" cy="167.9" r="21.3413" gradientUnits="userSpaceOnUse">
				<stop  offset="0" style="stop-color:#000000"/>
				<stop  offset="0.2956" style="stop-color:#000202"/>
				<stop  offset="0.4188" style="stop-color:#000709"/>
				<stop  offset="0.5099" style="stop-color:#001116"/>
				<stop  offset="0.5853" style="stop-color:#001E27"/>
				<stop  offset="0.6508" style="stop-color:#00303E"/>
				<stop  offset="0.7096" style="stop-color:#00455A"/>
				<stop  offset="0.7621" style="stop-color:#005F7B"/>
				<stop  offset="0.7875" style="stop-color:#006D8E"/>
				<stop  offset="0.8656" style="stop-color:#006B8B"/>
				<stop  offset="0.9202" style="stop-color:#006382"/>
				<stop  offset="0.9675" style="stop-color:#005573"/>
				<stop  offset="1" style="stop-color:#004863"/>
			</radialGradient>
			<ellipse class="st23" cx="203.6" cy="167.9" rx="17.9" ry="24.3"/>
		</g>
		<g>
			<ellipse class="st13" cx="306.9" cy="163.8" rx="5.4" ry="6.5"/>
		</g>
		<g class="st30">
			<path class="st31" d="M303.6,148.6c9.3,0,16.9,9.6,17.8,21.8c0.1-0.8,0.1-1.7,0.1-2.5c0-13.4-8-24.3-17.9-24.3
				s-17.9,10.9-17.9,24.3c0,0.8,0,1.7,0.1,2.5C286.7,158.1,294.3,148.6,303.6,148.6z"/>
			<path class="st31" d="M303.6,187.4c-9.3,0-16.9-9.6-17.8-21.8c-0.1,0.8-0.1,1.7-0.1,2.5c0,13.4,8,24.3,17.9,24.3
				s17.9-10.9,17.9-24.3c0-0.8,0-1.7-0.1-2.5C320.5,177.8,312.9,187.4,303.6,187.4z"/>
			<path class="st31" d="M203.6,148.6c9.3,0,16.9,9.6,17.8,21.8c0.1-0.8,0.1-1.7,0.1-2.5c0-13.4-8-24.3-17.9-24.3
				s-17.9,10.9-17.9,24.3c0,0.8,0,1.7,0.1,2.5C186.7,158.1,194.3,148.6,203.6,148.6z"/>
			<path class="st31" d="M203.6,187.4c-9.3,0-16.9-9.6-17.8-21.8c-0.1,0.8-0.1,1.7-0.1,2.5c0,13.4,8,24.3,17.9,24.3
				s17.9-10.9,17.9-24.3c0-0.8,0-1.7-0.1-2.5C220.5,177.8,212.9,187.4,203.6,187.4z"/>
		</g>
		<g>
			<ellipse class="st13" cx="199.8" cy="163.8" rx="5.4" ry="6.5"/>
		</g>
		<g class="st32">
			<path class="st13" d="M240.9,87.7c-14.9,2.4-27,6.8-35.6,13.8c-3.1,2.5-1.9,7.4,2,8.3c17.2,3.8,30.6-0.3,38.6-15.2
				C247.7,91.2,244.8,87.1,240.9,87.7z"/>
		</g>
		<g class="st32">
			<path class="st13" d="M186.5,125.5c-2.8-2.1-2.7-6.9,0.2-10.7c2.9-3.8,7.5-5.2,10.3-3.1s1,5.6-1.9,9.4
				C192.2,124.9,189.3,127.6,186.5,125.5z"/>
		</g>
		<polygon class="st0" points="263.3,476.8 400.6,420 400.6,282.4 263.3,339.3 		"/>
		<polygon class="st33" points="263.3,339.3 400.6,282.4 400.6,383.4 319.7,416.6 		"/>
		<path class="st1" d="M164.8,298.5c-14.7,4.4-29,5.1-38.8,3.3V420l137.3,56.8V339.3L164.8,298.5z"/>
		<polygon class="st34" points="263.1,339.3 325.6,399.8 463,343 400.4,282.4 		"/>
		<path class="st33" d="M164.8,298.5c-14.6,4.4-29,5.1-38.7,3.3v81.7l81,33.1l56.3-77.3L164.8,298.5z"/>
		<path class="st35" d="M165,298.4c-25.5,7.8-50.2,4-51.1-4L63.7,343L201,399.8l62.6-60.6L165,298.4z"/>
		<g>
			<polyline class="st36" points="272.5,459.8 273,459.6 273,465.7 			"/>
			<polygon class="st36" points="275.1,464.2 274.4,464.5 274.4,459 275.1,458.7 			"/>
			<polygon class="st36" points="273.6,465.5 273.3,465.6 273.3,459.5 273.6,459.3 			"/>
			<polygon class="st36" points="300.8,454.2 300.2,454.4 300.2,448 300.8,447.8 			"/>
			<polygon class="st36" points="301.3,453.9 301,454.1 301,447.7 301.3,447.6 			"/>
			<polygon class="st36" points="275.8,463.9 275.6,464 275.6,458.5 275.8,458.4 			"/>
			<polygon class="st36" points="276.8,463.5 276.5,463.7 276.5,458.1 276.8,458 			"/>
			<polygon class="st36" points="276.1,463.8 275.9,463.9 275.9,458.3 276.1,458.3 			"/>
			<polygon class="st36" points="277.6,463.2 276.8,463.5 276.8,458 277.6,457.6 			"/>
			<polygon class="st36" points="280.7,461.9 279.6,462.4 279.6,456.8 280.7,456.3 			"/>
			<polygon class="st36" points="278.4,462.8 277.9,463.1 277.9,457.5 278.4,457.3 			"/>
			<polygon class="st36" points="281.7,461.5 281.3,461.6 281.3,456.1 281.7,455.9 			"/>
			<polygon class="st36" points="282.1,461.3 281.8,461.4 281.8,455.8 282.1,455.7 			"/>
			<polygon class="st36" points="283.1,460.9 282.6,461.1 282.6,455.5 283.1,455.3 			"/>
			<polygon class="st36" points="283.7,460.7 283.5,460.7 283.5,455.1 283.7,455.1 			"/>
			<polygon class="st36" points="284.4,460.3 284.2,460.5 284.2,454.9 284.4,454.7 			"/>
			<polygon class="st36" points="283.9,460.6 283.7,460.6 283.7,455 283.9,455 			"/>
			<polygon class="st36" points="285,460.1 284.4,460.3 284.4,454.7 285,454.5 			"/>
			<polygon class="st36" points="287.3,459.1 286.5,459.5 286.5,453.9 287.3,453.5 			"/>
			<polygon class="st36" points="285.6,459.8 285.2,460 285.2,454.4 285.6,454.2 			"/>
			<polygon class="st36" points="289.2,458.3 288.9,458.5 288.9,452.9 289.2,452.7 			"/>
			<polygon class="st36" points="290,458 289.2,458.3 289.2,452.7 290,452.4 			"/>
			<polyline class="st36" points="291.5,451.8 293,451.1 293,456.7 291.5,457.4 			"/>
			<polygon class="st36" points="290.8,457.7 290.3,457.9 290.3,452.3 290.8,452 			"/>
			<polygon class="st36" points="294.1,456.3 293.7,456.4 293.7,450.8 294.1,450.7 			"/>
			<polygon class="st36" points="293.7,456.4 293.4,456.6 293.4,451 293.7,450.8 			"/>
			<polygon class="st36" points="294.5,456.1 294.2,456.2 294.2,450.6 294.5,450.5 			"/>
			<polygon class="st36" points="295.5,455.7 295,455.9 295,450.3 295.5,450 			"/>
			<polygon class="st36" points="296.1,455.5 295.9,455.5 295.9,449.9 296.1,449.8 			"/>
			<polygon class="st36" points="296.8,455.2 296.6,455.3 296.6,449.6 296.8,449.5 			"/>
			<polygon class="st36" points="296.3,455.4 296.1,455.4 296.1,449.8 296.3,449.7 			"/>
			<polygon class="st36" points="297.4,454.9 296.8,455.2 296.8,449.5 297.4,449.3 			"/>
			<polygon class="st36" points="299.7,453.9 298.9,454.3 298.9,448.6 299.7,448.3 			"/>
			<polygon class="st36" points="298,454.6 297.6,454.8 297.6,449.2 298,449 			"/>
			<polygon class="st36" points="288.1,459.4 287.8,459.6 287.8,453.3 288.1,453.2 			"/>
			<polygon class="st36" points="288.4,459.3 288.2,459.4 288.2,453.1 288.4,453.1 			"/>
			<polygon class="st36" points="301.2,440.5 272.7,452.8 272.7,450.9 301.2,438.6 			"/>
			<polygon class="st36" points="301.3,443.9 272.8,456.1 272.8,454.2 301.3,441.9 			"/>
		</g>
		<g>
			<g>
				<g>
					<polygon class="st36" points="379.8,395.6 375.1,405.8 378.1,404.5 378.1,420.3 381.5,419 381.5,403.2 384.6,401.9 					"/>
					<polygon class="st36" points="391.8,390.8 387,401 390.1,399.7 390.1,415.6 393.5,414.2 393.5,398.4 396.5,397.2 					"/>
				</g>
				<polygon class="st36" points="396.5,416.2 375.1,424.7 375.1,422.5 396.5,414 				"/>
			</g>
		</g>
		<linearGradient id="SVGID_9_" gradientUnits="userSpaceOnUse" x1="186.1432" y1="279.1487" x2="201.1789" y2="343.6091">
			<stop  offset="0" style="stop-color:#B7B7B7"/>
			<stop  offset="9.222130e-02" style="stop-color:#BCBCBB"/>
			<stop  offset="0.3786" style="stop-color:#C4C4C3"/>
			<stop  offset="0.8939" style="stop-color:#C6C6C5"/>
			<stop  offset="1" style="stop-color:#C6C6C5"/>
		</linearGradient>
		<path class="st28" d="M170.7,290.9c-0.8,25.5,1.7,47.7,22.2,51.2c1.3,0.1,2.6,0.1,3.8,0c9.1-0.5,15.5-5.1,18.9-14.9
			c1.9-5.7,2-11.8,0.5-17.6c-2.3-8.7-4.2-17.2-5.6-25.4l-5.7-4.2c-8.9-6.5-21.2-5.9-29.4,1.5l-0.5,0.4
			C172.4,284.2,170.8,287.5,170.7,290.9z"/>
		<g>
			<path class="st38" d="M215.6,327.3c-3.3,9.8-9.8,14.4-18.9,14.9c-1.2,0.1-2.5,0-3.8,0c-7-1.2-11.9-4.6-15.3-9.5
				c1.1,0.3,2.2,0.6,3.3,0.8c1.3,0.1,2.6,0.1,3.8,0c9.1-0.5,15.5-5.1,18.9-14.9c1.9-5.7,2-11.8,0.5-17.6c-0.5-2.1-1.1-4.1-1.6-6.2
				c-1.3-5.2,2.6-10.3,8-10.5l0,0c1.4,8.2,3.3,16.7,5.6,25.4C217.6,315.5,217.6,321.6,215.6,327.3z"/>
		</g>
		
			<linearGradient id="SVGID_10_" gradientUnits="userSpaceOnUse" x1="357.9891" y1="528.2814" x2="311.2786" y2="488.0705" gradientTransform="matrix(0.9439 0.3301 -0.3301 0.9439 163.3201 -283.0016)">
			<stop  offset="0" style="stop-color:#C6C6C5"/>
			<stop  offset="0.1817" style="stop-color:#C0C0BF"/>
			<stop  offset="0.5756" style="stop-color:#B7B7B7"/>
		</linearGradient>
		<path class="st29" d="M297,285.3c-9.1,23.8-14.2,45.5,4.1,55.7c1.2,0.5,2.4,0.9,3.6,1.3c8.7,2.6,16.4,0.3,22.7-7.8
			c3.7-4.7,5.8-10.5,6.3-16.5c0.7-9,1.7-17.6,3.1-25.8l-4-5.8c-6.3-9.1-18.1-12.5-28.3-8.3l-0.6,0.2
			C300.7,279.5,298.2,282.1,297,285.3z"/>
		<g>
			<path class="st12" d="M327.4,334.4c-6.4,8.1-14,10.4-22.7,7.8c-1.2-0.3-2.4-0.8-3.6-1.3c-6.2-3.5-9.7-8.2-11.3-14
				c0.9,0.6,1.8,1.3,2.9,1.8c1.2,0.5,2.4,1,3.6,1.3c8.7,2.6,16.4,0.3,22.7-7.8c3.7-4.7,5.8-10.5,6.3-16.5c0.2-2.1,0.4-4.3,0.6-6.3
				c0.5-5.4,5.8-8.9,11-7.3l0,0c-1.4,8.2-2.4,16.8-3.1,25.8C333.1,323.9,331.1,329.7,327.4,334.4z"/>
		</g>
		<path class="st2" d="M439.7,216.6c-4.9-1.7-12.7-1.6-23.2,1.4c4.1-3.3,7.6-6.7,10.7-10.3l0,0c4.7-5.5,8.3-11.1,10.7-16.7
			c5.4-12.2,5.5-23.8,0.7-30.7c-1.9-2.9-4.7-4.9-8.2-6c-5.2-1.6-10.8-0.4-15.2,2.9c-11.2,8.5-22.9,16.3-35.1,23.6
			c3.4,11.6,5.4,24.8,5.4,38.8c0,38.5-14.7,70.9-34.6,80.5c28.1,6.6,53-0.3,42.6-10.7c-1.6-1.6-3.9-3.2-7.1-4.9
			c13.8-1.3,24.4-5.6,30.4-10.3l0,0c3.9-3.1,5.8-6.4,5.3-9.3c-0.7-3.9-6-7-17-7.2c-0.1,0-0.2,0-0.3,0c21.5-7.7,34.4-18,39.1-26.5
			l0,0C447.6,224.5,446.1,218.9,439.7,216.6z"/>
		<g>
			<path class="st40" d="M385.5,219.5c0,5.7-0.3,11.3-0.9,16.7l21.5-11c9.1-5.9,16-11.8,21.1-17.5l0,0c5.1-5.8,8.5-11.4,10.7-16.7
				c7.3-17.6,0.7-30.7,0.7-30.7c-12.6,26.7-31,45.1-53.1,58.2C385.5,218.8,385.5,219.2,385.5,219.5z"/>
			<path class="st40" d="M392.4,289.6c-15.3,3.4-24.2,2.6-28.9,0.6c-3.9,4.3-8.1,7.6-12.6,9.8c28.1,6.6,53-0.3,42.6-10.7
				C393.1,289.5,392.8,289.5,392.4,289.6z"/>
			<path class="st40" d="M439.7,216.6c-3.2,15.8-45.4,35-56.8,30.3c-1.2,6.3-2.9,12.3-4.9,17.9l6.5-1.2c7.1-1.6,14.1-3.5,20.6-5.9
				c19.6-7,34.8-16.8,38.8-26.5l0,0C445.9,226.1,444.9,221.1,439.7,216.6z"/>
			<path class="st40" d="M413.9,260.5c2.7,8.8-26,16.2-40,13.8c-1.8,3.7-3.8,7.1-6,10.2c4.9,0.4,9.4,0.4,9.4,0.4
				c8.3,0,28.9-4.8,39.4-10.7l0,0c5.2-3,7.9-6.2,5.3-9.3C420.8,263.4,418.2,261.9,413.9,260.5z"/>
		</g>
		<g>
			<g>
				<path class="st41" d="M353.1,198.1c3.4-0.6,6.7-0.8,10-0.8s6.6,0.2,9.8,0.6c3.2,0.4,6.5,0.9,9.7,1.7s6.4,1.7,9.5,3.1
					c-3.4,0.7-6.7,0.8-10,0.8s-6.6-0.2-9.8-0.6c-3.2-0.4-6.5-0.9-9.7-1.7C359.4,200.5,356.2,199.6,353.1,198.1z"/>
			</g>
			<g>
				<path class="st41" d="M351.6,213.3c3.4,0.4,6.6,1.3,9.7,2.3s6.2,2.2,9.1,3.6c3,1.4,5.9,2.9,8.7,4.6c2.8,1.7,5.6,3.6,8.1,5.9
					c-3.4-0.4-6.6-1.3-9.7-2.3s-6.2-2.2-9.1-3.6c-3-1.4-5.9-2.9-8.7-4.6C356.9,217.5,354.2,215.6,351.6,213.3z"/>
			</g>
			<g>
				<path class="st41" d="M152.2,197.6c-3.1,1.4-6.3,2.3-9.5,3.1c-3.2,0.7-6.4,1.3-9.7,1.7c-3.2,0.4-6.5,0.6-9.8,0.6
					s-6.6-0.2-10-0.9c3.1-1.4,6.3-2.3,9.5-3.1c3.2-0.7,6.4-1.3,9.7-1.6c3.3-0.4,6.5-0.6,9.8-0.6S148.8,197,152.2,197.6z"/>
			</g>
			<g>
				<path class="st41" d="M153.6,212.8c-2.2,2.5-4.7,4.7-7.2,6.6c-2.5,2-5.2,3.8-7.9,5.4c-2.7,1.7-5.6,3.2-8.5,4.5
					c-2.9,1.3-5.9,2.5-9.2,3.3c2.2-2.5,4.6-4.7,7.2-6.6c2.5-2,5.2-3.8,7.9-5.4c2.7-1.6,5.6-3.2,8.5-4.5S150.3,213.6,153.6,212.8z"/>
			</g>
		</g>
	</g>
	<g>
		<path class="st42" d="M276.7,309.1c-7-15.3-25.7-28-33.1-32.5c0.6-0.9,0.8-2,0.8-3.2l-0.5-6.1c-0.1-1.7-1.1-3.2-2.4-4
			c-1-1.2-2.5-1.9-4.2-1.8l-3.8,0.3c-1.6,0.1-3,1.1-3.9,2.4c-0.2,0.1-0.3,0.3-0.4,0.5c-6.3-6.7-36.7-37.4-45.8-18.1l1.8,22.6
			c0,0-3,13.4,37.8,8.2c-7.6,7.4-17.6,18.9-20.9,31c0,0,3.5-2.2,10.2-3.4l7.6,15.8c0,0,7.5-28.7,14.8-41.6l1-0.1
			c0.7,1.8,1.5,3.3,1.5,3.3c9.6,9.5,23.7,41.5,23.7,41.5l5-16.8C272.9,307.4,276.7,309.1,276.7,309.1z"/>
		<g>
			<path class="st18" d="M180.4,266.9c0,0-3.4,15.2,46.4,7l-1.1-6.8C225.7,267.2,181.1,243.5,180.4,266.9z"/>
		</g>
		<g>
			<path class="st18" d="M279.6,280.3c0,0-0.5,15.6-46.4-6.8l2.7-6.2C235.8,267.3,284.7,257.5,279.6,280.3z"/>
		</g>
		<g>
			<path class="st43" d="M237,264c0,0,45.6-28.7,49.9-5l-7.4,21.3c0,0,2-18.5-46.3-7.1L237,264z"/>
		</g>
		<g>
			<path class="st27" d="M238.1,265c0,0,38-21.2,48.6-5.2l-4.3,12.3c0,0-5.6-13.7-46.6-1.9L238.1,265z"/>
		</g>
		<g>
			<path class="st43" d="M227.6,266.6c0,0-23.9,15.2-28.9,32.2c0,0,3.4-1.8,10-2.5l8,13.7c0,0,7.8-28.2,15.3-37.1
				C232.1,272.9,236.4,261.9,227.6,266.6z"/>
		</g>
		<g>
			<path class="st27" d="M227.6,266.6c0,0-27.1,31.3-23.8,30.5c1.4-0.3,3-0.6,4.9-0.8l4.2,7.1c0,0,9.5-23.1,17.1-32
				C230,271.4,236.4,261.9,227.6,266.6z"/>
		</g>
		<g>
			<path class="st43" d="M235.4,272.4c0,0,26.4,12.9,35.2,28.5c0,0-3.7-1.4-10-1.8l-4.2,13.2c0,0-14.3-25.9-23.6-33.8
				C232.7,278.5,225.9,268.5,235.4,272.4z"/>
		</g>
		<g>
			<path class="st27" d="M233.9,273.5c12.3,6.1,35.1,26.8,32.3,26.3c-1.5-0.3-3.4-0.6-5.6-0.7l-2.1,6.5c0,0-16.3-22.4-25.6-30.2
				C232.8,275.4,221.6,267.4,233.9,273.5z"/>
		</g>
		<g>
			<path class="st18" d="M235.1,276.7l-6.3,0.5c-2.7,0.2-5-1.9-5.2-4.6l-0.5-6.5c-0.2-2.8,1.7-5.1,4.4-5.3l6.3-0.5
				c2.7-0.2,5,1.9,5.2,4.6l0.5,6.5C239.7,274.1,237.7,276.5,235.1,276.7z"/>
		</g>
		<g>
			<path class="st43" d="M225.4,263.6c0,0-36.8-40.9-46.9-19.3l1.8,22.6c0,0,2.6-18.4,46.4,6.7L225.4,263.6z"/>
		</g>
		<g>
			<path class="st27" d="M225.7,265.4c0,0-38.4-32-46.9-18.3l1.1,13.6c0,0,5.1-15.5,46.7,9.4L225.7,265.4z"/>
		</g>
		<g>
			<path class="st43" d="M233.8,273.6l-4.2,0.3c-2.7,0.2-5-1.9-5.2-4.6l-0.4-4.4c-0.2-2.8,1.7-5.1,4.4-5.3l4.2-0.3
				c2.7-0.2,5,1.9,5.2,4.6l0.4,4.4C238.4,271,236.4,273.4,233.8,273.6z"/>
		</g>
	</g>
</g>
</svg>
