<?xml version="1.0" encoding="utf-8"?>
<!-- Generator: Adobe Illustrator 24.3.0, SVG Export Plug-In . SVG Version: 6.00 Build 0)  -->
<svg version="1.1" id="Layer_1" xmlns="http://www.w3.org/2000/svg" xmlns:xlink="http://www.w3.org/1999/xlink" x="0px" y="0px"
	 viewBox="0 0 512 512" style="enable-background:new 0 0 512 512;" xml:space="preserve">
<style type="text/css">
	.st0{fill:#FFFFFF;}
	.st1{fill:url(#SVGID_1_);}
	.st2{fill:url(#SVGID_2_);}
	.st3{fill:url(#SVGID_3_);}
	.st4{fill:url(#SVGID_4_);}
	.st5{fill:url(#SVGID_5_);}
	.st6{fill:url(#SVGID_6_);}
	.st7{fill:url(#SVGID_7_);}
	.st8{fill:url(#SVGID_8_);}
</style>
<g>
	<g id="_05">
		<path class="st0" d="M323.9,62.2c4.7,0,9.4,0.4,14,1.3c2.7,19.8-2.3,39.9-14.1,56c41.4,0.4,79,24.4,96.9,61.8
			c-32.2,31-80.2,39.1-120.8,20.3l32.8,75.3c4.8-1.1,9.6-2.6,14.2-4.3c7.2-2.7,16.6-6.8,26.6-6.8c4,0,7.9,0.7,11.6,2.2
			c7.1,2.8,12.5,7.5,18.4,15c9.3,11.9,28.8,36.8,27.7,71.4c-1.2,39.7-29.3,80.7-73.5,92.4c-8,2.1-16.2,3.2-24.5,3.2
			c-30.8-0.1-59.9-14.3-79-38.6c-17.8,22.6-45.9,38.5-77.8,38.5h-1.4c-48.2-0.7-88.7-37.5-96-82.4c-7.1-44,18.5-91.1,49.5-100.2
			c3.2-1,6.6-1.5,10-1.5c12.6,0,22.7,7.3,39.6,11.3l68.8-136.6c-0.6-42.5,33.3-77.5,75.8-78.2C323.1,62.2,323.5,62.2,323.9,62.2
			 M203.4,279.6c2.5,0,5.1-0.2,7.9-0.4c4.4-0.4,9.5-1,14.8-1c7.8,0,16,1.3,23.2,6.7c2.1,1.6,4.1,3.4,5.8,5.5
			c2.6-2.7,5.5-5.1,8.7-7.1c5.9-3.7,12.8-5.6,19.8-5.4c7.2,0,14.9,1.4,24.2,1.6l-47.5-109.1c-0.4-0.5-0.8-1-1.2-1.5L203.4,279.6
			 M323.9,38.2L323.9,38.2c-54,0-98.4,42.4-100.9,96.3l-57,113.2c-7.9-3-16.9-6-27.5-6c-5.7,0-11.3,0.9-16.8,2.5
			c-21.4,6.3-40.9,24.2-53.6,49.1c-12.4,24.3-17,52-12.8,77.9c9.3,57.6,60.6,101.7,119.4,102.6h1.8c19.2,0,38.1-4.6,55.1-13.4
			c8-4.1,15.6-9.1,22.6-14.9c22.3,18.3,50.2,28.4,79,28.5c38,0,73.7-17.9,96.5-48.3c15.7-20.6,24.8-45.6,25.5-70.5
			c1.4-43.3-22.5-73.9-32.8-86.9c-6-7.7-14.7-17.2-28.6-22.6c-6.5-2.5-13.4-3.8-20.3-3.8c-10.7,0-20,2.8-27.5,5.5l-5.1-11.7
			c1.6,0.1,3.1,0.1,4.7,0.1c34.2,0,67.1-13.3,91.7-37c7.5-7.2,9.5-18.3,5.1-27.7c-16.4-34.3-46.7-59.9-83.2-70.3
			c3.5-13.1,4.4-26.9,2.6-40.3c-1.4-10.3-9.2-18.5-19.5-20.4C336.2,38.8,330,38.2,323.9,38.2L323.9,38.2z M242.2,255.9l15.6-31.1
			L271,255c-5.5,1.1-10.7,2.9-15.6,5.5C251.2,258.4,246.8,256.9,242.2,255.9L242.2,255.9z"/>
		
			<linearGradient id="SVGID_1_" gradientUnits="userSpaceOnUse" x1="176.1034" y1="310.1104" x2="282.0334" y2="310.1104" gradientTransform="matrix(1 0 0 -1 0 512)">
			<stop  offset="0" style="stop-color:#0E3300"/>
			<stop  offset="0.16" style="stop-color:#234B00"/>
			<stop  offset="1" style="stop-color:#376700"/>
		</linearGradient>
		<path class="st1" d="M188,295.4c-1.9,0-3.7-0.4-5.3-1.3c-5.9-2.9-8.2-10.1-5.3-16c0,0,0,0,0,0l82.1-163c2.8-5.9,9.9-8.5,15.8-5.7
			c5.9,2.8,8.5,9.9,5.7,15.8c-0.1,0.2-0.2,0.4-0.3,0.6l-82.1,163C196.6,292.9,192.5,295.4,188,295.4z"/>
		
			<linearGradient id="SVGID_2_" gradientUnits="userSpaceOnUse" x1="247.4314" y1="300.7504" x2="334.7469" y2="300.7504" gradientTransform="matrix(1 0 0 -1 0 512)">
			<stop  offset="0" style="stop-color:#376700"/>
			<stop  offset="0.84" style="stop-color:#234B00"/>
			<stop  offset="1" style="stop-color:#0E3300"/>
		</linearGradient>
		<path class="st2" d="M322.9,296.1c-4.7,0-9-2.8-10.9-7.1l-63.4-145.9c-2.7-6,0-13,6-15.7c6-2.7,13,0,15.7,6c0,0.1,0.1,0.2,0.1,0.3
			l63.5,145.9c2.6,6-0.2,13-6.2,15.7C326.1,295.8,324.5,296.1,322.9,296.1z"/>
		
			<radialGradient id="SVGID_3_" cx="1920.02" cy="2593.45" r="73.97" gradientTransform="matrix(0.3574 -0.934 -0.934 -0.3574 2055.835 2854.9736)" gradientUnits="userSpaceOnUse">
			<stop  offset="0" style="stop-color:#376700"/>
			<stop  offset="0.81" style="stop-color:#376700"/>
			<stop  offset="0.91" style="stop-color:#234B00"/>
			<stop  offset="1" style="stop-color:#0E3300"/>
		</radialGradient>
		<path class="st3" d="M270.6,83.6c17.9-17.1,43-24.6,67.3-20.1l-90.4,86.4C244.1,125.3,252.7,100.7,270.6,83.6z"/>
		
			<radialGradient id="SVGID_4_" cx="3488.2" cy="-1990.5601" r="73.97" gradientTransform="matrix(-0.3574 0.934 0.934 0.3574 3371.325 -2468.1038)" gradientUnits="userSpaceOnUse">
			<stop  offset="0" style="stop-color:#224000"/>
			<stop  offset="0.54" style="stop-color:#224000"/>
			<stop  offset="0.81" style="stop-color:#294D00"/>
			<stop  offset="0.91" style="stop-color:#234B00"/>
			<stop  offset="1" style="stop-color:#0E3300"/>
		</radialGradient>
		<path class="st4" d="M314.8,129.8c-17.9,17.1-43,24.6-67.3,20.1l90.4-86.4C341.3,88,332.7,112.7,314.8,129.8z"/>
		
			<radialGradient id="SVGID_5_" cx="392.34" cy="839.62" r="104.15" gradientTransform="matrix(0.9657 -0.2598 -0.2598 -0.9657 163.6032 1132.505)" gradientUnits="userSpaceOnUse">
			<stop  offset="0" style="stop-color:#376700"/>
			<stop  offset="0.81" style="stop-color:#376700"/>
			<stop  offset="0.91" style="stop-color:#234B00"/>
			<stop  offset="1" style="stop-color:#0E3300"/>
		</radialGradient>
		<path class="st5" d="M342.1,121.3c34.3,6.2,63.6,28.6,78.6,60.1l-173.2-31.5C272.6,125.7,307.8,115,342.1,121.3z"/>
		
			<radialGradient id="SVGID_6_" cx="5002.25" cy="-265.58" r="104.15" gradientTransform="matrix(-0.9657 0.2598 0.2598 0.9657 5243.397 -931.575)" gradientUnits="userSpaceOnUse">
			<stop  offset="0" style="stop-color:#224000"/>
			<stop  offset="0.54" style="stop-color:#224000"/>
			<stop  offset="0.81" style="stop-color:#294D00"/>
			<stop  offset="0.91" style="stop-color:#234B00"/>
			<stop  offset="1" style="stop-color:#0E3300"/>
		</radialGradient>
		<path class="st6" d="M326.1,209.9c-34.3-6.2-63.5-28.6-78.6-60.1l173.2,31.5C395.6,205.5,360.4,216.1,326.1,209.9z"/>
		
			<radialGradient id="SVGID_7_" cx="419.3039" cy="820.7977" r="106.5244" gradientTransform="matrix(0.9633 -0.2684 -0.2684 -0.9633 150.4887 1260.9012)" gradientUnits="userSpaceOnUse">
			<stop  offset="0" style="stop-color:#F07B90"/>
			<stop  offset="0.32" style="stop-color:#F1506D"/>
			<stop  offset="0.5" style="stop-color:#ED1C42"/>
			<stop  offset="1" style="stop-color:#821A2D"/>
		</radialGradient>
		<path class="st7" d="M263.8,283.3c-27.4,17.1-39.5,69.3-20.8,109.8c19.1,41.3,68,65.9,114.6,53.6c44.2-11.6,72.2-52.6,73.5-92.4
			c1.1-34.6-18.4-59.5-27.7-71.4c-5.9-7.5-11.3-12.2-18.4-15c-14.2-5.5-28.2,1-38.2,4.7C302.8,288.9,286.4,269.2,263.8,283.3z"/>
		
			<radialGradient id="SVGID_8_" cx="176.1611" cy="154.3282" r="95.2841" gradientTransform="matrix(1 0 0 -1 0 512)" gradientUnits="userSpaceOnUse">
			<stop  offset="0" style="stop-color:#F07B90"/>
			<stop  offset="0.32" style="stop-color:#F1506D"/>
			<stop  offset="0.5" style="stop-color:#ED1C42"/>
			<stop  offset="1" style="stop-color:#821A2D"/>
		</radialGradient>
		<path class="st8" d="M128.4,267.1c-31,9.1-56.6,56.1-49.5,100.2c7.3,44.9,47.8,81.7,96,82.4c45.7,0.7,83.7-31.3,95.6-69.2
			c10.3-33-1.7-62.2-7.5-76.2c-3.6-8.8-7.6-14.8-13.7-19.4c-12.2-9.1-27.4-6.6-38-5.7C164.4,283,153.9,259.6,128.4,267.1z"/>
	</g>
</g>
</svg>
