<?xml version="1.0" encoding="utf-8"?>
<!-- Generator: Adobe Illustrator 24.0.3, SVG Export Plug-In . SVG Version: 6.00 Build 0)  -->
<svg version="1.1" xmlns="http://www.w3.org/2000/svg" xmlns:xlink="http://www.w3.org/1999/xlink" x="0px" y="0px"
	 viewBox="0 0 512 512" style="enable-background:new 0 0 512 512;" xml:space="preserve">
<style type="text/css">
	.st0{fill:none;}
	.st1{fill:#FFFFFF;}
	.st2{fill:#ED0F49;}
	.st3{fill:#FFEBCA;}
	.st4{fill:#9B4231;}
	.st5{fill:#EAB363;}
	.st6{opacity:0.2;enable-background:new    ;}
	.st7{fill:#F7B5E5;}
	.st8{fill:#F9437C;}
	.st9{fill:#FFD7E5;}
	.st10{fill:#FF76A0;}
	.st11{fill:#BBD5FF;}
	.st12{fill:#85BC00;}
	.st13{fill:#00D871;}
	.st14{fill:#FFA300;}
	.st15{fill:#FF99FF;}
	.st16{fill:#E20569;}
	.st17{fill:#4BE08E;}
	.st18{fill:#06FFEC;}
	.st19{fill:#FFA403;}
	.st20{fill:#76D1FF;}
	.st21{fill:#6F00FF;}
	.st22{fill:#0050C4;}
	.st23{fill:#9772D3;}
	.st24{fill:#FFE564;}
	.st25{clip-path:url(#SVGID_2_);fill:#E5E5E5;}
	.st26{clip-path:url(#SVGID_4_);fill:#008BD8;}
	.st27{clip-path:url(#SVGID_6_);fill:#008BD8;}
	.st28{clip-path:url(#SVGID_8_);fill:#008BD8;}
	.st29{fill:#FFC639;}
	.st30{fill:#FF7900;}
	.st31{clip-path:url(#SVGID_10_);fill:#E5E5E5;}
	.st32{clip-path:url(#SVGID_12_);fill:#008BD8;}
	.st33{clip-path:url(#SVGID_14_);fill:#008BD8;}
	.st34{clip-path:url(#SVGID_16_);fill:#008BD8;}
	.st35{clip-path:url(#SVGID_18_);fill:#E5E5E5;}
	.st36{clip-path:url(#SVGID_20_);fill:#008BD8;}
	.st37{clip-path:url(#SVGID_22_);fill:#008BD8;}
	.st38{clip-path:url(#SVGID_24_);fill:#008BD8;}
	.st39{fill:#CAEFFF;}
	.st40{opacity:0.1;}
	.st41{fill:#3C0000;}
	.st42{fill:#C00000;}
	.st43{fill:#23292D;}
	.st44{fill:#F2F2F2;}
	.st45{opacity:0.6;fill:#3C5366;}
	.st46{fill:#3C5366;}
	.st47{fill:#1B2A35;}
	.st48{fill:#7B0000;}
	.st49{fill:#9EC3F2;}
	.st50{fill:#4D84C1;}
	.st51{opacity:0.74;fill:#7B0000;}
	.st52{opacity:0.74;fill:#C00000;}
	.st53{fill:#CBDCF4;}
	.st54{fill:#500000;}
	.st55{fill:#56AAE8;}
	.st56{fill:#FF9999;}
	.st57{opacity:0.3;fill:#FFFFFF;}
	.st58{opacity:0.3;}
	.st59{fill:#F98706;}
	.st60{fill:#FFCC00;}
	.st61{fill:#0092DB;}
	.st62{fill:#00B7FF;}
	.st63{fill:#50D6FF;}
	.st64{fill:#88E0FF;}
	.st65{fill:#DDA800;}
	.st66{fill:#F4C42A;}
	.st67{fill:#FFDB4D;}
	.st68{opacity:0.4;fill:#441F00;}
	.st69{fill:#CE8032;}
	.st70{fill:#6B8900;}
	.st71{fill:#9AC400;}
	.st72{fill:#C2DD00;}
	.st73{opacity:0.2;}
	.st74{fill:#E6F1FF;}
	.st75{fill:#0B0B0C;}
	.st76{fill:#0080FF;}
	.st77{fill:#FFED83;}
	.st78{fill:#AA6500;}
	.st79{clip-path:url(#SVGID_26_);}
	.st80{opacity:0.2;fill:#48A0FF;}
	.st81{fill:#E27100;}
	.st82{fill:#FFB000;}
	.st83{fill:#FFAA00;}
	.st84{fill:#FFDF7B;}
	.st85{opacity:0.2;fill:#F98706;}
	.st86{fill:#B6E7FF;}
	.st87{fill:#D9F4FF;}
	.st88{fill:#379AF4;}
	.st89{fill:#8FD4FF;}
	.st90{fill:#5FBBFF;}
	.st91{opacity:0.2;fill:#379AF4;}
	.st92{fill:#FFF0C5;}
	.st93{fill:#7599BC;}
	.st94{fill:#1D1D38;}
	.st95{opacity:0.15;fill:#0B0019;}
	.st96{opacity:0.05;fill:#FFFFFF;}
	.st97{fill:#618099;}
	.st98{fill:#494968;}
	.st99{fill:#595972;}
	.st100{fill:#E9BC00;}
	.st101{opacity:0.5;}
	.st102{fill:#DDDFE4;}
	.st103{opacity:0.3;fill:#0B0019;}
	.st104{opacity:0.08;fill:#FFFFFF;}
	.st105{fill:#5A5A84;}
	.st106{fill:#B3B3CE;}
	.st107{fill:#FD1B64;}
	.st108{fill:#D6004D;}
	.st109{fill:#920006;}
	.st110{fill:#8585A8;}
	.st111{fill:#171723;}
	.st112{opacity:0.1;fill:#FFFFFF;}
	.st113{opacity:0.2;fill:#0B0019;}
	.st114{fill:#547D9B;}
	.st115{fill:#A1D5FF;}
	.st116{fill:#00254D;}
	.st117{opacity:0.1;fill:#3E0A75;}
	.st118{opacity:0.4;fill:#FFFFFF;}
	.st119{fill:#2D5171;}
	.st120{fill:#B88352;}
	.st121{fill:#EFC478;}
	.st122{fill:#76838E;}
	.st123{fill:#B7A1E2;}
	.st124{fill:#FF4385;}
	.st125{fill:#D30041;}
	.st126{fill:#ED065F;}
	.st127{opacity:0.8;fill:#FFFFFF;}
	.st128{fill:#5D422A;}
	.st129{opacity:0.3;fill:#3E0A75;}
	.st130{fill:#FF7187;}
	.st131{fill:#CE4A69;}
	.st132{fill:#444468;}
	.st133{fill:#1A1A23;}
	.st134{fill:#1F95DD;}
	.st135{fill:#DA0000;}
	.st136{fill:#2C2C4C;}
	.st137{fill:#BCBCE8;}
	.st138{fill:#222B33;}
	.st139{fill:#394854;}
	.st140{fill:#273544;}
	.st141{fill:#86A9BF;}
	.st142{fill:#F79984;}
	.st143{fill:#0A0F11;}
	.st144{fill:#E07868;}
	.st145{fill:#D35440;}
	.st146{fill:#FFC2B8;}
	.st147{fill:#A53A2F;}
	.st148{fill:#C64E36;}
	.st149{fill:#070000;}
	.st150{fill:#230200;}
	.st151{fill:#540000;}
	.st152{fill:#AF8F08;}
	.st153{fill:#16D8C0;}
	.st154{fill:#75EFDD;}
	.st155{fill:#00AF96;}
	.st156{fill:#00846E;}
	.st157{fill:#FFE161;}
	.st158{fill:#05C4A8;}
	.st159{fill:#F3E9FF;}
	.st160{fill:#FFC5DB;}
	.st161{fill:#E5D2FF;}
	.st162{fill:#CDB3FF;}
	.st163{opacity:0.2;fill:#3E0A75;}
	.st164{fill:#A8003D;}
	.st165{fill:#AA6D35;}
	.st166{fill:#FFD6B8;}
	.st167{fill:#FFE697;}
	.st168{fill:#FFDD88;}
	.st169{fill:#FF5986;}
	.st170{opacity:0.4;fill:#C40059;}
	.st171{fill:#CC004E;}
	.st172{fill:#2D2D2D;}
	.st173{opacity:0.6;}
	.st174{fill:#3D3D3D;}
	.st175{fill:#4F4F4F;}
	.st176{fill:#636363;}
	.st177{fill:#E9F5FF;}
	.st178{fill:#C1E0F4;}
	.st179{fill:#E50000;}
	.st180{fill:#FF7373;}
	.st181{fill:#F25F5F;}
	.st182{fill:#FFB200;}
	.st183{opacity:0.5;fill:#FF7373;}
	.st184{fill:#FFCF7B;}
	.st185{fill:#00CEC3;}
	.st186{fill:#00EAD9;}
	.st187{fill:#00A599;}
	.st188{fill:#007F73;}
	.st189{fill:#DD5050;}
	.st190{fill:#FFA6A6;}
	.st191{fill:#45793B;}
	.st192{fill:#35612A;}
	.st193{fill:#235317;}
	.st194{fill:#5E8F44;}
	.st195{fill:#65954D;}
	.st196{fill:#930000;}
	.st197{fill:#F00000;}
	.st198{fill:#EAB80D;}
	.st199{fill:#FFD226;}
</style>
<g id="Credits_10_Birthday">
</g>
<g id="Credits_5000">
</g>
<g id="Credits_3000">
</g>
<g id="Credits_2000">
</g>
<g id="Credits_1000">
</g>
<g id="Credits_750">
	<rect class="st0" width="512" height="512"/>
	<g>
		<g>
			<path class="st98" d="M394.097,112.457c2.851-0.258,5.686,0.151,8.374,1.111c2.685,0.96,5.223,2.471,7.481,4.417
				c2.257,1.946,4.234,4.327,5.799,7.03c1.565,2.702,2.718,5.727,3.327,8.96l37.693,200.15c0.618,3.281,0.632,6.482,0.129,9.463
				c-0.504,2.982-1.526,5.744-2.982,8.144c-1.457,2.402-3.348,4.441-5.588,5.975c-2.242,1.535-4.834,2.564-7.69,2.944
				l-321.009,42.64c-3.171,0.421-6.318,0.116-9.295-0.796c-2.979-0.913-5.786-2.435-8.272-4.446
				c-2.488-2.012-4.654-4.514-6.35-7.384c-1.697-2.871-2.923-6.111-3.53-9.598L55.15,168.412c-0.598-3.433-0.521-6.763,0.128-9.843
				c0.649-3.079,1.871-5.908,3.563-8.343c1.691-2.433,3.852-4.473,6.381-5.976c2.527-1.501,5.422-2.467,8.584-2.753L394.097,112.457
				z"/>
		</g>
		<g>
			<path class="st99" d="M394.897,108.597c2.808-0.255,5.602,0.148,8.249,1.095c2.645,0.946,5.146,2.434,7.369,4.352
				c2.223,1.917,4.171,4.263,5.712,6.926c1.542,2.662,2.678,5.642,3.277,8.827l37.132,197.172c0.609,3.232,0.623,6.386,0.127,9.322
				c-0.496,2.938-1.504,5.659-2.938,8.023c-1.435,2.366-3.298,4.375-5.505,5.886c-2.209,1.512-4.762,2.526-7.575,2.9
				l-316.231,42.005c-3.124,0.415-6.224,0.115-9.157-0.784c-2.935-0.9-5.7-2.399-8.149-4.38c-2.451-1.982-4.585-4.446-6.256-7.274
				c-1.671-2.828-2.879-6.02-3.477-9.455L60.995,163.719c-0.589-3.382-0.514-6.662,0.126-9.697c0.639-3.033,1.843-5.82,3.51-8.219
				c1.666-2.397,3.794-4.407,6.286-5.887c2.489-1.479,5.341-2.43,8.456-2.712L394.897,108.597z"/>
		</g>
		<g>
			<g>
				<path class="st48" d="M308.986,357.125c-0.846,0-1.689-0.01-2.536-0.03c-27.874-0.684-52.26-12.547-72.481-35.261
					c-23.954-26.907-62.689-59.627-111.192-62.703c-28.961-1.83-47.907,7.938-48.095,8.036l-0.466-0.885
					c6.585-3.468,25.224-9.636,48.625-8.149c48.842,3.098,87.797,35.989,111.876,63.037c20.029,22.497,44.17,34.248,71.755,34.925
					c36.729,0.922,73.271-18.181,97.462-34.347c26.243-17.536,44.013-35.521,44.189-35.701l0.714,0.701
					c-0.177,0.18-18.006,18.227-44.329,35.819C380.749,338.446,345.115,357.124,308.986,357.125z"/>
			</g>
			<g>
				<path class="st42" d="M338.784,358.056c-1.778,0.001-3.545-0.048-5.316-0.145c-36.858-2.018-71.824-24.641-110.042-71.196
					c-18.015-21.945-38.688-33.545-61.448-34.476c-42.445-1.712-78.162,34.625-78.518,34.992l-0.719-0.695
					c0.359-0.371,36.375-37.036,79.277-35.296c23.056,0.942,43.977,12.665,62.18,34.84c38.028,46.324,72.766,68.831,109.324,70.832
					c36.835,2.024,75.39-17.179,117.846-58.685l0.699,0.715C411.434,338.666,374.307,358.054,338.784,358.056z"/>
			</g>
		</g>
		<g>
			<polygon class="st100" points="164.917,247.619 167.938,264.629 152.431,266.375 149.412,249.321 			"/>
		</g>
		<g>
			<path class="st100" d="M168.418,267.547l0.961,5.412c0.284,1.602,0.261,3.162-0.026,4.612c-0.287,1.451-0.837,2.792-1.605,3.954
				c-0.768,1.162-1.755,2.146-2.915,2.881c-1.16,0.736-2.494,1.223-3.955,1.392l-4.909,0.569l-3.021-17.07L168.418,267.547z"/>
		</g>
		<g>
			<path class="st100" d="M150.781,228.812c1.484-0.15,2.947,0.033,4.325,0.491c1.378,0.458,2.67,1.192,3.811,2.144
				c1.141,0.952,2.131,2.123,2.904,3.456c0.773,1.333,1.33,2.828,1.605,4.429l0.953,5.369l-18.157,1.985l7.061,39.917l-15.602,1.808
				l-10.07-57.131L150.781,228.812z"/>
		</g>
		<g>
			<path class="st100" d="M119.943,232.097l4.992-0.532l3.016,17.118l-15.688,1.715l-0.951-5.415l-0.018-0.105
				c-0.278-1.611-0.245-3.177,0.054-4.629c0.299-1.452,0.863-2.789,1.646-3.945c0.783-1.156,1.784-2.129,2.958-2.853
				C117.125,232.728,118.47,232.254,119.943,232.097z"/>
		</g>
		<g>
			<polygon class="st100" points="128.468,251.621 131.483,268.734 115.792,270.501 112.78,253.344 			"/>
		</g>
		<g>
			<path class="st100" d="M131.961,271.67l3.005,17.056l-4.95,0.574c-1.477,0.171-2.942,0.007-4.326-0.437
				c-1.385-0.444-2.689-1.168-3.844-2.115c-1.155-0.948-2.161-2.119-2.949-3.459c-0.788-1.339-1.359-2.846-1.643-4.464l-0.945-5.385
				L131.961,271.67z"/>
		</g>
		<g>
			<g>
				<path class="st60" d="M329.073,232.573c-15.648,0-30.456-2.735-44.379-8.215c-62.535-24.612-85.163-97.197-85.384-97.928
					l0.957-0.289c0.22,0.726,22.718,72.859,84.8,97.289c41.525,16.341,91.073,8.057,147.265-24.62l0.503,0.865
					C395.161,221.583,360.434,232.573,329.073,232.573z"/>
			</g>
			<g>
				<path class="st59" d="M302.37,234.319c-13.383,0-25.945-2.312-37.659-6.945c-30.95-12.242-49.858-38.804-60.27-58.931
					c-11.27-21.785-15.289-40.941-15.328-41.133l0.979-0.201c0.156,0.759,16.292,76.124,74.992,99.337
					c42.951,16.984,97.512,2.456,162.169-43.182l0.577,0.816C380.455,217.521,338.437,234.319,302.37,234.319z"/>
			</g>
		</g>
		<g class="st101">
			<g>
				<polygon class="st102" points="422.934,290.018 427.542,314.624 363.052,322.751 358.456,297.869 				"/>
			</g>
			<g>
				<polygon class="st102" points="273.053,308.269 277.632,333.517 209.81,342.064 205.247,316.525 				"/>
			</g>
			<g>
				<polygon class="st102" points="195.228,317.745 199.788,343.327 130.204,352.096 125.661,326.216 				"/>
			</g>
			<g>
				<polygon class="st102" points="348.93,299.029 353.525,323.952 287.402,332.285 282.821,307.079 				"/>
			</g>
		</g>
		<g>
			<g>
				<path class="st102" d="M252.612,179.681c0.064,0.059,0.116,0.127,0.155,0.202c0.038,0.074,0.064,0.154,0.075,0.235
					c0.011,0.081,0.009,0.162-0.009,0.24s-0.049,0.151-0.095,0.215l-0.66,1.003c-0.027,0.037-0.055,0.069-0.084,0.097
					c-0.03,0.028-0.061,0.051-0.093,0.071c-0.032,0.019-0.065,0.035-0.1,0.046c-0.034,0.011-0.069,0.019-0.105,0.022
					c-0.037,0.004-0.075,0.003-0.113-0.001c-0.038-0.004-0.076-0.013-0.114-0.025c-0.038-0.013-0.075-0.029-0.112-0.05
					s-0.072-0.046-0.106-0.076l-8.299-6.975l-0.672,0.067l1.302,7.19c0.015,0.097,0.013,0.19-0.003,0.275s-0.048,0.161-0.092,0.227
					c-0.044,0.066-0.1,0.12-0.166,0.16c-0.066,0.04-0.142,0.066-0.225,0.074l-1.188,0.119c-0.084,0.003-0.166-0.012-0.242-0.041
					c-0.076-0.029-0.148-0.073-0.21-0.129c-0.062-0.056-0.116-0.123-0.157-0.199s-0.071-0.16-0.085-0.25l-3.086-17.05
					c-0.016-0.089-0.016-0.176-0.002-0.256c0.014-0.08,0.043-0.154,0.084-0.218c0.041-0.064,0.093-0.118,0.156-0.158
					c0.063-0.041,0.135-0.068,0.215-0.078l6.508-0.635c0.651-0.061,1.297,0.028,1.908,0.239c0.611,0.212,1.186,0.547,1.696,0.979
					c0.51,0.432,0.956,0.962,1.306,1.564c0.35,0.602,0.606,1.275,0.736,1.994c0.012,0.053,0.024,0.107,0.035,0.162
					c0.011,0.054,0.022,0.109,0.032,0.164c0.01,0.055,0.019,0.11,0.028,0.164c0.009,0.055,0.017,0.109,0.024,0.163
					c0.045,0.66-0.023,1.29-0.189,1.868c-0.165,0.578-0.427,1.103-0.769,1.554c-0.342,0.451-0.764,0.827-1.249,1.107
					c-0.485,0.28-1.034,0.463-1.628,0.527l-0.746,0.074l1.364,1.165l4.935,4.146L252.612,179.681z M241.802,172.112l4.712-0.466
					c0.266-0.029,0.515-0.107,0.74-0.225c0.225-0.119,0.425-0.279,0.595-0.471c0.169-0.193,0.307-0.418,0.406-0.669
					s0.16-0.526,0.175-0.819c0.002-0.055,0.002-0.11,0.002-0.166s-0.003-0.112-0.006-0.168c-0.003-0.056-0.008-0.113-0.013-0.169
					c-0.006-0.056-0.012-0.113-0.02-0.169c-0.068-0.36-0.197-0.696-0.374-0.996c-0.176-0.3-0.4-0.564-0.655-0.779
					c-0.255-0.215-0.543-0.382-0.848-0.487c-0.305-0.105-0.627-0.15-0.952-0.121l-4.712,0.461L241.802,172.112"/>
			</g>
			<g>
				<path class="st102" d="M214.895,166.727c0.657-0.061,1.31,0.026,1.927,0.238c0.617,0.212,1.198,0.547,1.714,0.98
					c0.516,0.434,0.966,0.965,1.321,1.57c0.355,0.605,0.614,1.283,0.747,2.008c0.006,0.031,0.009,0.062,0.011,0.092
					s0.002,0.061,0.001,0.092s-0.005,0.06-0.01,0.089c-0.005,0.029-0.013,0.057-0.022,0.084c-0.019,0.051-0.044,0.098-0.073,0.14
					s-0.064,0.078-0.103,0.108c-0.039,0.031-0.082,0.055-0.128,0.074c-0.047,0.018-0.097,0.031-0.15,0.036l-1.179,0.116
					c-0.089,0.006-0.174-0.006-0.254-0.032c-0.08-0.027-0.154-0.068-0.218-0.122c-0.065-0.054-0.12-0.119-0.162-0.194
					s-0.072-0.159-0.086-0.249c-0.067-0.361-0.197-0.7-0.375-1.002c-0.178-0.302-0.403-0.568-0.661-0.785
					c-0.258-0.217-0.549-0.384-0.858-0.49c-0.309-0.105-0.635-0.148-0.965-0.116l-2.369,0.232c-0.328,0.032-0.627,0.137-0.888,0.298
					c-0.261,0.161-0.483,0.379-0.656,0.639c-0.173,0.259-0.297,0.56-0.361,0.886c-0.064,0.326-0.069,0.678-0.004,1.04l1.424,7.912
					c0.065,0.362,0.194,0.701,0.372,1.004c0.177,0.303,0.403,0.569,0.662,0.786c0.259,0.217,0.55,0.384,0.859,0.489
					c0.309,0.105,0.635,0.147,0.963,0.115l2.397-0.24c0.328-0.033,0.627-0.137,0.887-0.298c0.26-0.161,0.482-0.379,0.655-0.638
					c0.173-0.259,0.296-0.559,0.36-0.886c0.064-0.327,0.068-0.68,0.002-1.044c-0.013-0.099-0.01-0.191,0.006-0.274
					c0.017-0.083,0.047-0.157,0.089-0.22c0.042-0.063,0.095-0.114,0.158-0.152s0.135-0.062,0.214-0.069l1.205-0.12
					c0.084-0.006,0.166,0.007,0.243,0.035c0.077,0.028,0.148,0.071,0.21,0.125c0.062,0.055,0.116,0.121,0.157,0.195
					s0.07,0.157,0.084,0.244c0.015,0.082,0.028,0.164,0.039,0.247c0.011,0.082,0.021,0.165,0.029,0.248
					c0.008,0.083,0.014,0.166,0.018,0.249c0.004,0.083,0.007,0.166,0.008,0.25c0.003,0.629-0.098,1.226-0.286,1.77
					c-0.188,0.545-0.464,1.037-0.811,1.459c-0.347,0.422-0.767,0.772-1.241,1.032c-0.475,0.26-1.006,0.43-1.577,0.49l-2.37,0.238
					c-0.659,0.064-1.312-0.022-1.93-0.233c-0.618-0.21-1.201-0.545-1.718-0.979c-0.517-0.434-0.968-0.966-1.322-1.572
					c-0.354-0.606-0.612-1.286-0.743-2.013l-1.423-7.915c-0.131-0.727-0.122-1.433,0.006-2.086c0.128-0.653,0.374-1.254,0.72-1.773
					c0.345-0.518,0.789-0.954,1.311-1.277c0.522-0.323,1.122-0.533,1.779-0.6L214.895,166.727z"/>
			</g>
			<g>
				<path class="st102" d="M188.673,169.284c0.081-0.003,0.16,0.012,0.234,0.041c0.074,0.029,0.143,0.072,0.204,0.126
					c0.061,0.054,0.114,0.12,0.155,0.194c0.041,0.074,0.072,0.156,0.087,0.244l0.238,1.329c0.016,0.09,0.015,0.178-0.002,0.26
					c-0.016,0.082-0.048,0.157-0.092,0.222c-0.044,0.065-0.1,0.12-0.165,0.161s-0.14,0.067-0.222,0.075l-4.172,0.409l2.712,15.161
					c0.017,0.097,0.017,0.188,0.002,0.273c-0.015,0.084-0.045,0.16-0.086,0.225s-0.095,0.119-0.158,0.159
					c-0.063,0.04-0.134,0.065-0.212,0.073l-1.218,0.122c-0.09,0.006-0.176-0.007-0.256-0.035c-0.08-0.029-0.154-0.073-0.218-0.129
					c-0.064-0.056-0.119-0.124-0.161-0.2c-0.042-0.076-0.071-0.16-0.085-0.248l-2.721-15.219l-4.228,0.414
					c-0.085,0.008-0.167-0.003-0.244-0.029s-0.149-0.069-0.212-0.123c-0.063-0.054-0.117-0.121-0.158-0.195
					s-0.071-0.158-0.084-0.246l-0.232-1.301c-0.016-0.077-0.019-0.153-0.01-0.225c0.009-0.072,0.03-0.14,0.061-0.201
					s0.072-0.116,0.121-0.162c0.05-0.046,0.108-0.082,0.173-0.107L188.673,169.284z"/>
			</g>
			<g>
				<path class="st102" d="M157.039,173.633c0.317,0.227,0.611,0.487,0.877,0.774c0.266,0.286,0.505,0.599,0.712,0.933
					s0.383,0.687,0.524,1.056c0.141,0.368,0.247,0.751,0.314,1.143l1.42,7.981c0.128,0.734,0.115,1.446-0.019,2.106
					c-0.134,0.66-0.389,1.268-0.743,1.793c-0.354,0.525-0.808,0.967-1.339,1.296c-0.532,0.328-1.142,0.543-1.809,0.613L150.277,192
					c-0.089,0.004-0.175-0.011-0.255-0.04s-0.154-0.074-0.218-0.13c-0.064-0.056-0.119-0.125-0.162-0.201s-0.072-0.163-0.086-0.254
					l-3.071-17.312c-0.016-0.091-0.015-0.179,0.001-0.261s0.047-0.158,0.091-0.224c0.043-0.066,0.099-0.121,0.165-0.162
					c0.066-0.041,0.141-0.067,0.224-0.075l6.697-0.653c0.295-0.029,0.591-0.03,0.883-0.003c0.293,0.027,0.583,0.081,0.867,0.161
					s0.564,0.187,0.836,0.318C156.521,173.295,156.785,173.452,157.039,173.633z M158.51,185.755l-1.41-7.985
					c-0.065-0.365-0.195-0.707-0.374-1.013c-0.179-0.305-0.408-0.574-0.671-0.792c-0.263-0.219-0.56-0.388-0.875-0.494
					c-0.315-0.106-0.649-0.149-0.985-0.116l-4.855,0.475l2.362,13.308l4.847-0.485c0.336-0.034,0.643-0.14,0.911-0.304
					c0.267-0.164,0.495-0.385,0.672-0.647c0.177-0.263,0.305-0.566,0.371-0.896C158.569,186.476,158.575,186.121,158.51,185.755"/>
			</g>
			<g>
				<path class="st102" d="M142.531,173.782c0.091-0.006,0.178,0.006,0.259,0.034c0.081,0.028,0.155,0.071,0.22,0.126
					c0.065,0.055,0.12,0.122,0.162,0.197s0.072,0.159,0.085,0.247l0.237,1.339c0.015,0.096,0.012,0.188-0.005,0.271
					c-0.017,0.083-0.049,0.159-0.094,0.223c-0.044,0.064-0.101,0.118-0.167,0.157s-0.142,0.065-0.225,0.073l-9.143,0.895
					l0.944,5.338l6.707-0.663c0.086-0.008,0.17,0.002,0.249,0.027c0.079,0.026,0.153,0.067,0.218,0.121
					c0.065,0.054,0.122,0.12,0.166,0.195c0.044,0.075,0.076,0.16,0.092,0.251l0.239,1.351c0.017,0.094,0.015,0.184-0.002,0.268
					c-0.017,0.084-0.049,0.161-0.093,0.228c-0.045,0.067-0.102,0.122-0.168,0.164c-0.067,0.041-0.143,0.068-0.226,0.076
					l-6.708,0.666l0.943,5.33l9.144-0.915c0.091-0.006,0.178,0.006,0.259,0.034s0.155,0.071,0.22,0.126
					c0.065,0.055,0.12,0.122,0.162,0.197c0.042,0.075,0.072,0.159,0.085,0.248l0.236,1.331c0.015,0.099,0.013,0.193-0.004,0.278
					c-0.017,0.085-0.049,0.162-0.093,0.227c-0.044,0.065-0.1,0.119-0.167,0.159c-0.066,0.04-0.142,0.065-0.225,0.074l-11.024,1.109
					c-0.092,0.004-0.18-0.01-0.261-0.04c-0.082-0.029-0.157-0.074-0.222-0.13c-0.065-0.056-0.121-0.125-0.163-0.202
					c-0.043-0.077-0.072-0.163-0.086-0.254l-3.068-17.356c-0.016-0.091-0.015-0.179,0.002-0.261
					c0.017-0.082,0.048-0.157,0.093-0.222s0.101-0.12,0.169-0.162c0.067-0.042,0.145-0.07,0.23-0.081L142.531,173.782z"/>
			</g>
			<g>
				<path class="st102" d="M128.055,183.903c-0.168,0.358-0.375,0.686-0.616,0.977c-0.241,0.292-0.514,0.548-0.815,0.764
					c-0.301,0.216-0.628,0.392-0.976,0.524c-0.348,0.132-0.717,0.219-1.1,0.257l-0.775,0.077l1.436,1.184l5.039,4.229
					c0.072,0.064,0.13,0.138,0.174,0.217c0.044,0.079,0.073,0.162,0.087,0.246c0.014,0.084,0.014,0.169-0.002,0.249
					c-0.016,0.081-0.047,0.157-0.093,0.226l-0.146,0.216l-0.54,0.797c-0.024,0.036-0.052,0.067-0.081,0.095
					s-0.062,0.052-0.096,0.072c-0.034,0.02-0.07,0.036-0.108,0.048c-0.037,0.012-0.076,0.02-0.116,0.024
					c-0.039,0.004-0.079,0.004-0.12,0s-0.081-0.013-0.121-0.025s-0.079-0.029-0.118-0.05c-0.038-0.021-0.076-0.046-0.112-0.076
					l-8.502-7.112l-0.72,0.071l1.293,7.338c0.017,0.097,0.016,0.19-0.001,0.276s-0.049,0.165-0.094,0.232s-0.102,0.124-0.169,0.166
					c-0.067,0.042-0.144,0.069-0.228,0.077l-1.247,0.125c-0.09,0.004-0.177-0.011-0.257-0.042c-0.081-0.03-0.155-0.076-0.219-0.133
					c-0.064-0.057-0.119-0.126-0.16-0.203c-0.041-0.077-0.069-0.162-0.08-0.251l-3.065-17.401c-0.016-0.091-0.015-0.18,0-0.263
					c0.016-0.083,0.046-0.159,0.088-0.225c0.043-0.066,0.098-0.121,0.163-0.162c0.066-0.041,0.141-0.068,0.225-0.076l6.745-0.658
					c0.677-0.063,1.348,0.025,1.981,0.239c0.633,0.214,1.228,0.554,1.756,0.993c0.527,0.44,0.987,0.979,1.347,1.593
					c0.361,0.614,0.622,1.302,0.755,2.039c0.012,0.055,0.023,0.109,0.034,0.164c0.011,0.055,0.021,0.11,0.031,0.165
					c0.01,0.055,0.019,0.111,0.028,0.167c0.009,0.056,0.017,0.113,0.025,0.17c0,0.04-0.002,0.08-0.004,0.121
					c-0.002,0.041-0.005,0.082-0.007,0.123c-0.002,0.041-0.003,0.081-0.002,0.12c0.001,0.039,0.004,0.077,0.01,0.114
					c-0.005,0.194-0.019,0.386-0.044,0.575c-0.025,0.19-0.059,0.376-0.103,0.56c-0.044,0.183-0.098,0.363-0.162,0.538
					C128.211,183.568,128.137,183.738,128.055,183.903z M119.161,184.23l4.914-0.486c0.151-0.015,0.298-0.045,0.439-0.089
					c0.141-0.044,0.277-0.102,0.405-0.174c0.128-0.072,0.248-0.157,0.359-0.255s0.212-0.209,0.303-0.331
					c0.024-0.029,0.048-0.059,0.07-0.089s0.044-0.061,0.065-0.093c0.021-0.032,0.04-0.065,0.058-0.098
					c0.018-0.034,0.035-0.069,0.051-0.105c0.04-0.075,0.076-0.154,0.108-0.235c0.032-0.081,0.06-0.164,0.083-0.248
					s0.043-0.17,0.057-0.257s0.026-0.175,0.032-0.263c0-0.056-0.001-0.112-0.003-0.169c-0.002-0.057-0.005-0.114-0.008-0.171
					c-0.004-0.057-0.009-0.115-0.016-0.172s-0.015-0.115-0.025-0.172c-0.065-0.367-0.195-0.711-0.376-1.018
					c-0.181-0.307-0.411-0.577-0.675-0.796c-0.264-0.22-0.563-0.39-0.88-0.496c-0.317-0.107-0.652-0.15-0.989-0.117l-4.914,0.481
					L119.161,184.23"/>
			</g>
			<g>
				<path class="st102" d="M107.002,177.246c0.681-0.064,1.356,0.025,1.994,0.239c0.638,0.214,1.238,0.555,1.769,0.995
					c0.531,0.441,0.994,0.981,1.356,1.597c0.362,0.615,0.624,1.305,0.754,2.044c0.003,0.032,0.005,0.063,0.005,0.093
					c0,0.031-0.001,0.061-0.003,0.091s-0.007,0.06-0.013,0.09c-0.006,0.03-0.013,0.06-0.023,0.09
					c-0.018,0.05-0.043,0.096-0.073,0.138c-0.03,0.042-0.066,0.079-0.106,0.111c-0.04,0.032-0.085,0.058-0.132,0.078
					s-0.099,0.033-0.151,0.038l-1.22,0.12c-0.089,0.009-0.176-0.002-0.257-0.029c-0.081-0.027-0.157-0.069-0.223-0.125
					c-0.067-0.055-0.124-0.123-0.169-0.2c-0.045-0.077-0.077-0.163-0.093-0.254c-0.067-0.368-0.2-0.712-0.382-1.02
					s-0.415-0.578-0.681-0.798c-0.266-0.22-0.566-0.39-0.885-0.497c-0.318-0.107-0.655-0.15-0.994-0.117l-2.464,0.241
					c-0.339,0.036-0.648,0.144-0.918,0.309c-0.27,0.165-0.5,0.387-0.68,0.651c-0.18,0.264-0.309,0.569-0.377,0.9
					c-0.068,0.331-0.075,0.689-0.01,1.058l1.415,8.055c0.065,0.369,0.195,0.713,0.376,1.02s0.411,0.577,0.675,0.797
					c0.265,0.22,0.564,0.389,0.882,0.496c0.318,0.107,0.654,0.151,0.994,0.12l2.464-0.247c0.339-0.034,0.649-0.141,0.92-0.305
					c0.271-0.164,0.502-0.386,0.683-0.65c0.181-0.264,0.312-0.57,0.382-0.903c0.07-0.333,0.079-0.693,0.016-1.064
					c-0.015-0.098-0.012-0.19,0.005-0.275c0.017-0.084,0.05-0.16,0.094-0.225c0.044-0.065,0.101-0.118,0.167-0.157
					s0.141-0.065,0.223-0.073l1.239-0.123c0.091-0.009,0.18,0.001,0.262,0.028c0.082,0.027,0.159,0.069,0.225,0.124
					c0.067,0.055,0.123,0.123,0.167,0.2c0.044,0.077,0.074,0.163,0.088,0.255c0.015,0.084,0.028,0.167,0.038,0.25
					c0.011,0.083,0.02,0.165,0.026,0.248c0.007,0.082,0.011,0.165,0.013,0.247s0.002,0.165-0.001,0.247
					c0.004,0.646-0.101,1.257-0.296,1.816c-0.196,0.559-0.483,1.064-0.844,1.496c-0.362,0.432-0.798,0.791-1.293,1.056
					c-0.495,0.266-1.047,0.438-1.641,0.498l-2.464,0.248c-0.679,0.066-1.353-0.021-1.99-0.234c-0.637-0.213-1.237-0.553-1.768-0.994
					c-0.532-0.441-0.995-0.982-1.358-1.599c-0.364-0.617-0.627-1.308-0.76-2.048l-1.415-8.058c-0.127-0.74-0.112-1.459,0.026-2.125
					c0.138-0.665,0.397-1.278,0.758-1.807c0.36-0.528,0.822-0.973,1.364-1.303c0.541-0.33,1.163-0.544,1.844-0.613L107.002,177.246z
					"/>
			</g>
			<g>
				<path class="st102" d="M260.034,162.327c0.648-0.061,1.291,0.028,1.9,0.239c0.609,0.211,1.183,0.546,1.693,0.978
					c0.51,0.432,0.955,0.961,1.305,1.563c0.35,0.601,0.606,1.275,0.737,1.995l1.427,7.84c0.129,0.721,0.121,1.42-0.003,2.068
					c-0.124,0.648-0.365,1.245-0.703,1.76c-0.338,0.515-0.773,0.949-1.285,1.27c-0.512,0.322-1.102,0.532-1.749,0.599l-6.47,0.651
					c-0.086,0.003-0.169-0.012-0.246-0.042c-0.077-0.03-0.149-0.075-0.211-0.131c-0.062-0.056-0.115-0.124-0.155-0.199
					c-0.04-0.075-0.067-0.158-0.079-0.245l-3.089-17.007c-0.018-0.089-0.019-0.175-0.006-0.255s0.042-0.153,0.083-0.217
					s0.094-0.117,0.157-0.158s0.135-0.068,0.215-0.078L260.034,162.327z M264.763,175.164l-1.427-7.843
					c-0.068-0.359-0.198-0.695-0.374-0.994c-0.177-0.3-0.401-0.564-0.656-0.779s-0.543-0.382-0.847-0.486
					c-0.304-0.105-0.625-0.148-0.948-0.116l-4.689,0.459l2.375,13.073l4.69-0.47c0.323-0.032,0.617-0.136,0.874-0.295
					c0.256-0.16,0.474-0.375,0.644-0.632c0.17-0.257,0.291-0.555,0.355-0.879C264.821,175.876,264.826,175.526,264.763,175.164"/>
			</g>
			<g>
				<path class="st102" d="M230.034,165.251c0.652-0.058,1.299,0.031,1.911,0.244c0.611,0.213,1.187,0.548,1.699,0.981
					c0.511,0.433,0.957,0.963,1.309,1.565c0.352,0.602,0.609,1.277,0.741,1.998l2.264,12.517c0.015,0.093,0.012,0.184-0.004,0.267
					c-0.016,0.083-0.047,0.159-0.089,0.224c-0.042,0.065-0.097,0.12-0.161,0.16c-0.064,0.04-0.138,0.066-0.219,0.075l-1.152,0.115
					c-0.09,0.007-0.177-0.006-0.258-0.034s-0.154-0.072-0.218-0.128c-0.064-0.056-0.119-0.123-0.16-0.198
					c-0.042-0.075-0.071-0.158-0.084-0.246l-1.303-7.21l-7.102,0.705l1.303,7.218c0.017,0.092,0.016,0.182,0,0.265
					c-0.016,0.083-0.047,0.159-0.091,0.225c-0.044,0.066-0.1,0.121-0.165,0.162c-0.066,0.041-0.142,0.067-0.225,0.076l-1.195,0.12
					c-0.086,0.006-0.17-0.007-0.248-0.035s-0.15-0.073-0.213-0.128s-0.117-0.123-0.159-0.198c-0.042-0.075-0.071-0.159-0.084-0.246
					l-2.263-12.542c-0.131-0.725-0.122-1.429,0.005-2.081c0.127-0.652,0.374-1.251,0.718-1.768c0.344-0.517,0.787-0.952,1.306-1.274
					c0.52-0.322,1.117-0.531,1.771-0.598L230.034,165.251z M233.814,172.901l-0.476-2.63c-0.065-0.361-0.193-0.699-0.369-1
					c-0.176-0.302-0.399-0.567-0.655-0.783c-0.256-0.216-0.544-0.384-0.85-0.489c-0.306-0.105-0.629-0.148-0.955-0.117l-2.376,0.233
					c-0.326,0.032-0.624,0.136-0.883,0.297c-0.259,0.161-0.48,0.378-0.652,0.637c-0.172,0.259-0.296,0.558-0.361,0.884
					c-0.065,0.326-0.071,0.677-0.008,1.038l0.475,2.633L233.814,172.901"/>
			</g>
			<g>
				<path class="st102" d="M170.927,171.014c0.087-0.008,0.173,0.002,0.254,0.029s0.156,0.069,0.223,0.123s0.124,0.122,0.169,0.198
					c0.045,0.076,0.078,0.161,0.094,0.251l0.238,1.333c0.014,0.093,0.011,0.183-0.007,0.266c-0.018,0.083-0.051,0.158-0.096,0.223
					c-0.045,0.065-0.103,0.119-0.171,0.159c-0.068,0.04-0.145,0.066-0.23,0.074l-1.753,0.172l2.365,13.264l4.183-0.419
					c0.087-0.009,0.172,0,0.252,0.023c0.079,0.023,0.153,0.061,0.218,0.111c0.065,0.05,0.122,0.112,0.166,0.184
					s0.078,0.153,0.096,0.242l0.236,1.324c0.015,0.094,0.013,0.185-0.003,0.268c-0.016,0.083-0.046,0.158-0.088,0.223
					c-0.042,0.065-0.096,0.118-0.159,0.158c-0.063,0.04-0.136,0.065-0.217,0.073l-10.903,1.096
					c-0.083,0.006-0.165-0.006-0.243-0.034c-0.077-0.027-0.15-0.069-0.214-0.124c-0.064-0.054-0.119-0.121-0.162-0.196
					c-0.043-0.076-0.073-0.16-0.086-0.251l-0.236-1.327c-0.017-0.096-0.017-0.188-0.001-0.272c0.015-0.084,0.046-0.161,0.088-0.226
					c0.042-0.066,0.097-0.12,0.161-0.16c0.064-0.04,0.138-0.066,0.218-0.074l4.249-0.425l-2.365-13.269l-1.859,0.182
					c-0.083,0.008-0.164-0.003-0.24-0.03c-0.076-0.027-0.148-0.069-0.211-0.123c-0.063-0.054-0.118-0.121-0.161-0.195
					c-0.043-0.075-0.074-0.158-0.09-0.246l-0.23-1.293c-0.016-0.091-0.016-0.178,0-0.259c0.015-0.081,0.045-0.156,0.087-0.22
					c0.042-0.065,0.096-0.119,0.16-0.16s0.139-0.069,0.221-0.079L170.927,171.014z"/>
			</g>
		</g>
		<path class="st103" d="M105.068,134.875l-25.695,2.329c-3.115,0.282-5.967,1.233-8.456,2.712
			c-1.695,1.007-3.206,2.275-4.533,3.727c-0.39,0.198-0.788,0.384-1.162,0.606c-2.529,1.503-4.69,3.542-6.381,5.976
			c-1.692,2.435-2.913,5.265-3.562,8.343c-0.65,3.081-0.726,6.41-0.128,9.843l37.032,212.654c0.607,3.487,1.833,6.727,3.53,9.598
			c1.696,2.871,3.862,5.372,6.35,7.385c2.487,2.011,5.294,3.533,8.272,4.446c2.977,0.913,6.124,1.218,9.295,0.796l200.084-26.577
			C163.253,314.138,117.775,189.645,105.068,134.875z"/>
		<path class="st104" d="M456.637,326.968l-37.132-197.172c-0.6-3.185-1.736-6.164-3.277-8.827c-1.542-2.663-3.49-5.009-5.712-6.925
			c-2.224-1.918-4.725-3.406-7.37-4.352c-2.647-0.946-5.44-1.349-8.249-1.095L233.834,123.2l143.852,238.672l63.059-8.774
			c2.813-0.374,5.366-1.388,7.575-2.9c2.207-1.511,4.07-3.52,5.505-5.886c1.435-2.364,2.442-5.085,2.938-8.023
			C457.26,333.353,457.246,330.199,456.637,326.968z"/>
	</g>
</g>
<g id="Credits_500">
</g>
<g id="Credits_300">
</g>
<g id="Credits_200">
</g>
<g id="Credits_100">
</g>
<g id="Credits_75">
</g>
<g id="Credits_50">
</g>
<g id="Credits_25">
</g>
<g id="Credits_10">
</g>
<g id="Credits_5">
</g>
<g id="Credits_1">
</g>
</svg>
