<?xml version="1.0" encoding="utf-8"?>
<!-- Generator: Adobe Illustrator 24.0.3, SVG Export Plug-In . SVG Version: 6.00 Build 0)  -->
<svg version="1.1" xmlns="http://www.w3.org/2000/svg" xmlns:xlink="http://www.w3.org/1999/xlink" x="0px" y="0px"
	 viewBox="0 0 512 512" style="enable-background:new 0 0 512 512;" xml:space="preserve">
<style type="text/css">
	.st0{fill:none;}
	.st1{fill:#FFFFFF;}
	.st2{fill:#ED0F49;}
	.st3{fill:#FFEBCA;}
	.st4{fill:#9B4231;}
	.st5{fill:#EAB363;}
	.st6{opacity:0.2;enable-background:new    ;}
	.st7{fill:#F7B5E5;}
	.st8{fill:#F9437C;}
	.st9{fill:#FFD7E5;}
	.st10{fill:#FF76A0;}
	.st11{fill:#BBD5FF;}
	.st12{fill:#85BC00;}
	.st13{fill:#00D871;}
	.st14{fill:#FFA300;}
	.st15{fill:#FF99FF;}
	.st16{fill:#E20569;}
	.st17{fill:#4BE08E;}
	.st18{fill:#06FFEC;}
	.st19{fill:#FFA403;}
	.st20{fill:#76D1FF;}
	.st21{fill:#6F00FF;}
	.st22{fill:#0050C4;}
	.st23{fill:#9772D3;}
	.st24{fill:#FFE564;}
	.st25{clip-path:url(#SVGID_2_);fill:#E5E5E5;}
	.st26{clip-path:url(#SVGID_4_);fill:#008BD8;}
	.st27{clip-path:url(#SVGID_6_);fill:#008BD8;}
	.st28{clip-path:url(#SVGID_8_);fill:#008BD8;}
	.st29{fill:#FFC639;}
	.st30{fill:#FF7900;}
	.st31{clip-path:url(#SVGID_10_);fill:#E5E5E5;}
	.st32{clip-path:url(#SVGID_12_);fill:#008BD8;}
	.st33{clip-path:url(#SVGID_14_);fill:#008BD8;}
	.st34{clip-path:url(#SVGID_16_);fill:#008BD8;}
	.st35{clip-path:url(#SVGID_18_);fill:#E5E5E5;}
	.st36{clip-path:url(#SVGID_20_);fill:#008BD8;}
	.st37{clip-path:url(#SVGID_22_);fill:#008BD8;}
	.st38{clip-path:url(#SVGID_24_);fill:#008BD8;}
	.st39{fill:#CAEFFF;}
	.st40{opacity:0.1;}
	.st41{fill:#3C0000;}
	.st42{fill:#C00000;}
	.st43{fill:#23292D;}
	.st44{fill:#F2F2F2;}
	.st45{opacity:0.6;fill:#3C5366;}
	.st46{fill:#3C5366;}
	.st47{fill:#1B2A35;}
	.st48{fill:#7B0000;}
	.st49{fill:#9EC3F2;}
	.st50{fill:#4D84C1;}
	.st51{opacity:0.74;fill:#7B0000;}
	.st52{opacity:0.74;fill:#C00000;}
	.st53{fill:#CBDCF4;}
	.st54{fill:#500000;}
	.st55{fill:#56AAE8;}
	.st56{fill:#FF9999;}
	.st57{opacity:0.3;fill:#FFFFFF;}
	.st58{opacity:0.3;}
	.st59{fill:#F98706;}
	.st60{fill:#FFCC00;}
	.st61{fill:#0092DB;}
	.st62{fill:#00B7FF;}
	.st63{fill:#50D6FF;}
	.st64{fill:#88E0FF;}
	.st65{fill:#DDA800;}
	.st66{fill:#F4C42A;}
	.st67{fill:#FFDB4D;}
	.st68{opacity:0.4;fill:#441F00;}
	.st69{fill:#CE8032;}
	.st70{fill:#6B8900;}
	.st71{fill:#9AC400;}
	.st72{fill:#C2DD00;}
	.st73{opacity:0.2;}
	.st74{fill:#E6F1FF;}
	.st75{fill:#0B0B0C;}
	.st76{fill:#0080FF;}
	.st77{fill:#FFED83;}
	.st78{fill:#AA6500;}
	.st79{clip-path:url(#SVGID_26_);}
	.st80{opacity:0.2;fill:#48A0FF;}
	.st81{fill:#E27100;}
	.st82{fill:#FFB000;}
	.st83{fill:#FFAA00;}
	.st84{fill:#FFDF7B;}
	.st85{opacity:0.2;fill:#F98706;}
	.st86{fill:#B6E7FF;}
	.st87{fill:#D9F4FF;}
	.st88{fill:#379AF4;}
	.st89{fill:#8FD4FF;}
	.st90{fill:#5FBBFF;}
	.st91{opacity:0.2;fill:#379AF4;}
	.st92{fill:#FFF0C5;}
	.st93{fill:#7599BC;}
	.st94{fill:#1D1D38;}
	.st95{opacity:0.15;fill:#0B0019;}
	.st96{opacity:0.05;fill:#FFFFFF;}
	.st97{fill:#618099;}
	.st98{fill:#494968;}
	.st99{fill:#595972;}
	.st100{fill:#E9BC00;}
	.st101{opacity:0.5;}
	.st102{fill:#DDDFE4;}
	.st103{opacity:0.3;fill:#0B0019;}
	.st104{opacity:0.08;fill:#FFFFFF;}
	.st105{fill:#5A5A84;}
	.st106{fill:#B3B3CE;}
	.st107{fill:#FD1B64;}
	.st108{fill:#D6004D;}
	.st109{fill:#920006;}
	.st110{fill:#8585A8;}
	.st111{fill:#171723;}
	.st112{opacity:0.1;fill:#FFFFFF;}
	.st113{opacity:0.2;fill:#0B0019;}
	.st114{fill:#547D9B;}
	.st115{fill:#A1D5FF;}
	.st116{fill:#00254D;}
	.st117{opacity:0.1;fill:#3E0A75;}
	.st118{opacity:0.4;fill:#FFFFFF;}
	.st119{fill:#2D5171;}
	.st120{fill:#B88352;}
	.st121{fill:#EFC478;}
	.st122{fill:#76838E;}
	.st123{fill:#B7A1E2;}
	.st124{fill:#FF4385;}
	.st125{fill:#D30041;}
	.st126{fill:#ED065F;}
	.st127{opacity:0.8;fill:#FFFFFF;}
	.st128{fill:#5D422A;}
	.st129{opacity:0.3;fill:#3E0A75;}
	.st130{fill:#FF7187;}
	.st131{fill:#CE4A69;}
	.st132{fill:#444468;}
	.st133{fill:#1A1A23;}
	.st134{fill:#1F95DD;}
	.st135{fill:#DA0000;}
	.st136{fill:#2C2C4C;}
	.st137{fill:#BCBCE8;}
	.st138{fill:#222B33;}
	.st139{fill:#394854;}
	.st140{fill:#273544;}
	.st141{fill:#86A9BF;}
	.st142{fill:#F79984;}
	.st143{fill:#0A0F11;}
	.st144{fill:#E07868;}
	.st145{fill:#D35440;}
	.st146{fill:#FFC2B8;}
	.st147{fill:#A53A2F;}
	.st148{fill:#C64E36;}
	.st149{fill:#070000;}
	.st150{fill:#230200;}
	.st151{fill:#540000;}
	.st152{fill:#AF8F08;}
	.st153{fill:#16D8C0;}
	.st154{fill:#75EFDD;}
	.st155{fill:#00AF96;}
	.st156{fill:#00846E;}
	.st157{fill:#FFE161;}
	.st158{fill:#05C4A8;}
	.st159{fill:#F3E9FF;}
	.st160{fill:#FFC5DB;}
	.st161{fill:#E5D2FF;}
	.st162{fill:#CDB3FF;}
	.st163{opacity:0.2;fill:#3E0A75;}
	.st164{fill:#A8003D;}
	.st165{fill:#AA6D35;}
	.st166{fill:#FFD6B8;}
	.st167{fill:#FFE697;}
	.st168{fill:#FFDD88;}
	.st169{fill:#FF5986;}
	.st170{opacity:0.4;fill:#C40059;}
	.st171{fill:#CC004E;}
	.st172{fill:#2D2D2D;}
	.st173{opacity:0.6;}
	.st174{fill:#3D3D3D;}
	.st175{fill:#4F4F4F;}
	.st176{fill:#636363;}
	.st177{fill:#E9F5FF;}
	.st178{fill:#C1E0F4;}
	.st179{fill:#E50000;}
	.st180{fill:#FF7373;}
	.st181{fill:#F25F5F;}
	.st182{fill:#FFB200;}
	.st183{opacity:0.5;fill:#FF7373;}
	.st184{fill:#FFCF7B;}
	.st185{fill:#00CEC3;}
	.st186{fill:#00EAD9;}
	.st187{fill:#00A599;}
	.st188{fill:#007F73;}
	.st189{fill:#DD5050;}
	.st190{fill:#FFA6A6;}
	.st191{fill:#45793B;}
	.st192{fill:#35612A;}
	.st193{fill:#235317;}
	.st194{fill:#5E8F44;}
	.st195{fill:#65954D;}
	.st196{fill:#930000;}
	.st197{fill:#F00000;}
	.st198{fill:#EAB80D;}
	.st199{fill:#FFD226;}
</style>
<g id="Credits_10_Birthday">
</g>
<g id="Credits_5000">
</g>
<g id="Credits_3000">
</g>
<g id="Credits_2000">
	<rect class="st0" width="512" height="512"/>
	<g>
		<path class="st60" d="M97.535,294.013c11.045,78.786,57.13,139.033,102.934,134.566c3.146-0.307,6.205-0.921,9.178-1.806
			l49.483-6.868c-41.87-5.362-81.535-62.054-91.674-134.376c-10.291-73.411,13.475-137.005,53.82-148.955
			c-0.001,0,14.371,0,14.37,0.001l-70.809,6.466c-1.455,0.013-2.91,0.088-4.366,0.23C114.668,147.738,86.49,215.228,97.535,294.013z
			"/>
		<path class="st0" d="M97.535,294.013c11.045,78.786,57.13,139.033,102.934,134.566c3.146-0.307,6.205-0.921,9.178-1.806
			l49.483-6.868c-41.87-5.362-81.535-62.054-91.674-134.376c-10.291-73.411,13.475-137.005,53.82-148.955
			c-0.001,0,14.371,0,14.37,0.001l-70.809,6.466c-1.455,0.013-2.91,0.088-4.366,0.23C114.668,147.738,86.49,215.228,97.535,294.013z
			"/>
		<path class="st60" d="M169.359,297.103H97.991c11.801,77.265,57.275,135.885,102.478,131.477c3.146-0.307,6.206-0.921,9.178-1.806
			l49.483-6.868C219.522,414.832,181.892,363.822,169.359,297.103z"/>
		<path class="st0" d="M169.359,297.103H97.991c11.801,77.265,57.275,135.885,102.478,131.477c3.146-0.307,6.206-0.921,9.178-1.806
			l49.483-6.868C219.522,414.832,181.892,363.822,169.359,297.103z"/>
		<g>
			<path class="st81" d="M217.214,137.979c-0.295,0.116-0.588,0.238-0.881,0.36l10.305-0.941L217.214,137.979z"/>
			<path class="st81" d="M169.887,206.751c7.724-33.834,24.282-59.206,46.446-68.412l-51.494,4.702
				c-1.455,0.013-2.91,0.088-4.366,0.23c-28.171,2.747-49.67,29.339-59.482,67.731L169.887,206.751z"/>
		</g>
		<path class="st59" d="M101.695,208.344c-3.527,12.89-5.713,27.178-6.355,42.397l69.787-4.306
			c0.353-15.116,2.211-29.379,5.389-42.337L101.695,208.344z"/>
		<path class="st82" d="M165.471,238.228l-69.625,4.296c-0.857,10.642-0.947,21.799-0.188,33.304l70.234-4.334
			C164.939,260.031,164.823,248.887,165.471,238.228z"/>
		<g>
			<path class="st60" d="M314.376,252.321h-71.861c0.81,4.2,3.967,23.514,4.572,27.833c10.291,73.41-13.474,137.003-53.818,148.955
				l56.436-6.466c1.455-0.013,2.91-0.088,4.366-0.23c45.804-4.467,73.982-71.957,62.938-150.743
				C316.807,270.231,314.6,253.748,314.376,252.321z"/>
			<polygon class="st83" points="193.268,429.11 193.269,429.109 193.269,429.109 			"/>
			<path class="st0" d="M314.376,252.321h-71.861c0.81,4.2,3.967,23.514,4.572,27.833c10.291,73.41-13.474,137.003-53.818,148.955
				l56.436-6.466c1.455-0.013,2.91-0.088,4.366-0.23c45.804-4.467,73.982-71.957,62.938-150.743
				C316.807,270.231,314.6,253.748,314.376,252.321z"/>
			<path class="st82" d="M319.207,314.88l-69.788,4.306c-0.253,10.94-1.291,21.434-3.05,31.31l69.118-4.265
				C317.481,336.383,318.747,325.874,319.207,314.88z"/>
			<path class="st59" d="M301.728,385.672c6.559-12.122,11.481-26.716,14.443-43.014l-69.205,4.27
				c-2.546,16.08-6.959,30.623-12.949,42.922L301.728,385.672z"/>
			<path class="st81" d="M254.072,422.413c20.312-1.981,37.154-16.363,48.65-38.62l-67.816,4.184
				c-9.833,21.118-24.181,35.961-41.636,41.132l56.436-6.466C251.161,422.63,252.616,422.555,254.072,422.413z"/>
		</g>
		<path class="st84" d="M246.275,276.088c-11.631-77.739-54.316-135.498-95.339-129.008c-41.024,6.49-64.851,74.771-53.22,152.51
			c11.631,77.739,54.315,135.498,95.339,129.008S257.906,353.827,246.275,276.088z M189.545,405.14
			c-32.277,5.106-66.3-43.272-75.993-108.055s8.616-121.44,40.893-126.546s66.3,43.272,75.993,108.055
			S221.822,400.033,189.545,405.14z"/>
		<path class="st60" d="M242.514,252.509h71.904c-15.006-69.768-57.496-120.715-99.748-116.594
			c-3.146,0.307-6.206,0.921-9.178,1.806l-49.483,6.868C192.616,149.278,227.538,193.205,242.514,252.509z"/>
		<path class="st0" d="M242.514,252.509h71.904c-15.006-69.768-57.496-120.715-99.748-116.594c-3.146,0.307-6.206,0.921-9.178,1.806
			l-49.483,6.868C192.616,149.278,227.538,193.205,242.514,252.509z"/>
		
			<ellipse transform="matrix(0.9483 -0.3175 0.3175 0.9483 -65.6383 100.6781)" class="st85" cx="276.115" cy="251.752" rx="29.799" ry="37.677"/>
		
			<ellipse transform="matrix(0.9483 -0.3175 0.3175 0.9483 -63.2408 100.0633)" class="st82" cx="275.427" cy="244.088" rx="30.886" ry="39.052"/>
		
			<ellipse transform="matrix(0.9483 -0.3175 0.3175 0.9483 -62.0338 99.1602)" class="st59" cx="273.259" cy="239.933" rx="29.003" ry="36.671"/>
		<g>
			<polygon class="st86" points="336.831,116.613 366.166,98.668 406.473,118.056 433.852,162.268 436,206.759 405.739,224.283 
				364.34,206.074 336.288,162.115 			"/>
			<polygon class="st87" points="332.592,82.89 366.166,98.668 336.831,116.613 289.558,111.362 			"/>
			<polygon class="st88" points="435.618,244.523 436,206.759 405.739,224.283 392.917,269.798 			"/>
			<polygon class="st86" points="289.96,175.703 336.288,162.115 336.831,116.613 289.558,111.362 			"/>
			<polygon class="st89" points="332.753,242.524 364.34,206.074 336.288,162.115 289.96,175.703 			"/>
			<polygon class="st90" points="392.917,269.798 332.753,242.524 364.34,206.074 405.739,224.283 			"/>
			<polygon class="st88" points="259.329,243.271 392.917,269.798 332.753,242.524 			"/>
			<polygon class="st90" points="318.195,219.792 259.329,243.271 332.753,242.524 			"/>
			<polygon class="st89" points="303.914,197.492 318.012,219.662 259.329,243.271 			"/>
			<polygon class="st86" points="289.96,175.703 303.523,197.473 259.329,243.271 			"/>
			<polygon class="st89" points="289.558,111.362 259.329,243.271 289.96,175.703 			"/>
		</g>
		<path class="st91" d="M336.719,126.047l-0.43,36.068l28.052,43.959l41.399,18.209L436,206.759l-0.591-12.249
			C392.139,188.388,356.944,152.186,336.719,126.047z"/>
		<path class="st1" d="M420.011,207.049L420.011,207.049c-4.366,0-7.905-3.539-7.905-7.905V165.37c0-4.366,3.539-7.905,7.905-7.905
			h0c4.366,0,7.905,3.539,7.905,7.905v33.774C427.915,203.51,424.376,207.049,420.011,207.049z"/>
		<path class="st84" d="M288.197,248.885c-1.28,2.501-3.156,4.322-5.545,5.122c-6.961,2.33-15.652-4.883-19.411-16.111
			c-3.037-9.071-1.924-17.985,2.285-22.305l2.6-11.346c-2.247,0.018-4.488,0.377-6.677,1.11
			c-13.979,4.68-20.515,22.802-14.598,40.477c5.917,17.675,22.047,28.21,36.026,23.53c7.933-2.656,13.465-9.643,15.688-18.418
			L288.197,248.885z"/>
		<path class="st92" d="M257.606,212.798c0,0-2.874,47.428,28.744,46.709C286.35,259.507,243.952,274.598,257.606,212.798z"/>
		<polygon class="st1" points="130.655,161.772 176.817,157.305 130.605,153.33 126.137,107.168 122.162,153.38 76,157.847 
			122.212,161.822 126.679,207.985 		"/>
		<polygon class="st1" points="398.889,269.448 429.766,266.46 398.856,263.801 395.867,232.924 393.209,263.834 362.331,266.822 
			393.242,269.481 396.23,300.359 		"/>
		<path class="st84" d="M131.454,386.28l70.099-8.235c-4.592-6.656-8.876-13.965-12.776-21.832l-70.047,8.229
			C122.615,372.306,126.879,379.62,131.454,386.28z"/>
		<path class="st92" d="M255.13,148.206l-70.26,8.254c7.67,5.378,15.011,12.39,21.821,20.77l70.125-8.238
			C270.049,160.623,262.755,153.607,255.13,148.206z"/>
	</g>
</g>
<g id="Credits_1000">
</g>
<g id="Credits_750">
</g>
<g id="Credits_500">
</g>
<g id="Credits_300">
</g>
<g id="Credits_200">
</g>
<g id="Credits_100">
</g>
<g id="Credits_75">
</g>
<g id="Credits_50">
</g>
<g id="Credits_25">
</g>
<g id="Credits_10">
</g>
<g id="Credits_5">
</g>
<g id="Credits_1">
</g>
</svg>
