<?xml version="1.0" encoding="utf-8"?>
<!-- Generator: Adobe Illustrator 24.0.3, SVG Export Plug-In . SVG Version: 6.00 Build 0)  -->
<svg version="1.1" xmlns="http://www.w3.org/2000/svg" xmlns:xlink="http://www.w3.org/1999/xlink" x="0px" y="0px"
	 viewBox="0 0 512 512" style="enable-background:new 0 0 512 512;" xml:space="preserve">
<style type="text/css">
	.st0{fill:none;}
	.st1{fill:#FFFFFF;}
	.st2{fill:#ED0F49;}
	.st3{fill:#FFEBCA;}
	.st4{fill:#9B4231;}
	.st5{fill:#EAB363;}
	.st6{opacity:0.2;enable-background:new    ;}
	.st7{fill:#F7B5E5;}
	.st8{fill:#F9437C;}
	.st9{fill:#FFD7E5;}
	.st10{fill:#FF76A0;}
	.st11{fill:#BBD5FF;}
	.st12{fill:#85BC00;}
	.st13{fill:#00D871;}
	.st14{fill:#FFA300;}
	.st15{fill:#FF99FF;}
	.st16{fill:#E20569;}
	.st17{fill:#4BE08E;}
	.st18{fill:#06FFEC;}
	.st19{fill:#FFA403;}
	.st20{fill:#76D1FF;}
	.st21{fill:#6F00FF;}
	.st22{fill:#0050C4;}
	.st23{fill:#9772D3;}
	.st24{fill:#FFE564;}
	.st25{clip-path:url(#SVGID_2_);fill:#E5E5E5;}
	.st26{clip-path:url(#SVGID_4_);fill:#008BD8;}
	.st27{clip-path:url(#SVGID_6_);fill:#008BD8;}
	.st28{clip-path:url(#SVGID_8_);fill:#008BD8;}
	.st29{fill:#FFC639;}
	.st30{fill:#FF7900;}
	.st31{clip-path:url(#SVGID_10_);fill:#E5E5E5;}
	.st32{clip-path:url(#SVGID_12_);fill:#008BD8;}
	.st33{clip-path:url(#SVGID_14_);fill:#008BD8;}
	.st34{clip-path:url(#SVGID_16_);fill:#008BD8;}
	.st35{clip-path:url(#SVGID_18_);fill:#E5E5E5;}
	.st36{clip-path:url(#SVGID_20_);fill:#008BD8;}
	.st37{clip-path:url(#SVGID_22_);fill:#008BD8;}
	.st38{clip-path:url(#SVGID_24_);fill:#008BD8;}
	.st39{fill:#CAEFFF;}
	.st40{opacity:0.1;}
	.st41{fill:#3C0000;}
	.st42{fill:#C00000;}
	.st43{fill:#23292D;}
	.st44{fill:#F2F2F2;}
	.st45{opacity:0.6;fill:#3C5366;}
	.st46{fill:#3C5366;}
	.st47{fill:#1B2A35;}
	.st48{fill:#7B0000;}
	.st49{fill:#9EC3F2;}
	.st50{fill:#4D84C1;}
	.st51{opacity:0.74;fill:#7B0000;}
	.st52{opacity:0.74;fill:#C00000;}
	.st53{fill:#CBDCF4;}
	.st54{fill:#500000;}
	.st55{fill:#56AAE8;}
	.st56{fill:#FF9999;}
	.st57{opacity:0.3;fill:#FFFFFF;}
	.st58{opacity:0.3;}
	.st59{fill:#F98706;}
	.st60{fill:#FFCC00;}
	.st61{fill:#0092DB;}
	.st62{fill:#00B7FF;}
	.st63{fill:#50D6FF;}
	.st64{fill:#88E0FF;}
	.st65{fill:#DDA800;}
	.st66{fill:#F4C42A;}
	.st67{fill:#FFDB4D;}
	.st68{opacity:0.4;fill:#441F00;}
	.st69{fill:#CE8032;}
	.st70{fill:#6B8900;}
	.st71{fill:#9AC400;}
	.st72{fill:#C2DD00;}
	.st73{opacity:0.2;}
	.st74{fill:#E6F1FF;}
	.st75{fill:#0B0B0C;}
	.st76{fill:#0080FF;}
	.st77{fill:#FFED83;}
	.st78{fill:#AA6500;}
	.st79{clip-path:url(#SVGID_26_);}
	.st80{opacity:0.2;fill:#48A0FF;}
	.st81{fill:#E27100;}
	.st82{fill:#FFB000;}
	.st83{fill:#FFAA00;}
	.st84{fill:#FFDF7B;}
	.st85{opacity:0.2;fill:#F98706;}
	.st86{fill:#B6E7FF;}
	.st87{fill:#D9F4FF;}
	.st88{fill:#379AF4;}
	.st89{fill:#8FD4FF;}
	.st90{fill:#5FBBFF;}
	.st91{opacity:0.2;fill:#379AF4;}
	.st92{fill:#FFF0C5;}
	.st93{fill:#7599BC;}
	.st94{fill:#1D1D38;}
	.st95{opacity:0.15;fill:#0B0019;}
	.st96{opacity:0.05;fill:#FFFFFF;}
	.st97{fill:#618099;}
	.st98{fill:#494968;}
	.st99{fill:#595972;}
	.st100{fill:#E9BC00;}
	.st101{opacity:0.5;}
	.st102{fill:#DDDFE4;}
	.st103{opacity:0.3;fill:#0B0019;}
	.st104{opacity:0.08;fill:#FFFFFF;}
	.st105{fill:#5A5A84;}
	.st106{fill:#B3B3CE;}
	.st107{fill:#FD1B64;}
	.st108{fill:#D6004D;}
	.st109{fill:#920006;}
	.st110{fill:#8585A8;}
	.st111{fill:#171723;}
	.st112{opacity:0.1;fill:#FFFFFF;}
	.st113{opacity:0.2;fill:#0B0019;}
	.st114{fill:#547D9B;}
	.st115{fill:#A1D5FF;}
	.st116{fill:#00254D;}
	.st117{opacity:0.1;fill:#3E0A75;}
	.st118{opacity:0.4;fill:#FFFFFF;}
	.st119{fill:#2D5171;}
	.st120{fill:#B88352;}
	.st121{fill:#EFC478;}
	.st122{fill:#76838E;}
	.st123{fill:#B7A1E2;}
	.st124{fill:#FF4385;}
	.st125{fill:#D30041;}
	.st126{fill:#ED065F;}
	.st127{opacity:0.8;fill:#FFFFFF;}
	.st128{fill:#5D422A;}
	.st129{opacity:0.3;fill:#3E0A75;}
	.st130{fill:#FF7187;}
	.st131{fill:#CE4A69;}
	.st132{fill:#444468;}
	.st133{fill:#1A1A23;}
	.st134{fill:#1F95DD;}
	.st135{fill:#DA0000;}
	.st136{fill:#2C2C4C;}
	.st137{fill:#BCBCE8;}
	.st138{fill:#222B33;}
	.st139{fill:#394854;}
	.st140{fill:#273544;}
	.st141{fill:#86A9BF;}
	.st142{fill:#F79984;}
	.st143{fill:#0A0F11;}
	.st144{fill:#E07868;}
	.st145{fill:#D35440;}
	.st146{fill:#FFC2B8;}
	.st147{fill:#A53A2F;}
	.st148{fill:#C64E36;}
	.st149{fill:#070000;}
	.st150{fill:#230200;}
	.st151{fill:#540000;}
	.st152{fill:#AF8F08;}
	.st153{fill:#16D8C0;}
	.st154{fill:#75EFDD;}
	.st155{fill:#00AF96;}
	.st156{fill:#00846E;}
	.st157{fill:#FFE161;}
	.st158{fill:#05C4A8;}
	.st159{fill:#F3E9FF;}
	.st160{fill:#FFC5DB;}
	.st161{fill:#E5D2FF;}
	.st162{fill:#CDB3FF;}
	.st163{opacity:0.2;fill:#3E0A75;}
	.st164{fill:#A8003D;}
	.st165{fill:#AA6D35;}
	.st166{fill:#FFD6B8;}
	.st167{fill:#FFE697;}
	.st168{fill:#FFDD88;}
	.st169{fill:#FF5986;}
	.st170{opacity:0.4;fill:#C40059;}
	.st171{fill:#CC004E;}
	.st172{fill:#2D2D2D;}
	.st173{opacity:0.6;}
	.st174{fill:#3D3D3D;}
	.st175{fill:#4F4F4F;}
	.st176{fill:#636363;}
	.st177{fill:#E9F5FF;}
	.st178{fill:#C1E0F4;}
	.st179{fill:#E50000;}
	.st180{fill:#FF7373;}
	.st181{fill:#F25F5F;}
	.st182{fill:#FFB200;}
	.st183{opacity:0.5;fill:#FF7373;}
	.st184{fill:#FFCF7B;}
	.st185{fill:#00CEC3;}
	.st186{fill:#00EAD9;}
	.st187{fill:#00A599;}
	.st188{fill:#007F73;}
	.st189{fill:#DD5050;}
	.st190{fill:#FFA6A6;}
	.st191{fill:#45793B;}
	.st192{fill:#35612A;}
	.st193{fill:#235317;}
	.st194{fill:#5E8F44;}
	.st195{fill:#65954D;}
	.st196{fill:#930000;}
	.st197{fill:#F00000;}
	.st198{fill:#EAB80D;}
	.st199{fill:#FFD226;}
</style>
<g id="Credits_10_Birthday">
</g>
<g id="Credits_5000">
</g>
<g id="Credits_3000">
</g>
<g id="Credits_2000">
</g>
<g id="Credits_1000">
</g>
<g id="Credits_750">
</g>
<g id="Credits_500">
</g>
<g id="Credits_300">
</g>
<g id="Credits_200">
</g>
<g id="Credits_100">
</g>
<g id="Credits_75">
</g>
<g id="Credits_50">
</g>
<g id="Credits_25">
</g>
<g id="Credits_10">
</g>
<g id="Credits_5">
	<rect class="st0" width="512" height="512"/>
	<g id="_x35_Credits">
		<ellipse class="st177" cx="236.461" cy="430.584" rx="72.258" ry="41.416"/>
		<rect x="228.203" y="287.615" class="st177" width="16.516" height="125.936"/>
		<path class="st178" d="M229.816,402.76c0,0-3.322,5.814,13.289,3.322l-45.871,49.792c0,0-17.571-6.037-22.71-17.548
			c-6.756-15.136,3.253-37.351,53.678-44.387L229.816,402.76z"/>
		<rect x="228.203" y="287.615" class="st178" width="8.258" height="125.936"/>
		<ellipse class="st177" cx="236.752" cy="164.26" rx="126.968" ry="72.775"/>
		<path class="st177" d="M130.016,204.078l73.014,73.014c18.318,18.318,48.016,18.318,66.334,0l74.122-74.122L130.016,204.078z"/>
		<path class="st179" d="M152.584,213.132l57.576,57.576c14.445,14.445,37.864,14.445,52.308,0l58.45-58.45L152.584,213.132z"/>
		<ellipse class="st180" cx="236.752" cy="183.873" rx="98.153" ry="56.258"/>
		<path class="st181" d="M211.152,129.551c-41.793,6.455-72.553,28.327-72.553,54.321c0,27.674,34.862,50.681,80.787,55.381
			C179.324,177.007,199.251,142.529,211.152,129.551z"/>
		<g>
			<circle class="st182" cx="120.847" cy="123.515" r="62.968"/>
			<circle class="st1" cx="120.847" cy="130.711" r="62.968"/>
			<circle class="st182" cx="120.847" cy="130.711" r="54.872"/>
			<g>
				<path class="st1" d="M120.847,130.711l-0.9-50.374c0,0,0-4.498,4.498-4.498c0,0-9.895-2.699-14.393,0.9
					c0,0,4.498-0.9,5.397,4.498C116.204,85.76,120.847,130.711,120.847,130.711z"/>
				<path class="st1" d="M120.847,130.711l35.848-35.402c0,0,3.256-3.103,6.359,0.153c0,0-4.872-9.025-10.58-9.799
					c0,0,3.754,2.636,0.467,7.01C150.186,96.34,120.847,130.711,120.847,130.711z"/>
				<path class="st1" d="M120.847,130.711l50.372-1.01c0,0,4.498-0.01,4.508,4.488c0,0,2.677-9.901-0.931-14.391
					c0,0,0.909,4.496-4.486,5.407C165.787,125.969,120.847,130.711,120.847,130.711z"/>
				<path class="st1" d="M120.847,130.711l37.238,33.937c0,0,3.27,3.088,0.181,6.358c0,0,8.756-5.34,9.229-11.081
					c0,0-2.435,3.887-6.976,0.835C156.713,158.202,120.847,130.711,120.847,130.711z"/>
				<path class="st1" d="M120.847,130.711l3.657,50.25c0,0,0.246,4.491-4.245,4.737c0,0,10.028,2.153,14.322-1.686
					c0,0-4.442,1.145-5.635-4.195C127.945,175.34,120.847,130.711,120.847,130.711z"/>
				<path class="st1" d="M120.847,130.711l-31.932,38.971c0,0-2.912,3.428-6.34,0.515c0,0,5.793,8.464,11.551,8.634
					c0,0-4.01-2.227-1.201-6.922C95.28,167.972,120.847,130.711,120.847,130.711z"/>
				<path class="st1" d="M120.847,130.711l-49.988,6.294c0,0-4.472,0.482-4.954-3.99c0,0-1.623,10.127,2.437,14.213
					c0,0-1.376-4.375,3.893-5.848C76.653,140.145,120.847,130.711,120.847,130.711z"/>
				<path class="st1" d="M120.847,130.711l-40.596-29.839c0,0-3.576-2.728-0.848-6.304c0,0-8.147,6.23-8.015,11.988
					c0,0,2.013-4.122,6.85-1.563C82.293,107.138,120.847,130.711,120.847,130.711z"/>
			</g>
			<path class="st73" d="M93.216,66.92v7.198c0,0,2.624,95.027,69.838,104.714c0,0-38.989,32.722-80.856,1.592
				S65.585,91.485,65.585,91.485S76.94,72.29,93.216,66.92z"/>
		</g>
		<path class="st177" d="M141.571,197.655l-2.972-3.976l1.296-0.667c-0.848-2.975-1.296-6.027-1.296-9.14
			c0-4.951,1.12-9.753,3.216-14.327l-21.683-34.1c-6.655,8.837-10.349,18.577-10.349,28.814c0,23.638,19.667,44.64,50.129,57.933
			l-6.258-8.372C148.239,208.895,144.119,203.454,141.571,197.655z"/>
		<path class="st183" d="M141.643,169.937c-1.982,4.457-3.044,9.125-3.044,13.936c0,2.383,0.261,4.73,0.763,7.035
			c12.261-3.767,22.917-11.182,30.723-20.971H141.643z"/>
		<path class="st177" d="M363.424,159.331c-0.22,40.085-56.977,72.542-126.963,72.542c-67.232,0-122.25-29.953-126.673-67.846
			c-0.001,0.078-0.005,0.155-0.005,0.233c0,40.192,56.846,72.775,126.968,72.775S363.72,204.452,363.72,164.26
			C363.72,162.603,363.614,160.96,363.424,159.331z"/>
		<path class="st73" d="M130.016,204.078c0,0,21.663,25.234,88.312,32.192l17.658,54.56c0,0-19.139,0.915-32.558-13.537
			L130.016,204.078z"/>
		<g>
			
				<rect x="233.445" y="163.159" transform="matrix(0.72 -0.694 0.694 0.72 -25.2797 268.8304)" class="st184" width="174.062" height="5.161"/>
			<g>
				<g>
					
						<ellipse transform="matrix(0.6717 -0.7408 0.7408 0.6717 28.2369 311.0391)" class="st185" cx="365.079" cy="123.659" rx="61.853" ry="99.279"/>
					<g>
						
							<ellipse transform="matrix(0.6717 -0.7408 0.7408 0.6717 38.5077 315.6363)" class="st186" cx="375.401" cy="114.368" rx="48.828" ry="78.373"/>
					</g>
				</g>
				<g>
					<g>
						
							<rect x="303.214" y="137.923" transform="matrix(0.6478 -0.7618 0.7618 0.6478 17.5821 317.8138)" class="st187" width="98.542" height="3.94"/>
					</g>
					<g>
						
							<rect x="282.231" y="110.386" transform="matrix(0.9788 -0.2047 0.2047 0.9788 -15.932 70.7344)" class="st187" width="103.231" height="3.94"/>
					</g>
					<g>
						
							<rect x="329.176" y="151.588" transform="matrix(0.0641 -0.9979 0.9979 0.0641 203.359 523.9666)" class="st187" width="103.735" height="3.939"/>
					</g>
					<g>
						
							<rect x="402.528" y="98.057" transform="matrix(0.9332 -0.3592 0.3592 0.9332 -28.3513 155.5982)" class="st187" width="3.939" height="112.055"/>
					</g>
					<g>
						
							<rect x="416.554" y="88.396" transform="matrix(0.7332 -0.6801 0.6801 0.7332 17.4133 321.612)" class="st187" width="3.939" height="100.442"/>
					</g>
					<g>
						
							<rect x="330.808" y="30.475" transform="matrix(0.313 -0.9498 0.9498 0.313 148.0895 374.3156)" class="st187" width="3.939" height="108.643"/>
					</g>
					<g>
						
							<rect x="349.13" y="26.716" transform="matrix(0.6717 -0.7408 0.7408 0.6717 62.1921 283.6048)" class="st187" width="3.939" height="89.824"/>
					</g>
					<g>
						
							<rect x="373.595" y="45.663" transform="matrix(0.9603 -0.2789 0.2789 0.9603 -6.2207 107.7311)" class="st187" width="3.94" height="60.136"/>
					</g>
					<g>
						<polygon class="st187" points="383.255,105.954 380.192,103.477 410.958,75.827 414.021,78.305 						"/>
					</g>
					<g>
						
							<rect x="415.384" y="79.275" transform="matrix(0.364 -0.9314 0.9314 0.364 158.612 461.6613)" class="st187" width="3.94" height="70.826"/>
					</g>
				</g>
				<g>
					
						<ellipse transform="matrix(0.6717 -0.7408 0.7408 0.6717 50.2013 318.4455)" class="st188" cx="384.418" cy="102.578" rx="5.946" ry="9.544"/>
				</g>
				<g>
					
						<ellipse transform="matrix(0.6717 -0.7408 0.7408 0.6717 51.6865 319.0186)" class="st1" cx="385.807" cy="101.189" rx="5.946" ry="9.544"/>
				</g>
			</g>
			
				<rect x="248.445" y="204.084" transform="matrix(0.72 -0.694 0.694 0.72 -65.571 250.8272)" class="st189" width="59.154" height="5.161"/>
		</g>
		<ellipse class="st190" cx="264.232" cy="159.052" rx="38.814" ry="22.247"/>
	</g>
</g>
<g id="Credits_1">
</g>
</svg>
