<?xml version="1.0" encoding="utf-8"?>
<!-- Generator: Adobe Illustrator 24.3.0, SVG Export Plug-In . SVG Version: 6.00 Build 0)  -->
<svg version="1.1" id="Layer_1" xmlns="http://www.w3.org/2000/svg" xmlns:xlink="http://www.w3.org/1999/xlink" x="0px" y="0px"
	 viewBox="0 0 512 512" style="enable-background:new 0 0 512 512;" xml:space="preserve">
<style type="text/css">
	.st0{fill:#FFFFFF;}
	.st1{fill:url(#SVGID_1_);}
	.st2{opacity:0.31;fill:#FBB017;enable-background:new    ;}
	.st3{opacity:0.71;fill:url(#SVGID_2_);enable-background:new    ;}
	.st4{opacity:0.51;fill:url(#SVGID_3_);enable-background:new    ;}
	.st5{opacity:0.51;fill:url(#SVGID_4_);enable-background:new    ;}
	.st6{opacity:0.51;fill:url(#SVGID_5_);enable-background:new    ;}
	.st7{fill:url(#SVGID_6_);}
	.st8{fill:url(#SVGID_7_);}
	.st9{fill:url(#SVGID_8_);}
	.st10{fill:url(#SVGID_9_);}
	.st11{fill:url(#SVGID_10_);}
	.st12{fill:url(#SVGID_11_);}
	.st13{fill:url(#SVGID_12_);}
	.st14{fill:url(#SVGID_13_);}
	.st15{opacity:0.6;fill:#F9980F;enable-background:new    ;}
	.st16{opacity:0.4;fill:#F9980F;enable-background:new    ;}
	.st17{fill:url(#SVGID_14_);}
	.st18{fill:url(#SVGID_15_);}
	.st19{fill:url(#SVGID_16_);}
	.st20{opacity:0.2;fill:#FAA012;enable-background:new    ;}
	.st21{fill:url(#SVGID_17_);}
</style>
<g>
	<g id="_09_02">
		<path class="st0" d="M280.6,69c14.2,0,28.4,1.8,42.1,5.3c2.7,0.7,5.3,1.5,8,2.3c36.6,11.4,68.2,35,89.7,66.8
			c1.5,2.3,3,4.5,4.4,6.9s2.8,4.7,4.1,7.1c3.3,6,6.2,12.2,8.7,18.6c0.5,1.3,1,2.6,1.5,3.9c2.4,6.5,4.4,13.2,5.9,19.9
			c0.6,2.7,1.2,5.5,1.7,8.2c1.8,9.9,2.6,19.8,2.6,29.9c0,3.7-0.1,7.3-0.4,10.9c-0.4,5.5-1,10.9-1.9,16.3c-0.1,0.5-0.1,1-0.2,1.5
			c0.4,0.6,0.8,1.2,1.1,1.8c0.7,1.2,1.5,2.4,2.1,3.6c1.7,3.1,3.1,6.3,4.2,9.6c0.2,0.7,0.4,1.3,0.6,2c1,3.4,1.8,6.9,2.2,10.4
			c0.1,0.7,0.2,1.4,0.2,2.1c0.1,1.4,0.2,2.9,0.3,4.3c0,0.7,0,1.4,0,2.2s0,1.4,0,2.2c-0.1,2.9-0.4,5.8-0.8,8.7
			c-0.1,0.7-0.2,1.5-0.4,2.2c-0.9,4.5-2.2,8.8-3.9,13c-0.6,1.4-1.2,2.8-1.9,4.2c-0.4,0.8-0.8,1.5-1.2,2.3c-0.1,0.2-0.3,0.5-0.4,0.7
			c-0.3,0.5-0.5,1-0.8,1.5l-0.5,0.9c-0.3,0.4-0.5,0.9-0.8,1.3l-0.6,0.9l-0.8,1.2l-0.6,0.9c-0.3,0.4-0.6,0.8-0.9,1.2l-0.6,0.9
			l-0.9,1.1l-0.7,0.8l-0.3,0.4c-0.2,0.2-0.4,0.5-0.6,0.7l-0.7,0.8c-0.3,0.4-0.7,0.7-1,1.1s-0.4,0.5-0.7,0.7s-0.7,0.8-1.1,1.1
			l-0.6,0.6c-0.5,0.4-0.9,0.9-1.4,1.3l-0.4,0.4c-0.6,0.5-1.2,1.1-1.8,1.6l-0.4,0.4c-0.5,0.4-0.9,0.8-1.4,1.1
			c-0.2,0.2-0.5,0.4-0.7,0.5l-1.2,0.9l-0.8,0.5l-1.2,0.8l-0.8,0.5l-1.2,0.8l-0.9,0.5c-0.4,0.2-0.8,0.5-1.2,0.7s-0.6,0.3-0.9,0.5
			l-1.2,0.6l-0.9,0.5c-0.4,0.2-0.8,0.4-1.3,0.6l-0.9,0.4c-0.4,0.2-0.9,0.4-1.3,0.6l-0.8,0.4l-1.5,0.6l-0.7,0.3
			c-0.7,0.3-1.5,0.5-2.2,0.8h-0.1c-0.7,0.2-1.4,0.5-2.1,0.7l-0.7,0.2l-1.5,0.4l-0.9,0.2l-1.4,0.3l-0.9,0.2l-1.3,0.2l-1,0.2l-1.3,0.2
			l-1,0.1l-1.3,0.1l-1,0.1c-0.5,0-0.9,0.1-1.3,0.1l-1,0.1h-1.4h-1.2h-0.5c-0.8,0-1.6,0-2.4-0.1h-0.5h-0.4c-1-0.1-2-0.1-3-0.3l0,0
			c-44.9,35.7-104.8,46.1-159.2,27.8c-2.9,4.2-5.5,7.6-7.1,9.5c-5.6,6.6-10.7,12.5-15.7,17.6l-1.3,1.3l-0.4,0.4
			c-13.3,13.3-25.6,20.5-43.6,22l-1.2,0.1l-1.5,0.1l-1.9,0.1h-0.8c-0.8,0-1.6,0-2.5,0c-1.4,0-2.8,0-4.3-0.1l-1.2-0.1l-1.9-0.1
			l-1.7-0.1l-2.2-0.2l-2.6-0.3l-1.4-0.2l-2.6-0.3l-1.1-0.1c-1.3-0.2-2.5-0.4-3.8-0.6c-23.9-3.9-48.1-9-63.9-20.3
			c-2.3-1.6-4.4-3.5-6.4-5.5c-0.2-0.2-0.3-0.3-0.5-0.5c-0.5-0.5-0.9-1-1.3-1.4c-9.2-10.4-13.3-24.6-10.6-45
			c0.7-5.7,2.9-17.7,5.5-30.6c2.1-10.6,4.4-21.8,6.4-31c-0.1-2.3-0.2-5.1-0.3-8.1c0-0.1,0-0.2,0-0.3c0-0.5,0-1.1,0-1.6
			c0-0.4,0-0.7,0-1.1v-0.9c0-0.6,0-1.3,0-1.9V298c0-1.2,0-2.5,0-3.8c0-0.3,0-0.6,0-0.9v-1.4c0.3-13.1,1.7-23.2,4.1-30l0,0
			c0.2-0.5,0.4-1.1,0.6-1.6c0.1-0.2,0.1-0.3,0.2-0.5s0.2-0.5,0.3-0.7s0.3-0.7,0.5-1c0.1-0.2,0.2-0.3,0.2-0.5
			c0.2-0.3,0.3-0.6,0.5-0.9l0.1-0.2c0.1-0.2,0.2-0.4,0.4-0.5l0,0c3.1-3.8,14.6-7,22.5-7c2.1-0.1,4.1,0.2,6.1,1l0,0
			c0.2,0.1,0.4,0.2,0.6,0.3l0,0c0.2,0.2,0.5,0.3,0.7,0.5l0.2,0.2l0.1,0.2c0.9,1.3,1.5,2.7,2,4.2v0.1c0.1,0.2,0.1,0.4,0.2,0.6
			s0.1,0.3,0.1,0.4l0.1,0.4c0.1,0.3,0.1,0.5,0.2,0.8l0,0c0.2,1.1,0.4,2.2,0.6,3.4c4.2-6,7.7-10.8,9.6-13.4l0.2-0.4
			c0.1-0.1,0.1-0.2,0.2-0.3c0.3-0.5,0.6-1,0.9-1.4l0,0c0.1-0.2,0.3-0.3,0.4-0.5l0.2-0.2c0.1-0.1,0.3-0.3,0.4-0.4l0.2-0.2
			c0.2-0.1,0.4-0.3,0.6-0.4l0.4-0.3l0.2-0.2c0.6-0.4,1.2-0.7,1.9-1c0-1.6-0.1-3.3-0.1-4.9c0-10,0.9-20,2.6-29.9
			c0.5-2.8,1-5.5,1.7-8.2c1.6-6.8,3.5-13.4,5.9-19.9c0.5-1.3,1-2.6,1.5-3.9c2.5-6.4,5.4-12.5,8.7-18.6c1.3-2.4,2.7-4.7,4.1-7.1
			s2.8-4.6,4.4-6.9c21.5-31.8,53.1-55.3,89.7-66.8c2.7-0.8,5.3-1.6,8-2.3C252,70.7,266.3,69,280.6,69 M280.6,45
			c-16.2,0-32.4,2-48.1,6.1c-3,0.8-6.1,1.7-9.1,2.6c-41.8,13.1-77.9,40-102.5,76.3c-1.7,2.6-3.4,5.2-5,7.8s-3.2,5.4-4.6,8.1
			c-3.7,6.9-7,13.9-9.9,21.2c-0.6,1.5-1.1,2.9-1.7,4.4c-2.7,7.4-5,15-6.8,22.8c-0.7,3.1-1.4,6.3-1.9,9.4c-1.3,7.1-2.1,14.3-2.6,21.5
			c-0.8,0-1.5-0.1-2.3-0.1c-9.7,0-30.8,3.3-41,15.7l-0.2,0.2l0,0c-0.8,1-1.6,2.1-2.3,3.3l0,0c-0.2,0.3-0.3,0.5-0.5,0.8
			c-0.3,0.5-0.5,1-0.8,1.5c-0.2,0.3-0.3,0.6-0.5,0.9c-0.3,0.6-0.6,1.3-0.9,2c-0.2,0.4-0.3,0.8-0.5,1.2s-0.2,0.6-0.3,0.8
			c-0.3,0.9-0.7,1.7-1,2.6v0.1c-3.2,9.3-5,21.5-5.4,37.3c0,0.5,0,1,0,1.5v0.3c0,0.2,0,0.5,0,0.8c0,1.4,0,2.8,0,4.1v0.2
			c0,0.7,0,1.4,0,2.1v2.2c0,0.6,0,1.2,0,1.8v0.4c0,1.8,0.1,3.6,0.2,5.5c-1.8,8.4-3.9,18.4-5.9,28.5c-1.4,6.9-4.6,23.8-5.7,32.1
			c-3.4,26.3,2.1,47.8,16.5,64c0.8,0.9,1.5,1.6,2,2.1l0.1,0.1l0.1,0.1l0.5,0.6c2.9,3,6.1,5.7,9.5,8.1c19.8,14.2,47.3,20.2,74.1,24.5
			c1.3,0.2,2.7,0.4,4.3,0.6l0.9,0.1h0.3c1,0.1,2,0.3,2.9,0.4h0.2l1.5,0.2l3,0.3l2.6,0.2l2,0.1c0.7,0,1.5,0.1,2.2,0.1l1.5,0.1
			c1.8,0.1,3.6,0.1,5.2,0.1c1,0,2.1,0,3.1,0h0.2h0.8l2.4-0.1l1.9-0.1l0,0h0.3l1.3-0.1l0,0c22.6-2,40.1-10.6,58.5-29l0.4-0.4l0,0
			c0.5-0.5,1-1,1.4-1.5c4.3-4.4,8.8-9.4,14.7-16.3c14.8,3.5,29.9,5.3,45.1,5.3c28.8,0.1,57.2-6.4,83.1-18.8
			c10.3-4.9,20.2-10.8,29.4-17.5h0.7h0.2c0.6,0,1.3,0,1.9-0.1c0.4,0,0.8,0,1.2-0.1h0.1l1.9-0.1l1.4-0.1l1.8-0.2l1.4-0.2l1.8-0.3
			l1.4-0.2l1.9-0.4h0.2l1.1-0.2l1.9-0.4h0.2l1-0.2l2.1-0.6h0.1l0.9-0.3c0.9-0.3,1.8-0.5,2.7-0.8l0.4-0.1c1-0.3,2-0.7,3-1.1
			c0.3-0.1,0.6-0.2,0.9-0.3h0.1c0.7-0.3,1.4-0.5,2-0.8l1-0.4l0.2-0.1c0.6-0.3,1.2-0.5,1.8-0.8l1-0.5l0.2-0.1
			c0.6-0.3,1.2-0.5,1.7-0.8l1.2-0.6c0.6-0.3,1.1-0.6,1.7-0.9l1.2-0.7c0.5-0.3,1.1-0.6,1.6-1l1.2-0.7c0.5-0.3,1.1-0.7,1.6-1l0.1-0.1
			l1-0.7l1.6-1.1l0.2-0.1l0.9-0.6l1.6-1.2l0.1-0.1l0.8-0.6c0.7-0.5,1.3-1.1,1.9-1.5l0.7-0.5c0.8-0.7,1.7-1.4,2.5-2.1
			c0.2-0.2,0.4-0.4,0.6-0.5c0.5-0.5,1.1-1,1.8-1.7l0.7-0.7l0.1-0.1c0.5-0.5,1-1,1.5-1.5c0.3-0.3,0.5-0.5,0.8-0.8l0.1-0.2
			c0.5-0.5,0.9-1,1.3-1.5l0.9-1l0.1-0.3l0.1-0.1l0.7-0.8c0.2-0.2,0.4-0.4,0.5-0.7s0.6-0.7,0.8-1s0.8-1,1.2-1.5s0.6-0.8,0.9-1.2
			s0.8-1,1.1-1.6l0.8-1.2c0.4-0.5,0.7-1.1,1.1-1.6l0.1-0.2l0.7-1l1.1-1.8l0.1-0.2l0.6-1c0.4-0.6,0.8-1.3,1.1-2l0.1-0.1l0.5-0.9
			c0.6-1,1.1-2.1,1.6-3.1c0.9-1.9,1.8-3.8,2.6-5.7c2.3-5.7,4.1-11.5,5.3-17.5c0.2-1,0.4-2,0.5-3c0.6-3.9,1-7.9,1.1-11.8c0-1,0-2,0-3
			s0-2-0.1-2.9c-0.1-2-0.2-3.9-0.4-5.9c-0.1-1-0.2-1.9-0.3-2.9c-0.6-4.8-1.7-9.6-3.1-14.2c-0.3-0.9-0.6-1.9-0.9-2.8
			c-1.4-4.2-3.2-8.3-5.2-12.2c0.5-3.8,0.8-7.5,1.1-11.3c0.3-4.1,0.4-8.3,0.4-12.4c0-11.4-1-22.8-3-34.1c-0.6-3.1-1.2-6.3-1.9-9.4
			c-1.8-7.7-4-15.3-6.8-22.8c-0.5-1.5-1.1-2.9-1.7-4.4c-2.9-7.3-6.2-14.3-9.9-21.2c-1.5-2.7-3-5.4-4.6-8.1s-3.3-5.3-5-7.8
			c-24.5-36.3-60.6-63.1-102.4-76.2c-3-0.9-6.1-1.8-9.1-2.6C313,47,296.8,45,280.6,45z"/>
		
			<radialGradient id="SVGID_1_" cx="264.94" cy="320.47" r="214.41" gradientTransform="matrix(1 0 0 -1 0 512)" gradientUnits="userSpaceOnUse">
			<stop  offset="0" style="stop-color:#FCF58D"/>
			<stop  offset="0.1" style="stop-color:#FCF588"/>
			<stop  offset="0.22" style="stop-color:#FCF47A"/>
			<stop  offset="0.35" style="stop-color:#FCF262"/>
			<stop  offset="0.49" style="stop-color:#FCF041"/>
			<stop  offset="0.59" style="stop-color:#FCEE21"/>
			<stop  offset="1" style="stop-color:#FBA217"/>
		</radialGradient>
		<path class="st1" d="M446.8,266.3C462.6,174.5,401,87.2,309.2,71.4s-179.1,45.7-194.9,137.5S160.1,388,251.9,403.8
			c9.5,1.6,19.1,2.5,28.7,2.5c38.1,0.1,75.2-12.9,105-36.6c25.8,3,52.4-11.2,65.1-37.1C461.7,310.1,459.4,284.8,446.8,266.3z"/>
		<path class="st2" d="M280.6,87c83.2,0,150.7,67.5,150.7,150.7c0,8.6-0.8,17.1-2.2,25.6l-1.2,7.2l4.1,6
			c9.4,13.8,10.4,32.3,2.5,48.2c-8.2,16.7-24.8,27.5-42.2,27.5c-1.6,0-3.1-0.1-4.7-0.3l-7.4-0.9l-5.8,4.6
			c-65.1,51.8-159.9,41-211.7-24.2s-41-159.9,24.2-211.7C213.4,98.5,246.5,87,280.6,87 M280.6,69c-93.1,0-168.6,75.5-168.6,168.7
			c0,93.1,75.5,168.6,168.7,168.6c38.1,0,75.1-12.9,104.9-36.6c2.2,0.3,4.5,0.4,6.8,0.4c23.5,0,46.7-13.9,58.3-37.5
			c11-22.4,8.8-47.8-3.8-66.2C462.6,174.4,400.9,87.2,309,71.4C299.6,69.8,290.1,69,280.6,69z"/>
		<path class="st2" d="M280.6,81c86.5,0,156.7,70.1,156.7,156.7c0,8.9-0.8,17.8-2.3,26.6l-0.8,4.8l2.7,4c10.6,15.6,11.8,36.4,3,54.2
			c-9.2,18.8-27.9,30.8-47.6,30.8c-1.8,0-3.6-0.1-5.4-0.3l-5-0.6l-3.9,3.1c-67.7,53.8-166.3,42.6-220.1-25.1S115.3,168.9,183.1,115
			C210.8,93,245.1,81,280.6,81 M280.6,69c-93.1,0-168.6,75.5-168.6,168.7c0,93.1,75.5,168.6,168.7,168.6
			c38.1,0,75.1-12.9,104.9-36.6c2.2,0.3,4.5,0.4,6.8,0.4c23.5,0,46.7-13.9,58.3-37.5c11-22.4,8.8-47.8-3.8-66.2
			C462.6,174.4,400.9,87.2,309,71.4C299.6,69.8,290.1,69,280.6,69z"/>
		<path class="st2" d="M280.6,75c89.8,0,162.7,72.8,162.7,162.7c0,9.3-0.8,18.5-2.4,27.6l-0.4,2.4l1.4,2
			c11.8,17.4,13.1,40.4,3.4,60.2c-10.2,20.8-31,34.2-52.9,34.2c-2,0-4.1-0.1-6.1-0.4l-2.5-0.3l-1.9,1.6
			c-70.3,55.9-172.7,44.2-228.5-26.1S109,166.2,179.4,110.3C208.1,87.5,243.8,75,280.6,75 M280.6,69c-93.1,0-168.6,75.5-168.6,168.7
			c0,93.1,75.5,168.6,168.7,168.6c38.1,0,75.1-12.9,104.9-36.6c2.2,0.3,4.5,0.4,6.8,0.4c23.5,0,46.7-13.9,58.3-37.5
			c11-22.4,8.8-47.8-3.8-66.2C462.6,174.4,400.9,87.2,309,71.4C299.6,69.8,290.1,69,280.6,69z"/>
		
			<linearGradient id="SVGID_2_" gradientUnits="userSpaceOnUse" x1="358.7587" y1="161.6578" x2="420.3131" y2="161.6578" gradientTransform="matrix(-0.9983 -5.895801e-02 -5.895801e-02 0.9983 762.1465 210.9507)">
			<stop  offset="0" style="stop-color:#D58913;stop-opacity:0"/>
			<stop  offset="0.41" style="stop-color:#D58913"/>
			<stop  offset="0.47" style="stop-color:#D68C13;stop-opacity:0.97"/>
			<stop  offset="0.56" style="stop-color:#DA9415;stop-opacity:0.87"/>
			<stop  offset="0.66" style="stop-color:#E0A117;stop-opacity:0.72"/>
			<stop  offset="0.78" style="stop-color:#E8B319;stop-opacity:0.5"/>
			<stop  offset="0.9" style="stop-color:#F3CA1D;stop-opacity:0.23"/>
			<stop  offset="1" style="stop-color:#FCDD20;stop-opacity:0"/>
		</linearGradient>
		<path class="st3" d="M383.2,351.4c-13-0.6-25-6.8-33.2-16.9c-3.1-3.8-8.3-5.9-12.6-3.9l-0.2,0.1c-4.2,2-5.1,9-0.6,14.6
			c11.2,14,27.9,22.5,45.8,23.3c7.1,0.3,12.3-4.6,11.4-9.2v-0.2C392.8,354.6,388,351.7,383.2,351.4z"/>
		
			<linearGradient id="SVGID_3_" gradientUnits="userSpaceOnUse" x1="417.0619" y1="141.11" x2="417.0619" y2="247.17" gradientTransform="matrix(1 0 0 -1 0 512)">
			<stop  offset="0" style="stop-color:#D68913;stop-opacity:0"/>
			<stop  offset="3.000000e-02" style="stop-color:#D68913;stop-opacity:5.000000e-02"/>
			<stop  offset="9.000000e-02" style="stop-color:#D68913;stop-opacity:0.19"/>
			<stop  offset="0.17" style="stop-color:#D68913;stop-opacity:0.42"/>
			<stop  offset="0.26" style="stop-color:#D68913;stop-opacity:0.73"/>
			<stop  offset="0.34" style="stop-color:#D68913"/>
			<stop  offset="1" style="stop-color:#D68913;stop-opacity:0"/>
		</linearGradient>
		<path class="st4" d="M447,264.8c-4,0.5-8,1.1-11.9,1.8c-2.3,0.4-4.6,1-6.9,1.6l-0.4,2.2l4.1,6c9.4,13.8,10.4,32.3,2.5,48.2
			c-8.2,16.7-24.8,27.5-42.2,27.5c-1.6,0-3.1-0.1-4.7-0.3l-7.4-0.9l-3.8,3c0.4,0.7,0.8,1.4,1.1,2.1c2.5,4.8,4.7,9.8,6.5,14.9
			c0.5-0.4,1-0.8,1.6-1.2c2.2,0.3,4.5,0.4,6.8,0.4c23.5,0,46.7-13.9,58.3-37.5c11-22.4,8.8-47.8-3.8-66.2
			C446.9,265.8,446.9,265.3,447,264.8z"/>
		
			<linearGradient id="SVGID_4_" gradientUnits="userSpaceOnUse" x1="418.4418" y1="141.11" x2="418.4418" y2="247.17" gradientTransform="matrix(1 0 0 -1 0 512)">
			<stop  offset="0" style="stop-color:#D68913;stop-opacity:0"/>
			<stop  offset="3.000000e-02" style="stop-color:#D68913;stop-opacity:5.000000e-02"/>
			<stop  offset="9.000000e-02" style="stop-color:#D68913;stop-opacity:0.19"/>
			<stop  offset="0.17" style="stop-color:#D68913;stop-opacity:0.42"/>
			<stop  offset="0.26" style="stop-color:#D68913;stop-opacity:0.73"/>
			<stop  offset="0.34" style="stop-color:#D68913"/>
			<stop  offset="1" style="stop-color:#D68913;stop-opacity:0"/>
		</linearGradient>
		<path class="st5" d="M447,264.8c-4,0.5-8,1.1-11.9,1.8l-0.6,0.1l-0.4,2.3l2.7,4c10.6,15.6,11.8,36.4,3,54.2
			c-9.2,18.8-27.9,30.8-47.6,30.8c-1.8,0-3.6-0.1-5.4-0.3l-5-0.6l-2.8,2.2c1.8,3.8,3.4,7.6,4.8,11.5c0.5-0.4,1-0.8,1.6-1.2
			c2.2,0.3,4.5,0.4,6.8,0.4c23.5,0,46.7-13.9,58.3-37.5c11-22.4,8.8-47.8-3.8-66.2C446.9,265.8,446.9,265.3,447,264.8z"/>
		
			<linearGradient id="SVGID_5_" gradientUnits="userSpaceOnUse" x1="419.7019" y1="141.09" x2="419.7019" y2="247.17" gradientTransform="matrix(1 0 0 -1 0 512)">
			<stop  offset="0" style="stop-color:#D68913;stop-opacity:0"/>
			<stop  offset="3.000000e-02" style="stop-color:#D68913;stop-opacity:5.000000e-02"/>
			<stop  offset="9.000000e-02" style="stop-color:#D68913;stop-opacity:0.19"/>
			<stop  offset="0.17" style="stop-color:#D68913;stop-opacity:0.42"/>
			<stop  offset="0.26" style="stop-color:#D68913;stop-opacity:0.73"/>
			<stop  offset="0.34" style="stop-color:#D68913"/>
			<stop  offset="1" style="stop-color:#D68913;stop-opacity:0"/>
		</linearGradient>
		<path class="st6" d="M447,264.8c-2.1,0.3-4.1,0.5-6.2,0.9l-0.3,2l1.4,2c11.8,17.4,13.1,40.4,3.4,60.2
			c-10.2,20.8-31,34.2-52.9,34.2c-2,0-4.1-0.1-6.1-0.4l-2.5-0.3l-1.9,1.5l-0.1,0.1c0.8,1.9,1.5,3.9,2.2,5.9c0.5-0.4,1-0.8,1.6-1.2
			c2.2,0.3,4.5,0.4,6.8,0.4c23.5,0,46.7-13.9,58.3-37.5c11-22.4,8.8-47.8-3.8-66.2C446.9,265.8,446.9,265.3,447,264.8z"/>
		
			<linearGradient id="SVGID_6_" gradientUnits="userSpaceOnUse" x1="280.8202" y1="431.35" x2="280.8202" y2="249.14" gradientTransform="matrix(1 0 0 -1 0 512)">
			<stop  offset="0" style="stop-color:#FFFFFF;stop-opacity:0.8"/>
			<stop  offset="1" style="stop-color:#FFFFFF;stop-opacity:0"/>
		</linearGradient>
		<path class="st7" d="M280.8,209.4c34.6-0.1,69.1,4.3,102.5,13.3c16.6,4.6,31.8-11,27.1-27.6c-16.9-58.7-68.5-101.5-129.6-101.5
			s-112.7,42.8-129.6,101.5c-4.8,16.6,10.4,32.2,27.1,27.6C211.7,213.8,246.2,209.3,280.8,209.4z"/>
		
			<radialGradient id="SVGID_7_" cx="287.1039" cy="202.9274" r="30.4327" gradientTransform="matrix(1 0 0 -1 0 512)" gradientUnits="userSpaceOnUse">
			<stop  offset="0" style="stop-color:#8F5325"/>
			<stop  offset="1" style="stop-color:#612E14"/>
		</radialGradient>
		<path class="st8" d="M266.6,286.1c0.9,7.4,9.1,11.2,14.1,16.7c1.4,1.5,2.6,3.5,2.5,5.5c-0.2,4-4.9,5.8-7.9,8.5
			c-4.6,4-5.7,11.1-3.5,16.7s7.4,9.8,13.2,11.7s12,2,18,1.1c1-0.1,1.9-0.4,2.8-0.9c1.9-1.6,0.8-5-1.5-6.1s-4.9-0.4-7.2,0.4
			s-4.8,1.8-7.2,1.3c-3.8-0.7-6.3-4.8-6-8.7s2.9-7.2,6-9.4s6.9-3.4,10.5-4.5c1.9-0.4,3.7-1.3,5.3-2.4c1.6-1.2,2.3-3.2,1.8-5.2
			c-0.9-2.5-4-3.2-6.6-3.7c-4.7-0.8-9.5-2.1-13.5-4.8s-7.3-6.8-7.9-11.6s2-10.1,6.5-11.7c6.3-2.3,13.2,2.7,19.9,1.8
			c-6.4-7.5-16.4-11-26.2-9.1C272.8,273.2,265.8,279,266.6,286.1z"/>
		
			<radialGradient id="SVGID_8_" cx="188.3029" cy="347.4435" r="24.2528" gradientTransform="matrix(1 0 0 -1 0 512)" gradientUnits="userSpaceOnUse">
			<stop  offset="0" style="stop-color:#8F5325"/>
			<stop  offset="1" style="stop-color:#612E14"/>
		</radialGradient>
		<path class="st9" d="M206.7,161.4c-12.4,1.3-23.6,7.8-30.8,17.9c-2.8,3.8-7.6,6-11.8,4.4l-0.1-0.1c-4.2-1.6-5.4-8.3-1.4-13.9
			c9.9-13.9,25.4-22.9,42.4-24.7c6.8-0.7,12,3.7,11.3,8.1v0.2C215.7,157.8,211.3,160.9,206.7,161.4z"/>
		
			<radialGradient id="SVGID_9_" cx="362.6514" cy="330.12" r="24.1009" gradientTransform="matrix(1 0 0 -1 0 512)" gradientUnits="userSpaceOnUse">
			<stop  offset="0" style="stop-color:#8F5325"/>
			<stop  offset="1" style="stop-color:#612E14"/>
		</radialGradient>
		<path class="st10" d="M344,181c12.4-0.2,24.3,5,32.6,14.2c3.2,3.4,8.3,5.1,12.2,3l0.1-0.1c3.9-2.1,4.4-8.9-0.2-14
			c-11.5-12.7-27.9-19.9-45-19.6c-6.8,0.1-11.5,5-10.3,9.4v0.2C334.6,178.5,339.3,181.1,344,181z"/>
		
			<radialGradient id="SVGID_10_" cx="333.2313" cy="289.09" r="25.7386" gradientTransform="matrix(1 0 0 -1 0 512)" gradientUnits="userSpaceOnUse">
			<stop  offset="0" style="stop-color:#8F5325"/>
			<stop  offset="1" style="stop-color:#612E14"/>
		</radialGradient>
		<path class="st11" d="M305.4,230.1c2.9,0.6,5.9,0.2,8.5-1.3c7.9-4.3,17.6-1.6,19.5-1.3s11.9,0.9,18.1,7.5c2,2.2,4.7,3.6,7.6,4
			c2.9,0.3,5.8-0.6,6.6-4.6c0.4-1.8,0.1-3.6-0.7-5.3c-5.8-11.5-15.6-19.8-27.8-21.8l-0.8-0.1c-12.2-2-24.2,2.6-33.4,11.7
			c-1.3,1.3-2.1,3-2.4,4.8C300.2,227.7,302.7,229.4,305.4,230.1z"/>
		
			<radialGradient id="SVGID_11_" cx="227.18" cy="289.09" r="29.1954" gradientTransform="matrix(1 0 0 -1 0 512)" gradientUnits="userSpaceOnUse">
			<stop  offset="0" style="stop-color:#8F5325"/>
			<stop  offset="1" style="stop-color:#612E14"/>
		</radialGradient>
		<ellipse class="st12" cx="227.2" cy="222.9" rx="28.6" ry="29.8"/>
		<path class="st0" d="M237.9,211.4c0,5.9-4.9,10.7-10.8,10.7c-5.9,0-10.7-4.9-10.7-10.8c0-5.9,4.8-10.7,10.8-10.7
			C233.1,200.6,237.9,205.4,237.9,211.4z"/>
		
			<radialGradient id="SVGID_12_" cx="144.4949" cy="188.3318" r="77.9581" gradientTransform="matrix(1 0 0 -1 0 512)" gradientUnits="userSpaceOnUse">
			<stop  offset="0" style="stop-color:#FBA217"/>
			<stop  offset="0.41" style="stop-color:#D68914"/>
			<stop  offset="1" style="stop-color:#D48811"/>
		</radialGradient>
		<path class="st13" d="M203.9,343.7c8.2-36.1,28-88.3,9.7-90.5c-12-1.4-33,35.7-32.8,34.2c3.7-29.3,3.6-22.8,3.6-22.8
			c1.3-10.2-16-25.4-31.1-13.6c0,0-12.9,4.3-15.1,35.5c-0.1,1.5-7.7,4.7-7.5,3.2c4.4-30.6,4.3-31.2,4.3-31.2
			c1.3-9.9-23.7-17.2-26.9-12.9c0,0-34.4,44.9-39.9,68.9c-4.5,19.9,37.8,88.3,77.6,88.3C175.9,402.9,202.7,349,203.9,343.7z"/>
		
			<linearGradient id="SVGID_13_" gradientUnits="userSpaceOnUse" x1="163.2355" y1="164.2705" x2="163.2355" y2="266.2076" gradientTransform="matrix(1 0 0 -1 0 512)">
			<stop  offset="0" style="stop-color:#FBA217"/>
			<stop  offset="0.85" style="stop-color:#FCEE21"/>
			<stop  offset="0.88" style="stop-color:#FCF041"/>
			<stop  offset="0.91" style="stop-color:#FCF262"/>
			<stop  offset="0.94" style="stop-color:#FCF47A"/>
			<stop  offset="0.97" style="stop-color:#FCF588"/>
			<stop  offset="1" style="stop-color:#FCF58D"/>
		</linearGradient>
		<path class="st14" d="M136.4,328.9c0,0,3.9-60.1,17.6-78.2c4.8-6.4,31.5-6.8,34.7,0.5c9.4,21.9-19.2,85-19.2,85
			c-2,8.1-10.9,13.1-20.1,11.1S134.4,337,136.4,328.9z"/>
		<path class="st15" d="M188.6,251.2c-1.7-4-10.1-5.4-16.8-5.4c-7.1,0-15.3,1.5-17.9,4.9c-5.7,7.6-10.4,23-13.9,45.9
			c-1.3,8.5-2.2,16.5-2.8,22.4s-0.8,9.8-0.9,9.9c-0.9,3.7-0.2,7.6,1.9,10.8c2.5,3.9,6.5,6.6,11.1,7.6c1.3,0.3,2.7,0.4,4.1,0.5
			c7.8,0,14.4-4.8,16-11.5l0,0C169.7,335.5,197.9,272.8,188.6,251.2z M166.5,334.8l-0.1,0.3l-0.1,0.3c-1.3,5.4-6.6,9.1-12.9,9.1
			c-1.1,0-2.3-0.1-3.4-0.4c-3.7-0.8-6.9-3-9-6.1c-1.6-2.5-2.1-5.5-1.4-8.3l0.1-0.3v-0.3c0-0.6,4-59.3,16.9-76.5
			c1.3-1.7,7.5-3.6,15.3-3.6c8.4,0,13.2,2.1,13.8,3.5C192.9,269.4,174.2,317.6,166.5,334.8z"/>
		<path class="st16" d="M185.6,252.5c-0.6-1.4-5.4-3.5-13.8-3.5c-7.8,0-14,1.9-15.3,3.6c-12.9,17.2-16.9,75.9-16.9,76.5v0.3
			l-0.1,0.3c-0.7,2.9-0.1,5.9,1.5,8.4c2.1,3.2,5.4,5.4,9.1,6.1c1.1,0.2,2.2,0.4,3.4,0.4c6.3,0,11.6-3.7,12.9-9.1l0.1-0.3l0.1-0.3
			C174.2,317.6,192.9,269.4,185.6,252.5z M178.6,292.6c-4.1,13.9-9.1,27.6-15.1,40.9l-0.2,0.6l-0.1,0.6c-0.9,3.9-4.9,6.6-9.7,6.6
			c-0.9,0-1.8-0.1-2.7-0.3c-2.9-0.6-5.4-2.3-7-4.7c-1.1-1.7-1.5-3.8-1-5.9l0.1-0.5v-0.6c1-16.1,6-60.9,16.2-74.6
			c0.8-0.6,5.3-2.4,12.8-2.4c6.7,0,10.1,1.4,11,1.9C185.4,260.8,183.9,274.4,178.6,292.6L178.6,292.6z"/>
		
			<linearGradient id="SVGID_14_" gradientUnits="userSpaceOnUse" x1="207.5642" y1="157.2845" x2="207.5642" y2="259.3555" gradientTransform="matrix(1 0 0 -1 0 512)">
			<stop  offset="0" style="stop-color:#FBA217"/>
			<stop  offset="0.85" style="stop-color:#FCEE21"/>
			<stop  offset="0.88" style="stop-color:#FCF041"/>
			<stop  offset="0.91" style="stop-color:#FCF262"/>
			<stop  offset="0.94" style="stop-color:#FCF47A"/>
			<stop  offset="0.97" style="stop-color:#FCF588"/>
			<stop  offset="1" style="stop-color:#FCF58D"/>
		</linearGradient>
		<path class="st17" d="M206,346.5c0,0,34.3-49.5,34.8-72.2c0.2-8-20.5-24.9-27.5-21.1c-21,11.3-37.7,78.5-37.7,78.5
			c-3.5,7.6,0.4,17.1,8.9,21.1S202.5,354.1,206,346.5z"/>
		<path class="st15" d="M234.6,263.7c-5.2-5.4-13.6-11-18.9-11c-0.8,0-1.7,0.2-2.4,0.6c-20.7,11.2-37.5,77.8-37.7,78.5l0,0
			c-3.5,7.6,0.5,17.1,8.9,21.1c2.5,1.2,5.2,1.9,8,1.9c5.7,0.1,11-3.1,13.5-8.2l0,0c0.1-0.1,8.6-12.5,17.2-27.6
			c11.4-20.2,17.3-35.2,17.6-44.6C240.9,271.6,238.6,267.8,234.6,263.7z M220.4,317.3c-8.5,14.9-17,27.3-17.1,27.4l-0.1,0.2
			l-0.1,0.2c-2,4-6.2,6.5-10.7,6.4c-2.3,0-4.5-0.5-6.5-1.6c-6.8-3.3-10.1-10.9-7.4-16.9l0.1-0.3l0.1-0.3
			c4.6-18.3,19.9-67.7,36.1-76.5c0.3-0.1,0.6-0.2,0.9-0.2c3.7,0,11.2,4.5,16.6,10.1c4.2,4.3,5.3,7.2,5.3,8.2
			C237.4,283,231.4,297.8,220.4,317.3z"/>
		<path class="st16" d="M232.3,265.9c-5.4-5.5-12.8-10.1-16.6-10.1c-0.3,0-0.6,0-0.9,0.2c-16.2,8.7-31.5,58.1-36.1,76.4l-0.1,0.3
			l-0.1,0.3c-2.8,6,0.5,13.6,7.4,16.9c2,1,4.3,1.5,6.5,1.6c4.5,0.2,8.7-2.3,10.7-6.4l0.1-0.2l0.1-0.2c0.1-0.1,8.6-12.5,17.1-27.4
			c11-19.4,16.9-34.3,17.1-43.1C237.6,273.2,236.5,270.3,232.3,265.9z M217.6,315.7c-8.4,14.8-16.8,27-16.9,27.1l-0.3,0.5l-0.2,0.5
			c-1.5,2.9-4.5,4.6-7.8,4.5c-1.8,0-3.5-0.4-5.1-1.2c-5.3-2.6-7.9-8.2-5.8-12.6l0.3-0.6l0.1-0.6c3.6-14.1,8.1-27.9,13.6-41.4
			c7.2-17.6,14.4-29.1,20.5-32.8c2.5,0.2,8.7,3.6,14,9.1c3.6,3.6,4.3,5.7,4.4,6.1C234.1,282.4,228.1,297.1,217.6,315.7L217.6,315.7z
			"/>
		
			<linearGradient id="SVGID_15_" gradientUnits="userSpaceOnUse" x1="118.5993" y1="169.0523" x2="118.5993" y2="272.6205" gradientTransform="matrix(1 0 0 -1 0 512)">
			<stop  offset="0" style="stop-color:#FBA217"/>
			<stop  offset="0.85" style="stop-color:#FCEE21"/>
			<stop  offset="0.88" style="stop-color:#FCF041"/>
			<stop  offset="0.91" style="stop-color:#FCF262"/>
			<stop  offset="0.94" style="stop-color:#FCF47A"/>
			<stop  offset="0.97" style="stop-color:#FCF588"/>
			<stop  offset="1" style="stop-color:#FCF58D"/>
		</linearGradient>
		<path class="st18" d="M94.1,325.1c0,0,0.9-60.4,13.6-79.4c4.5-6.7,32.7-9.3,34.7-1.6c5.5,21-14.9,86.3-14.9,86.3
			c-1.6,8.3-10.3,13.8-19.5,12.4S92.5,333.4,94.1,325.1z"/>
		<path class="st15" d="M142.4,244.1c-1.1-4.4-10.3-4.7-13-4.7c-8.4,0-19,2.4-21.7,6.3c-5.3,7.9-9.2,23.7-11.6,46.8
			c-0.9,8.7-1.4,16.8-1.7,22.8s-0.3,9.7-0.3,9.8c-0.7,3.8,0.2,7.6,2.4,10.7c2.7,3.7,6.9,6.2,11.4,6.9c1,0.1,2,0.2,2.9,0.2
			c8.2,0,15.2-5.3,16.6-12.6C128.4,327.7,147.8,264.8,142.4,244.1z M124.4,329.4l-0.1,0.2v0.2c-1.1,5.8-6.7,10-13.4,10
			c-0.8,0-1.6-0.1-2.4-0.2c-3.7-0.5-7.1-2.5-9.4-5.6c-1.7-2.4-2.4-5.4-1.9-8.3l0.1-0.3v-0.3c0-0.6,1-59.7,13.1-77.6
			c1.5-2.3,10.1-4.9,19-4.9c7,0,9.8,1.7,9.9,2.3C144.5,264.8,124.6,328.7,124.4,329.4L124.4,329.4z"/>
		<path class="st16" d="M139.3,244.9c-0.1-0.6-2.9-2.3-9.9-2.3c-8.8,0-17.4,2.6-19,4.9c-12.1,18-13.1,77.1-13.1,77.7v0.3l-0.1,0.3
			c-0.5,2.9,0.2,5.9,1.9,8.3c2.2,3,5.6,5,9.3,5.6c0.8,0.1,1.6,0.2,2.4,0.2c6.7,0,12.3-4.2,13.4-10v-0.2l0.1-0.2
			C124.6,328.7,144.5,264.8,139.3,244.9z M121.3,328.4l-0.1,0.4l-0.1,0.4c-0.8,4.2-5.1,7.3-10.2,7.3c-0.6,0-1.3,0-1.9-0.1
			c-2.9-0.4-5.5-1.9-7.2-4.2c-1.2-1.7-1.7-3.8-1.3-5.8l0.1-0.5v-0.6c0.2-16.2,2.9-61.5,12.5-75.8c1.1-1.1,7.9-3.5,16.3-3.5
			c2.4-0.1,4.7,0.2,7,0.9C139.7,263.6,126.7,311.1,121.3,328.4z"/>
		
			<linearGradient id="SVGID_16_" gradientUnits="userSpaceOnUse" x1="142.6808" y1="63.3875" x2="142.6808" y2="219.1094" gradientTransform="matrix(1 0 0 -1 0 512)">
			<stop  offset="0" style="stop-color:#FBA217"/>
			<stop  offset="0.68" style="stop-color:#FCEE21"/>
			<stop  offset="0.73" style="stop-color:#FCEF35"/>
			<stop  offset="0.85" style="stop-color:#FCF264"/>
			<stop  offset="0.95" style="stop-color:#FCF482"/>
			<stop  offset="1" style="stop-color:#FCF58D"/>
		</linearGradient>
		<path class="st19" d="M57.1,310.9c2-8.8,26.7-43.8,29.1,17.2c2.1,54.5,42.3,67.2,94.1,34.6c5.9-3.7-49.3-15.8-56-20.5
			c-12.8-9.1-12.8-19.3-5.6-29.5s71.3-1.3,85.7,4.1c18.7,7,28.7,21.5,36.7,48.9c2.4,8.2-16.2,34.5-21.9,41.3
			c-28,33.4-44.2,47.3-91.8,39.5C74,437.8,38.2,425,44.9,373.8C46.2,363.3,52.6,330.7,57.1,310.9z"/>
		<path class="st20" d="M234.9,367.4c-7.6-26-16.8-38.5-32.8-44.5c-8.8-3.3-39.8-8.4-61.3-8.4c-12.8,0-16.4,1.8-17,2.2
			c-5.7,8.2-4.4,14.1,4.2,20.3c2,1.4,16.3,5.5,23.9,7.7c29,8.4,34.2,10.4,35.1,16.5c0.4,2.8-0.9,5.6-3.4,7.1
			c-19.5,12.3-38.2,18.8-54.2,18.8c-14.9,0-27.3-5.4-35.9-15.7s-13.2-24.7-13.8-43c-0.9-25-5.3-29.1-6-29.7
			c-2.7,0.5-9.3,9-10.3,13.6c-4.6,20.5-10.9,52.6-12.2,62.4c-2.8,21.5,2.3,36.2,16.1,46.2c14.7,10.6,38,15.5,61.1,19.3
			c7.2,1.3,14.6,1.9,21.9,2c27.9,0,40.9-12,63.8-39.3c4.9-6.1,9.3-12.5,13.4-19.2C234.7,371.8,234.9,367.9,234.9,367.4z
			 M224.9,381.9c-3.9,6.6-8.3,12.8-13.1,18.8c-22.8,27.1-34.8,38.2-61.4,38.2c-7.2-0.1-14.3-0.8-21.4-2
			c-22.7-3.7-45.6-8.6-59.7-18.7c-12.7-9.2-17.4-22.9-14.8-43.1c1.3-9.8,7.5-41.7,12.1-62.1c0.6-2.8,3.9-7.5,6.2-9.8
			c1.2,2.9,3.1,9.9,3.7,25.3c0.7,19,5.6,34.1,14.6,44.9c9.2,11,22.5,16.9,38.4,16.9c16.6,0,36-6.7,56-19.3c3.5-2.1,5.4-6.2,4.9-10.3
			c-1.2-8.6-9.6-11-37.4-19.1c-5.8-1.7-21-6.1-23-7.3c-6.9-4.9-7.9-8.8-3.8-15.1c1.2-0.4,5.1-1.5,14.8-1.5c21.2,0,51.6,4.9,60.2,8.2
			c14.8,5.5,23.4,17.3,30.6,41.9C231.4,368.7,230.5,372.6,224.9,381.9L224.9,381.9z"/>
		<path class="st16" d="M238,366.6c-8-27.3-17.7-40.4-34.8-46.8c-9-3.4-40.6-8.6-62.4-8.6c-16.7,0-19.2,3-19.5,3.3
			c-6.9,9.8-5.3,17.8,4.8,25c2.3,1.7,14.9,5.3,24.9,8.2c27.6,8,32.2,9.9,32.8,13.8c0.2,1.6-0.5,3.1-1.9,3.9
			c-19,12-37.1,18.3-52.5,18.3c-28.3,0-45.2-20.2-46.5-55.5c-1.1-31.2-7.7-32.8-9-32.8c-5,0-12.5,11.1-13.7,16.2
			c-4.7,20.6-10.9,52.8-12.2,62.7c-3,22.8,2.6,38.5,17.4,49.2c15.2,11,39,16,62.5,19.9c7.4,1.3,14.9,2,22.4,2.1
			c29.1,0,43.2-13,66.3-40.5c5-6.2,9.6-12.8,13.7-19.7C238.8,371.3,238.2,367.3,238,366.6z M227.6,383.6c-4,6.7-8.5,13.1-13.4,19.2
			c-23,27.3-36,39.3-63.8,39.3c-7.4-0.1-14.7-0.7-21.9-2c-23.1-3.8-46.4-8.7-61.1-19.3c-13.8-10-18.9-24.6-16.1-46.2
			c1.3-9.8,7.5-41.8,12.2-62.4c1-4.6,7.6-13.1,10.3-13.6c0.7,0.5,5.1,4.7,6,29.7c0.6,18.3,5.3,32.8,13.8,43s21,15.7,35.9,15.7
			c16,0,34.8-6.5,54.2-18.8c2.4-1.5,3.8-4.2,3.4-7.1c-0.9-6.1-6.1-8-35.1-16.5c-7.7-2.2-21.9-6.3-23.9-7.7
			c-8.7-6.2-9.9-12.1-4.2-20.3c0.6-0.4,4.1-2.2,17-2.2c21.6,0,52.5,5.1,61.3,8.4c15.9,6,25.1,18.5,32.8,44.5
			C234.9,367.9,234.7,371.8,227.6,383.6L227.6,383.6z"/>
		<path class="st15" d="M241.3,366.1l-0.2-0.8c-8.2-27.9-18.9-42-36.8-48.7c-10.3-3.9-42.3-8.7-63.6-8.7c-10.2,0-17.1,1.1-20.4,3.2
			l-1.1,0.7l-0.8,1.1c-7.6,11.2-5.7,21,6,29.3c2,1.4,6.2,2.9,25.8,8.6c12.9,3.7,28.9,8.3,30.4,10.6c0,0.1,0.1,0.3,0.1,0.5
			c0,0.2-0.1,0.5-0.4,0.7c-18.4,11.7-36,17.9-50.8,17.9c-12.9,0-23.6-4.6-30.9-13.3c-7.6-9.1-11.8-22.2-12.4-39
			c-0.6-15.9-2.6-26.4-6.1-31.7c-1.2-1.8-2.9-3-5-3.5l0,0c-2.3-0.5-4.6-0.1-6.6,1.3C63.1,298.1,58,306.6,57,311
			c-4.6,20.6-10.9,53-12.2,63c-3.1,23.8,3.1,40.9,18.8,52.2s40,16.5,63.9,20.3c7.6,1.3,15.3,2,23,2.1c30.4-0.1,45-13.4,68.7-41.8
			c5.1-6.4,9.7-13.1,13.9-20.1c5.5-9.2,8.2-15.9,8.1-19.8L241.3,366.1z M230.4,385.1c-4.1,6.9-8.6,13.4-13.6,19.7
			c-23.1,27.6-37.1,40.6-66.2,40.6c-7.5-0.1-15-0.7-22.4-2c-23.5-3.8-47.3-8.8-62.5-19.8c-14.9-10.7-20.5-26.3-17.5-49.2
			c1.3-9.9,7.5-42.1,12.1-62.7c1.2-5.1,8.7-16.2,13.7-16.2c1.3,0,7.9,1.6,9.1,32.8c1.3,35.3,18.3,55.5,46.6,55.4
			c15.4,0,33.6-6.4,52.5-18.4c1.4-0.8,2.1-2.3,1.9-3.9c-0.6-3.9-5.1-5.8-32.8-13.7c-10.1-2.9-22.6-6.5-24.9-8.1
			c-10.2-7.2-11.7-15.2-4.9-25c0.2-0.3,2.8-3.3,19.5-3.3c21.9,0,53.4,5.1,62.4,8.5c17.1,6.4,26.8,19.5,34.9,46.7
			C238.2,367.1,238.8,371.1,230.4,385.1z"/>
		
			<linearGradient id="SVGID_17_" gradientUnits="userSpaceOnUse" x1="76.8252" y1="180.0299" x2="76.8252" y2="262.9577" gradientTransform="matrix(1 0 0 -1 0 512)">
			<stop  offset="0" style="stop-color:#FBA217"/>
			<stop  offset="0.85" style="stop-color:#FCEE21"/>
			<stop  offset="0.88" style="stop-color:#FCF041"/>
			<stop  offset="0.91" style="stop-color:#FCF262"/>
			<stop  offset="0.94" style="stop-color:#FCF47A"/>
			<stop  offset="0.97" style="stop-color:#FCF588"/>
			<stop  offset="1" style="stop-color:#FCF58D"/>
		</linearGradient>
		<path class="st21" d="M57.2,319.9c0,0-4-47.1,5.8-63.4c3.4-5.7,26.8-10.4,30.5-5.3c11,15.4-6.4,68.8-6.4,68.8
			c-0.7,6.6-8,11.9-16.3,11.9S56.5,326.5,57.2,319.9z"/>
		<path class="st15" d="M93.6,251.3l-0.1-0.2l-0.2-0.2c-0.8-0.9-2.8-1.9-7.3-1.9c-8.3,0-20.5,3.5-22.9,7.5c-4,6.7-6.3,19.4-6.6,37.7
			c-0.2,13.4,0.7,25.1,0.8,25.6c-0.3,2.8,0.6,5.5,2.5,7.5c2.9,3,7,4.7,11.2,4.6l0,0c3.9,0,7.7-1.2,10.9-3.5c2.9-1.9,4.8-5,5.3-8.4
			c3-9.4,5.4-19,7.3-28.7C97.2,277.5,99.2,259.2,93.6,251.3z M91.3,290.8c-1.9,9.6-4.3,19-7.2,28.3l-0.1,0.3v0.3
			c-0.5,4.9-6.5,9-13,9l0,0c-3.3,0.1-6.5-1.1-8.8-3.5c-1.2-1.4-1.9-3.2-1.7-5v-0.3v-0.3c0-0.1-1-11.8-0.7-25.3
			c0.3-17.5,2.4-29.9,6.1-36.1c1.3-2.2,11.6-5.9,20.1-5.9c4,0,5,0.9,5,0.9C94.8,258.6,95,272,91.3,290.8z"/>
		<path class="st16" d="M91,253.2c0,0-1-0.9-5-0.9c-8.6,0-18.8,3.7-20.1,6c-3.7,6.1-5.8,18.6-6.1,36.1c-0.2,13.5,0.7,25.2,0.7,25.3
			v0.3v0.3c-0.2,1.8,0.4,3.6,1.7,5c2.3,2.3,5.5,3.6,8.8,3.5l0,0c6.5,0,12.5-4.1,13-9v-0.3l0.1-0.3c2.9-9.3,5.3-18.8,7.2-28.3
			C95,272,94.8,258.6,91,253.2z M88.2,290.2c-1.9,9.4-4.3,18.7-7.2,27.9l-0.2,0.6l-0.1,0.7c-0.3,2.9-4.6,6.1-9.8,6.1l0,0
			c-2.4,0.1-4.7-0.8-6.4-2.4c-0.7-0.7-1-1.6-0.9-2.6l0.1-0.6v-0.6c0-0.5-1-11.9-0.7-25c0.3-16.5,2.3-28.7,5.6-34.4
			c1.5-1.4,10-4.5,17.4-4.5c0.9,0,1.9,0.1,2.8,0.2C90.2,258.5,92.7,266.9,88.2,290.2L88.2,290.2z"/>
	</g>
</g>
</svg>
