<?xml version="1.0" encoding="utf-8"?>
<!-- Generator: Adobe Illustrator 24.3.0, SVG Export Plug-In . SVG Version: 6.00 Build 0)  -->
<svg version="1.1" id="Layer_1" xmlns="http://www.w3.org/2000/svg" xmlns:xlink="http://www.w3.org/1999/xlink" x="0px" y="0px"
	 viewBox="0 0 512 512" style="enable-background:new 0 0 512 512;" xml:space="preserve">
<style type="text/css">
	.st0{fill:#FFFFFF;}
	.st1{fill:url(#SVGID_1_);}
	.st2{fill:#93DBFE;}
	.st3{fill:url(#SVGID_2_);}
	.st4{fill:url(#SVGID_3_);}
	.st5{fill:url(#SVGID_4_);}
	.st6{fill:url(#SVGID_5_);}
	.st7{fill:url(#SVGID_6_);}
</style>
<g>
	<g id="_06">
		<path class="st0" d="M184.1,268.8c11.1,0,22.7,2.1,34.4,5.6c40.1,7.3,83.3,32.3,116.6,51.5c20.5,11.8,36.1,17.3,37.1,24.1
			c0.8,5.9-21.1,5.7-77,35.1c-40.4,21.2-73.5,29.4-99.7,29.4c-29.1,0-49.7-10.1-62-23.6l0.2,0.2c-21.3-19.8-31.1-49.5-15.9-78.8
			C134.6,280.4,158,268.8,184.1,268.8 M129.1,311.8c3.2-5.7,7-11,11.4-15.8c0.7-0.8,1.5-1.5,2.2-2.3c-0.7,0.7-1.5,1.5-2.2,2.3
			C136.1,300.8,132.3,306.1,129.1,311.8 M184.1,244.8c-18.2,0-34.8,4.5-49.2,13.4c-15.4,9.5-28.3,23.9-38.4,43
			c0,0.1-0.1,0.1-0.1,0.2c-9.8,19-12.5,39.5-7.7,59.5c4.2,17.6,13.9,34,28.1,47.4c18.5,19.6,46.4,30.3,78.7,30.3
			c33,0,70.3-10.8,110.9-32.1c29.7-15.6,49-22.4,60.6-26.4c4.5-1.4,8.9-3.2,13.2-5.2c13.6-6.9,17.1-19.1,15.8-28.2
			c-2-13.8-12.8-21.1-16.3-23.5c-5.4-3.5-11-6.6-16.7-9.4c-4.8-2.5-10.2-5.3-15.9-8.6l-0.7-0.4c-35.1-20.3-78.7-45.5-122.3-53.7
			C209.8,246.8,196.6,244.8,184.1,244.8L184.1,244.8z"/>
		<path class="st0" d="M323.6,97.5c30.9,0,49.8,19.7,62.3,46.7c18.6,30.5,27.3,73.4,34,106.3c4.2,20.2,9.7,33.7,5.8,38.3
			c-0.4,0.4-0.9,0.7-1.5,0.7c-5.2,0-20.3-13.4-66.2-30.7c-78.9-29.8-101-72.4-97.8-102.6c0,0.1,0,0.2,0,0.3
			c0.6-25.5,14.4-49.1,42.4-56.2C309.4,98.5,316.5,97.5,323.6,97.5 M309.2,107.4c5.2-1.2,10.5-1.8,15.9-1.8h1.4
			c0.9,0,1.9,0.1,2.8,0.1c-0.9-0.1-1.9-0.1-2.8-0.1H325C319.7,105.6,314.4,106.2,309.2,107.4 M323.7,73.5
			c-9.1,0.1-18.1,1.2-26.9,3.4l-0.2,0.1c-18.8,4.8-34.4,15.4-45.2,30.7c-9.4,13.4-14.7,29.8-15.2,47.4c-2,22.9,6.4,46.9,23.6,67.8
			c19.5,23.5,49.6,43.1,89.7,58.3c18,6.6,35.4,14.7,52.1,24.2c8.4,4.7,14.4,8.1,22.6,8.1c7.6,0,14.9-3.3,19.8-9.1
			c5.8-6.8,8-15.8,6.6-26.6c-0.9-5.6-2.1-11.2-3.6-16.8c-1.1-4.5-2.4-9.7-3.6-15.2l-0.1-0.7c-3.5-16.9-7.4-36.1-13-55.6
			c-6.6-22.9-14.2-41.4-23.2-56.6c-8.3-17.6-18.2-30.9-30.3-40.8C361.7,79.8,343.8,73.5,323.7,73.5L323.7,73.5z"/>
		<path class="st0" d="M136.9,117.1c18.7,0,33.5,11.1,45.8,27.1c19.9,20.7,34.2,52.8,45.2,77.5c6.8,15.2,13.5,24.8,11.2,29.1
			c-0.4,0.6-1.1,1-1.8,0.9c-4.9,0-19.6-7.3-56.6-12.6c-67.1-9.6-91.9-39.1-94.6-63.4c0,0.1,0,0.1,0,0.2c-4-20.1,2.7-41,23.4-51.5
			C119.5,119.3,128.6,117.1,136.9,117.1 M116.2,128.6c4.1-1.9,8.5-3.4,13-4.3c0.7-0.2,1.5-0.3,2.2-0.4c-0.7,0.1-1.5,0.2-2.2,0.4
			C124.7,125.2,120.4,126.6,116.2,128.6 M136.9,93.1c-12.3,0-25.1,3.2-38,9.6c-0.1,0-0.1,0.1-0.2,0.1c-14.6,7.2-26.1,19.4-32.3,34.4
			c-5.4,13.5-6.8,28.2-4,42.4c2.6,19.5,14,37.9,32.1,52.1c20,15.6,47.9,26,82.8,31c15.1,2,29.9,5.3,44.4,9.7
			c6,1.8,10.4,3.1,15.6,3.1c9.6,0.1,18.5-5.1,23-13.7c4-7.6,4.3-16.3,0.8-25.9c-1.8-4.4-3.8-8.8-6-13c-1.7-3.3-3.6-7.1-5.4-11.2
			l-0.2-0.5c-11.2-25.1-26.5-59.2-48.7-82.8C182.6,105,161,93.1,136.9,93.1L136.9,93.1z"/>
		
			<radialGradient id="SVGID_1_" cx="226.52" cy="179.05" r="112.56" fx="176.5222" fy="132.9732" gradientTransform="matrix(1 0 0 -1 0 512)" gradientUnits="userSpaceOnUse">
			<stop  offset="0" style="stop-color:#C1EAFE"/>
			<stop  offset="0.28" style="stop-color:#7FD4FE"/>
			<stop  offset="0.58" style="stop-color:#45A8DE"/>
			<stop  offset="0.86" style="stop-color:#1382C3"/>
			<stop  offset="1" style="stop-color:#0073B8"/>
		</radialGradient>
		<path class="st1" d="M295.1,385.1c55.9-29.4,77.9-29.2,77-35.1c-1-6.8-16.6-12.3-37.1-24.1C277.6,292.7,190.4,242,140.5,296
			c-10.4,11.2-17.4,25.2-20.2,40.2c-2.5,13.2-2.9,30.6,6.5,45.9C145.5,412.9,200.6,434.9,295.1,385.1z"/>
		<path class="st2" d="M218.6,274.4c-29.3-5.3-57-1.2-78,21.6c-10.4,11.2-17.4,25.2-20.2,40.2c-2.5,13.2-2.9,30.6,6.5,45.9
			c2,3.2,4.3,6.3,6.9,9.1c-21.3-19.8-31.1-49.5-15.9-78.8C141.8,266.8,179.1,262.5,218.6,274.4z"/>
		
			<linearGradient id="SVGID_2_" gradientUnits="userSpaceOnUse" x1="162.8165" y1="121.7986" x2="369.4868" y2="121.7986" gradientTransform="matrix(0.9996 2.670036e-02 2.670036e-02 -0.9996 -4.0606 456.9375)">
			<stop  offset="0" style="stop-color:#C7FFFF;stop-opacity:0.3"/>
			<stop  offset="1" style="stop-color:#FEFEFE;stop-opacity:0"/>
		</linearGradient>
		<path class="st3" d="M302.7,376.8c45.5-22.4,66.3-22.5,65.8-27.2c-0.6-5.5-16.3-9.5-32.4-19.5c-45.4-27.9-114.4-70.4-155.6-28.2
			c-8.6,8.8-14.5,19.8-17.1,31.8c-2.3,10.5-3,24.5,4.2,37C181.9,395.9,225.7,414.7,302.7,376.8z"/>
		
			<radialGradient id="SVGID_3_" cx="844.36" cy="-1083.39" r="98.58" fx="800.5698" fy="-1123.7444" gradientTransform="matrix(0.6637 0.748 0.748 -0.6637 602.1288 -1167.1733)" gradientUnits="userSpaceOnUse">
			<stop  offset="0" style="stop-color:#C1EAFE"/>
			<stop  offset="0.28" style="stop-color:#7FD4FE"/>
			<stop  offset="0.58" style="stop-color:#45A8DE"/>
			<stop  offset="0.86" style="stop-color:#1382C3"/>
			<stop  offset="1" style="stop-color:#0073B8"/>
		</radialGradient>
		<path class="st4" d="M357.9,258.8c51.8,19.5,64.4,34,67.8,30c3.9-4.6-1.6-18.1-5.8-38.3c-11.7-56.9-29.2-143.5-93.5-144.8
			c-13.4-0.3-26.6,3.2-38.1,10.1c-10.1,6-21.7,15.9-26.3,31C252.7,176.9,270.4,225.7,357.9,258.8z"/>
		<path class="st2" d="M385.9,144.2c-13.5-22.3-32.4-38-59.5-38.6c-13.4-0.3-26.6,3.2-38.1,10.1c-10.1,6-21.7,15.9-26.3,31
			c-1,3.2-1.7,6.4-2,9.8c0.6-25.5,14.4-49.1,42.4-56.2C346.3,89.5,370.7,111.5,385.9,144.2z"/>
		
			<linearGradient id="SVGID_4_" gradientUnits="userSpaceOnUse" x1="822.08" y1="-1115.6866" x2="1003.07" y2="-1115.6866" gradientTransform="matrix(0.64 0.77 0.77 -0.64 638.3101 -1208.53)">
			<stop  offset="0" style="stop-color:#C7FFFF;stop-opacity:0.3"/>
			<stop  offset="1" style="stop-color:#FEFEFE;stop-opacity:0"/>
		</linearGradient>
		<path class="st5" d="M367.8,258.9c41.1,16.8,53.3,30.4,56.1,27.2c3.2-3.6-3.2-16.2-6.1-32.6c-8.1-45.9-20.3-115.9-71.9-118.3
			c-10.7-0.5-21.4,2-30.8,7.3c-8.2,4.6-17.8,12.3-21.8,24.3C285,190.9,298.2,230.4,367.8,258.9z"/>
		
			<radialGradient id="SVGID_5_" cx="454.26" cy="-930.51" r="79.23" fx="419.0597" fy="-962.9424" gradientTransform="matrix(0.8102 0.5861 0.5861 -0.8102 340.2821 -839.334)" gradientUnits="userSpaceOnUse">
			<stop  offset="0" style="stop-color:#C1EAFE"/>
			<stop  offset="0.28" style="stop-color:#7FD4FE"/>
			<stop  offset="0.58" style="stop-color:#45A8DE"/>
			<stop  offset="0.86" style="stop-color:#1382C3"/>
			<stop  offset="1" style="stop-color:#0073B8"/>
		</radialGradient>
		<path class="st6" d="M180.7,238.9c44,6.3,56.5,15.4,58.4,11.8c2.3-4.3-4.4-13.9-11.2-29.1c-19.1-42.6-47.9-107.5-98.6-97.3
			c-10.6,2.1-20.3,7.2-28.1,14.6c-6.9,6.5-14.2,16.3-15.3,28.9C83.9,193.1,106.2,228.3,180.7,238.9z"/>
		<path class="st2" d="M182.7,144.2c-14.5-15.1-32-24.2-53.4-19.9c-10.6,2.1-20.3,7.2-28.1,14.6c-6.9,6.5-14.2,16.3-15.3,28.9
			c-0.2,2.7-0.2,5.3,0.2,8c-4-20.1,2.7-41,23.4-51.5C142,108.2,165,121.1,182.7,144.2z"/>
		
			<linearGradient id="SVGID_6_" gradientUnits="userSpaceOnUse" x1="438.9799" y1="-978.8834" x2="584.4711" y2="-978.8834" gradientTransform="matrix(0.7944 0.6074 0.6074 -0.7944 369.3235 -886.2798)">
			<stop  offset="0" style="stop-color:#C7FFFF;stop-opacity:0.3"/>
			<stop  offset="1" style="stop-color:#FEFEFE;stop-opacity:0"/>
		</linearGradient>
		<path class="st7" d="M188.4,237.3c35.2,6,47.1,14.5,48.7,11.6c1.9-3.4-5.3-12.2-10.5-24.5c-14.4-34.6-36.2-87.4-77.1-80.3
			c-8.5,1.5-16.4,5.3-22.9,11.1c-5.7,5.1-11.8,12.8-12.9,22.9C111.6,198.4,128.8,227.1,188.4,237.3z"/>
	</g>
</g>
</svg>
