<?xml version="1.0" encoding="utf-8"?>
<!-- Generator: Adobe Illustrator 26.0.1, SVG Export Plug-In . SVG Version: 6.00 Build 0)  -->
<svg version="1.1" id="Layer_1_copy" xmlns="http://www.w3.org/2000/svg" xmlns:xlink="http://www.w3.org/1999/xlink" x="0px"
	 y="0px" width="512px" height="512px" viewBox="0 0 512 512" style="enable-background:new 0 0 512 512;" xml:space="preserve">
<style type="text/css">
	.st0{fill:#FFFFFF;}
	.st1{fill:url(#SVGID_1_);}
	.st2{fill:url(#SVGID_00000068665329651591440950000006253532235962255534_);}
	.st3{fill:url(#SVGID_00000159469149594499789330000008585240075804282299_);}
	.st4{opacity:0.2;enable-background:new    ;}
	.st5{fill:#ED3E21;}
	.st6{fill:url(#SVGID_00000119077656442023531370000007986125211558885559_);}
	.st7{opacity:0.2;}
	.st8{fill:url(#SVGID_00000180368312071054798490000004152133535320891060_);}
	.st9{fill:url(#SVGID_00000005242174875731113210000011796556703943137208_);}
</style>
<g>
	<path class="st0" d="M439.1,298.8c0-0.2,0-0.3,0-0.5c-0.1-3.8-0.4-7.7-0.7-11.5c0-0.3-0.1-0.7-0.1-1v-0.2
		c-0.4-3.4-0.8-6.9-1.4-10.4l0,0c-0.1-0.3-0.1-0.7-0.2-1c-0.1-0.4-0.1-0.8-0.2-1.1V273c-1-5.5-2.3-11-3.8-16.2c-0.3-1-0.5-2-0.8-3
		c-0.5-1.8-1.1-3.6-1.8-5.6l0,0c-0.1-0.3-0.2-0.6-0.3-0.8c-0.3-0.9-0.7-1.9-1.1-2.8l-0.1-0.1c-0.1-0.4-0.3-0.7-0.4-1.1
		c-0.3-0.7-0.6-1.4-0.9-2c-0.9-2.1-1.9-4.2-3-6.4s-2.2-4.3-3.4-6.5c-0.4-0.7-0.8-1.4-1.2-2.1c-0.7-1.2-1.4-2.4-2.1-3.6
		c-0.6-1-1.2-1.9-1.8-2.8c-0.9-1.4-1.7-2.6-2.4-3.7c-0.6-0.9-1.2-1.8-1.8-2.6c-1.2-1.7-2.4-3.4-3.7-5.1c-0.6-0.8-1.2-1.6-1.9-2.4
		c-0.8-1.1-1.7-2.1-2.7-3.4c-1.1-1.3-2-2.5-2.9-3.5c-0.6-0.7-1.2-1.5-1.9-2.2c-1.2-1.4-2.4-2.8-3.7-4.2c-1.7-1.9-3.6-3.8-5.4-5.7
		c-2.7-2.7-5.4-5.5-8.2-8.1c-0.5-0.5-1-0.9-1.5-1.4c-1-0.9-1.9-1.7-2.8-2.5s-1.7-1.5-2.5-2.2c-0.5-0.4-1-0.8-1.5-1.2
		c1.7-8.5,1.1-17.3-1.9-25.8c-1.8-5.2-1.4-13.8,1-23.1c2.3-8.7,0.5-17.8-5-25c-5.5-7.2-14.2-11.4-23.3-11.4c-2.8,0-5.5,0.4-8.1,1.2
		c-3.7,1.1-7.3,2.4-10.7,3.9c-0.2-0.4-0.5-0.7-0.7-1.1c-0.7-1-1.5-1.9-2.4-2.7c-1.1-1.1-2.3-2.1-3.6-2.9c-1-0.6-1.9-1.2-3-1.7
		c-1.5-0.7-3.1-1.3-4.8-1.8c-0.5-0.1-0.9-0.2-1.4-0.3c-1.4-0.3-2.9-0.5-4.3-0.5c-0.3,0-0.6,0-0.9,0c-0.5,0-1,0-1.6,0.1
		c-0.9,0.1-1.8,0.1-2.7,0.3c-0.3,0.1-0.7,0.1-1,0.2c-0.9,0.2-1.8,0.4-2.7,0.6c-0.1,0-0.3,0.1-0.4,0.1c-0.8,0.2-1.5,0.5-2.4,0.8
		c-0.2,0.1-0.4,0.2-0.6,0.2c-0.5,0.2-1.1,0.4-1.6,0.7c-0.2,0.1-0.3,0.1-0.5,0.2c-0.3,0.1-0.7,0.3-1,0.5c-1.2-4.5-3-9.3-5.4-14.4
		c-7.8-16.2-21.8-28.4-39.4-34.4c-3-1-6.1-1.6-9.3-1.6c-8.6,0-16.7,3.8-22.2,10.5c-5.3,6.6-7.4,15-5.7,23.3c1.7,8,1.1,13.7,0,16.2
		c-5.9,13.7-4.4,29.4,3.8,42c-3-1.7-6.3-3.2-9.7-4.5c-3-1.1-6.1-1.6-9.3-1.6c-8.3,0-16.1,3.7-21.3,10.2c-1,1.2-1.8,2.4-2.6,3.8
		c-0.2-0.1-0.4-0.2-0.7-0.3s-0.6-0.2-0.9-0.3c-0.1,0-0.2-0.1-0.2-0.1c-0.6-0.2-1.2-0.4-1.8-0.5c-0.3-0.1-0.6-0.1-1-0.2
		c-0.4-0.1-0.9-0.2-1.3-0.2c-0.6-0.1-1.2-0.2-1.9-0.2c-0.2,0-0.5,0-0.8-0.1c-0.5,0-1,0-1.5,0c-0.6,0-1.1,0-1.7,0.1
		c-0.9,0.1-1.7,0.2-2.5,0.3c-0.5,0.1-0.9,0.2-1.4,0.2c-1.5,0.3-3,0.8-4.4,1.3c-0.4,0.2-0.8,0.4-1.3,0.5c-0.7,0.3-1.5,0.7-2.2,1.1
		c-0.5,0.3-1,0.6-1.4,0.9c0,0-0.1,0-0.1,0.1c-0.3,0.2-0.7,0.5-1,0.7c-1,0.8-2,1.6-2.9,2.5c-0.3,0.3-0.7,0.7-1,1
		c-0.6,0.6-1.1,1.3-1.6,1.9c-0.4,0.5-0.7,1-1.1,1.5c-0.3,0.4-0.5,0.9-0.8,1.3c-0.7,1.2-1.3,2.5-1.8,3.9c-0.1,0.4-0.3,0.8-0.4,1.2
		c-0.3,1-0.6,2-0.8,3.1c-0.1,0.6-0.2,1.2-0.3,1.9c-0.1,0.6-0.1,1.2-0.1,1.8c-0.1,1.5,0,3,0.1,4.5c0.1,0.8,0.1,1.5,0.1,2.2
		c0,1.3-0.2,2.6-0.6,3.9c-0.1,0.2-0.1,0.3-0.2,0.5l-0.1,0.4l-0.1,0.3c-0.2,0.6-0.5,1.2-0.9,1.9c-0.2,0.4-0.4,0.7-0.6,1.1
		c-0.5,0.8-1,1.6-1.6,2.5l0,0c-0.1,0.2-0.2,0.3-0.3,0.5c-0.4,0.5-0.8,1.1-1.2,1.7c-2,2.6-4.4,5.5-6.7,8.2l-1.6,1.8l-0.2,0.3
		c-2.9,3.5-5.8,6.9-8.9,10.8c-1.3,1.6-2.4,3-3.4,4.4c-0.7,1-1.5,2-2.2,3c-0.8,1-1.5,2.1-2.2,3.1c-0.7,1.1-1.5,2.2-2.2,3.3
		c-2.3,3.5-4.5,7.2-6.5,10.8c-0.2,0.4-0.4,0.8-0.6,1.2l-0.2,0.3c-0.5,0.9-0.9,1.8-1.4,2.7c-1.3,2.6-2.6,5.4-3.7,8.1
		c-1,2.4-2,4.9-2.8,7.3c-0.3,0.9-0.7,1.9-1,2.8c-0.9,2.7-1.8,5.5-2.6,8.4c-0.3,0.9-0.5,1.9-0.7,2.8c-0.6,2.5-1.3,5.1-1.8,7.7
		c-0.3,1.2-0.5,2.4-0.7,3.6c-0.5,2.5-0.9,5-1.3,7.5c-0.1,0.9-0.3,1.7-0.4,2.6c-0.4,2.5-0.7,4.9-0.9,7.4c-0.7,6.7-1.1,13.4-1.1,19.4
		c0,8.9,0.7,17.9,2.1,26.6c0.5,2.9,1,5.8,1.6,8.6c0.3,1.4,0.6,2.8,1,4.3c1.4,5.9,3.2,11.9,5.3,17.7c1.2,3.3,2.5,6.5,3.8,9.7
		c3.5,8.2,7.7,16.2,12.5,23.8c1.1,1.8,2.3,3.6,3.7,5.7c2.6,3.7,5.3,7.4,8.1,10.9c2,2.5,4.2,5,6.3,7.4c2.8,3.1,5.7,6.1,8.6,8.9
		c4.1,3.9,8.4,7.7,12.8,11.3c1.1,0.9,2.2,1.8,3.4,2.6c2.3,1.7,4.6,3.4,6.9,5c2.3,1.6,4.8,3.2,7.2,4.7c1.2,0.8,2.5,1.5,3.7,2.2
		c2.5,1.5,5,2.9,7.5,4.2c3.8,2,7.8,3.9,11.7,5.7c2.6,1.2,5.4,2.3,8.1,3.4c1.4,0.5,2.7,1,4.1,1.5c1.4,0.5,2.8,1,4.2,1.4
		c7,2.3,14.2,4.3,21.4,5.8c11.8,2.5,24,3.8,36.1,4c1,0,2,0,3,0c0.3,0,0.6,0,0.8,0h0.1c0.8,0,1.5,0,2.3,0s1.6,0,2.4-0.1
		c0.8,0,1.5-0.1,2.3-0.1h0.3c0.4,0,0.7,0,1.1,0c0.3,0,0.6,0,0.8,0h0.1c0.7,0,1.5-0.1,2.2-0.1h0.3c0.4,0,0.7,0,1.1-0.1
		c0.3,0,0.6,0,0.8-0.1h0.1c0.7-0.1,1.5-0.1,2.2-0.2c0.8-0.1,1.5-0.1,2.3-0.2s1.5-0.2,2.3-0.2c0.8-0.1,1.5-0.2,2.3-0.3
		c0.8-0.1,1.5-0.2,2.3-0.3h0.3c0.3,0,0.7-0.1,1-0.1s0.6-0.1,0.9-0.1h0.1c0.7-0.1,1.5-0.2,2.2-0.4c0.7-0.1,1.5-0.2,2.2-0.4
		c0.8-0.1,1.5-0.3,2.3-0.4h0.2c0.3-0.1,0.7-0.1,1-0.2s0.6-0.1,0.9-0.2h0.1c0.7-0.1,1.5-0.3,2.2-0.5s1.4-0.3,2.1-0.5
		c0.8-0.2,1.5-0.3,2.3-0.5c0.7-0.2,1.4-0.3,2.1-0.5c0.8-0.2,1.5-0.4,2.3-0.6c0.7-0.2,1.4-0.4,2-0.6c0.8-0.2,1.5-0.4,2.3-0.6
		c0.7-0.2,1.3-0.4,2-0.6c0.8-0.2,1.5-0.5,2.3-0.7c0.7-0.2,1.3-0.4,2-0.6c0.8-0.2,1.5-0.5,2.3-0.8c0.6-0.2,1.3-0.4,1.9-0.7
		c0.8-0.3,1.5-0.5,2.3-0.8c0.6-0.2,1.3-0.5,1.9-0.7c0.8-0.3,1.5-0.6,2.2-0.9c0.6-0.2,1.2-0.5,1.8-0.7c0.7-0.3,1.5-0.6,2.2-0.9
		c0.6-0.3,1.2-0.5,1.8-0.8c0.7-0.3,1.5-0.6,2.2-1c0.6-0.3,1.2-0.5,1.8-0.8c0.7-0.3,1.5-0.7,2.2-1c0.6-0.3,1.1-0.6,1.7-0.8
		c0.7-0.4,1.5-0.7,2.2-1.1c0.6-0.3,1.1-0.6,1.7-0.9c0.7-0.4,1.5-0.8,2.2-1.2c0.5-0.3,1.1-0.6,1.6-0.9c0.7-0.4,1.4-0.8,2.1-1.2h0.1
		c0.2-0.1,0.4-0.2,0.6-0.4c0.3-0.2,0.5-0.3,0.8-0.5l0.1-0.1c0.7-0.4,1.4-0.8,2.2-1.3c0.5-0.3,1-0.6,1.5-0.9c0.7-0.4,1.4-0.9,2.2-1.3
		c0.5-0.3,1-0.6,1.5-1c0.7-0.5,1.4-0.9,2.1-1.4l0,0c0.2-0.1,0.4-0.3,0.6-0.4c0.3-0.2,0.5-0.3,0.8-0.5l0.1-0.1c0.7-0.5,1.4-1,2.1-1.5
		c0.5-0.3,0.9-0.6,1.3-1l0.1-0.1c0.7-0.5,1.4-1,2-1.5l0,0c0.2-0.1,0.4-0.3,0.6-0.4c0.2-0.2,0.5-0.4,0.7-0.5l0.1-0.1
		c0.7-0.5,1.4-1,2.1-1.6c0.4-0.3,0.8-0.6,1.2-0.9l0.2-0.1c0.7-0.5,1.4-1.1,2-1.6c0.4-0.3,0.8-0.6,1.2-0.9l0.2-0.1
		c0.6-0.5,1.3-1.1,1.9-1.6c0.2-0.2,0.3-0.3,0.5-0.4c0.2-0.2,0.5-0.4,0.7-0.6l0.1-0.1c0.6-0.5,1.3-1.1,1.9-1.7
		c0.2-0.2,0.3-0.3,0.5-0.4c0.2-0.2,0.5-0.4,0.7-0.6l0.1-0.1c0.6-0.6,1.3-1.2,1.9-1.8c0.3-0.3,0.7-0.6,1-0.9l0.2-0.2
		c0.6-0.6,1.3-1.2,1.9-1.8c0.3-0.3,0.6-0.6,1-1l0.2-0.2c0.6-0.6,1.2-1.2,1.8-1.8c0.1-0.1,0.3-0.3,0.4-0.4c0.2-0.2,0.5-0.5,0.7-0.7
		l0.1-0.2c0.6-0.6,1.2-1.2,1.7-1.8c0.1-0.1,0.3-0.3,0.4-0.4c0.2-0.2,0.4-0.5,0.7-0.7l0.1-0.2c0.6-0.6,1.1-1.2,1.7-1.9
		c0.1-0.2,0.3-0.3,0.4-0.4c0.2-0.2,0.4-0.5,0.6-0.7l0.1-0.2c0.6-0.7,1.1-1.3,1.7-2c0.3-0.3,0.6-0.7,0.8-1l0.2-0.3
		c0.6-0.7,1.1-1.4,1.7-2c0.3-0.3,0.5-0.7,0.8-1l0.2-0.3c0.5-0.7,1-1.3,1.5-2c0.1-0.1,0.2-0.3,0.3-0.4c0.2-0.3,0.4-0.5,0.6-0.8
		l0.1-0.2c0.5-0.7,1.1-1.4,1.6-2.1c0.2-0.3,0.5-0.7,0.7-1l0.2-0.3l0,0c0.5-0.7,0.9-1.3,1.4-2c0.1-0.1,0.2-0.3,0.3-0.4
		c0.2-0.3,0.4-0.6,0.6-0.9l0.1-0.2l0.1-0.1c0.5-0.7,0.9-1.4,1.4-2.1c0.2-0.4,0.5-0.7,0.7-1.1l0.2-0.3l0.1-0.1c0.4-0.7,0.8-1.3,1.2-2
		c0.1-0.1,0.2-0.3,0.3-0.4c0.2-0.3,0.4-0.6,0.5-0.9l0.1-0.2l0.1-0.2c0.4-0.7,0.8-1.4,1.2-2.1c0.2-0.4,0.4-0.8,0.7-1.1l0.2-0.4
		l0.1-0.2c0.4-0.7,0.8-1.4,1.2-2.1c0.2-0.4,0.4-0.8,0.6-1.2l0.2-0.4l0.1-0.2c0.3-0.6,0.7-1.3,1-1.9c0.1-0.1,0.2-0.3,0.2-0.4
		c0.2-0.3,0.3-0.7,0.5-1l0.1-0.3l0.1-0.3c0.3-0.6,0.6-1.3,0.9-1.9c0.1-0.1,0.1-0.3,0.2-0.4c0.2-0.4,0.3-0.7,0.5-1.1l0.1-0.3l0.1-0.3
		c0.3-0.7,0.6-1.3,1-2c0.2-0.4,0.4-0.8,0.6-1.3l0.2-0.4l0.1-0.3c0.3-0.7,0.6-1.3,0.9-2c0.2-0.4,0.4-0.9,0.5-1.3l0.2-0.4l0.1-0.3
		c0.3-0.7,0.5-1.3,0.8-2c0.2-0.4,0.3-0.9,0.5-1.3l0.2-0.4l0.2-0.4c0.2-0.6,0.5-1.2,0.7-1.8c0-0.1,0.1-0.2,0.1-0.3
		c0.2-0.4,0.3-0.8,0.4-1.2l0.1-0.4l0.1-0.4c0.2-0.6,0.5-1.3,0.7-1.9c0.2-0.5,0.3-0.9,0.5-1.4l0.1-0.4l0.1-0.4
		c0.2-0.6,0.4-1.1,0.6-1.7c0-0.1,0.1-0.2,0.1-0.4c0.1-0.4,0.3-0.8,0.4-1.3l0.1-0.4l0.1-0.4c0.2-0.6,0.4-1.2,0.5-1.9
		c0.1-0.5,0.3-1,0.4-1.5l0.1-0.5l0.1-0.5c0.2-0.6,0.3-1.2,0.5-1.8c0.1-0.5,0.3-1,0.4-1.5l0.1-0.5l0.1-0.5c0.1-0.6,0.3-1.2,0.4-1.8
		c0.1-0.5,0.2-1.1,0.3-1.6l0.1-0.5l0.1-0.5c0.1-0.6,0.3-1.2,0.4-1.8c0.1-0.6,0.2-1.1,0.3-1.7l0.1-0.5l0.1-0.5
		c0.1-0.6,0.2-1.1,0.3-1.7c0.1-0.6,0.2-1.2,0.3-1.7l0.1-0.5l0.1-0.5c0.1-0.5,0.2-1.1,0.3-1.6c0.1-0.6,0.2-1.2,0.2-1.8l0.1-0.5
		l0.1-0.5c0.1-0.5,0.1-1.1,0.2-1.6c0.1-0.6,0.1-1.3,0.2-1.9l0.1-0.5l0.1-0.5c0.1-0.5,0.1-1,0.2-1.5c0.1-0.7,0.1-1.4,0.2-2.1v-0.5
		v-0.5c0-0.5,0.1-0.9,0.1-1.4c0.1-1,0.1-1.9,0.2-2.9v-0.3v-0.3c0-0.4,0-0.7,0.1-1.1c0.1-1.5,0.1-3,0.1-4.5
		C439.1,303,439.1,300.9,439.1,298.8z"/>
	
		<linearGradient id="SVGID_1_" gradientUnits="userSpaceOnUse" x1="256.0068" y1="408.0179" x2="256.0068" y2="57.2787" gradientTransform="matrix(1 0 0 -1 0 512)">
		<stop  offset="0" style="stop-color:#FF3836"/>
		<stop  offset="0.131" style="stop-color:#FF592D"/>
		<stop  offset="0.3259" style="stop-color:#FF8421"/>
		<stop  offset="0.5153" style="stop-color:#FFA517"/>
		<stop  offset="0.695" style="stop-color:#FFBD10"/>
		<stop  offset="0.8609" style="stop-color:#FFCC0C"/>
		<stop  offset="1" style="stop-color:#FFD10B"/>
	</linearGradient>
	<path class="st1" d="M113.2,233c19-34.8,45.6-46.1,42.2-74.9c-0.3-2.4,2.6-3.9,4.5-2.4c6.9,5.1,17.8,16.3,17.2,35.7
		c-0.9,27.9-0.9,77.7,32.7,88.7c-0.7-9.4-1-19.6-0.8-30.6c1.7-81.4,57.6-121.1,57.6-121.1s58.2-47.5,32-10s-2.3,69.8,17.5,97
		c18.2,24.9,14.9,31,21.3,44.5c0.9,1.9,3.6,2.1,4.8,0.4c14-20.1,5.1-56.9,8.7-67.7c1.1-3.2,5.2-4.2,7.8-2c11.1,9.7,35.6,33.2,47,61
		l0,0c0.2,0.4,0.3,0.8,0.4,1.2c1.3,3.3,2.5,6.8,3.4,10.2c3.8,13.3,5.8,27.3,5.6,41.8c-0.9,83.7-73.9,151.3-161.7,149.9
		C166.7,453.4,96.9,386,96.9,303.2C96.9,286.5,100.4,256.4,113.2,233z"/>
	<g>
		
			<linearGradient id="SVGID_00000048479452918622529930000005046654670840341179_" gradientUnits="userSpaceOnUse" x1="252.438" y1="331" x2="252.438" y2="77.8" gradientTransform="matrix(1 0 0 -1 0 512)">
			<stop  offset="0" style="stop-color:#FF3836;stop-opacity:0.6"/>
			<stop  offset="0.131" style="stop-color:#FF592D;stop-opacity:0.5607"/>
			<stop  offset="0.3259" style="stop-color:#FF8421;stop-opacity:0.5022"/>
			<stop  offset="0.5153" style="stop-color:#FFA517;stop-opacity:0.4454"/>
			<stop  offset="0.695" style="stop-color:#FFBD10;stop-opacity:0.3915"/>
			<stop  offset="0.8609" style="stop-color:#FFCC0C;stop-opacity:0.3417"/>
			<stop  offset="1" style="stop-color:#FFD10B;stop-opacity:0.3"/>
		</linearGradient>
		<path style="fill:url(#SVGID_00000048479452918622529930000005046654670840341179_);" d="M264.7,181c1.1,4.5,2.7,9.1,4.6,13.9
			c0,0.1,0.1,0.1,0.1,0.2c1.5,3.4,2.9,6.5,4.4,9.3c1.7,3.3,3.5,6.4,4.9,8.7l0,0c3.5,5.8,7.2,11.2,10.4,15.7c1.6,2.3,3.2,4.5,4.7,6.5
			c1.8,2.5,3.6,4.9,5.1,7.2c3.2,4.8,5.4,8.5,6.9,11.8c0,0,0,0,0,0.1c0.7,1.5,1.4,3.2,2.1,5.4c0.5,1.4,0.9,3.1,1.4,4.7
			c0.2,0.9,0.5,1.8,0.7,2.6c1.1,3.9,2.4,7.5,3.8,10.7l0.4,0.9c0.3,0.8,0.7,1.6,1.2,2.4l0,0c0,0,0,0.1,0.1,0.1c0,0,0,0,0,0.1
			c0.2,0.4,0.7,1.3,1.5,2.3c1,1.4,2.1,2.7,3.4,3.9c5.1,4.8,12.2,7.6,19.4,7.6c0.2,0,0.3,0,0.5,0c7.5-0.1,14.6-3.2,19.7-8.4
			c0.7-0.8,1.3-1.4,1.6-1.8c0.1-0.1,0.2-0.2,0.3-0.4l0.2-0.2c0.2-0.3,0.5-0.6,0.7-1l0.1-0.1c0.1-0.1,0.1-0.2,0.2-0.3l1-1.5l0.2-0.3
			c3.9-6,6.7-12.7,8.7-20.6c1.9,3.6,3.6,7.2,5,10.7l0.1,0.3v0.1l1,2.8c0.3,1,0.6,1.9,0.8,2.8l1.1,4.3c0.4,1.5,0.6,2.6,0.9,3.7
			c1.1,5,1.8,10.1,2.3,15.1c0.5,5.6,0.6,10.5,0.3,15.1v0.1l-0.2,4.3c0,0.1,0,0.2,0,0.4c0,0.2-0.1,0.9-0.1,1.3
			c-0.1,0.6-0.1,1.2-0.2,1.8c-0.1,0.5-0.1,1-0.2,1.5v0.2c-0.1,0.6-0.1,1.3-0.2,1.7l-0.7,4.2c-3.3,19.7-12,38.6-25.1,54.7
			c-6.2,7.7-13.7,14.9-22.2,21.4c-8.1,6.1-17.1,11.4-26.8,15.8c-9.6,4.2-19.7,7.3-29.9,9.2c-8.1,1.5-16.5,2.2-25.1,2.2
			c-2.1,0-4.3,0-6.4-0.1c-10.2-0.5-20.7-2.3-31.2-5.2c-10.5-3.1-20.4-7.2-29.3-12.2c-19.1-10.6-35.2-25.4-46.6-42.6
			c0,0,0-0.1-0.1-0.1c-5.7-8.4-10.4-18-13.9-28.3c0,0,0,0,0-0.1c-3.3-9.4-5.2-19.8-5.9-30.9c-0.6-9.8,0.2-20.7,2.4-32.4
			c1.1-5.7,2.4-10.8,4-15.6c1.8-5.3,3.7-9.9,6-14.1c3.8-6.9,8.7-14,14.7-21c0.9-1.1,1.8-2.1,2.7-3.2c0.1,5.5,0.3,11.4,1,17.4
			c0.7,6.6,1.8,12.5,3.2,18.1c2,7.5,4.3,13.7,7.3,19.4c4.1,7.7,8.8,14.1,14.6,19.5c6.6,6.1,14.7,11,23.3,14l12.5,4.4
			c2.3,0.8,4.8,1.2,7.3,1.2c4.5,0,8.8-1.3,12.4-3.9c5.7-4,8.9-10.4,8.5-17.1l-0.7-13c-0.3-5.7-0.4-10.8-0.4-15.4l0.1-8.1
			c0-2.8,0.1-5.2,0.2-7.4v-0.1c0.5-10.5,1.8-19.8,3.9-28.4v-0.1C247.4,212,254.7,195.5,264.7,181 M346.2,202.3L346.2,202.3
			L346.2,202.3L346.2,202.3z M346.2,202.3L346.2,202.3L346.2,202.3L346.2,202.3z"/>
	</g>
	
		<radialGradient id="SVGID_00000010275451246862879550000003984783142050486942_" cx="245.607" cy="141.6423" r="79.1766" gradientTransform="matrix(1.1746 0 0 -1.1187 -28.39 517.8552)" gradientUnits="userSpaceOnUse">
		<stop  offset="0.225" style="stop-color:#FFE98A;stop-opacity:0.6"/>
		<stop  offset="1" style="stop-color:#FFE98A;stop-opacity:0"/>
	</radialGradient>
	
		<ellipse style="fill:url(#SVGID_00000010275451246862879550000003984783142050486942_);" cx="260.1" cy="359.4" rx="93" ry="90.4"/>
	<g class="st4">
		<path class="st5" d="M301.4,107.8c-0.8,1.7-2.3,4.5-5.5,9c-27.2,39-2.6,72.8,17.2,99.9l0.3,0.5c12,16.5,14.4,24.4,16.6,32
			c1.1,3.7,2.2,7.5,4.4,12c1,2,3,3.3,5.4,3.3c2,0,3.8-0.9,4.9-2.5c9.8-14,9.1-35.4,8.5-51c-0.3-7.7-0.5-14.3,0.6-17.5
			c0.3-0.8,1-1.1,1.6-1.1c0.4,0,0.8,0.1,1.1,0.4c10.1,8.8,34.9,32.4,46.2,59.9c0,0.1,0.1,0.2,0.2,0.3c0,0.1,0.1,0.2,0.1,0.3l0.2,0.5
			c0,0,0,0,0,0.1c1.3,3.3,2.4,6.7,3.2,9.9v0.1c3.8,13.3,5.7,27.1,5.5,40.9c-0.9,81-70.9,147-156,147c-0.8,0-1.7,0-2.5,0
			c-41.1-0.6-79.7-16.4-108.5-44.3c-28.9-28-44.8-65-44.8-104.2c0-18.3,4.2-47.3,15.9-68.8c7.1-12.9,15.3-22.6,22.5-31.2
			c11.8-14,22-26,20.1-44.8c6.2,4.8,15.9,15.2,15.3,32.8c-0.5,16-0.5,34.6,3.5,51.5c5.1,21.5,15.6,35.1,31.3,40.2
			c0.3,0.1,0.7,0.2,1,0.2c0.7,0,1.4-0.2,1.9-0.6c0.8-0.6,1.3-1.6,1.2-2.6c-0.7-9.4-1-19.6-0.8-30.3c0.9-41.2,16.1-71.2,28.7-89.2
			c13.7-19.5,27.4-29.4,27.6-29.5c0.1,0,0.1-0.1,0.2-0.1c0.1-0.1,7.5-6.1,15.7-12.1C293.8,111.7,298.9,108.9,301.4,107.8
			 M303.7,104.1c-7.3,0-37.2,24.4-37.2,24.4s-55.9,39.7-57.6,121.1c-0.2,11,0,21.2,0.8,30.6c-33.5-11-33.5-60.8-32.7-88.7
			c0.6-19.4-10.2-30.5-17.2-35.7c-0.5-0.4-1.1-0.6-1.7-0.6c-1.6,0-3,1.3-2.8,3c3.4,28.9-23.2,40.2-42.2,74.9
			c-12.8,23.3-16.3,53.5-16.3,70.2c0,82.9,69.8,150.2,156.5,151.5c0.9,0,1.7,0,2.6,0c86.7,0,158.2-67.1,159.1-149.9
			c0.2-14.5-1.8-28.5-5.6-41.8c-0.9-3.5-2-6.9-3.4-10.2c-0.2-0.4-0.3-0.8-0.4-1.2l0,0c-11.4-27.8-35.9-51.3-47-61
			c-0.9-0.8-2.1-1.2-3.2-1.2c-2,0-3.9,1.2-4.6,3.2c-3.6,10.8,5.3,47.6-8.7,67.7c-0.6,0.8-1.4,1.2-2.3,1.2c-1,0-2-0.5-2.5-1.5
			c-6.4-13.5-3.1-19.6-21.3-44.5c-19.8-27.2-43.7-59.5-17.5-97C305.9,107.9,306.6,104.1,303.7,104.1L303.7,104.1z"/>
	</g>
	<g class="st4">
		<path class="st5" d="M292.1,116.9c-11.7,17.6-14.4,35.8-8.2,55.4c5.4,17,16.7,32.5,26.6,46.2l0.3,0.5c11.7,16.1,14,23.7,16.2,31.1
			c1.1,3.8,2.3,7.7,4.5,12.4c1.5,3.1,4.7,5.1,8.3,5.1c3.1,0,5.9-1.4,7.6-3.9c10.4-14.8,9.6-36.8,9.1-52.8c-0.2-5.2-0.4-10.6,0-14
			c10.9,9.8,33,31.7,43.3,57c0.1,0.1,0.1,0.3,0.2,0.4v0.1l0.2,0.5v0.1c1.3,3.2,2.3,6.4,3.1,9.5c0,0.1,0,0.1,0,0.2
			c3.7,13,5.6,26.5,5.4,40.1c-0.9,79.4-69.4,144-152.8,144c-0.8,0-1.7,0-2.5,0c-40.3-0.6-78.1-16-106.4-43.4s-43.9-63.7-43.9-102.1
			c0-18,4.1-46.4,15.6-67.4c6.9-12.7,15-22.2,22.2-30.7c10.6-12.6,20-23.6,21-39.4c5,5.6,9.2,13.8,8.9,25.4
			c-0.5,16.2-0.5,35,3.6,52.2c5.3,22.6,16.5,36.9,33.3,42.4c0.7,0.2,1.4,0.3,2.1,0.3c1.4,0,2.7-0.4,3.8-1.2c1.7-1.2,2.6-3.2,2.4-5.2
			c-0.7-9.3-1-19.4-0.8-30c0.8-40.3,15.7-69.8,28-87.4c13.4-19.2,26.9-28.9,27-29s0.2-0.2,0.3-0.3
			C277.5,127.4,285.5,121.3,292.1,116.9 M303.7,104.1c-7.3,0-37.2,24.4-37.2,24.4s-55.9,39.7-57.6,121.1c-0.2,11,0,21.2,0.8,30.6
			c-33.5-11-33.5-60.8-32.7-88.7c0.6-19.4-10.2-30.5-17.2-35.7c-0.5-0.4-1.1-0.6-1.7-0.6c-1.6,0-3,1.3-2.8,3
			c3.4,28.9-23.2,40.2-42.2,74.9c-12.8,23.3-16.3,53.5-16.3,70.2c0,82.9,69.8,150.2,156.5,151.5c0.9,0,1.7,0,2.6,0
			c86.7,0,158.2-67.1,159.1-149.9c0.2-14.5-1.8-28.5-5.6-41.8c-0.9-3.5-2-6.9-3.4-10.2c-0.2-0.4-0.3-0.8-0.5-1.2l0,0
			c-11.4-27.8-35.9-51.3-47-61c-0.9-0.8-2.1-1.2-3.2-1.2c-2,0-3.9,1.2-4.6,3.2c-3.6,10.8,5.3,47.6-8.7,67.7
			c-0.6,0.8-1.4,1.2-2.3,1.2c-1,0-2-0.5-2.5-1.5c-6.4-13.5-3.1-19.6-21.3-44.5c-19.8-27.2-43.7-59.5-17.5-97
			C305.9,107.9,306.6,104.1,303.7,104.1L303.7,104.1z"/>
	</g>
	<g class="st4">
		<path class="st5" d="M282.8,127.3c-6.4,14.6-7,29.8-1.9,45.8c5.5,17.5,16.9,33.2,27,47l0.3,0.5c11.4,15.7,13.5,22.7,15.7,30.2
			c1.2,3.9,2.3,7.9,4.7,12.9c2,4.1,6.3,6.8,11.1,6.8c4.1,0,7.9-1.9,10.2-5.2c10.9-15.6,10.2-38.1,9.6-54.6c-0.1-2.2-0.2-4.7-0.2-7
			c11.5,11,28.7,29.9,37.4,51.1c0.1,0.2,0.1,0.3,0.2,0.5l0.2,0.5c0,0.1,0,0.1,0.1,0.2c1.2,3.1,2.2,6.2,3,9.2c0,0.1,0,0.2,0.1,0.2
			c3.7,12.7,5.5,26,5.3,39.3c-0.9,77.8-68,141-149.7,141c-0.8,0-1.6,0-2.4,0c-39.5-0.6-76.4-15.7-104.2-42.5
			c-27.7-26.8-43-62.4-43-100c0-17.6,4-45.5,15.2-66c6.8-12.4,14.8-21.8,21.8-30.2c8.8-10.4,17.3-20.4,20.4-33.2
			c2.4,4.5,4,10.2,3.8,17.2c-0.5,16.4-0.5,35.5,3.7,53c5.6,23.7,17.5,38.7,35.4,44.6c1,0.3,2,0.5,3.1,0.5c2.1,0,4.1-0.6,5.8-1.9
			c2.5-1.8,3.9-4.8,3.7-7.8c-0.7-9.2-1-19.2-0.8-29.7c0.7-31.7,9.9-60.5,27.4-85.6c13.1-18.8,26.3-28.4,26.4-28.5
			c0.2-0.1,0.3-0.2,0.5-0.4C275.9,132.7,279.3,130,282.8,127.3 M303.7,104.1c-7.3,0-37.2,24.4-37.2,24.4s-55.9,39.7-57.6,121.1
			c-0.2,11,0,21.2,0.8,30.6c-33.5-11-33.5-60.8-32.7-88.7c0.6-19.4-10.2-30.5-17.2-35.7c-0.5-0.4-1.1-0.6-1.7-0.6
			c-1.6,0-3,1.3-2.8,3c3.4,28.9-23.2,40.2-42.2,74.9c-12.8,23.3-16.3,53.5-16.3,70.2c0,82.9,69.8,150.2,156.5,151.5
			c0.9,0,1.7,0,2.6,0c86.7,0,158.2-67.1,159.1-149.9c0.2-14.5-1.8-28.5-5.6-41.8c-0.9-3.5-2-6.9-3.4-10.2c-0.2-0.4-0.3-0.8-0.4-1.2
			l0,0c-11.4-27.8-35.9-51.3-47-61c-0.9-0.8-2.1-1.2-3.2-1.2c-2,0-3.9,1.2-4.6,3.2c-3.6,10.8,5.3,47.6-8.7,67.7
			c-0.6,0.8-1.4,1.2-2.3,1.2c-1,0-2-0.5-2.5-1.5c-6.4-13.5-3.1-19.6-21.3-44.5c-19.8-27.2-43.7-59.5-17.5-97
			C305.9,107.9,306.6,104.1,303.7,104.1L303.7,104.1z"/>
	</g>
	<g class="st4">
		<path class="st5" d="M276.5,136.1c-3.2,12.3-2.8,24.9,1.3,37.9c5.6,17.9,17.2,33.8,27.5,47.9l0.3,0.5
			c11.1,15.3,13.2,22.1,15.3,29.3c1.1,3.8,2.4,8.1,4.9,13.3s8,8.6,14,8.6c5.2,0,10-2.4,12.8-6.5c11.3-16.2,10.7-38.8,10.1-55.5
			c10.7,11.1,23.9,27,31.1,44.5c0.1,0.2,0.1,0.3,0.2,0.5l0.1,0.3c0,0.1,0.1,0.2,0.1,0.2c1.2,3,2.2,6,2.9,8.8c0,0.1,0.1,0.2,0.1,0.3
			c3.6,12.5,5.3,25.4,5.2,38.5c-0.8,76.1-66.6,138-146.5,138c-0.8,0-1.6,0-2.4,0c-38.6-0.6-74.8-15.4-102-41.6
			c-27.2-26.3-42.1-61-42.1-97.9c0-17.3,3.9-44.6,14.9-64.6c6.6-12.1,14.2-21,21.5-29.7c7-8.3,13.8-16.3,18-25.6
			c0.5,2.4,0.7,4.9,0.6,7.7c-0.5,16.6-0.5,35.9,3.7,53.7c5.8,24.8,18.4,40.5,37.4,46.7c1.3,0.4,2.7,0.7,4.1,0.7
			c2.7,0,5.5-0.9,7.7-2.5c3.4-2.5,5.2-6.4,4.9-10.4c-0.7-9.1-1-19-0.8-29.4c0.6-31,9.6-59.2,26.7-83.7
			c12.8-18.5,25.7-27.9,25.8-27.9c0.2-0.2,0.4-0.3,0.7-0.5C275.3,137.1,275.9,136.6,276.5,136.1 M303.7,104.1
			c-7.3,0-37.2,24.4-37.2,24.4s-55.9,39.7-57.6,121.1c-0.2,11,0,21.2,0.8,30.6c-33.5-11-33.5-60.8-32.7-88.7
			c0.6-19.4-10.2-30.5-17.2-35.7c-0.5-0.4-1.1-0.6-1.7-0.6c-1.6,0-3,1.3-2.8,3c3.4,28.9-23.2,40.2-42.2,74.9
			c-12.8,23.3-16.3,53.5-16.3,70.2c0,82.9,69.8,150.2,156.5,151.5c0.9,0,1.7,0,2.6,0c86.7,0,158.2-67.1,159.1-149.9
			c0.2-14.5-1.8-28.5-5.6-41.8c-0.9-3.5-2-6.9-3.4-10.2c-0.2-0.4-0.3-0.8-0.5-1.2l0,0c-11.4-27.8-35.9-51.3-47-61
			c-0.9-0.8-2.1-1.2-3.2-1.2c-2,0-3.9,1.2-4.6,3.2c-3.6,10.8,5.3,47.6-8.7,67.7c-0.6,0.8-1.4,1.2-2.3,1.2c-1,0-2-0.5-2.5-1.5
			c-6.4-13.5-3.1-19.6-21.3-44.5c-19.8-27.2-43.7-59.5-17.5-97C305.9,107.9,306.6,104.1,303.7,104.1L303.7,104.1z"/>
	</g>
	<g class="st4">
		<path class="st5" d="M271.8,143.9c-1.3,10.1-0.3,20.4,3,31c5.8,18.4,17.5,34.5,27.9,48.7l0.3,0.5c10.8,14.9,12.8,21.5,14.9,28.4
			c1.2,3.9,2.5,8.3,5,13.7c3,6.3,9.6,10.4,16.9,10.4c6.2,0,12-2.9,15.4-7.9c10-14.4,11.2-33.2,10.9-49c9.2,10.3,19,23.4,24.8,37.5
			c0.1,0.2,0.1,0.3,0.2,0.5l0.1,0.2c0,0.1,0.1,0.2,0.1,0.3c1.1,2.9,2.1,5.8,2.8,8.5c0,0.1,0.1,0.3,0.1,0.4
			c3.5,12.2,5.2,24.9,5.1,37.6c-0.8,74.5-65.1,135.1-143.4,135.1c-0.8,0-1.6,0-2.3,0c-37.8-0.6-73.2-15-99.8-40.7
			s-41.2-59.7-41.2-95.8c0-17,3.8-43.7,14.5-63.2c6.5-11.9,13.9-20.7,21.1-29.2c4.5-5.3,9.1-10.7,12.9-16.6
			c-0.4,16-0.1,34.2,3.9,51.1c2.7,11.3,6.7,20.9,12.2,28.5c7,9.9,16.2,16.7,27.3,20.4c1.7,0.5,3.4,0.8,5.1,0.8
			c3.4,0,6.8-1.1,9.6-3.1c4.2-3.1,6.5-8,6.1-13c-0.7-9-1-18.8-0.7-29.2c0.6-30.3,9.4-57.9,26-81.9
			C258.8,156.1,267,148.1,271.8,143.9 M303.7,104.1c-7.3,0-37.2,24.4-37.2,24.4s-55.9,39.7-57.6,121.1c-0.2,11,0,21.2,0.8,30.6
			c-33.5-11-33.5-60.8-32.7-88.7c0.6-19.4-10.2-30.5-17.2-35.7c-0.5-0.4-1.1-0.6-1.7-0.6c-1.6,0-3,1.3-2.8,3
			c3.4,28.9-23.2,40.2-42.2,74.9c-12.8,23.3-16.3,53.5-16.3,70.2c0,82.9,69.8,150.2,156.5,151.5c0.9,0,1.7,0,2.6,0
			c86.7,0,158.2-67.1,159.1-149.9c0.2-14.5-1.8-28.5-5.6-41.8c-0.9-3.5-2-6.9-3.4-10.2c-0.2-0.4-0.3-0.8-0.4-1.2l0,0
			c-11.4-27.8-35.9-51.3-47-61c-0.9-0.8-2.1-1.2-3.2-1.2c-2,0-3.9,1.2-4.6,3.2c-3.6,10.8,5.3,47.6-8.7,67.7
			c-0.6,0.8-1.4,1.2-2.3,1.2c-1,0-2-0.5-2.5-1.5c-6.4-13.5-3.1-19.6-21.3-44.5c-19.8-27.2-43.7-59.5-17.5-97
			C305.9,107.9,306.6,104.1,303.7,104.1L303.7,104.1z"/>
	</g>
	
		<linearGradient id="SVGID_00000096045435477255457330000017060378123204143757_" gradientUnits="userSpaceOnUse" x1="204.0425" y1="317.7808" x2="204.0425" y2="369.2845" gradientTransform="matrix(-0.8866 -3.654747e-02 -3.654747e-02 -0.9882 395.2933 515.9269)">
		<stop  offset="0" style="stop-color:#FFD10B"/>
		<stop  offset="0.1391" style="stop-color:#FFCC0C"/>
		<stop  offset="0.305" style="stop-color:#FFBD10"/>
		<stop  offset="0.4847" style="stop-color:#FFA517"/>
		<stop  offset="0.6741" style="stop-color:#FF8421"/>
		<stop  offset="0.869" style="stop-color:#FF592D"/>
		<stop  offset="1" style="stop-color:#FF3836"/>
	</linearGradient>
	<path style="fill:url(#SVGID_00000096045435477255457330000017060378123204143757_);" d="M205.9,193.9c10.8-3.3,15.8-15.5,7.5-32.7
		c-5.2-10.9-14.1-15.7-20-17.8c-2.5-0.9-5,1.2-4.5,3.6c1.3,6,2.5,16-0.9,24.3C182.7,184,195,197.2,205.9,193.9z"/>
	<g class="st7">
		<path class="st5" d="M192.2,146.1c0.1,0,0.1,0,0.2,0c5.8,2.1,13.7,6.6,18.3,16.3c4,8.4,4.9,16,2.5,21.4c-1.5,3.5-4.4,6-8.2,7.1
			c-0.8,0.3-1.7,0.4-2.6,0.4c-3.8,0-7.7-2.3-10.2-6.1c-2.7-4-3.2-8.6-1.4-12.9c3.6-8.7,2.6-19,1.1-26.1c0,0,0,0,0-0.1
			C191.9,146.2,192,146.1,192.2,146.1 M192.2,143.1c-2,0-3.7,1.8-3.3,3.9c1.3,6,2.5,16-0.9,24.3c-4.7,11.3,4.7,23.1,14.4,23.1
			c1.2,0,2.3-0.2,3.5-0.5c10.8-3.3,15.8-15.5,7.5-32.7c-5.2-10.9-14.1-15.7-20-17.8C193,143.2,192.6,143.1,192.2,143.1L192.2,143.1z
			"/>
	</g>
	<g class="st7">
		<path class="st5" d="M195.6,150.9c4.4,2.4,9.2,6.3,12.3,12.9c3.6,7.6,4.5,14.3,2.5,18.9c-1.2,2.7-3.3,4.5-6.4,5.5
			c-0.5,0.2-1.1,0.3-1.7,0.3c-2.8,0-5.8-1.9-7.7-4.8c-1-1.5-3.1-5.4-1.2-10C196.6,166.2,196.6,157.8,195.6,150.9 M192.2,143.1
			c-2,0-3.7,1.8-3.3,3.9c1.3,6,2.5,16-0.9,24.3c-4.7,11.3,4.7,23.1,14.4,23.1c1.2,0,2.3-0.2,3.5-0.5c10.8-3.3,15.8-15.5,7.5-32.7
			c-5.2-10.9-14.1-15.7-20-17.8C193,143.2,192.6,143.1,192.2,143.1L192.2,143.1z"/>
	</g>
	<g class="st7">
		<path class="st5" d="M199.1,157c2.3,2,4.5,4.7,6.1,8.1c3.2,6.7,4.1,12.7,2.4,16.4c-0.8,1.9-2.3,3.1-4.5,3.8
			c-0.3,0.1-0.5,0.1-0.8,0.1c-1.7,0-3.9-1.4-5.2-3.4c-0.9-1.3-2.2-4-0.9-7.2C198.7,169,199.3,162.7,199.1,157 M192.2,143.1
			c-2,0-3.7,1.8-3.3,3.9c1.3,6,2.5,16-0.9,24.3c-4.7,11.3,4.7,23.1,14.4,23.1c1.2,0,2.3-0.2,3.5-0.5c10.8-3.3,15.8-15.5,7.5-32.7
			c-5.2-10.9-14.1-15.7-20-17.8C193,143.2,192.6,143.1,192.2,143.1L192.2,143.1z"/>
	</g>
	
		<linearGradient id="SVGID_00000159429286906934590660000011190391008081470881_" gradientUnits="userSpaceOnUse" x1="162.07" y1="398.6763" x2="162.07" y2="456.8819" gradientTransform="matrix(-1.0104 -3.219531e-02 -3.219531e-02 -1.0999 424.7008 565.3418)">
		<stop  offset="0" style="stop-color:#FFD10B"/>
		<stop  offset="0.1391" style="stop-color:#FFCC0C"/>
		<stop  offset="0.305" style="stop-color:#FFBD10"/>
		<stop  offset="0.4847" style="stop-color:#FFA517"/>
		<stop  offset="0.6741" style="stop-color:#FF8421"/>
		<stop  offset="0.869" style="stop-color:#FF592D"/>
		<stop  offset="1" style="stop-color:#FF3836"/>
	</linearGradient>
	<path style="fill:url(#SVGID_00000159429286906934590660000011190391008081470881_);" d="M252.1,120.9c14-4.3,20.5-19.6,10-41.2
		c-6.6-13.6-18-19.6-25.6-22.2c-3.2-1.1-6.5,1.5-5.8,4.6c1.6,7.5,3.1,20.1-1.4,30.6C222.5,108.7,238.2,125.2,252.1,120.9z"/>
	<g class="st7">
		<path class="st5" d="M235.1,60.3c0.2,0,0.4,0,0.5,0.1c7.6,2.6,17.8,8.3,23.8,20.7c5.1,10.5,6.2,20.2,3.1,27.2
			c-2.1,4.8-6,8.2-11.4,9.8c-1.2,0.4-2.4,0.6-3.7,0.6c-5.2,0-10.5-3.1-13.8-8.1c-3.4-5.1-3.9-11.1-1.6-16.6c2.6-6,4.9-16.4,1.6-32.4
			c0-0.2-0.1-0.4,0.2-0.7C234.2,60.5,234.6,60.3,235.1,60.3 M235.1,57.3c-2.6,0-4.9,2.3-4.3,4.9c1.6,7.5,3.1,20.1-1.4,30.6
			c-6.1,14.2,5.7,28.9,18.2,28.9c1.5,0,3.1-0.2,4.6-0.7c14-4.3,20.5-19.6,10-41.2c-6.6-13.6-18-19.6-25.6-22.2
			C236.1,57.3,235.6,57.3,235.1,57.3L235.1,57.3z"/>
	</g>
	<g class="st7">
		<path class="st5" d="M237.3,64.2c6.6,2.8,14.6,8.1,19.5,18.2c4.7,9.7,5.8,18.5,3.1,24.7c-1.7,4-5,6.8-9.5,8.1
			c-0.9,0.3-1.9,0.4-2.8,0.4c-4.2,0-8.6-2.7-11.3-6.8c-1.6-2.5-4-7.6-1.4-13.7C239.3,84.8,238.8,73.1,237.3,64.2 M235.1,57.3
			c-2.6,0-4.9,2.3-4.3,4.9c1.6,7.5,3.1,20.1-1.4,30.6c-6.1,14.2,5.7,28.9,18.2,28.9c1.5,0,3.1-0.2,4.6-0.7c14-4.3,20.5-19.6,10-41.2
			c-6.6-13.6-18-19.6-25.6-22.2C236.1,57.3,235.6,57.3,235.1,57.3L235.1,57.3z"/>
	</g>
	<g class="st7">
		<path class="st5" d="M241,69.4c4.8,2.9,9.7,7.4,13.1,14.2c4.3,8.9,5.4,16.8,3,22.2c-1.4,3.2-3.9,5.4-7.6,6.5
			c-0.6,0.2-1.3,0.3-2,0.3c-3.2,0-6.6-2.1-8.8-5.4c-1.3-2-3.2-6-1.1-10.9C241.4,87.4,241.8,77.7,241,69.4 M235.1,57.3
			c-2.6,0-4.9,2.3-4.3,4.9c1.6,7.5,3.1,20.1-1.4,30.6c-6.1,14.2,5.7,28.9,18.2,28.9c1.5,0,3.1-0.2,4.6-0.7c14-4.3,20.5-19.6,10-41.2
			c-6.6-13.6-18-19.6-25.6-22.2C236.1,57.3,235.6,57.3,235.1,57.3L235.1,57.3z"/>
	</g>
	
		<linearGradient id="SVGID_00000006700523703373021430000003082020607155851416_" gradientUnits="userSpaceOnUse" x1="42.7453" y1="272.7051" x2="42.7453" y2="351.5003" gradientTransform="matrix(0.8881 1.479237e-02 9.302497e-02 -0.9846 260.496 455.2351)">
		<stop  offset="0" style="stop-color:#FFD10B"/>
		<stop  offset="0.1391" style="stop-color:#FFCC0C"/>
		<stop  offset="0.305" style="stop-color:#FFBD10"/>
		<stop  offset="0.4847" style="stop-color:#FFA517"/>
		<stop  offset="0.6741" style="stop-color:#FF8421"/>
		<stop  offset="0.869" style="stop-color:#FF592D"/>
		<stop  offset="1" style="stop-color:#FF3836"/>
	</linearGradient>
	<path style="fill:url(#SVGID_00000006700523703373021430000003082020607155851416_);" d="M319.4,186.2c-16.3-6.2-22.9-25.3-9-50.8
		c8.8-16.1,22.7-22.6,31.8-25.2c3.9-1.1,7.6,2.3,6.6,6c-2.4,9-5,24.3-0.5,37.3C355.3,173.4,335.6,192.4,319.4,186.2z"/>
	<g class="st7">
		<path class="st5" d="M343.7,113c0.7,0,1.4,0.3,1.9,0.9c0.3,0.3,0.5,0.9,0.3,1.6c-5,18.9-3,31.7-0.4,39c2.4,6.9,1.3,14.3-3,20.4
			c-4.1,5.8-10.5,9.4-16.7,9.4c-1.9,0-3.7-0.3-5.4-1c-6.3-2.4-10.8-6.8-13-12.9c-3.3-9-1.3-21,5.6-33.7c8.1-14.8,20.8-21.1,30-23.8
			C343.3,113.1,343.5,113,343.7,113 M343.7,110c-0.5,0-1,0.1-1.5,0.2c-9.1,2.6-23.1,9.1-31.8,25.2c-13.9,25.5-7.3,44.6,9,50.8
			c2.1,0.8,4.3,1.2,6.5,1.2c14.5,0,28.6-16.6,22.5-33.9c-4.6-13-1.9-28.2,0.5-37.3C349.7,113,347,110,343.7,110L343.7,110z"/>
	</g>
	<g class="st7">
		<path class="st5" d="M342.6,116.4c-4.7,18.8-2.5,31.6,0.1,39.1c2.1,6,1.1,12.4-2.6,17.7c-3.6,5-9,8.2-14.2,8.2
			c-1.5,0-3-0.3-4.4-0.8c-5.4-2.1-9.3-5.9-11.3-11.1c-3-8.2-1.1-19.2,5.4-31.2C322.9,125.1,334,119.1,342.6,116.4 M343.7,110
			c-0.5,0-1,0.1-1.5,0.2c-9.1,2.6-23.1,9.1-31.8,25.2c-13.9,25.5-7.3,44.6,9,50.8c2.1,0.8,4.3,1.2,6.5,1.2
			c14.5,0,28.6-16.6,22.5-33.9c-4.6-13-1.9-28.2,0.5-37.3C349.7,113,347,110,343.7,110L343.7,110z"/>
	</g>
	<g class="st7">
		<path class="st5" d="M338.5,121.2c-2,10.5-2.8,23.5,1.4,35.4c2.4,6.9-0.4,12.3-2.2,15c-3,4.2-7.6,6.9-11.8,6.9
			c-1.1,0-2.3-0.2-3.3-0.6c-4.7-1.8-7.9-4.9-9.5-9.3c-2.7-7.3-0.9-17.5,5.2-28.7C323.7,129.9,331.5,124.3,338.5,121.2 M343.7,110
			c-0.5,0-1,0.1-1.5,0.2c-9.1,2.6-23.1,9.1-31.8,25.2c-13.9,25.5-7.3,44.6,9,50.8c2.1,0.8,4.3,1.2,6.5,1.2
			c14.5,0,28.6-16.6,22.5-33.9c-4.6-13-1.9-28.2,0.5-37.3C349.7,113,347,110,343.7,110L343.7,110z"/>
	</g>
	<g class="st7">
		<path class="st5" d="M334.6,126.7c-1.2,9.6-1.1,20.6,2.5,30.9c2,5.6-0.3,10.1-1.8,12.3c-2.4,3.4-6.1,5.6-9.3,5.6
			c-0.8,0-1.5-0.1-2.2-0.4c-3.8-1.5-6.4-4-7.8-7.6c-1.4-3.8-2.6-12.2,5.1-26.2C324.6,134.4,329.6,129.8,334.6,126.7 M343.7,110
			c-0.5,0-1,0.1-1.5,0.2c-9.1,2.6-23.1,9.1-31.8,25.2c-13.9,25.5-7.3,44.6,9,50.8c2.1,0.8,4.3,1.2,6.5,1.2
			c14.5,0,28.6-16.6,22.5-33.9c-4.6-13-1.9-28.2,0.5-37.3C349.7,113,347,110,343.7,110L343.7,110z"/>
	</g>
</g>
</svg>
