<?xml version="1.0" encoding="utf-8"?>
<!-- Generator: Adobe Illustrator 26.0.1, SVG Export Plug-In . SVG Version: 6.00 Build 0)  -->
<svg version="1.1" id="Layer_1" xmlns="http://www.w3.org/2000/svg" xmlns:xlink="http://www.w3.org/1999/xlink" x="0px" y="0px"
	 width="512px" height="512px" viewBox="0 0 512 512" style="enable-background:new 0 0 512 512;" xml:space="preserve">
<style type="text/css">
	.st0{fill:#FFFFFF;}
	.st1{fill:url(#SVGID_1_);}
	.st2{fill:url(#SVGID_00000172431738563797638900000017326057732053987773_);}
</style>
<g>
	<path class="st0" d="M345.2,79.6c-5,0-10,0.4-15,1l-1.5,0.2c-22.1,2.3-44.6,13.6-66.8,33.4c-2.1,1.9-4.2,3.8-6.1,5.6
		c-1.9-1.9-4-3.8-6.1-5.6c-22.3-19.7-44.8-30.9-66.9-33.2l-1.5-0.2c-4.9-0.6-9.8-0.9-14.7-0.9c-12.1,0-24.1,2.3-35.2,6.8
		c-14.5,5.9-27.7,15.5-39.4,28.6c-15.1,17-23.3,38-24.5,62.2c-1,20.7,3.4,39,7.3,50.7c16.5,49.9,66.9,104.1,69,106.4l0.7,0.7
		l94.4,92.7c4.5,4.4,10.8,7,17.4,7l0,0c6.6,0,12.8-2.5,17.4-7l94.1-93c0.2-0.2,0.5-0.5,0.7-0.7c2.1-2.3,52.3-56.7,68.7-106.6
		c6.7-20.5,18.5-72.5-17.5-112.9c-11.6-13-24.8-22.6-39.2-28.4C369.3,81.8,357.3,79.5,345.2,79.6z"/>
	
		<radialGradient id="SVGID_1_" cx="255.8827" cy="258.7951" r="182.7543" gradientTransform="matrix(1 0 0 -0.9389 0 496.4434)" gradientUnits="userSpaceOnUse">
		<stop  offset="0" style="stop-color:#DA0000"/>
		<stop  offset="0.2956" style="stop-color:#D60000"/>
		<stop  offset="0.5581" style="stop-color:#CC0000"/>
		<stop  offset="0.8072" style="stop-color:#BA0000"/>
		<stop  offset="0.9996" style="stop-color:#A60000"/>
	</radialGradient>
	<path class="st1" d="M110.3,129.7c29-32.9,59.3-27.4,69.8-26.3c31.4,3.2,59.6,32.2,70.7,45.1c2.7,3.1,7.4,3.1,10.1,0
		c11.1-12.9,39.1-42,70.5-45.3c10.5-1.1,40.7-6.6,69.9,26.1c26.4,29.7,20.2,69.6,13,91.8c-21.1,58.8-144.6,178.1-144.6,178.1
		c-7.4,7.4-19.4,7.4-26.9,0c0,0-114.1-104.9-145.2-177.8C90.3,199.4,84,159.4,110.3,129.7z"/>
	
		<linearGradient id="SVGID_00000075872550028673689030000016631414634645173676_" gradientUnits="userSpaceOnUse" x1="255.884" y1="389.8" x2="255.884" y2="132.4996" gradientTransform="matrix(1 0 0 -1 0 512)">
		<stop  offset="0" style="stop-color:#F03737"/>
		<stop  offset="0.3946" style="stop-color:#DA0000;stop-opacity:0"/>
	</linearGradient>
	<path style="fill:url(#SVGID_00000075872550028673689030000016631414634645173676_);" d="M345.3,122.2c15.4,0,28.8,6.7,41.1,20.4
		c8.6,9.7,13.3,21.9,14.1,36.5c0.8,14.8-2.8,28.5-5.1,35.6c-14.9,41-92,123.1-130.4,161.1c-4.9,4.9-12.8,4.9-17.7,0.2
		c-10.8-10.4-30.2-29.4-50.9-52c-40.4-44.1-68.1-81.9-80.1-109.6c-4.6-14.1-12.1-47.6,9-71.4c12.2-13.8,25.6-20.5,41-20.5
		c3.7,0,7,0.4,9.7,0.7c0.7,0.1,1.4,0.2,2,0.2c0,0,0,0,0.1,0c25.1,2.6,50.4,29.9,57.6,38.2l0.1,0.1c5.1,5.8,12.4,14.2,20.1,14.2
		s15-8.3,20.1-14.2l0.1-0.1c5.4-6.3,14-15.4,24.5-23.3c11.7-8.9,23.1-14.1,32.9-15.1c0.6-0.1,1.3-0.1,2-0.2
		C338.2,122.6,341.5,122.2,345.3,122.2"/>
</g>
</svg>
