<?xml version="1.0" encoding="utf-8"?>
<!-- Generator: Adobe Illustrator 24.0.3, SVG Export Plug-In . SVG Version: 6.00 Build 0)  -->
<svg version="1.1" xmlns="http://www.w3.org/2000/svg" xmlns:xlink="http://www.w3.org/1999/xlink" x="0px" y="0px"
	 viewBox="0 0 512 512" style="enable-background:new 0 0 512 512;" xml:space="preserve">
<style type="text/css">
	.st0{fill:none;}
	.st1{fill:#FFFFFF;}
	.st2{fill:#ED0F49;}
	.st3{fill:#FFEBCA;}
	.st4{fill:#9B4231;}
	.st5{fill:#EAB363;}
	.st6{opacity:0.2;enable-background:new    ;}
	.st7{fill:#F7B5E5;}
	.st8{fill:#F9437C;}
	.st9{fill:#FFD7E5;}
	.st10{fill:#FF76A0;}
	.st11{fill:#BBD5FF;}
	.st12{fill:#85BC00;}
	.st13{fill:#00D871;}
	.st14{fill:#FFA300;}
	.st15{fill:#FF99FF;}
	.st16{fill:#E20569;}
	.st17{fill:#4BE08E;}
	.st18{fill:#06FFEC;}
	.st19{fill:#FFA403;}
	.st20{fill:#76D1FF;}
	.st21{fill:#6F00FF;}
	.st22{fill:#0050C4;}
	.st23{fill:#9772D3;}
	.st24{fill:#FFE564;}
	.st25{clip-path:url(#SVGID_2_);fill:#E5E5E5;}
	.st26{clip-path:url(#SVGID_4_);fill:#008BD8;}
	.st27{clip-path:url(#SVGID_6_);fill:#008BD8;}
	.st28{clip-path:url(#SVGID_8_);fill:#008BD8;}
	.st29{fill:#FFC639;}
	.st30{fill:#FF7900;}
	.st31{clip-path:url(#SVGID_10_);fill:#E5E5E5;}
	.st32{clip-path:url(#SVGID_12_);fill:#008BD8;}
	.st33{clip-path:url(#SVGID_14_);fill:#008BD8;}
	.st34{clip-path:url(#SVGID_16_);fill:#008BD8;}
	.st35{clip-path:url(#SVGID_18_);fill:#E5E5E5;}
	.st36{clip-path:url(#SVGID_20_);fill:#008BD8;}
	.st37{clip-path:url(#SVGID_22_);fill:#008BD8;}
	.st38{clip-path:url(#SVGID_24_);fill:#008BD8;}
	.st39{fill:#CAEFFF;}
	.st40{opacity:0.1;}
	.st41{fill:#3C0000;}
	.st42{fill:#C00000;}
	.st43{fill:#23292D;}
	.st44{fill:#F2F2F2;}
	.st45{opacity:0.6;fill:#3C5366;}
	.st46{fill:#3C5366;}
	.st47{fill:#1B2A35;}
	.st48{fill:#7B0000;}
	.st49{fill:#9EC3F2;}
	.st50{fill:#4D84C1;}
	.st51{opacity:0.74;fill:#7B0000;}
	.st52{opacity:0.74;fill:#C00000;}
	.st53{fill:#CBDCF4;}
	.st54{fill:#500000;}
	.st55{fill:#56AAE8;}
	.st56{fill:#FF9999;}
	.st57{opacity:0.3;fill:#FFFFFF;}
	.st58{opacity:0.3;}
	.st59{fill:#F98706;}
	.st60{fill:#FFCC00;}
	.st61{fill:#0092DB;}
	.st62{fill:#00B7FF;}
	.st63{fill:#50D6FF;}
	.st64{fill:#88E0FF;}
	.st65{fill:#DDA800;}
	.st66{fill:#F4C42A;}
	.st67{fill:#FFDB4D;}
	.st68{opacity:0.4;fill:#441F00;}
	.st69{fill:#CE8032;}
	.st70{fill:#6B8900;}
	.st71{fill:#9AC400;}
	.st72{fill:#C2DD00;}
	.st73{opacity:0.2;}
	.st74{fill:#E6F1FF;}
	.st75{fill:#0B0B0C;}
	.st76{fill:#0080FF;}
	.st77{fill:#FFED83;}
	.st78{fill:#AA6500;}
	.st79{clip-path:url(#SVGID_26_);}
	.st80{opacity:0.2;fill:#48A0FF;}
	.st81{fill:#E27100;}
	.st82{fill:#FFB000;}
	.st83{fill:#FFAA00;}
	.st84{fill:#FFDF7B;}
	.st85{opacity:0.2;fill:#F98706;}
	.st86{fill:#B6E7FF;}
	.st87{fill:#D9F4FF;}
	.st88{fill:#379AF4;}
	.st89{fill:#8FD4FF;}
	.st90{fill:#5FBBFF;}
	.st91{opacity:0.2;fill:#379AF4;}
	.st92{fill:#FFF0C5;}
	.st93{fill:#7599BC;}
	.st94{fill:#1D1D38;}
	.st95{opacity:0.15;fill:#0B0019;}
	.st96{opacity:0.05;fill:#FFFFFF;}
	.st97{fill:#618099;}
	.st98{fill:#494968;}
	.st99{fill:#595972;}
	.st100{fill:#E9BC00;}
	.st101{opacity:0.5;}
	.st102{fill:#DDDFE4;}
	.st103{opacity:0.3;fill:#0B0019;}
	.st104{opacity:0.08;fill:#FFFFFF;}
	.st105{fill:#5A5A84;}
	.st106{fill:#B3B3CE;}
	.st107{fill:#FD1B64;}
	.st108{fill:#D6004D;}
	.st109{fill:#920006;}
	.st110{fill:#8585A8;}
	.st111{fill:#171723;}
	.st112{opacity:0.1;fill:#FFFFFF;}
	.st113{opacity:0.2;fill:#0B0019;}
	.st114{fill:#547D9B;}
	.st115{fill:#A1D5FF;}
	.st116{fill:#00254D;}
	.st117{opacity:0.1;fill:#3E0A75;}
	.st118{opacity:0.4;fill:#FFFFFF;}
	.st119{fill:#2D5171;}
	.st120{fill:#B88352;}
	.st121{fill:#EFC478;}
	.st122{fill:#76838E;}
	.st123{fill:#B7A1E2;}
	.st124{fill:#FF4385;}
	.st125{fill:#D30041;}
	.st126{fill:#ED065F;}
	.st127{opacity:0.8;fill:#FFFFFF;}
	.st128{fill:#5D422A;}
	.st129{opacity:0.3;fill:#3E0A75;}
	.st130{fill:#FF7187;}
	.st131{fill:#CE4A69;}
	.st132{fill:#444468;}
	.st133{fill:#1A1A23;}
	.st134{fill:#1F95DD;}
	.st135{fill:#DA0000;}
	.st136{fill:#2C2C4C;}
	.st137{fill:#BCBCE8;}
	.st138{fill:#222B33;}
	.st139{fill:#394854;}
	.st140{fill:#273544;}
	.st141{fill:#86A9BF;}
	.st142{fill:#F79984;}
	.st143{fill:#0A0F11;}
	.st144{fill:#E07868;}
	.st145{fill:#D35440;}
	.st146{fill:#FFC2B8;}
	.st147{fill:#A53A2F;}
	.st148{fill:#C64E36;}
	.st149{fill:#070000;}
	.st150{fill:#230200;}
	.st151{fill:#540000;}
	.st152{fill:#AF8F08;}
	.st153{fill:#16D8C0;}
	.st154{fill:#75EFDD;}
	.st155{fill:#00AF96;}
	.st156{fill:#00846E;}
	.st157{fill:#FFE161;}
	.st158{fill:#05C4A8;}
	.st159{fill:#F3E9FF;}
	.st160{fill:#FFC5DB;}
	.st161{fill:#E5D2FF;}
	.st162{fill:#CDB3FF;}
	.st163{opacity:0.2;fill:#3E0A75;}
	.st164{fill:#A8003D;}
	.st165{fill:#AA6D35;}
	.st166{fill:#FFD6B8;}
	.st167{fill:#FFE697;}
	.st168{fill:#FFDD88;}
	.st169{fill:#FF5986;}
	.st170{opacity:0.4;fill:#C40059;}
	.st171{fill:#CC004E;}
	.st172{fill:#2D2D2D;}
	.st173{opacity:0.6;}
	.st174{fill:#3D3D3D;}
	.st175{fill:#4F4F4F;}
	.st176{fill:#636363;}
	.st177{fill:#E9F5FF;}
	.st178{fill:#C1E0F4;}
	.st179{fill:#E50000;}
	.st180{fill:#FF7373;}
	.st181{fill:#F25F5F;}
	.st182{fill:#FFB200;}
	.st183{opacity:0.5;fill:#FF7373;}
	.st184{fill:#FFCF7B;}
	.st185{fill:#00CEC3;}
	.st186{fill:#00EAD9;}
	.st187{fill:#00A599;}
	.st188{fill:#007F73;}
	.st189{fill:#DD5050;}
	.st190{fill:#FFA6A6;}
	.st191{fill:#45793B;}
	.st192{fill:#35612A;}
	.st193{fill:#235317;}
	.st194{fill:#5E8F44;}
	.st195{fill:#65954D;}
	.st196{fill:#930000;}
	.st197{fill:#F00000;}
	.st198{fill:#EAB80D;}
	.st199{fill:#FFD226;}
</style>
<g id="Credits_10_Birthday">
</g>
<g id="Credits_5000">
</g>
<g id="Credits_3000">
</g>
<g id="Credits_2000">
</g>
<g id="Credits_1000">
</g>
<g id="Credits_750">
</g>
<g id="Credits_500">
</g>
<g id="Credits_300">
</g>
<g id="Credits_200">
</g>
<g id="Credits_100">
</g>
<g id="Credits_75">
	<rect class="st0" width="512" height="512"/>
	<g id="_x37_5Credits">
		<g>
			<path class="st42" d="M177.077,67.448c0,0-57.946,47.986-32.595,103.216c0,0,7.243,15.392,7.243,41.649
				s5.432,139.432,5.432,139.432h13.581V211.407l4.527-9.054c0,0,43.459,25.351,58.851,63.378c0,0,29.878,56.135,52.513,78.77
				c0,0,5.432,11.77,28.973,14.486s88.73,6.338,154.824-9.959c0,0,9.054-12.676-16.297-24.446
				c-25.351-11.77-69.716-35.311-69.716-35.311s-58.851,12.676-76.959-19.919s-45.27-95.973-60.662-119.513
				S187.942,78.313,177.077,67.448z"/>
			<path class="st149" d="M175.267,202.353c0,0-9.054-7.243-9.054,3.622c0,10.865,0.905,138.527,0.905,138.527h3.622V216.56
				c0-3.389,0.789-6.731,2.304-9.762l0,0L175.267,202.353z"/>
			<path class="st150" d="M182.51,79.219c0,0,36.216,38.932,73.338,143.054c0,0,33.5,83.297,72.432,87.824
				s54.324-17.203,54.324-17.203s-58.082,9.176-75.467-15.392c-21.142-29.878-47.986-95.973-47.986-95.973
				S242.854,138.07,182.51,79.219z"/>
			<rect x="156.84" y="344.502" class="st149" width="13.581" height="7.243"/>
			<path class="st56" d="M461.961,346.313c0,0,10.865-8.149-15.392-20.824c-26.257-12.676-59.757-29.878-59.757-29.878
				s-0.905,9.959-24.446,16.297C362.367,311.907,460.151,320.961,461.961,346.313z"/>
			<path class="st58" d="M402.205,333.637c-59.757-9.959-104.121,0.905-135.81-64.284
				c-31.688-65.187-75.635-156.444-118.396-165.142c-9.459,18.208-14.925,41.596-3.515,66.453c0,0,7.243,15.392,7.243,41.649
				s5.432,139.432,5.432,139.432h13.581V211.407l4.527-9.054c0,0,43.459,25.351,58.851,63.378c0,0,29.878,56.135,52.513,78.77
				c0,0,5.432,11.77,28.973,14.486c17.713,2.044,59.007,4.599,106.524-1.204C432.435,350.301,438.314,339.655,402.205,333.637z"/>
			<path class="st56" d="M154.124,175.191c0,0-29.878-42.554,20.824-95.973l2.716,3.622c0,0-54.324,47.081-7.243,105.932
				L154.124,175.191z"/>
		</g>
		<path class="st42" d="M263.229,365.791c0,0-29.351-15.182-81.982-122.467s-84.006-119.43-84.006-119.43
			s-17.206-10.121-40.485,34.412c0,0-24.291,38.461-14.17,64.776s33.4,64.776,29.351,203.436H87.12c0,0-3.036-70.848,15.182-118.418
			c0,0,18.218,35.424,26.315,80.97c8.097,45.545,32.388,53.642,59.715,54.655c27.327,1.012,104.248,3.036,124.491-8.097
			c20.242-11.133,20.242-27.327-10.121-45.545C272.338,371.864,263.229,365.791,263.229,365.791z"/>
		<path class="st58" d="M177.8,412.458c-49.594-23.279-51.939-83.381-83.801-170.276c-9.806-26.745-24.962-73.994-41.9-75.777
			c-2.375,3.635-8.915,18.721-9.806,25.853c0,0-5.349,16.047,0.294,30.824c10.058,26.339,33.4,64.776,29.351,203.436H87.12
			c0,0-3.036-70.848,15.182-118.418c0,0,18.218,35.424,26.315,80.97c8.097,45.545,32.388,53.642,59.715,54.655
			c24.499,0.907,88.852,2.626,116.496-5.05C293.003,410.886,219.413,431.991,177.8,412.458z"/>
		<path class="st151" d="M102.302,308.1c0,0-10.121-24.291-32.388-48.582c0,0-10.121,0,0,39.473s6.073,122.467,6.073,122.467
			l10.996-0.206C86.983,421.252,87.12,340.488,102.302,308.1z"/>
		<path class="st150" d="M251.083,380.973c0,0-81.982,18.218-105.261-32.388s-34.412-132.588-34.412-132.588
			s-5.061-33.4-20.242-70.848c0,0-10.121-14.17,0-16.194c10.121-2.024,36.436,27.327,72.873,93.115s57.691,112.345,85.018,139.673
			C249.059,361.743,274.362,377.937,251.083,380.973z"/>
		<path class="st56" d="M319.908,421.458c0,0,5.061-22.267-54.654-44.533c0,0,5.061,8.097-27.327,9.109
			C237.926,386.034,289.544,388.058,319.908,421.458z"/>
		<path class="st56" d="M159.993,373.888c0,0,14.17,9.109,34.412,13.158C194.405,387.046,171.126,393.118,159.993,373.888z"/>
		<path class="st56" d="M84.084,142.113c0,0,16.194,21.255,26.315,91.091c0,0-2.115,6.271-3.036-2.024
			C106.35,222.07,94.205,163.367,84.084,142.113z"/>
		<path class="st151" d="M103.806,181.56c0,0,35.66,31.202,73.994,121.244s73.103,78.452,73.103,78.452
			s-75.951,17.648-103.501-29.51c0,0-20.349-37.676-30.635-103.931C116.767,247.814,110.046,206.522,103.806,181.56z"/>
	</g>
</g>
<g id="Credits_50">
</g>
<g id="Credits_25">
</g>
<g id="Credits_10">
</g>
<g id="Credits_5">
</g>
<g id="Credits_1">
</g>
</svg>
