<?xml version="1.0" encoding="UTF-8"?>
<svg width="417px" height="382px" viewBox="0 0 417 382" version="1.1" xmlns="http://www.w3.org/2000/svg" xmlns:xlink="http://www.w3.org/1999/xlink">
    <title>Group</title>
    <g id="Symbols" stroke="none" stroke-width="1" fill="none" fill-rule="evenodd">
        <g id="Surprise/Original/25_AB_1" transform="translate(-47.000000, -65.000000)" fill-rule="nonzero">
            <g id="Group" transform="translate(47.000000, 65.000000)">
                <path d="M196.7,70.8 C202,62.7 207,54.1 213,46.2 C227.5,27.1 245.4,12.1 268.8,5.5 C301.4,-3.7 332.5,1.2 360.8,19.7 C394.8,41.9 411.7,74.2 413.2,114.6 C414.6,151.7 403,185.6 386,217.8 C362.1,262.9 329.7,301.7 294.1,337.8 C280.2,351.9 265.4,365.3 251.1,379.1 C249.2,380.9 247.7,381.8 244.9,380.6 C195.6,359.1 147.7,335 103.9,303.4 C75.4,282.8 49.4,259.5 29.3,230.3 C13.4,207.2 2.5,182.2 0.4,153.9 C-3.1,108.8 21.8,64.7 62.4,44.3 C101,24.9 137.9,29.4 173.2,52.7 C181.3,58.1 188.8,64.7 196.7,70.8 Z" id="Path" fill="#A8003D"></path>
                <path d="M209.6,74.9 C214.7,67.2 219.5,59 225.2,51.5 C239,33.3 256.1,18.9 278.5,12.6 C309.7,3.8 339.3,8.5 366.4,26.2 C398.9,47.4 415,78.3 416.4,116.8 C417.7,152.2 406.7,184.6 390.4,215.4 C367.6,258.5 336.7,295.5 302.6,330 C289.3,343.5 275.2,356.3 261.5,369.4 C259.7,371.1 258.2,372 255.6,370.8 C208.5,350.3 162.8,327.3 121,297.1 C93.8,277.2 69,255 49.8,227.2 C34.6,205.2 24.3,181.3 22.2,154.3 C18.9,111.3 42.6,69.1 81.4,49.6 C118.2,31.1 153.5,35.4 187.2,57.6 C194.9,62.8 202,69.1 209.6,74.9 Z" id="Path" fill="#FF4385"></path>
                <g opacity="0.8" transform="translate(269.000000, 23.000000)" fill="#FFD7E5" id="Path">
                    <path d="M109,44.3 C107.9,44.3 106.8,43.7 106.2,42.6 C100.8,33.1 93,25 83,18.5 C65.5,7 46.4,4 26.2,9.7 C19,11.7 12.2,15.3 6,20.2 C4.6,21.3 2.5,21.1 1.3,19.7 C0.2,18.3 0.4,16.2 1.8,15 C8.7,9.6 16.3,5.6 24.4,3.4 C46.5,-2.8 67.4,0.4 86.7,13 C97.6,20.1 106.1,29 112,39.4 C112.9,41 112.3,43 110.8,43.9 C110.2,44.2 109.6,44.3 109,44.3 Z"></path>
                </g>
                <path d="M190.8,329.4 C211.8,344.6 233.7,358.3 256.1,370.8 C255.9,370.7 255.7,370.7 255.6,370.6 C208.5,350.1 162.8,327 121,296.9 C93.8,277.2 69,255 49.8,227.1 C34.6,205.1 24.3,181.2 22.2,154.2 C18.9,111.2 42.6,69 81.4,49.5 C100.5,39.9 119.2,36.4 137.4,38.4 C95,62.8 69.4,110.7 73.2,159.6 C75.7,191.7 88,220.2 106.1,246.4 C128.9,279.6 158.4,306 190.8,329.4 Z" id="Path" fill="#D30041"></path>
                <path d="M258.5,371.1 C257.8,371.2 257,371.2 256.1,370.9 C233.6,358.3 211.8,344.7 190.8,329.5 C158.4,306.1 128.9,279.6 106,246.5 C87.9,220.3 75.6,191.9 73.1,159.7 C69.3,110.8 94.9,62.9 137.3,38.5 C151.7,40.1 165.9,45 179.8,53.1 C179.5,53.3 179.2,53.4 178.9,53.6 C132.6,76.9 104.2,127.3 108.1,178.8 C110.6,211.1 123,239.7 141.2,266 C164.2,299.3 193.9,325.9 226.4,349.4 C236.9,357 247.6,364.2 258.5,371.1 Z" id="Path" fill="#ED065F"></path>
                <g transform="translate(80.000000, 90.000000)">
                    <g transform="translate(0.000000, 4.000000)" fill="#A8003D">
                        <polygon id="Path" points="0.5 44.3 13.1 42.1 22.8 98.6 10.2 100.8"></polygon>
                        <polygon id="Path" points="49.8 35.8 62.4 33.6 70 78 99.5 72.9 101.6 85.1 59.6 92.3"></polygon>
                        <path d="M133.3,81.3 C119.3,83.7 103.4,76.1 100,56.4 C96.5,36 109.2,24 123.1,21.6 C137.1,19.2 153.1,27.3 156.5,46.9 C159.8,66.7 147.2,78.9 133.3,81.3 Z M125.1,33.9 C114.4,35.7 110.2,44.6 111.9,54.6 C113.5,64 120.4,70.9 131.2,69.1 C141.9,67.3 146.2,58.7 144.5,49 C142.8,39.2 135.8,32.1 125.1,33.9 Z" id="Shape"></path>
                        <polygon id="Path" points="185.7 70.9 153.6 20 153.2 18.1 165.6 16 187.6 52.6 195.7 10.9 207.7 8.8 208 10.7 195.5 69.2"></polygon>
                        <path d="M214.5,7.6 L254.1,0.8 L256.1,12.4 L229.1,17 C229.7,20.7 230.3,24.4 230.9,28.2 L253.8,24.3 L255.7,35.6 L232.9,39.5 L234.7,50.2 L262.6,45.4 L264.6,57.1 L224,64.1 L214.5,7.6 Z" id="Path"></path>
                        <polygon id="Path" points="101.2 184.4 88.5 186.6 84.8 164.8 60.8 135.4 60.4 133.2 72.8 131.1 90 152.2 98.4 126.7 109.9 124.7 110.3 126.8 97.5 163.1"></polygon>
                        <path d="M148.9,177.8 C134.9,180.2 119,172.6 115.6,152.9 C112.1,132.5 124.8,120.5 138.7,118.1 C152.7,115.7 168.7,123.8 172.1,143.4 C175.4,163.2 162.8,175.4 148.9,177.8 Z M140.8,130.4 C130.1,132.2 125.9,141.1 127.6,151.1 C129.2,160.5 136.1,167.4 146.9,165.6 C157.6,163.8 161.9,155.2 160.2,145.5 C158.4,135.6 151.4,128.5 140.8,130.4 Z" id="Shape"></path>
                        <path d="M209.8,166.6 C194.1,169.3 182.5,159.6 179.6,141.9 C178,132.6 176.4,122.8 174.8,113.6 L187.1,111.5 L191.7,138.4 C193.9,151.1 200,155.3 207.6,154 C214.5,152.8 218.8,145.4 216.8,133.8 L212.2,107.2 L224.6,105.1 L229.3,132.7 C232.5,150.9 225.1,164 209.8,166.6 Z" id="Path"></path>
                    </g>
                    <g transform="translate(5.000000, 0.000000)" fill="#FFFFFF">
                        <polygon id="Path" points="0.1 43.6 12.7 41.4 22.4 97.9 9.8 100.1"></polygon>
                        <polygon id="Path" points="49.5 35.1 62.1 32.9 69.7 77.3 99.2 72.2 101.3 84.4 59.3 91.6"></polygon>
                        <path d="M132.9,80.6 C118.9,83 103,75.4 99.6,55.7 C96.1,35.3 108.8,23.3 122.7,20.9 C136.7,18.5 152.7,26.6 156.1,46.2 C159.5,66 146.9,78.2 132.9,80.6 Z M124.8,33.2 C114.1,35 109.9,43.9 111.6,53.9 C113.2,63.3 120.1,70.2 130.9,68.4 C141.6,66.6 145.9,58 144.2,48.3 C142.5,38.4 135.5,31.3 124.8,33.2 Z" id="Shape"></path>
                        <polygon id="Path" points="185.4 70.2 153.3 19.3 152.9 17.4 165.3 15.3 187.3 51.9 195.4 10.2 207.4 8.1 207.7 10 195.2 68.5"></polygon>
                        <path d="M214.1,6.9 L253.7,0.1 L255.7,11.7 L228.7,16.3 C229.3,20 229.9,23.7 230.5,27.5 L253.4,23.6 L255.3,34.9 L232.5,38.8 L234.3,49.5 L262.2,44.7 L264.2,56.4 L223.6,63.4 L214.1,6.9 Z" id="Path"></path>
                        <polygon id="Path" points="100.9 183.6 88.2 185.8 84.5 164 60.5 134.6 60.1 132.4 72.5 130.3 89.7 151.4 98.1 125.9 109.6 123.9 110 126 97.2 162.3"></polygon>
                        <path d="M148.5,177 C134.5,179.4 118.6,171.8 115.2,152.1 C111.7,131.7 124.4,119.7 138.3,117.3 C152.3,114.9 168.3,123 171.7,142.6 C175.1,162.5 162.5,174.7 148.5,177 Z M140.4,129.6 C129.7,131.4 125.5,140.3 127.2,150.3 C128.8,159.7 135.7,166.6 146.5,164.8 C157.2,163 161.5,154.4 159.8,144.7 C158.1,134.9 151.1,127.8 140.4,129.6 Z" id="Shape"></path>
                        <path d="M209.5,165.9 C193.8,168.6 182.2,158.9 179.3,141.2 C177.7,131.9 176.1,122.1 174.5,112.9 L186.8,110.8 L191.4,137.7 C193.6,150.4 199.7,154.6 207.3,153.3 C214.2,152.1 218.5,144.7 216.5,133.1 L211.9,106.5 L224.3,104.4 L229,132 C232.2,150.2 224.7,163.2 209.5,165.9 Z" id="Path"></path>
                    </g>
                </g>
                <circle id="Oval" fill="#FFD7E5" opacity="0.8" cx="387.1" cy="78.6" r="4.9"></circle>
            </g>
        </g>
    </g>
</svg>