<?xml version="1.0" encoding="utf-8"?>
<!-- Generator: Adobe Illustrator 24.0.3, SVG Export Plug-In . SVG Version: 6.00 Build 0)  -->
<svg version="1.1" xmlns="http://www.w3.org/2000/svg" xmlns:xlink="http://www.w3.org/1999/xlink" x="0px" y="0px"
	 viewBox="0 0 512 512" style="enable-background:new 0 0 512 512;" xml:space="preserve">
<style type="text/css">
	.st0{fill:none;}
	.st1{fill:#FFFFFF;}
	.st2{fill:#ED0F49;}
	.st3{fill:#FFEBCA;}
	.st4{fill:#9B4231;}
	.st5{fill:#EAB363;}
	.st6{opacity:0.2;enable-background:new    ;}
	.st7{fill:#F7B5E5;}
	.st8{fill:#F9437C;}
	.st9{fill:#FFD7E5;}
	.st10{fill:#FF76A0;}
	.st11{fill:#BBD5FF;}
	.st12{fill:#85BC00;}
	.st13{fill:#00D871;}
	.st14{fill:#FFA300;}
	.st15{fill:#FF99FF;}
	.st16{fill:#E20569;}
	.st17{fill:#4BE08E;}
	.st18{fill:#06FFEC;}
	.st19{fill:#FFA403;}
	.st20{fill:#76D1FF;}
	.st21{fill:#6F00FF;}
	.st22{fill:#0050C4;}
	.st23{fill:#9772D3;}
	.st24{fill:#FFE564;}
	.st25{clip-path:url(#SVGID_2_);fill:#E5E5E5;}
	.st26{clip-path:url(#SVGID_4_);fill:#008BD8;}
	.st27{clip-path:url(#SVGID_6_);fill:#008BD8;}
	.st28{clip-path:url(#SVGID_8_);fill:#008BD8;}
	.st29{fill:#FFC639;}
	.st30{fill:#FF7900;}
	.st31{clip-path:url(#SVGID_10_);fill:#E5E5E5;}
	.st32{clip-path:url(#SVGID_12_);fill:#008BD8;}
	.st33{clip-path:url(#SVGID_14_);fill:#008BD8;}
	.st34{clip-path:url(#SVGID_16_);fill:#008BD8;}
	.st35{clip-path:url(#SVGID_18_);fill:#E5E5E5;}
	.st36{clip-path:url(#SVGID_20_);fill:#008BD8;}
	.st37{clip-path:url(#SVGID_22_);fill:#008BD8;}
	.st38{clip-path:url(#SVGID_24_);fill:#008BD8;}
	.st39{fill:#CAEFFF;}
	.st40{opacity:0.1;}
	.st41{fill:#3C0000;}
	.st42{fill:#C00000;}
	.st43{fill:#23292D;}
	.st44{fill:#F2F2F2;}
	.st45{opacity:0.6;fill:#3C5366;}
	.st46{fill:#3C5366;}
	.st47{fill:#1B2A35;}
	.st48{fill:#7B0000;}
	.st49{fill:#9EC3F2;}
	.st50{fill:#4D84C1;}
	.st51{opacity:0.74;fill:#7B0000;}
	.st52{opacity:0.74;fill:#C00000;}
	.st53{fill:#CBDCF4;}
	.st54{fill:#500000;}
	.st55{fill:#56AAE8;}
	.st56{fill:#FF9999;}
	.st57{opacity:0.3;fill:#FFFFFF;}
	.st58{opacity:0.3;}
	.st59{fill:#F98706;}
	.st60{fill:#FFCC00;}
	.st61{fill:#0092DB;}
	.st62{fill:#00B7FF;}
	.st63{fill:#50D6FF;}
	.st64{fill:#88E0FF;}
	.st65{fill:#DDA800;}
	.st66{fill:#F4C42A;}
	.st67{fill:#FFDB4D;}
	.st68{opacity:0.4;fill:#441F00;}
	.st69{fill:#CE8032;}
	.st70{fill:#6B8900;}
	.st71{fill:#9AC400;}
	.st72{fill:#C2DD00;}
	.st73{opacity:0.2;}
	.st74{fill:#E6F1FF;}
	.st75{fill:#0B0B0C;}
	.st76{fill:#0080FF;}
	.st77{fill:#FFED83;}
	.st78{fill:#AA6500;}
	.st79{clip-path:url(#SVGID_26_);}
	.st80{opacity:0.2;fill:#48A0FF;}
	.st81{fill:#E27100;}
	.st82{fill:#FFB000;}
	.st83{fill:#FFAA00;}
	.st84{fill:#FFDF7B;}
	.st85{opacity:0.2;fill:#F98706;}
	.st86{fill:#B6E7FF;}
	.st87{fill:#D9F4FF;}
	.st88{fill:#379AF4;}
	.st89{fill:#8FD4FF;}
	.st90{fill:#5FBBFF;}
	.st91{opacity:0.2;fill:#379AF4;}
	.st92{fill:#FFF0C5;}
	.st93{fill:#7599BC;}
	.st94{fill:#1D1D38;}
	.st95{opacity:0.15;fill:#0B0019;}
	.st96{opacity:0.05;fill:#FFFFFF;}
	.st97{fill:#618099;}
	.st98{fill:#494968;}
	.st99{fill:#595972;}
	.st100{fill:#E9BC00;}
	.st101{opacity:0.5;}
	.st102{fill:#DDDFE4;}
	.st103{opacity:0.3;fill:#0B0019;}
	.st104{opacity:0.08;fill:#FFFFFF;}
	.st105{fill:#5A5A84;}
	.st106{fill:#B3B3CE;}
	.st107{fill:#FD1B64;}
	.st108{fill:#D6004D;}
	.st109{fill:#920006;}
	.st110{fill:#8585A8;}
	.st111{fill:#171723;}
	.st112{opacity:0.1;fill:#FFFFFF;}
	.st113{opacity:0.2;fill:#0B0019;}
	.st114{fill:#547D9B;}
	.st115{fill:#A1D5FF;}
	.st116{fill:#00254D;}
	.st117{opacity:0.1;fill:#3E0A75;}
	.st118{opacity:0.4;fill:#FFFFFF;}
	.st119{fill:#2D5171;}
	.st120{fill:#B88352;}
	.st121{fill:#EFC478;}
	.st122{fill:#76838E;}
	.st123{fill:#B7A1E2;}
	.st124{fill:#FF4385;}
	.st125{fill:#D30041;}
	.st126{fill:#ED065F;}
	.st127{opacity:0.8;fill:#FFFFFF;}
	.st128{fill:#5D422A;}
	.st129{opacity:0.3;fill:#3E0A75;}
	.st130{fill:#FF7187;}
	.st131{fill:#CE4A69;}
	.st132{fill:#444468;}
	.st133{fill:#1A1A23;}
	.st134{fill:#1F95DD;}
	.st135{fill:#DA0000;}
	.st136{fill:#2C2C4C;}
	.st137{fill:#BCBCE8;}
	.st138{fill:#222B33;}
	.st139{fill:#394854;}
	.st140{fill:#273544;}
	.st141{fill:#86A9BF;}
	.st142{fill:#F79984;}
	.st143{fill:#0A0F11;}
	.st144{fill:#E07868;}
	.st145{fill:#D35440;}
	.st146{fill:#FFC2B8;}
	.st147{fill:#A53A2F;}
	.st148{fill:#C64E36;}
	.st149{fill:#070000;}
	.st150{fill:#230200;}
	.st151{fill:#540000;}
	.st152{fill:#AF8F08;}
	.st153{fill:#16D8C0;}
	.st154{fill:#75EFDD;}
	.st155{fill:#00AF96;}
	.st156{fill:#00846E;}
	.st157{fill:#FFE161;}
	.st158{fill:#05C4A8;}
	.st159{fill:#F3E9FF;}
	.st160{fill:#FFC5DB;}
	.st161{fill:#E5D2FF;}
	.st162{fill:#CDB3FF;}
	.st163{opacity:0.2;fill:#3E0A75;}
	.st164{fill:#A8003D;}
	.st165{fill:#AA6D35;}
	.st166{fill:#FFD6B8;}
	.st167{fill:#FFE697;}
	.st168{fill:#FFDD88;}
	.st169{fill:#FF5986;}
	.st170{opacity:0.4;fill:#C40059;}
	.st171{fill:#CC004E;}
	.st172{fill:#2D2D2D;}
	.st173{opacity:0.6;}
	.st174{fill:#3D3D3D;}
	.st175{fill:#4F4F4F;}
	.st176{fill:#636363;}
	.st177{fill:#E9F5FF;}
	.st178{fill:#C1E0F4;}
	.st179{fill:#E50000;}
	.st180{fill:#FF7373;}
	.st181{fill:#F25F5F;}
	.st182{fill:#FFB200;}
	.st183{opacity:0.5;fill:#FF7373;}
	.st184{fill:#FFCF7B;}
	.st185{fill:#00CEC3;}
	.st186{fill:#00EAD9;}
	.st187{fill:#00A599;}
	.st188{fill:#007F73;}
	.st189{fill:#DD5050;}
	.st190{fill:#FFA6A6;}
	.st191{fill:#45793B;}
	.st192{fill:#35612A;}
	.st193{fill:#235317;}
	.st194{fill:#5E8F44;}
	.st195{fill:#65954D;}
	.st196{fill:#930000;}
	.st197{fill:#F00000;}
	.st198{fill:#EAB80D;}
	.st199{fill:#FFD226;}
</style>
<g id="Credits_10_Birthday">
</g>
<g id="Credits_5000">
</g>
<g id="Credits_3000">
</g>
<g id="Credits_2000">
</g>
<g id="Credits_1000">
</g>
<g id="Credits_750">
</g>
<g id="Credits_500">
	<rect class="st0" width="512" height="512"/>
	<g>
		<g>
			<path class="st105" d="M313.989,44.078c2.298-0.221,4.584,0.129,6.75,0.948c2.165,0.819,4.21,2.108,6.03,3.769
				c1.819,1.66,3.413,3.692,4.674,5.999c1.261,2.306,2.191,4.887,2.682,7.645l30.384,170.784c0.498,2.799,0.51,5.531,0.104,8.074
				c-0.406,2.545-1.23,4.901-2.404,6.949c-1.174,2.049-2.699,3.789-4.505,5.098c-1.807,1.31-3.897,2.188-6.199,2.512L92.743,292.24
				c-2.556,0.359-5.093,0.099-7.493-0.679c-2.401-0.779-4.664-2.078-6.668-3.794c-2.005-1.717-3.752-3.851-5.119-6.301
				c-1.368-2.45-2.356-5.214-2.845-8.19L40.767,91.823c-0.482-2.929-0.42-5.77,0.103-8.399c0.523-2.627,1.508-5.041,2.872-7.119
				c1.363-2.076,3.105-3.817,5.144-5.099c2.037-1.281,4.37-2.105,6.919-2.349L313.989,44.078z"/>
		</g>
		<g>
			<path class="st106" d="M321.649,43.065c2.298-0.221,4.584,0.129,6.75,0.948c2.165,0.819,4.21,2.108,6.03,3.769
				c1.819,1.66,3.413,3.692,4.674,5.999c1.261,2.306,2.191,4.887,2.682,7.645l30.384,170.784c0.498,2.799,0.51,5.531,0.104,8.074
				c-0.406,2.545-1.23,4.901-2.404,6.949c-1.174,2.049-2.699,3.789-4.505,5.098c-1.807,1.31-3.897,2.188-6.199,2.512
				l-258.763,36.384c-2.556,0.359-5.093,0.099-7.493-0.679c-2.401-0.779-4.664-2.078-6.668-3.794
				c-2.005-1.717-3.752-3.851-5.119-6.301c-1.368-2.45-2.356-5.214-2.845-8.19L48.427,90.81c-0.482-2.929-0.42-5.77,0.103-8.399
				c0.523-2.627,1.508-5.041,2.872-7.119c1.363-2.076,3.105-3.817,5.144-5.099c2.037-1.281,4.37-2.105,6.919-2.349L321.649,43.065z"
				/>
		</g>
		<g>
			<path class="st94" d="M319.137,49.123c2.167-0.208,4.322,0.121,6.365,0.894c2.041,0.772,3.971,1.988,5.687,3.555
				c1.715,1.566,3.218,3.482,4.408,5.657c1.19,2.175,2.066,4.608,2.529,7.21l28.653,161.053c0.47,2.64,0.481,5.216,0.098,7.614
				c-0.383,2.4-1.16,4.622-2.267,6.553c-1.108,1.932-2.545,3.573-4.248,4.808c-1.704,1.235-3.675,2.063-5.845,2.369l-247.85,35.324
				c-2.41,0.339-4.803,0.094-7.066-0.641c-2.264-0.735-4.398-1.959-6.288-3.578c-1.891-1.619-3.538-3.632-4.827-5.942
				c-1.29-2.31-2.222-4.917-2.683-7.723L57.651,95.162c-0.454-2.763-0.396-5.442,0.097-7.92c0.493-2.477,1.422-4.754,2.708-6.714
				c1.285-1.958,2.928-3.599,4.851-4.809c1.921-1.208,4.121-1.985,6.525-2.216L319.137,49.123z"/>
		</g>
		<g>
			<path class="st107" d="M297.387,155.881c0,0-30.631-27.697-43.65-34.562c-13.019-6.865-20.027,1.464-29.938,6.661
				c0,0-5.403,4.713-13.588,0.772c-8.185-3.941-21.717-9.373-33.998,5.031s-25.718,30.31-31.438,38.5
				c0,0,7.711,32.915,45.396,39.195s49.9-8.806,64.373-20.692C269.019,178.901,297.387,155.881,297.387,155.881z"/>
			<path class="st108" d="M253.737,121.32c-13.019-6.865-20.027,1.464-29.938,6.661c0,0-2.091,1.822-5.639,2.252l7.655,79.805
				c12.525-4.217,20.243-12.281,28.73-19.251c14.474-11.885,42.842-34.905,42.842-34.905S266.756,128.184,253.737,121.32z"/>
			<path class="st1" d="M263.707,157.435c0,0-19.599-14.421-36.583-1.577c0,0-4.05,5.256-12.169,1.997
				c-8.119-3.259-19.207-10.331-41.584,14.11c0,0,8.783,16.961,40.185-1.564C213.556,170.4,249.55,165.843,263.707,157.435z"/>
			<path class="st109" d="M173.41,172.037c0.656,1.159,9.927,16.19,40.145-1.637C191.622,173.782,178.631,172.775,173.41,172.037z"
				/>
		</g>
		<path class="st110" d="M467.139,394.583l-262.149,61.983c-7.307,1.728-14.713-1.39-20.845-8.776L91.99,304.625
			c-2.774-3.341-1.772-11.11,1.534-11.892l259.799-37.581c8.683-2.053,17.484,1.652,24.771,10.428l90.711,116.09
			C471.816,385.298,470.728,393.735,467.139,394.583z"/>
		<g>
			<path class="st111" d="M155.907,319.653l-19.713,3.765c-0.549,0.105-1.092-0.151-1.528-0.722l-7.279-9.533
				c-0.197-0.258-0.1-0.834,0.149-0.881l19.614-3.746c0.653-0.125,1.298,0.18,1.815,0.858l7.103,9.302
				C156.283,318.976,156.177,319.601,155.907,319.653z"/>
			<path class="st111" d="M185.677,314.065l-19.713,3.765c-0.549,0.105-1.092-0.151-1.528-0.722l-7.279-9.533
				c-0.197-0.258-0.1-0.834,0.149-0.881l19.614-3.746c0.653-0.125,1.298,0.18,1.815,0.858l7.103,9.302
				C186.052,313.388,185.947,314.013,185.677,314.065z"/>
			<path class="st111" d="M215.447,308.477l-19.713,3.765c-0.55,0.105-1.092-0.151-1.528-0.722l-7.279-9.533
				c-0.197-0.258-0.1-0.834,0.149-0.881l19.614-3.746c0.653-0.125,1.298,0.18,1.815,0.858l7.103,9.302
				C215.822,307.8,215.717,308.425,215.447,308.477z"/>
			<path class="st111" d="M245.217,302.888l-19.713,3.765c-0.549,0.105-1.092-0.151-1.528-0.722l-7.279-9.533
				c-0.197-0.258-0.1-0.834,0.149-0.881l19.614-3.746c0.653-0.125,1.298,0.18,1.815,0.858l7.103,9.302
				C245.592,302.212,245.486,302.837,245.217,302.888z"/>
			<path class="st111" d="M274.986,297.3l-19.713,3.765c-0.549,0.105-1.092-0.151-1.528-0.722l-7.279-9.533
				c-0.197-0.258-0.1-0.834,0.149-0.881l19.614-3.746c0.653-0.125,1.298,0.18,1.815,0.858l7.103,9.302
				C275.362,296.624,275.256,297.249,274.986,297.3z"/>
			<path class="st111" d="M304.756,291.712l-19.713,3.765c-0.549,0.105-1.092-0.152-1.528-0.722l-7.279-9.533
				c-0.197-0.258-0.1-0.834,0.149-0.881L296,280.596c0.653-0.125,1.298,0.18,1.815,0.858l7.103,9.302
				C305.132,291.036,305.026,291.661,304.756,291.712z"/>
			<path class="st111" d="M334.526,286.124l-19.713,3.765c-0.549,0.105-1.092-0.152-1.528-0.722l-7.279-9.533
				c-0.197-0.258-0.1-0.834,0.149-0.881l19.614-3.746c0.653-0.125,1.298,0.18,1.815,0.858l7.103,9.302
				C334.902,285.447,334.796,286.072,334.526,286.124z"/>
			<path class="st111" d="M364.296,280.536l-19.713,3.765c-0.549,0.105-1.092-0.151-1.528-0.722l-7.279-9.533
				c-0.197-0.258-0.1-0.834,0.149-0.881l19.614-3.746c0.653-0.125,1.298,0.18,1.815,0.858l7.103,9.302
				C364.671,279.859,364.566,280.484,364.296,280.536z"/>
		</g>
		<g>
			<path class="st111" d="M172.366,337.595l-19.713,3.765c-0.549,0.105-1.092-0.152-1.528-0.722l-7.279-9.533
				c-0.197-0.258-0.1-0.834,0.149-0.881l19.614-3.746c0.653-0.125,1.298,0.18,1.815,0.858l7.103,9.302
				C172.742,336.918,172.636,337.543,172.366,337.595z"/>
			<path class="st111" d="M202.136,332.007l-19.713,3.765c-0.549,0.105-1.092-0.152-1.528-0.722l-7.279-9.533
				c-0.197-0.258-0.1-0.834,0.149-0.881l19.614-3.746c0.653-0.125,1.298,0.18,1.815,0.858l7.103,9.302
				C202.512,331.33,202.406,331.955,202.136,332.007z"/>
			<path class="st111" d="M231.906,326.419l-19.713,3.765c-0.549,0.105-1.092-0.151-1.528-0.722l-7.279-9.533
				c-0.197-0.258-0.1-0.834,0.149-0.881l19.614-3.746c0.653-0.125,1.298,0.18,1.815,0.858l7.103,9.302
				C232.282,325.742,232.176,326.367,231.906,326.419z"/>
			<path class="st111" d="M261.676,320.83l-19.713,3.765c-0.549,0.105-1.092-0.151-1.528-0.722l-7.279-9.533
				c-0.197-0.258-0.1-0.834,0.149-0.881l19.614-3.746c0.653-0.125,1.298,0.18,1.815,0.858l7.103,9.302
				C262.051,320.154,261.946,320.779,261.676,320.83z"/>
			<path class="st111" d="M291.446,315.242l-19.713,3.765c-0.549,0.105-1.092-0.151-1.528-0.722l-7.279-9.533
				c-0.197-0.258-0.1-0.834,0.149-0.881l19.614-3.746c0.653-0.125,1.298,0.18,1.815,0.858l7.103,9.302
				C291.821,314.566,291.716,315.191,291.446,315.242z"/>
			<path class="st111" d="M321.216,309.654l-19.713,3.765c-0.549,0.105-1.092-0.151-1.528-0.722l-7.279-9.533
				c-0.197-0.258-0.1-0.834,0.149-0.881l19.614-3.746c0.653-0.125,1.298,0.18,1.815,0.858l7.103,9.302
				C321.591,308.978,321.486,309.603,321.216,309.654z"/>
			<path class="st111" d="M350.985,304.066l-19.713,3.765c-0.549,0.105-1.092-0.151-1.528-0.722l-7.279-9.533
				c-0.197-0.258-0.1-0.834,0.149-0.881l19.614-3.746c0.653-0.125,1.298,0.18,1.815,0.858l7.103,9.302
				C351.361,303.389,351.255,304.014,350.985,304.066z"/>
			<path class="st111" d="M380.755,298.478l-19.713,3.765c-0.549,0.105-1.092-0.151-1.528-0.722l-7.279-9.533
				c-0.197-0.258-0.1-0.834,0.149-0.881l19.614-3.746c0.653-0.125,1.298,0.18,1.815,0.858l7.103,9.302
				C381.131,297.801,381.025,298.426,380.755,298.478z"/>
		</g>
		<g>
			<path class="st111" d="M188.826,355.537l-19.713,3.765c-0.549,0.105-1.092-0.151-1.528-0.722l-7.279-9.533
				c-0.197-0.258-0.1-0.834,0.149-0.881l19.614-3.746c0.653-0.125,1.298,0.18,1.815,0.858l7.103,9.302
				C189.201,354.86,189.096,355.485,188.826,355.537z"/>
			<path class="st111" d="M218.596,349.949l-19.713,3.765c-0.55,0.105-1.092-0.151-1.528-0.722l-7.279-9.533
				c-0.197-0.258-0.1-0.834,0.149-0.881l19.614-3.746c0.653-0.125,1.298,0.18,1.815,0.858l7.103,9.302
				C218.971,349.272,218.866,349.897,218.596,349.949z"/>
			<path class="st111" d="M248.365,344.361l-19.713,3.765c-0.549,0.105-1.092-0.151-1.528-0.722l-7.279-9.533
				c-0.197-0.258-0.1-0.834,0.149-0.881l19.614-3.746c0.653-0.125,1.298,0.18,1.815,0.858l7.103,9.302
				C248.741,343.684,248.635,344.309,248.365,344.361z"/>
			<path class="st111" d="M278.135,338.772l-19.713,3.765c-0.549,0.105-1.092-0.151-1.528-0.722l-7.279-9.533
				c-0.197-0.258-0.1-0.834,0.149-0.881l19.614-3.746c0.653-0.125,1.298,0.18,1.815,0.858l7.103,9.302
				C278.511,338.096,278.405,338.721,278.135,338.772z"/>
			<path class="st111" d="M307.905,333.184l-19.713,3.765c-0.549,0.105-1.092-0.151-1.528-0.722l-7.279-9.533
				c-0.197-0.258-0.1-0.834,0.149-0.881l19.614-3.746c0.653-0.125,1.298,0.18,1.815,0.858l7.103,9.302
				C308.281,332.508,308.175,333.133,307.905,333.184z"/>
			<path class="st111" d="M337.675,327.596l-19.713,3.765c-0.549,0.105-1.092-0.151-1.528-0.722l-7.279-9.533
				c-0.197-0.258-0.1-0.834,0.149-0.881l19.614-3.746c0.653-0.125,1.298,0.18,1.815,0.858l7.103,9.302
				C338.051,326.92,337.945,327.545,337.675,327.596z"/>
			<path class="st111" d="M367.445,322.008l-19.713,3.765c-0.549,0.105-1.092-0.152-1.528-0.722l-7.279-9.533
				c-0.197-0.258-0.1-0.834,0.149-0.881l19.614-3.746c0.653-0.125,1.298,0.18,1.815,0.858l7.103,9.302
				C367.82,321.331,367.715,321.956,367.445,322.008z"/>
			<path class="st111" d="M397.215,316.42l-19.713,3.765c-0.549,0.105-1.092-0.152-1.528-0.722l-7.279-9.533
				c-0.197-0.258-0.1-0.834,0.149-0.881l19.614-3.746c0.653-0.125,1.298,0.18,1.815,0.858l7.103,9.302
				C397.59,315.743,397.485,316.368,397.215,316.42z"/>
		</g>
		<path class="st106" d="M372.818,383.374l-76.192,16.037c-2.124,0.447-4.245-0.508-5.971-2.687l-28.843-36.431
			c-0.781-0.986-0.441-3.225,0.52-3.427l75.81-15.957c2.524-0.531,5.045,0.603,7.095,3.193l28.146,35.55
			C374.23,380.723,373.861,383.155,372.818,383.374z"/>
		<path class="st112" d="M366.778,227.492L338.125,66.439c-0.463-2.601-1.339-5.035-2.529-7.21c-1.19-2.175-2.693-4.091-4.408-5.657
			c-1.716-1.566-3.646-2.782-5.687-3.555c-2.043-0.773-4.198-1.102-6.365-0.894L143.819,66.664l109.239,195.989l101.458-13.818
			c2.171-0.305,4.141-1.133,5.845-2.369c1.703-1.234,3.141-2.875,4.248-4.808c1.107-1.931,1.884-4.153,2.267-6.553
			C367.259,232.708,367.248,230.132,366.778,227.492z"/>
		<path class="st112" d="M366.778,227.492L338.125,66.439c-0.463-2.601-1.339-5.035-2.529-7.21c-1.19-2.175-2.693-4.091-4.408-5.657
			c-1.716-1.566-3.646-2.782-5.687-3.555c-2.043-0.773-4.198-1.102-6.365-0.894L192.884,61.764l111.091,194.029l50.541-6.958
			c2.171-0.305,4.141-1.133,5.845-2.369c1.703-1.234,3.141-2.875,4.248-4.808c1.107-1.931,1.884-4.153,2.267-6.553
			C367.259,232.708,367.248,230.132,366.778,227.492z"/>
		<path class="st112" d="M366.778,227.492L338.125,66.439c-0.463-2.601-1.339-5.035-2.529-7.21c-1.19-2.175-2.693-4.091-4.408-5.657
			c-1.716-1.566-3.646-2.782-5.687-3.555c-2.043-0.773-4.198-1.102-6.365-0.894l-79.039,7.741l105.536,193.05l8.882-1.079
			c2.171-0.305,4.141-1.133,5.845-2.369c1.703-1.234,3.141-2.875,4.248-4.808c1.107-1.931,1.884-4.153,2.267-6.553
			C367.259,232.708,367.248,230.132,366.778,227.492z"/>
		<g>
			<path class="st105" d="M313.989,44.078c2.298-0.221,4.584,0.129,6.75,0.948c2.165,0.819,4.21,2.108,6.03,3.769
				c1.819,1.66,3.413,3.692,4.674,5.999c1.261,2.306,2.191,4.887,2.682,7.645l30.384,170.784c0.498,2.799,0.51,5.531,0.104,8.074
				c-0.406,2.545-1.23,4.901-2.404,6.949c-1.174,2.049-2.699,3.789-4.505,5.098c-1.807,1.31-3.897,2.188-6.199,2.512L92.743,292.24
				c-2.556,0.359-5.093,0.099-7.493-0.679c-2.401-0.779-4.664-2.078-6.668-3.794c-2.005-1.717-3.752-3.851-5.119-6.301
				c-1.368-2.45-2.356-5.214-2.845-8.19L40.767,91.823c-0.482-2.929-0.42-5.77,0.103-8.399c0.523-2.627,1.508-5.041,2.872-7.119
				c1.363-2.076,3.105-3.817,5.144-5.099c2.037-1.281,4.37-2.105,6.919-2.349L313.989,44.078z"/>
		</g>
		<g>
			<path class="st106" d="M321.649,43.065c2.298-0.221,4.584,0.129,6.75,0.948c2.165,0.819,4.21,2.108,6.03,3.769
				c1.819,1.66,3.413,3.692,4.674,5.999c1.261,2.306,2.191,4.887,2.682,7.645l30.384,170.784c0.498,2.799,0.51,5.531,0.104,8.074
				c-0.406,2.545-1.23,4.901-2.404,6.949c-1.174,2.049-2.699,3.789-4.505,5.098c-1.807,1.31-3.897,2.188-6.199,2.512
				l-258.763,36.384c-2.556,0.359-5.093,0.099-7.493-0.679c-2.401-0.779-4.664-2.078-6.668-3.794
				c-2.005-1.717-3.752-3.851-5.119-6.301c-1.368-2.45-2.356-5.214-2.845-8.19L48.427,90.81c-0.482-2.929-0.42-5.77,0.103-8.399
				c0.523-2.627,1.508-5.041,2.872-7.119c1.363-2.076,3.105-3.817,5.144-5.099c2.037-1.281,4.37-2.105,6.919-2.349L321.649,43.065z"
				/>
		</g>
		<g>
			<path class="st94" d="M319.137,49.123c2.167-0.208,4.322,0.121,6.365,0.894c2.041,0.772,3.971,1.988,5.687,3.555
				c1.715,1.566,3.218,3.482,4.408,5.657c1.19,2.175,2.066,4.608,2.529,7.21l28.653,161.053c0.47,2.64,0.481,5.216,0.098,7.614
				c-0.383,2.4-1.16,4.622-2.267,6.553c-1.108,1.932-2.545,3.573-4.248,4.808c-1.704,1.235-3.675,2.063-5.845,2.369l-247.85,35.324
				c-2.41,0.339-4.803,0.094-7.066-0.641c-2.264-0.735-4.398-1.959-6.288-3.578c-1.891-1.619-3.538-3.632-4.827-5.942
				c-1.29-2.31-2.222-4.917-2.683-7.723L57.651,95.162c-0.454-2.763-0.396-5.442,0.097-7.92c0.493-2.477,1.422-4.754,2.708-6.714
				c1.285-1.958,2.928-3.599,4.851-4.809c1.921-1.208,4.121-1.985,6.525-2.216L319.137,49.123z"/>
		</g>
		<g>
			<path class="st107" d="M297.387,155.881c0,0-30.631-27.697-43.65-34.562c-13.019-6.865-20.027,1.464-29.938,6.661
				c0,0-5.403,4.713-13.588,0.772c-8.185-3.941-21.717-9.373-33.998,5.031s-25.718,30.31-31.438,38.5
				c0,0,7.711,32.915,45.396,39.195s49.9-8.806,64.373-20.692C269.019,178.901,297.387,155.881,297.387,155.881z"/>
			<path class="st108" d="M253.737,121.32c-13.019-6.865-20.027,1.464-29.938,6.661c0,0-2.091,1.822-5.639,2.252l7.655,79.805
				c12.525-4.217,20.243-12.281,28.73-19.251c14.474-11.885,42.842-34.905,42.842-34.905S266.756,128.184,253.737,121.32z"/>
			<path class="st1" d="M263.707,157.435c0,0-19.599-14.421-36.583-1.577c0,0-4.05,5.256-12.169,1.997
				c-8.119-3.259-19.207-10.331-41.584,14.11c0,0,8.783,16.961,40.185-1.564C213.556,170.4,249.55,165.843,263.707,157.435z"/>
			<path class="st109" d="M173.41,172.037c0.656,1.159,9.927,16.19,40.145-1.637C191.622,173.782,178.631,172.775,173.41,172.037z"
				/>
		</g>
		<path class="st106" d="M459.99,403.676l-257.001,60.859c-7.307,1.728-14.713-1.39-20.845-8.776L89.99,314.783
			c-2.774-3.341-3.664-15.453-0.358-16.234l260.829-42.072c8.683-2.053,15.515,2.56,22.802,11.337l93.969,111.771
			C470.244,383.212,472.404,400.391,459.99,403.676z"/>
		<path class="st105" d="M197,430.314V287.873l-101,4.234c-3.195,0.755-12.936,6.773-6.936,21.592L181,454.063
			c3,5.293,8,8.468,10.064,8.89L197,430.314z"/>
		<path class="st110" d="M467.139,394.583l-262.149,61.983c-7.307,1.728-14.713-1.39-20.845-8.776L91.99,304.625
			c-2.774-3.341-1.772-11.11,1.534-11.892l259.799-37.581c8.683-2.053,17.484,1.652,24.771,10.428l90.711,116.09
			C471.816,385.298,470.728,393.735,467.139,394.583z"/>
		<g>
			<path class="st111" d="M155.907,319.653l-19.713,3.765c-0.549,0.105-1.092-0.151-1.528-0.722l-7.279-9.533
				c-0.197-0.258-0.1-0.834,0.149-0.881l19.614-3.746c0.653-0.125,1.298,0.18,1.815,0.858l7.103,9.302
				C156.283,318.976,156.177,319.601,155.907,319.653z"/>
			<path class="st111" d="M185.677,314.065l-19.713,3.765c-0.549,0.105-1.092-0.151-1.528-0.722l-7.279-9.533
				c-0.197-0.258-0.1-0.834,0.149-0.881l19.614-3.746c0.653-0.125,1.298,0.18,1.815,0.858l7.103,9.302
				C186.052,313.388,185.947,314.013,185.677,314.065z"/>
			<path class="st111" d="M215.447,308.477l-19.713,3.765c-0.55,0.105-1.092-0.151-1.528-0.722l-7.279-9.533
				c-0.197-0.258-0.1-0.834,0.149-0.881l19.614-3.746c0.653-0.125,1.298,0.18,1.815,0.858l7.103,9.302
				C215.822,307.8,215.717,308.425,215.447,308.477z"/>
			<path class="st111" d="M245.217,302.888l-19.713,3.765c-0.549,0.105-1.092-0.151-1.528-0.722l-7.279-9.533
				c-0.197-0.258-0.1-0.834,0.149-0.881l19.614-3.746c0.653-0.125,1.298,0.18,1.815,0.858l7.103,9.302
				C245.592,302.212,245.486,302.837,245.217,302.888z"/>
			<path class="st111" d="M274.986,297.3l-19.713,3.765c-0.549,0.105-1.092-0.151-1.528-0.722l-7.279-9.533
				c-0.197-0.258-0.1-0.834,0.149-0.881l19.614-3.746c0.653-0.125,1.298,0.18,1.815,0.858l7.103,9.302
				C275.362,296.624,275.256,297.249,274.986,297.3z"/>
			<path class="st111" d="M304.756,291.712l-19.713,3.765c-0.549,0.105-1.092-0.152-1.528-0.722l-7.279-9.533
				c-0.197-0.258-0.1-0.834,0.149-0.881L296,280.596c0.653-0.125,1.298,0.18,1.815,0.858l7.103,9.302
				C305.132,291.036,305.026,291.661,304.756,291.712z"/>
			<path class="st111" d="M334.526,286.124l-19.713,3.765c-0.549,0.105-1.092-0.152-1.528-0.722l-7.279-9.533
				c-0.197-0.258-0.1-0.834,0.149-0.881l19.614-3.746c0.653-0.125,1.298,0.18,1.815,0.858l7.103,9.302
				C334.902,285.447,334.796,286.072,334.526,286.124z"/>
			<path class="st111" d="M364.296,280.536l-19.713,3.765c-0.549,0.105-1.092-0.151-1.528-0.722l-7.279-9.533
				c-0.197-0.258-0.1-0.834,0.149-0.881l19.614-3.746c0.653-0.125,1.298,0.18,1.815,0.858l7.103,9.302
				C364.671,279.859,364.566,280.484,364.296,280.536z"/>
		</g>
		<g>
			<path class="st111" d="M172.366,337.595l-19.713,3.765c-0.549,0.105-1.092-0.152-1.528-0.722l-7.279-9.533
				c-0.197-0.258-0.1-0.834,0.149-0.881l19.614-3.746c0.653-0.125,1.298,0.18,1.815,0.858l7.103,9.302
				C172.742,336.918,172.636,337.543,172.366,337.595z"/>
			<path class="st111" d="M202.136,332.007l-19.713,3.765c-0.549,0.105-1.092-0.152-1.528-0.722l-7.279-9.533
				c-0.197-0.258-0.1-0.834,0.149-0.881l19.614-3.746c0.653-0.125,1.298,0.18,1.815,0.858l7.103,9.302
				C202.512,331.33,202.406,331.955,202.136,332.007z"/>
			<path class="st111" d="M231.906,326.419l-19.713,3.765c-0.549,0.105-1.092-0.151-1.528-0.722l-7.279-9.533
				c-0.197-0.258-0.1-0.834,0.149-0.881l19.614-3.746c0.653-0.125,1.298,0.18,1.815,0.858l7.103,9.302
				C232.282,325.742,232.176,326.367,231.906,326.419z"/>
			<path class="st111" d="M261.676,320.83l-19.713,3.765c-0.549,0.105-1.092-0.151-1.528-0.722l-7.279-9.533
				c-0.197-0.258-0.1-0.834,0.149-0.881l19.614-3.746c0.653-0.125,1.298,0.18,1.815,0.858l7.103,9.302
				C262.051,320.154,261.946,320.779,261.676,320.83z"/>
			<path class="st111" d="M291.446,315.242l-19.713,3.765c-0.549,0.105-1.092-0.151-1.528-0.722l-7.279-9.533
				c-0.197-0.258-0.1-0.834,0.149-0.881l19.614-3.746c0.653-0.125,1.298,0.18,1.815,0.858l7.103,9.302
				C291.821,314.566,291.716,315.191,291.446,315.242z"/>
			<path class="st111" d="M321.216,309.654l-19.713,3.765c-0.549,0.105-1.092-0.151-1.528-0.722l-7.279-9.533
				c-0.197-0.258-0.1-0.834,0.149-0.881l19.614-3.746c0.653-0.125,1.298,0.18,1.815,0.858l7.103,9.302
				C321.591,308.978,321.486,309.603,321.216,309.654z"/>
			<path class="st111" d="M350.985,304.066l-19.713,3.765c-0.549,0.105-1.092-0.151-1.528-0.722l-7.279-9.533
				c-0.197-0.258-0.1-0.834,0.149-0.881l19.614-3.746c0.653-0.125,1.298,0.18,1.815,0.858l7.103,9.302
				C351.361,303.389,351.255,304.014,350.985,304.066z"/>
			<path class="st111" d="M380.755,298.478l-19.713,3.765c-0.549,0.105-1.092-0.151-1.528-0.722l-7.279-9.533
				c-0.197-0.258-0.1-0.834,0.149-0.881l19.614-3.746c0.653-0.125,1.298,0.18,1.815,0.858l7.103,9.302
				C381.131,297.801,381.025,298.426,380.755,298.478z"/>
		</g>
		<g>
			<path class="st111" d="M188.826,355.537l-19.713,3.765c-0.549,0.105-1.092-0.151-1.528-0.722l-7.279-9.533
				c-0.197-0.258-0.1-0.834,0.149-0.881l19.614-3.746c0.653-0.125,1.298,0.18,1.815,0.858l7.103,9.302
				C189.201,354.86,189.096,355.485,188.826,355.537z"/>
			<path class="st111" d="M218.596,349.949l-19.713,3.765c-0.55,0.105-1.092-0.151-1.528-0.722l-7.279-9.533
				c-0.197-0.258-0.1-0.834,0.149-0.881l19.614-3.746c0.653-0.125,1.298,0.18,1.815,0.858l7.103,9.302
				C218.971,349.272,218.866,349.897,218.596,349.949z"/>
			<path class="st111" d="M248.365,344.361l-19.713,3.765c-0.549,0.105-1.092-0.151-1.528-0.722l-7.279-9.533
				c-0.197-0.258-0.1-0.834,0.149-0.881l19.614-3.746c0.653-0.125,1.298,0.18,1.815,0.858l7.103,9.302
				C248.741,343.684,248.635,344.309,248.365,344.361z"/>
			<path class="st111" d="M278.135,338.772l-19.713,3.765c-0.549,0.105-1.092-0.151-1.528-0.722l-7.279-9.533
				c-0.197-0.258-0.1-0.834,0.149-0.881l19.614-3.746c0.653-0.125,1.298,0.18,1.815,0.858l7.103,9.302
				C278.511,338.096,278.405,338.721,278.135,338.772z"/>
			<path class="st111" d="M307.905,333.184l-19.713,3.765c-0.549,0.105-1.092-0.151-1.528-0.722l-7.279-9.533
				c-0.197-0.258-0.1-0.834,0.149-0.881l19.614-3.746c0.653-0.125,1.298,0.18,1.815,0.858l7.103,9.302
				C308.281,332.508,308.175,333.133,307.905,333.184z"/>
			<path class="st111" d="M337.675,327.596l-19.713,3.765c-0.549,0.105-1.092-0.151-1.528-0.722l-7.279-9.533
				c-0.197-0.258-0.1-0.834,0.149-0.881l19.614-3.746c0.653-0.125,1.298,0.18,1.815,0.858l7.103,9.302
				C338.051,326.92,337.945,327.545,337.675,327.596z"/>
			<path class="st111" d="M367.445,322.008l-19.713,3.765c-0.549,0.105-1.092-0.152-1.528-0.722l-7.279-9.533
				c-0.197-0.258-0.1-0.834,0.149-0.881l19.614-3.746c0.653-0.125,1.298,0.18,1.815,0.858l7.103,9.302
				C367.82,321.331,367.715,321.956,367.445,322.008z"/>
			<path class="st111" d="M397.215,316.42l-19.713,3.765c-0.549,0.105-1.092-0.152-1.528-0.722l-7.279-9.533
				c-0.197-0.258-0.1-0.834,0.149-0.881l19.614-3.746c0.653-0.125,1.298,0.18,1.815,0.858l7.103,9.302
				C397.59,315.743,397.485,316.368,397.215,316.42z"/>
		</g>
		<path class="st106" d="M372.818,383.374l-76.192,16.037c-2.124,0.447-4.245-0.508-5.971-2.687l-28.843-36.431
			c-0.781-0.986-0.441-3.225,0.52-3.427l75.81-15.957c2.524-0.531,5.045,0.603,7.095,3.193l28.146,35.55
			C374.23,380.723,373.861,383.155,372.818,383.374z"/>
		<path class="st112" d="M366.778,227.492L338.125,66.439c-0.463-2.601-1.339-5.035-2.529-7.21c-1.19-2.175-2.693-4.091-4.408-5.657
			c-1.716-1.566-3.646-2.782-5.687-3.555c-2.043-0.773-4.198-1.102-6.365-0.894L143.819,66.664l109.239,195.989l101.458-13.818
			c2.171-0.305,4.141-1.133,5.845-2.369c1.703-1.234,3.141-2.875,4.248-4.808c1.107-1.931,1.884-4.153,2.267-6.553
			C367.259,232.708,367.248,230.132,366.778,227.492z"/>
		<path class="st112" d="M366.778,227.492L338.125,66.439c-0.463-2.601-1.339-5.035-2.529-7.21c-1.19-2.175-2.693-4.091-4.408-5.657
			c-1.716-1.566-3.646-2.782-5.687-3.555c-2.043-0.773-4.198-1.102-6.365-0.894L192.884,61.764l111.091,194.029l50.541-6.958
			c2.171-0.305,4.141-1.133,5.845-2.369c1.703-1.234,3.141-2.875,4.248-4.808c1.107-1.931,1.884-4.153,2.267-6.553
			C367.259,232.708,367.248,230.132,366.778,227.492z"/>
		<path class="st112" d="M366.778,227.492L338.125,66.439c-0.463-2.601-1.339-5.035-2.529-7.21c-1.19-2.175-2.693-4.091-4.408-5.657
			c-1.716-1.566-3.646-2.782-5.687-3.555c-2.043-0.773-4.198-1.102-6.365-0.894l-79.039,7.741l105.536,193.05l8.882-1.079
			c2.171-0.305,4.141-1.133,5.845-2.369c1.703-1.234,3.141-2.875,4.248-4.808c1.107-1.931,1.884-4.153,2.267-6.553
			C367.259,232.708,367.248,230.132,366.778,227.492z"/>
		<g>
			<path class="st113" d="M92.743,292.24l6.313-0.888c0.448-0.025,0.897-0.063,1.347-0.126l65.426-9.199
				c-58.094-76.719-73.493-168.362-77.493-216.571l-24.871,2.387c-0.966,0.093-1.89,0.294-2.79,0.546l-4.87,0.467
				c-2.549,0.245-4.882,1.068-6.919,2.349c-2.039,1.282-3.781,3.023-5.144,5.099c-1.364,2.078-2.349,4.492-2.872,7.119
				c-0.524,2.629-0.585,5.469-0.103,8.399l29.851,181.453c0.49,2.976,1.478,5.74,2.845,8.19c1.367,2.45,3.114,4.584,5.119,6.301
				c2.004,1.716,4.267,3.015,6.668,3.794C87.65,292.34,90.187,292.6,92.743,292.24z"/>
			<path class="st113" d="M165.997,282.25l-67.393,9.749L96,292.107c-0.353,0.083-0.788,0.235-1.27,0.451l-1.206,0.174
				c-0.962,0.227-1.721,1.056-2.257,2.185c-3.312,3.15-6.131,9.079-2.203,18.781L181,454.063c2.77,4.886,7.239,7.962,9.534,8.739
				c4.01,2.107,8.249,2.727,12.456,1.733l230.858-54.668C298.89,403.901,216.406,348.7,165.997,282.25z"/>
		</g>
	</g>
</g>
<g id="Credits_300">
</g>
<g id="Credits_200">
</g>
<g id="Credits_100">
</g>
<g id="Credits_75">
</g>
<g id="Credits_50">
</g>
<g id="Credits_25">
</g>
<g id="Credits_10">
</g>
<g id="Credits_5">
</g>
<g id="Credits_1">
</g>
</svg>
