<?xml version="1.0" encoding="utf-8"?>
<!-- Generator: Adobe Illustrator 26.0.1, SVG Export Plug-In . SVG Version: 6.00 Build 0)  -->
<svg version="1.1" id="Layer_2_1_" xmlns="http://www.w3.org/2000/svg" xmlns:xlink="http://www.w3.org/1999/xlink" x="0px" y="0px"
	 width="512px" height="512px" viewBox="0 0 512 512" style="enable-background:new 0 0 512 512;" xml:space="preserve">
<style type="text/css">
	.st0{fill:#FFFFFF;}
	.st1{fill:url(#SVGID_1_);}
	.st2{fill:#DA0000;}
	.st3{fill:#EF2626;}
	.st4{fill:#A60000;}
	.st5{fill:#840000;}
</style>
<g>
	<path class="st0" d="M198.5,89.5c-31.2,0-56.7,18.1-72.7,33.2c-25.2,24-69.9,90.9-74.9,98.4c-0.3,0.5-0.7,1-1,1.6l-0.4,0.7
		c-2.8,5.1-6.7,12-7.2,22.2c-0.6,14.4,8.6,31.1,45.4,91c6.4,10.4,13,21.2,19,31.3c12.7,21.2,33.8,36.5,62.7,45.5
		c19.7,6.1,42.6,9.2,68.2,9.2c4.7,0,9.4-0.1,14.1-0.3c1.9-0.1,3.8-0.1,5.6-0.1c1.3,0,2.6,0,3.9,0.1c4.2,0.1,8.3,0.2,12.2,0.2
		c26,0,48.8-2.8,68-8.4c29.5-8.6,50.9-23.8,63.6-45.1c6.3-10.5,13.2-21.7,19.9-32.6c37-60.1,45.5-75.6,44.7-89.6
		c-0.6-11.2-4.4-17.9-7.7-23.8c-0.2-0.4-0.5-0.8-0.7-1.2c-4.8-7.6-48-74.7-73.4-98.8c-30.4-28.9-59.9-33.2-74.7-33.2
		c-2.1,0-4.1,0.1-6.1,0.2c-10.7,0.9-21.5,5.9-32,10.8c-5.8,2.7-15.6,7.3-19.2,7.5c-3.7-0.3-14-5-19.5-7.6
		c-10.8-5-21.1-9.8-31.6-10.7C202.7,89.6,200.6,89.5,198.5,89.5L198.5,89.5z"/>
	<linearGradient id="SVGID_1_" gradientUnits="userSpaceOnUse" x1="255.8511" y1="113.4548" x2="255.8511" y2="398.5003">
		<stop  offset="0" style="stop-color:#DA0000"/>
		<stop  offset="1" style="stop-color:#A60000"/>
	</linearGradient>
	<path class="st1" d="M441,234.4c0,0-45.7-71.5-69.7-94.3s-47.6-26.9-62.4-26.5c-20.8,0.6-37.5,18.3-53.1,18.3s-33.6-16.9-53.1-18.3
		c-15.1-1.1-36.5,3.7-60.5,26.5s-71.5,94.3-71.5,94.3c-2.5,4.4-4.3,7.5-4.5,12.2c-0.5,11.2,34.9,65.3,61,108.9
		c24,40,86.5,44.4,123.2,42.7c3.8-0.2,7.6-0.2,11.4-0.1c36.3,1.1,98.7-1.8,122.5-41.7c26.1-43.6,61.8-98.1,61.2-108.5
		C445.4,242.3,443.8,239.4,441,234.4z"/>
	<path class="st2" d="M434.5,241.8c-0.4-0.9-0.9-1.8-1.4-2.7c-2.9-4.5-45.8-71.2-68.1-92.4c-22.1-21-42-24.1-51.9-24.1
		c-1.2,0-2.4,0-3.5,0.1c-4.8,0.4-12.9,4.1-20.6,7.8c-11.2,5.2-22.8,10.6-33.1,10.6c-10.4,0-22.1-5.4-33.5-10.7
		c-7.7-3.6-15.7-7.3-20.3-7.7c-1.2-0.1-2.4-0.1-3.6-0.1c-20.2,0-38.3,13.1-49.9,24.1c-22.2,21.1-66.6,87.4-70,92.4l-2.3,4.2
		c-0.7,1.2-0.9,5.2,0.9,7.7c3.2,4.4,7.6,12.4,9.6,15.9c7.2,12.7,16.7,26.2,26.8,42.3c7.3,11.7,14.8,22.9,21.6,34.2
		c2.8,4.7,13,17.4,16.4,18.7c8.1,3,13.1-6.5,15.1-5.1c1.2,0.8,1.1,5.3,0.9,9c-0.2,3.1,1.7,6,4.6,7.1c22.2,8.6,47.8,9.8,65.4,9.8
		c2.6,0,7.1,0,9.7-0.1c6.2-0.9,7.5-5,9.1-6.2c1-0.8,2.8-1,3.8-0.2c2.6,2.4,1.9,4.1,5.5,5.7c0.9,0.4,1.8,0.6,2.8,0.6
		c1.7,0,3.4,0,5.1,0c22.8,0,42.6-3.3,58.7-8c3.7-1.1,13.7-0.8,16.4-5c2.7-4.2,0.5-8.9,2.3-10.3s6.3,3.2,10.3,2.8
		c3.9-0.4,12.8-13.3,15.6-17.9c6.7-11.2,14.1-22.2,21.2-33.8c10.1-16.3,19.6-29.9,26.9-42.7c4.2-7.3,6.4-10.3,7.9-11.8
		C435.4,253.3,436.1,245.4,434.5,241.8z"/>
	<path class="st3" d="M93,221.1c0,9,10.3,13.4,17.4,15.8c10.3,3.4,21.2,4.9,32,5.8c4.2,0.4,8.5,0.7,12.7,0.9
		c6.6,0.3,13.1,0.4,19.5-1.5c8.3-2.5,15.7-7.4,21.9-13.4c5.5-5.3,10.8-11.4,17.6-15c6-3.2,12.4-2.3,18.9-1.1
		c7.1,1.3,14.3,3.2,21.6,2.1c7-1.1,13.6-3.7,20.5-5.2c2.7-0.6,5.7-1.2,8.5-0.9c2.2,0.3,3.9,1.4,5.5,2.8c2.6,2.2,5,4.8,7.3,7.3
		c2.3,2.4,4.6,4.5,7.3,6.6c3.8,2.9,7.4,6.1,11.6,8.5c4.1,2.3,8.4,4.1,12.9,5.3c12.8,3.5,26,2.5,39.1,1.5c12.2-1,24.6-2.5,36.3-6.4
		c6.6-2.2,14.5-5.6,18.7-11.5c-14.8-22.3-41.4-60.9-57.4-76c-22.1-21-42-24.1-51.9-24.1c-1.2,0-2.4,0-3.5,0.1
		c-4.8,0.4-12.9,4.1-20.6,7.8c-11.2,5.2-22.8,10.6-33.1,10.6c-10.4,0-22.1-5.4-33.5-10.7c-7.7-3.6-15.7-7.3-20.3-7.7
		c-1.2-0.1-2.4-0.1-3.6-0.1c-20.2,0-38.3,13.1-49.9,24.1c-14.7,14-39.1,47.8-54.9,70.5C93.3,218.5,93,219.8,93,221.1z"/>
	<path class="st3" d="M409.4,255c-2.4,0.4-4.8,1.4-7.1,2.3c-4,1.5-7.9,2.3-11.8,3.9c-9.6,3.9-19.4,5.8-29.3,8.7
		c-6.3,1.8-13-3.3-18.9-0.2c-2.8,1.5-5.4,3.4-7.2,6.1c-1.9,2.9-2.6,6.4-2.4,9.9c0,0.2-0.2,0.5-0.5,0.5c-3.1,0-6.3-0.2-9.4-0.1
		c-5.5,0.1-12,0.8-16.6,4.2c-3,2.2-4.9,5.6-7.8,8c-5.7,4.7-14.2,3.1-20.6,1.5c-4-1-8-3.2-12.1-4.2c-4.7-1.1-9.4-1.3-14.2-1
		c-6,0.4-11.9,1.5-17.7,3c-3.2,0.8-6.8,3.7-10.1,3.3c-3.8-0.5-7-4.5-10.5-5.9c-5.2-2.2-10.7-4-16.3-5.1c-4.9-1-9.9-1.4-14.8-1.5
		c-1.5,0-2.9,0-4-1.1c-0.8-0.8-1.4-1.7-2.1-2.5c-1.5-1.7-3.1-3.4-4.7-5.1c-3.2-3.5-6.5-6.8-10.4-9.5c-5.8-4-13.4-1.6-19.7-4.7
		c-7.4-3.5-14.1-4.1-22-6.2c-5.8-1.5-13.4-3-18.8,0.5c-1.3,5.9,3.3,20.1,7.1,24.3c5.3,5.9,11.6,10.8,17.7,15.8
		c4.9,4,9.8,8,13.4,13.3c9.1,13.2,19.1,33,38.4,28.9c0.3-0.1,0.6,0.1,0.6,0.4c0.2,4.1,1.4,8.1,4.2,11.2c2.4,2.7,5.7,4.3,9.1,5.4
		c6.5,2,13.4,2.3,20.2,2.5c5.5,0.2,10.8,1.2,16.2,2.1c9,1.5,29.4,5.4,30.8-8.3c0-0.5,0.8-0.7,0.9-0.1c1.1,6.1,8.7,7.1,13.8,7.4
		c12.4,0.6,24.5-2.7,36.7-3.9c9-0.9,30.6,0.5,28.5-13.9c-0.1-0.4,0.3-0.8,0.7-0.5c1.1,0.8,2.3,1.3,3.7,1.7
		c5.8,1.4,11.6-2.4,15.9-5.8c5.3-4.2,9.8-9.2,14.3-14.3c4-4.5,8-8.9,12.5-13c6.2-5.5,7.2-10.8,12.5-17.2
		c5.6-6.8,14.2-22.8,15.6-31.4c0.4-2.4,1-5.5,0.1-7.8C412.5,254.8,410.9,254.7,409.4,255z"/>
	<path class="st2" d="M216.6,221.9c-11.9-5.3-15.2-6.8-22.8-16.4c0,0,22,3,29.8,4.7s18.1,4.4,25.7,4.4s20.6-2.1,25.9-5.2
		c5.3-3.1,27.3-3.9,27.3-3.9c-8.9,7.5-7.5,9.5-21.3,17.7C267.4,231.5,228.5,227.2,216.6,221.9z"/>
	<path class="st4" d="M138.7,259c14.3,5.8,30.6,8.4,39.6,6.9c19.5,4.8,40.6,25.9,40.6,25.9s34.3-9,64.4-1.1
		c13.7-11.6,29.6-24.3,42.2-25.3c17.9,3.7,45.9-7.9,45.9-7.9s-37.5,5.3-53.3-6.3S285.4,219,285.4,219c-9.8,4.4-20.4,6.6-31.1,6.3
		c-11-0.4-21.8-2.6-32.2-6.3c0,0-18,21.6-40.1,32.2C168.5,257.5,153.6,260.2,138.7,259z"/>
	<path class="st5" d="M335.7,259.6c-29.6-4.2-51.3-34.8-51.3-34.8s-5.1,1.7-8.8,2.4c-6.4,1.3-13,2.1-19.5,2.3c-1.2,0-2.3,0-3.5,0
		s-2.3,0-3.5,0c-6.6-0.2-13.1-1-19.5-2.3c-3.7-0.8-7.8-2.4-7.8-2.4s-22.8,30.6-52.3,34.8c-29.5,4.2-67.6-23.2-85-17.4
		c23.7,2.1,42.2,15.8,63.3,20.1c13.8,2.8,23.4,2.4,28.3,1.7c3-0.4,6.1-0.1,9,0.9c9,3.1,27.4,10.6,36.1,22.8c2.7-0.9,5.4-1.6,8-2.2
		c7.1-1.7,14.3-2.6,21.5-2.6c0.6,0,1.3,0,1.9,0s1.3,0,1.9,0c7.3,0.1,14.5,0.9,21.5,2.6c2.6,0.6,5.3,1.4,8,2.2
		c8.3-11.6,25.7-19.1,35-22.4c3.5-1.2,7.2-1.6,10.8-1.2c5.1,0.6,14.4,0.9,27.6-1.8c21.1-4.2,39.6-17.9,63.3-20.1
		C403.3,236.4,365.3,263.8,335.7,259.6z"/>
	<path class="st0" d="M194.7,131.7c-4,0.2-7.7,0.5-11.5,1.9c-9.5,3.5-26.5,16.8-20.5,22.7s9.9,2.3,13,0c1.9-1.5,3.1-3.7,4.6-5.5
		c5-5.9,13.4-7.5,20-11.6C208.5,134,199.7,131.6,194.7,131.7z"/>
	<path class="st0" d="M151,161.4c-2.6,1.2-4.7,3.7-6.8,5.5s-4.4,3.4-6.1,5.5s-4.5,6-1.1,9.3s12.2-3.3,13.1-4.2
		c2.7-2.5,5.3-5.1,8-7.6c1.8-1.8,5-4.7,2.1-8S153.3,160.2,151,161.4z"/>
	<path class="st0" d="M212,332.3c-3.8-0.2-9.9,0.5-12.2-2.6c-2.2-3-1.1-7.6-1.9-10.9c-3.9,2.8-7.3,5-9.8,8.7c-4.6-2-7-3.3-10.3-5.1
		c-3.3-1.7-16.7-6.7-17.7-4.9c-1,1.9,7.5,10,13.6,13.1c2.5,1.3,5.1,2.5,7.8,3.6c0.5,0.2,1,0.4,1.3,0.8c0.2,0.4,0.2,0.8,0.2,1.2
		c-0.2,3.2-0.4,6.4-0.6,9.6c3.1-2.2,6.1-4.3,9.2-6.5c0.5-0.3,1.1-0.7,1.7-0.9c0.9-0.3,1.9-0.1,2.9,0.1c7.7,1.4,15.5,2.9,23.2,4.3
		c3.4,0.7,6.8,1.3,10.3,1.7c6.4,0.8,12.8,0.8,19.2,0c1.5-0.1,3.2-0.5,4-1.6s0.2-2.5-0.9-3.4c-1.1-0.9-2.6-1.3-4-1.7
		C236.3,334.8,224.2,333.4,212,332.3z"/>
	<path class="st0" d="M148.1,305.6c-1.7-1.4-4.1-1.9-5.9-0.2s0.3,3,0.3,3s6,4.9,9.2,7.1c0.6,0.4,1.2,0.8,1.9,1.1
		c0.6,0.2,1.8,1.3,2.7,0s-0.1-3.7-1.7-5.5"/>
</g>
</svg>
