<?xml version="1.0" encoding="utf-8"?>
<!-- Generator: Adobe Illustrator 26.0.1, SVG Export Plug-In . SVG Version: 6.00 Build 0)  -->
<svg version="1.1" id="Layer_1" xmlns="http://www.w3.org/2000/svg" xmlns:xlink="http://www.w3.org/1999/xlink" x="0px" y="0px"
	 width="512px" height="512px" viewBox="0 0 512 512" style="enable-background:new 0 0 512 512;" xml:space="preserve">
<style type="text/css">
	.st0{fill:#FFFFFF;}
	.st1{fill:url(#SVGID_1_);}
	.st2{opacity:0.6;fill:#F9900C;enable-background:new    ;}
	.st3{opacity:0.5;fill:#F9980F;enable-background:new    ;}
	.st4{opacity:0.4;fill:#FAA012;enable-background:new    ;}
	.st5{opacity:0.3;fill:#FAA814;enable-background:new    ;}
	.st6{opacity:0.2;fill:#FBB017;enable-background:new    ;}
	.st7{fill:#3D1C0E;}
	.st8{fill:url(#SVGID_00000004523036537316937120000008220709725316607909_);}
	.st9{fill:url(#SVGID_00000014600966539146987120000009687201256140300733_);}
	.st10{fill:url(#SVGID_00000087385565024389279280000011041666705481023628_);}
	.st11{fill:#FFA6B7;}
	.st12{fill:url(#SVGID_00000098936605458247589450000014541175552625894037_);}
	.st13{fill:url(#SVGID_00000098185569830867435360000013394169632376862614_);}
	.st14{opacity:0.6;fill:#910000;enable-background:new    ;}
</style>
<g>
	<g id="Layer_1_1_">
		<g>
			<path class="st0" d="M257.5,42.1L257.5,42.1L257.5,42.1c-25.6,0-50.5,5-73.9,14.9c-22.6,9.6-42.9,23.2-60.3,40.7
				c-17.4,17.4-31.1,37.7-40.7,60.3c-9.9,23.4-14.9,48.3-14.9,73.9c0,40.5,12.5,79.1,36.3,111.7c11.4,15.7,25.1,29.5,40.7,41
				c11.1,8.2,23,15.1,35.5,20.7c0.5,10.9,3.8,31.8,19.5,48.5c9.6,10.2,27.4,22.4,57.8,22.4s48.3-12.2,57.8-22.4
				c15.7-16.8,19-37.7,19.5-48.6c26-11.6,49.2-29,67.8-51c22.6-26.7,37.3-59.1,42.6-93.5c0-0.3,0.1-0.5,0.1-0.8v-0.1
				c0.2-1.2,0.4-2.5,0.5-3.8c0-0.4,0.1-0.7,0.1-1.1v-0.2v-0.1c0.1-1.1,0.3-2.2,0.4-3.3c0.1-0.5,0.1-1,0.1-1.5v-0.5l0.1-0.6
				c0.1-0.7,0.1-1.4,0.2-2.2c0-0.5,0.1-0.9,0.1-1.4v-0.5v-0.5c0.1-0.8,0.1-1.6,0.2-2.4c0-0.6,0.1-1.3,0.1-1.9v-0.6v-0.6
				c0-0.6,0-1.2,0.1-1.8c0-0.7,0-1.5,0-2.2V234v-0.5c0-0.5,0-1,0-1.5c0-0.6,0-1.1,0-1.7v-0.6v-0.6c0-0.7,0-1.4,0-2
				c0-0.5,0-1-0.1-1.5v-0.5v-0.6c0-0.8-0.1-1.5-0.1-2.3c0-0.5-0.1-0.9-0.1-1.4v-0.5v-0.6c0-0.8-0.1-1.6-0.2-2.4
				c0-0.5-0.1-0.9-0.1-1.4v-0.5v-0.6c-0.1-0.8-0.1-1.6-0.2-2.4c0-0.4-0.1-0.8-0.1-1.3v-0.4l-0.1-0.5c-0.1-0.9-0.2-1.7-0.3-2.6
				c0-0.3-0.1-0.6-0.1-0.9v-0.1c-0.2-1.1-0.3-2.4-0.5-3.7c0-0.3-0.1-0.6-0.1-0.9v-0.1c-0.2-1.1-0.4-2.4-0.6-3.7
				c0-0.2-0.1-0.5-0.1-0.7l0,0c-7.9-43.1-30.8-82.5-64.5-110.9c-16.7-14.1-35.6-25.1-56-32.7C302.5,46.1,280.3,42.1,257.5,42.1
				L257.5,42.1z"/>
		</g>
	</g>
	<g id="Layer_1_copy">
		
			<radialGradient id="SVGID_1_" cx="238.44" cy="325.42" r="208.53" gradientTransform="matrix(1 0 0 -1 0 512)" gradientUnits="userSpaceOnUse">
			<stop  offset="0" style="stop-color:#FCF58D"/>
			<stop  offset="0.1" style="stop-color:#FCF588"/>
			<stop  offset="0.22" style="stop-color:#FCF47A"/>
			<stop  offset="0.35" style="stop-color:#FCF262"/>
			<stop  offset="0.49" style="stop-color:#FCF041"/>
			<stop  offset="0.59" style="stop-color:#FCEE21"/>
			<stop  offset="1" style="stop-color:#FBA217"/>
		</radialGradient>
		<path class="st1" d="M423.3,231.9c0,91.6-74.2,165.8-165.8,165.8S91.6,323.5,91.6,231.9S165.9,66.1,257.5,66.1
			S423.3,140.3,423.3,231.9L423.3,231.9z"/>
		<path class="st2" d="M257.5,66.1c-91.6,0-165.9,74.2-165.9,165.8s74.2,165.9,165.8,165.9S423.3,323.5,423.3,232l0,0
			C423.3,140.3,349.1,66.1,257.5,66.1L257.5,66.1z M257.5,394.6c-89.7,0-162.7-73-162.7-162.7s73-162.7,162.7-162.7
			s162.7,73,162.7,162.7S347.2,394.6,257.5,394.6z"/>
		<path class="st3" d="M257.5,69.3c-89.7,0-162.7,73-162.7,162.7s73,162.7,162.7,162.7s162.7-73,162.7-162.7S347.2,69.3,257.5,69.3z
			 M257.5,391.4C169.6,391.4,98,319.9,98,231.9S169.6,72.4,257.5,72.4S417,144,417,231.9S345.4,391.4,257.5,391.4z"/>
		<path class="st4" d="M257.5,72.4C169.6,72.4,98,144,98,231.9s71.5,159.5,159.5,159.5S417,319.9,417,231.9S345.4,72.4,257.5,72.4z
			 M257.5,388.2c-86.2,0-156.3-70.1-156.3-156.3S171.3,75.6,257.5,75.6s156.3,70.1,156.3,156.3S343.7,388.2,257.5,388.2z"/>
		<path class="st5" d="M257.5,75.6c-86.2,0-156.3,70.1-156.3,156.3s70.1,156.3,156.3,156.3s156.3-70.1,156.3-156.3
			S343.7,75.6,257.5,75.6z M257.5,385.1c-84.4,0-153.1-68.7-153.1-153.1S173.1,78.8,257.5,78.8s153.1,68.7,153.1,153.1
			S341.9,385.1,257.5,385.1z"/>
		<path class="st6" d="M257.5,78.8c-84.4,0-153.1,68.7-153.1,153.1S173,385.1,257.5,385.1S410.6,316.4,410.6,232
			S341.9,78.8,257.5,78.8z M257.5,381.9c-82.7,0-149.9-67.3-149.9-149.9s67.3-150,150-150s150,67.3,150,150S340.2,381.9,257.5,381.9
			z"/>
		<path class="st7" d="M349.4,292c-0.1,1.7-0.3,3.5-0.6,5.2c-0.5,2.6-1.2,5.1-1.2,5.1v0.1c0,0-0.6,1.9-1.7,5.2
			c-0.6,2-1.4,3.9-2.4,5.8c-1.1,2.5-2.3,4.9-3.8,7.1c-5.9,10.2-16.8,21.4-29.4,29.5c-4.7,3-9.7,5.7-14.8,8c-0.6,0.3-1.2,0.6-1.8,0.8
			s-1.2,0.5-1.9,0.8s-1.2,0.5-1.9,0.8s-1.2,0.5-1.9,0.7l-1.9,0.7l-1.9,0.6c-3.7,1.3-7.5,2.3-11.4,3.1c-4.3,0.9-8.7,1.6-13.1,1.9
			l-5,0.2h-0.1c0,0-1.8-0.1-5-0.2c-4.4-0.3-8.8-0.9-13.1-1.9c-3.3-0.7-6.6-1.5-9.8-2.5c-0.6-0.2-1.2-0.4-1.9-0.6s-1.2-0.4-1.9-0.6
			s-1.2-0.4-1.9-0.7l-1.9-0.7c-0.6-0.2-1.2-0.5-1.9-0.8s-1.2-0.5-1.9-0.8c-5.7-2.5-11.2-5.4-16.4-8.7c-12.6-8.1-23.6-19.2-29.5-29.5
			c-1.4-2.3-2.7-4.6-3.8-7.1c-0.9-1.9-1.7-3.8-2.4-5.8c-1.1-3.3-1.7-5.2-1.7-5.2v-0.1c0,0-0.7-2.5-1.2-5.1c-0.3-1.7-0.6-3.4-0.7-5.2
			c0,0,0-0.8,0-2.1c0.1-1.5,0.5-3,1.1-4.4c1.1-1.8,3-2.9,5.1-3h2.3l2.3,0.4h0.1l12.6,3c3.8,1,8.2,1.8,13,2.8c2.4,0.5,4.8,1,7.3,1.5
			c1.3,0.1,27.9,10.1,54.3,10.1c25.7,0,51.2-10,52.5-10.1c10.2-1.5,14-3.8,27.5-6.9c1.5-0.4,3.1-0.5,4.7-0.4c0,0.1,3.4,0,5.1,3
			c0.7,1.4,1.1,2.8,1.2,4.4C349.4,291.2,349.4,292,349.4,292z"/>
		
			<linearGradient id="SVGID_00000178164864162234742670000003447330039322948540_" gradientUnits="userSpaceOnUse" x1="257.75" y1="434.45" x2="257.75" y2="255.28" gradientTransform="matrix(1 0 0 -1 0 512)">
			<stop  offset="0" style="stop-color:#FFF5C2;stop-opacity:0.8"/>
			<stop  offset="1" style="stop-color:#FFFFFF;stop-opacity:0"/>
		</linearGradient>
		<path style="fill:url(#SVGID_00000178164864162234742670000003447330039322948540_);" d="M257.8,204.2c34-0.1,68,4.3,100.8,13.1
			c16.4,4.5,31.3-10.9,26.6-27.2c-16.6-57.8-67.4-99.8-127.5-99.8s-110.8,42-127.4,99.8c-4.7,16.3,10.2,31.6,26.6,27.2
			C189.8,208.4,223.7,204,257.8,204.2z"/>
		
			<radialGradient id="SVGID_00000085236620146917821560000012360130121425960375_" cx="194.7324" cy="189.6497" r="55.0624" gradientTransform="matrix(0.9041 -0.4273 0.4012 0.8489 -57.7137 117.4351)" gradientUnits="userSpaceOnUse">
			<stop  offset="0" style="stop-color:#DA0000"/>
			<stop  offset="0.2956" style="stop-color:#D60000"/>
			<stop  offset="0.5581" style="stop-color:#CC0000"/>
			<stop  offset="0.8072" style="stop-color:#BA0000"/>
			<stop  offset="0.9996" style="stop-color:#A60000"/>
		</radialGradient>
		<path style="fill:url(#SVGID_00000085236620146917821560000012360130121425960375_);" d="M138.8,180.2
			c3.7-12.7,12.6-15.1,15.6-16.1c9-3.2,20.4,1.1,25.1,3.2c1.1,0.5,2.4-0.1,2.8-1.3c1.4-4.9,5.2-16.5,13.4-21.4
			c2.7-1.7,10.2-7,22.4-1.9c11,4.7,14.5,16.4,15.4,23.3c1.8,18.7-16.5,67.1-16.5,67.1c-1.1,3-4.3,4.5-7.3,3.5
			c0,0-44.6-13.9-62.4-29.7C142.3,201.8,135.4,191.7,138.8,180.2z"/>
		
			<radialGradient id="SVGID_00000049943117651898564650000004531578293510757049_" cx="72.0012" cy="127.7458" r="55.0061" gradientTransform="matrix(-0.9041 -0.4273 -0.4012 0.8489 435.8573 117.4351)" gradientUnits="userSpaceOnUse">
			<stop  offset="0" style="stop-color:#DA0000"/>
			<stop  offset="0.2956" style="stop-color:#D60000"/>
			<stop  offset="0.5581" style="stop-color:#CC0000"/>
			<stop  offset="0.8072" style="stop-color:#BA0000"/>
			<stop  offset="0.9996" style="stop-color:#A60000"/>
		</radialGradient>
		<path style="fill:url(#SVGID_00000049943117651898564650000004531578293510757049_);" d="M366.7,206.8
			c-17.9,15.9-62.4,29.7-62.4,29.7c-3,1-6.3-0.5-7.3-3.5c0,0-18.3-48.4-16.5-67.1c0.9-7,4.3-18.6,15.4-23.3
			c12.2-5.1,19.7,0.2,22.4,1.9c8.1,4.9,12,16.5,13.4,21.4c0.3,1.2,1.6,1.8,2.8,1.3c4.7-2.1,16.1-6.4,25.1-3.2
			c3,1.1,12,3.5,15.6,16.1C378.4,191.7,371.6,201.8,366.7,206.8z"/>
		<path class="st11" d="M257.5,293.5c0,0-30.1,0.1-53.4-3.4v109.8c0,0-3.4,52.5,53.4,52.5s53.4-52.5,53.4-52.5V290.1
			C287.5,293.6,257.5,293.5,257.5,293.5z"/>
		
			<radialGradient id="SVGID_00000136392107399071707640000000388884532995927181_" cx="257.5" cy="371.2413" r="68.6688" gradientTransform="matrix(1 0 0 3 0 -742.474)" gradientUnits="userSpaceOnUse">
			<stop  offset="0" style="stop-color:#950829;stop-opacity:0"/>
			<stop  offset="0.5365" style="stop-color:#9A0B2C;stop-opacity:0.5365"/>
			<stop  offset="1" style="stop-color:#A41032"/>
		</radialGradient>
		<path style="fill:url(#SVGID_00000136392107399071707640000000388884532995927181_);" d="M257.5,293.5c0,0-30.1,0.1-53.4-3.4
			v109.8c0,0-3.4,52.5,53.4,52.5s53.4-52.5,53.4-52.5V290.1C287.5,293.6,257.5,293.5,257.5,293.5z"/>
		
			<linearGradient id="SVGID_00000113333352288224364520000014051179300102633350_" gradientUnits="userSpaceOnUse" x1="257.5" y1="290.1" x2="257.5" y2="452.4">
			<stop  offset="0" style="stop-color:#A41032"/>
			<stop  offset="0.2818" style="stop-color:#9A0B2C;stop-opacity:0.5365"/>
			<stop  offset="0.6078" style="stop-color:#950829;stop-opacity:0"/>
		</linearGradient>
		<path style="fill:url(#SVGID_00000113333352288224364520000014051179300102633350_);" d="M257.5,293.5c0,0-30.1,0.1-53.4-3.4
			v109.8c0,0-3.4,52.5,53.4,52.5s53.4-52.5,53.4-52.5V290.1C287.5,293.6,257.5,293.5,257.5,293.5z"/>
		<path class="st14" d="M253.6,314.4c0,22.8,1.2,70.8,3.2,88.6c2-17.8,3.2-65.8,3.2-88.6S253.6,291.6,253.6,314.4z"/>
	</g>
</g>
</svg>
