<?xml version="1.0" encoding="utf-8"?>
<!-- Generator: Adobe Illustrator 24.0.3, SVG Export Plug-In . SVG Version: 6.00 Build 0)  -->
<svg version="1.1" xmlns="http://www.w3.org/2000/svg" xmlns:xlink="http://www.w3.org/1999/xlink" x="0px" y="0px"
	 viewBox="0 0 512 512" style="enable-background:new 0 0 512 512;" xml:space="preserve">
<style type="text/css">
	.st0{fill:none;}
	.st1{fill:#FFFFFF;}
	.st2{fill:#ED0F49;}
	.st3{fill:#FFEBCA;}
	.st4{fill:#9B4231;}
	.st5{fill:#EAB363;}
	.st6{opacity:0.2;enable-background:new    ;}
	.st7{fill:#F7B5E5;}
	.st8{fill:#F9437C;}
	.st9{fill:#FFD7E5;}
	.st10{fill:#FF76A0;}
	.st11{fill:#BBD5FF;}
	.st12{fill:#85BC00;}
	.st13{fill:#00D871;}
	.st14{fill:#FFA300;}
	.st15{fill:#FF99FF;}
	.st16{fill:#E20569;}
	.st17{fill:#4BE08E;}
	.st18{fill:#06FFEC;}
	.st19{fill:#FFA403;}
	.st20{fill:#76D1FF;}
	.st21{fill:#6F00FF;}
	.st22{fill:#0050C4;}
	.st23{fill:#9772D3;}
	.st24{fill:#FFE564;}
	.st25{clip-path:url(#SVGID_2_);fill:#E5E5E5;}
	.st26{clip-path:url(#SVGID_4_);fill:#008BD8;}
	.st27{clip-path:url(#SVGID_6_);fill:#008BD8;}
	.st28{clip-path:url(#SVGID_8_);fill:#008BD8;}
	.st29{fill:#FFC639;}
	.st30{fill:#FF7900;}
	.st31{clip-path:url(#SVGID_10_);fill:#E5E5E5;}
	.st32{clip-path:url(#SVGID_12_);fill:#008BD8;}
	.st33{clip-path:url(#SVGID_14_);fill:#008BD8;}
	.st34{clip-path:url(#SVGID_16_);fill:#008BD8;}
	.st35{clip-path:url(#SVGID_18_);fill:#E5E5E5;}
	.st36{clip-path:url(#SVGID_20_);fill:#008BD8;}
	.st37{clip-path:url(#SVGID_22_);fill:#008BD8;}
	.st38{clip-path:url(#SVGID_24_);fill:#008BD8;}
	.st39{fill:#CAEFFF;}
	.st40{opacity:0.1;}
	.st41{fill:#3C0000;}
	.st42{fill:#C00000;}
	.st43{fill:#23292D;}
	.st44{fill:#F2F2F2;}
	.st45{opacity:0.6;fill:#3C5366;}
	.st46{fill:#3C5366;}
	.st47{fill:#1B2A35;}
	.st48{fill:#7B0000;}
	.st49{fill:#9EC3F2;}
	.st50{fill:#4D84C1;}
	.st51{opacity:0.74;fill:#7B0000;}
	.st52{opacity:0.74;fill:#C00000;}
	.st53{fill:#CBDCF4;}
	.st54{fill:#500000;}
	.st55{fill:#56AAE8;}
	.st56{fill:#FF9999;}
	.st57{opacity:0.3;fill:#FFFFFF;}
	.st58{opacity:0.3;}
	.st59{fill:#F98706;}
	.st60{fill:#FFCC00;}
	.st61{fill:#0092DB;}
	.st62{fill:#00B7FF;}
	.st63{fill:#50D6FF;}
	.st64{fill:#88E0FF;}
	.st65{fill:#DDA800;}
	.st66{fill:#F4C42A;}
	.st67{fill:#FFDB4D;}
	.st68{opacity:0.4;fill:#441F00;}
	.st69{fill:#CE8032;}
	.st70{fill:#6B8900;}
	.st71{fill:#9AC400;}
	.st72{fill:#C2DD00;}
	.st73{opacity:0.2;}
	.st74{fill:#E6F1FF;}
	.st75{fill:#0B0B0C;}
	.st76{fill:#0080FF;}
	.st77{fill:#FFED83;}
	.st78{fill:#AA6500;}
	.st79{clip-path:url(#SVGID_26_);}
	.st80{opacity:0.2;fill:#48A0FF;}
	.st81{fill:#E27100;}
	.st82{fill:#FFB000;}
	.st83{fill:#FFAA00;}
	.st84{fill:#FFDF7B;}
	.st85{opacity:0.2;fill:#F98706;}
	.st86{fill:#B6E7FF;}
	.st87{fill:#D9F4FF;}
	.st88{fill:#379AF4;}
	.st89{fill:#8FD4FF;}
	.st90{fill:#5FBBFF;}
	.st91{opacity:0.2;fill:#379AF4;}
	.st92{fill:#FFF0C5;}
	.st93{fill:#7599BC;}
	.st94{fill:#1D1D38;}
	.st95{opacity:0.15;fill:#0B0019;}
	.st96{opacity:0.05;fill:#FFFFFF;}
	.st97{fill:#618099;}
	.st98{fill:#494968;}
	.st99{fill:#595972;}
	.st100{fill:#E9BC00;}
	.st101{opacity:0.5;}
	.st102{fill:#DDDFE4;}
	.st103{opacity:0.3;fill:#0B0019;}
	.st104{opacity:0.08;fill:#FFFFFF;}
	.st105{fill:#5A5A84;}
	.st106{fill:#B3B3CE;}
	.st107{fill:#FD1B64;}
	.st108{fill:#D6004D;}
	.st109{fill:#920006;}
	.st110{fill:#8585A8;}
	.st111{fill:#171723;}
	.st112{opacity:0.1;fill:#FFFFFF;}
	.st113{opacity:0.2;fill:#0B0019;}
	.st114{fill:#547D9B;}
	.st115{fill:#A1D5FF;}
	.st116{fill:#00254D;}
	.st117{opacity:0.1;fill:#3E0A75;}
	.st118{opacity:0.4;fill:#FFFFFF;}
	.st119{fill:#2D5171;}
	.st120{fill:#B88352;}
	.st121{fill:#EFC478;}
	.st122{fill:#76838E;}
	.st123{fill:#B7A1E2;}
	.st124{fill:#FF4385;}
	.st125{fill:#D30041;}
	.st126{fill:#ED065F;}
	.st127{opacity:0.8;fill:#FFFFFF;}
	.st128{fill:#5D422A;}
	.st129{opacity:0.3;fill:#3E0A75;}
	.st130{fill:#FF7187;}
	.st131{fill:#CE4A69;}
	.st132{fill:#444468;}
	.st133{fill:#1A1A23;}
	.st134{fill:#1F95DD;}
	.st135{fill:#DA0000;}
	.st136{fill:#2C2C4C;}
	.st137{fill:#BCBCE8;}
	.st138{fill:#222B33;}
	.st139{fill:#394854;}
	.st140{fill:#273544;}
	.st141{fill:#86A9BF;}
	.st142{fill:#F79984;}
	.st143{fill:#0A0F11;}
	.st144{fill:#E07868;}
	.st145{fill:#D35440;}
	.st146{fill:#FFC2B8;}
	.st147{fill:#A53A2F;}
	.st148{fill:#C64E36;}
	.st149{fill:#070000;}
	.st150{fill:#230200;}
	.st151{fill:#540000;}
	.st152{fill:#AF8F08;}
	.st153{fill:#16D8C0;}
	.st154{fill:#75EFDD;}
	.st155{fill:#00AF96;}
	.st156{fill:#00846E;}
	.st157{fill:#FFE161;}
	.st158{fill:#05C4A8;}
	.st159{fill:#F3E9FF;}
	.st160{fill:#FFC5DB;}
	.st161{fill:#E5D2FF;}
	.st162{fill:#CDB3FF;}
	.st163{opacity:0.2;fill:#3E0A75;}
	.st164{fill:#A8003D;}
	.st165{fill:#AA6D35;}
	.st166{fill:#FFD6B8;}
	.st167{fill:#FFE697;}
	.st168{fill:#FFDD88;}
	.st169{fill:#FF5986;}
	.st170{opacity:0.4;fill:#C40059;}
	.st171{fill:#CC004E;}
	.st172{fill:#2D2D2D;}
	.st173{opacity:0.6;}
	.st174{fill:#3D3D3D;}
	.st175{fill:#4F4F4F;}
	.st176{fill:#636363;}
	.st177{fill:#E9F5FF;}
	.st178{fill:#C1E0F4;}
	.st179{fill:#E50000;}
	.st180{fill:#FF7373;}
	.st181{fill:#F25F5F;}
	.st182{fill:#FFB200;}
	.st183{opacity:0.5;fill:#FF7373;}
	.st184{fill:#FFCF7B;}
	.st185{fill:#00CEC3;}
	.st186{fill:#00EAD9;}
	.st187{fill:#00A599;}
	.st188{fill:#007F73;}
	.st189{fill:#DD5050;}
	.st190{fill:#FFA6A6;}
	.st191{fill:#45793B;}
	.st192{fill:#35612A;}
	.st193{fill:#235317;}
	.st194{fill:#5E8F44;}
	.st195{fill:#65954D;}
	.st196{fill:#930000;}
	.st197{fill:#F00000;}
	.st198{fill:#EAB80D;}
	.st199{fill:#FFD226;}
</style>
<g id="Credits_10_Birthday">
</g>
<g id="Credits_5000">
</g>
<g id="Credits_3000">
</g>
<g id="Credits_2000">
</g>
<g id="Credits_1000">
	<rect class="st0" width="512" height="512"/>
	<g>
		<g>
			<g>
				<path class="st93" d="M347.537,40.677c2.3-0.209,4.589,0.122,6.757,0.897c2.167,0.775,4.215,1.994,6.037,3.565
					c1.821,1.57,3.417,3.492,4.679,5.673c1.263,2.181,2.193,4.622,2.685,7.23l69.342,357.993c0.499,2.648,0.51,5.231,0.104,7.636
					c-0.407,2.407-1.232,4.635-2.407,6.572c-1.176,1.938-2.702,3.584-4.51,4.821c-1.809,1.239-3.901,2.069-6.205,2.375
					l-259.047,34.41c-2.559,0.34-5.099,0.094-7.501-0.643c-2.404-0.737-4.669-1.965-6.675-3.588
					c-2.008-1.624-3.756-3.642-5.125-5.959c-1.369-2.317-2.359-4.931-2.849-7.746L74.014,85.831
					c-0.482-2.77-0.421-5.457,0.103-7.943c0.524-2.484,1.509-4.768,2.875-6.733c1.365-1.964,3.108-3.61,5.149-4.823
					c2.039-1.212,4.375-1.991,6.927-2.222L347.537,40.677z"/>
			</g>
			<g>
				<path class="st53" d="M349.782,40.06c2.266-0.205,4.519,0.12,6.655,0.883c2.134,0.763,4.151,1.964,5.945,3.511
					c1.793,1.546,3.365,3.439,4.609,5.587c1.244,2.148,2.16,4.552,2.644,7.121l68.293,352.576c0.491,2.607,0.503,5.152,0.102,7.521
					c-0.4,2.37-1.213,4.565-2.37,6.472c-1.158,1.909-2.661,3.529-4.442,4.748c-1.782,1.22-3.842,2.038-6.111,2.34L169.98,464.708
					c-2.52,0.335-5.022,0.092-7.387-0.633c-2.368-0.726-4.598-1.935-6.574-3.534c-1.977-1.599-3.699-3.587-5.047-5.869
					c-1.348-2.282-2.323-4.857-2.805-7.628L80.398,84.531c-0.475-2.729-0.414-5.375,0.102-7.823
					c0.516-2.447,1.487-4.695,2.832-6.631c1.344-1.934,3.061-3.555,5.071-4.75c2.008-1.193,4.309-1.961,6.822-2.188L349.782,40.06z"
					/>
			</g>
			<g>
				<path class="st94" d="M345.136,48.664c2.034-0.184,4.057,0.107,5.974,0.793c1.916,0.685,3.727,1.763,5.337,3.152
					c1.61,1.388,3.021,3.087,4.137,5.016c1.116,1.928,1.939,4.086,2.374,6.393l61.308,316.516c0.441,2.341,0.451,4.625,0.092,6.751
					c-0.359,2.128-1.089,4.098-2.128,5.81c-1.04,1.714-2.389,3.168-3.987,4.263c-1.6,1.095-3.449,1.83-5.486,2.1l-239.074,31.336
					c-2.262,0.301-4.508,0.083-6.632-0.568c-2.125-0.652-4.128-1.737-5.902-3.172c-1.775-1.436-3.32-3.22-4.531-5.269
					c-1.211-2.049-2.085-4.36-2.519-6.848L93.263,89.499c-0.427-2.449-0.372-4.825,0.091-7.023c0.463-2.197,1.335-4.215,2.542-5.953
					c1.206-1.736,2.748-3.192,4.553-4.264c1.803-1.071,3.868-1.76,6.124-1.965L345.136,48.664z"/>
			</g>
			<path class="st95" d="M91.106,63.926l-2.037,0.185c-2.552,0.231-4.888,1.01-6.927,2.222c-2.041,1.213-3.785,2.859-5.149,4.822
				c-1.366,1.965-2.351,4.249-2.875,6.733c-0.524,2.486-0.586,5.173-0.103,7.943l68.808,368.084c0.49,2.814,1.48,5.429,2.849,7.745
				c1.369,2.317,3.117,4.335,5.124,5.959c2.006,1.623,4.271,2.851,6.675,3.588c2.402,0.737,4.942,0.983,7.501,0.643l217.757-28.925
				C185.969,367.276,114.364,160.545,91.106,63.926z"/>
			<path class="st96" d="M424.267,380.533L362.959,64.017c-0.435-2.307-1.257-4.465-2.374-6.393
				c-1.117-1.928-2.527-3.628-4.137-5.016c-1.611-1.389-3.422-2.467-5.337-3.152c-1.917-0.685-3.941-0.977-5.975-0.793
				L136.653,67.568l214.339,339.985l61.765-8.096c2.037-0.271,3.886-1.005,5.486-2.1c1.598-1.094,2.948-2.549,3.987-4.263
				c1.039-1.712,1.768-3.683,2.128-5.811C424.718,385.158,424.707,382.874,424.267,380.533z"/>
			<path class="st96" d="M404.203,400.579l8.554-1.121c2.037-0.271,3.886-1.005,5.486-2.1c1.598-1.094,2.948-2.549,3.987-4.263
				c1.039-1.712,1.768-3.683,2.128-5.811c0.359-2.127,0.349-4.411-0.092-6.751L362.959,64.017c-0.435-2.307-1.257-4.465-2.374-6.393
				c-1.117-1.928-2.527-3.628-4.137-5.016c-1.611-1.389-3.422-2.467-5.337-3.152c-1.917-0.685-3.941-0.977-5.975-0.793
				L187.817,62.929L404.203,400.579z"/>
			<path class="st96" d="M415.63,335.943L362.959,64.017c-0.435-2.307-1.257-4.465-2.374-6.393
				c-1.117-1.928-2.527-3.628-4.137-5.016c-1.611-1.389-3.422-2.467-5.337-3.152c-1.917-0.685-3.941-0.977-5.975-0.793
				l-107.61,9.757L415.63,335.943z"/>
			
				<ellipse transform="matrix(0.9859 -0.1672 0.1672 0.9859 -67.705 56.7827)" class="st97" cx="303.362" cy="430.47" rx="9.584" ry="11.409"/>
		</g>
		<g>
			<path class="st56" d="M239.844,189.366c1.454-0.153,2.902-0.137,4.343,0.042c1.44,0.179,2.873,0.52,4.299,1.017
				c1.425,0.497,2.844,1.149,4.255,1.949c1.411,0.8,2.815,1.75,4.211,2.841c0.456,0.358,0.904,0.731,1.345,1.113
				c0.441,0.383,0.877,0.775,1.31,1.173c0.433,0.397,0.864,0.799,1.296,1.201c0.432,0.401,0.866,0.802,1.304,1.197
				c0.27-0.459,0.537-0.925,0.805-1.393c0.267-0.468,0.535-0.939,0.808-1.408c0.272-0.469,0.549-0.935,0.834-1.394
				c0.285-0.459,0.578-0.912,0.883-1.353c0.747-1.07,1.542-2.075,2.391-3.001c0.849-0.925,1.753-1.77,2.72-2.518
				c0.966-0.748,1.995-1.399,3.095-1.936c1.099-0.538,2.268-0.962,3.515-1.257c0.24-0.056,0.479-0.109,0.719-0.158
				c0.239-0.049,0.479-0.093,0.717-0.134c0.239-0.041,0.477-0.077,0.716-0.11c0.238-0.033,0.476-0.062,0.714-0.087
				c1.481-0.156,2.949-0.159,4.401-0.011c1.452,0.148,2.889,0.447,4.308,0.896c1.418,0.448,2.819,1.046,4.2,1.793
				c1.38,0.746,2.74,1.64,4.077,2.68c1.865,1.447,3.506,3.024,4.928,4.724c1.422,1.7,2.625,3.524,3.616,5.465
				c0.991,1.941,1.769,3.999,2.341,6.167c0.572,2.169,0.936,4.448,1.1,6.832c0.153,2.195,0.13,4.329-0.042,6.411
				c-0.173,2.082-0.496,4.112-0.944,6.098c-0.448,1.987-1.021,3.929-1.694,5.837c-0.673,1.908-1.446,3.782-2.293,5.628
				c-1.184,2.581-2.487,5.06-3.891,7.453c-1.405,2.394-2.911,4.702-4.5,6.94c-1.59,2.239-3.262,4.407-4.999,6.521
				c-1.738,2.115-3.54,4.175-5.387,6.197c-0.723,0.793-1.458,1.573-2.2,2.345c-0.742,0.772-1.492,1.537-2.245,2.299
				c-0.753,0.762-1.509,1.521-2.262,2.282c-0.754,0.761-1.506,1.525-2.252,2.295c-0.056,0.059-0.111,0.113-0.166,0.162
				s-0.11,0.092-0.165,0.129s-0.112,0.067-0.17,0.09s-0.118,0.039-0.182,0.046c-0.046,0.005-0.093,0.007-0.142,0.003
				c-0.049-0.003-0.1-0.012-0.153-0.025c-0.053-0.013-0.109-0.031-0.167-0.054c-0.058-0.023-0.119-0.052-0.182-0.086
				c-2.713-1.452-5.409-2.944-8.079-4.493c-2.672-1.55-5.317-3.157-7.929-4.839c-2.613-1.683-5.192-3.44-7.728-5.289
				c-2.537-1.85-5.032-3.792-7.476-5.844c-1.591-1.336-3.15-2.711-4.667-4.134c-1.517-1.424-2.99-2.897-4.409-4.43
				c-1.419-1.534-2.783-3.128-4.08-4.794c-1.298-1.666-2.528-3.404-3.681-5.224c-0.91-1.438-1.753-2.901-2.515-4.393
				c-0.763-1.492-1.446-3.012-2.037-4.565c-0.591-1.553-1.089-3.138-1.483-4.759c-0.394-1.621-0.683-3.278-0.855-4.974
				c-0.272-2.705-0.156-5.367,0.308-7.904c0.464-2.536,1.275-4.946,2.391-7.149c1.116-2.201,2.538-4.195,4.223-5.9
				c1.685-1.703,3.633-3.117,5.803-4.161c0.588-0.283,1.175-0.537,1.761-0.763c0.586-0.226,1.17-0.424,1.754-0.594
				c0.583-0.17,1.166-0.312,1.747-0.427C238.685,189.515,239.265,189.427,239.844,189.366z"/>
		</g>
	</g>
</g>
<g id="Credits_750">
</g>
<g id="Credits_500">
</g>
<g id="Credits_300">
</g>
<g id="Credits_200">
</g>
<g id="Credits_100">
</g>
<g id="Credits_75">
</g>
<g id="Credits_50">
</g>
<g id="Credits_25">
</g>
<g id="Credits_10">
</g>
<g id="Credits_5">
</g>
<g id="Credits_1">
</g>
</svg>
