<?xml version="1.0" encoding="utf-8"?>
<!-- Generator: Adobe Illustrator 24.0.3, SVG Export Plug-In . SVG Version: 6.00 Build 0)  -->
<svg version="1.1" xmlns="http://www.w3.org/2000/svg" xmlns:xlink="http://www.w3.org/1999/xlink" x="0px" y="0px"
	 viewBox="0 0 512 512" style="enable-background:new 0 0 512 512;" xml:space="preserve">
<style type="text/css">
	.st0{fill:none;}
	.st1{fill:#FFFFFF;}
	.st2{fill:#ED0F49;}
	.st3{fill:#FFEBCA;}
	.st4{fill:#9B4231;}
	.st5{fill:#EAB363;}
	.st6{opacity:0.2;enable-background:new    ;}
	.st7{fill:#F7B5E5;}
	.st8{fill:#F9437C;}
	.st9{fill:#FFD7E5;}
	.st10{fill:#FF76A0;}
	.st11{fill:#BBD5FF;}
	.st12{fill:#85BC00;}
	.st13{fill:#00D871;}
	.st14{fill:#FFA300;}
	.st15{fill:#FF99FF;}
	.st16{fill:#E20569;}
	.st17{fill:#4BE08E;}
	.st18{fill:#06FFEC;}
	.st19{fill:#FFA403;}
	.st20{fill:#76D1FF;}
	.st21{fill:#6F00FF;}
	.st22{fill:#0050C4;}
	.st23{fill:#9772D3;}
	.st24{fill:#FFE564;}
	.st25{clip-path:url(#SVGID_2_);fill:#E5E5E5;}
	.st26{clip-path:url(#SVGID_4_);fill:#008BD8;}
	.st27{clip-path:url(#SVGID_6_);fill:#008BD8;}
	.st28{clip-path:url(#SVGID_8_);fill:#008BD8;}
	.st29{fill:#FFC639;}
	.st30{fill:#FF7900;}
	.st31{clip-path:url(#SVGID_10_);fill:#E5E5E5;}
	.st32{clip-path:url(#SVGID_12_);fill:#008BD8;}
	.st33{clip-path:url(#SVGID_14_);fill:#008BD8;}
	.st34{clip-path:url(#SVGID_16_);fill:#008BD8;}
	.st35{clip-path:url(#SVGID_18_);fill:#E5E5E5;}
	.st36{clip-path:url(#SVGID_20_);fill:#008BD8;}
	.st37{clip-path:url(#SVGID_22_);fill:#008BD8;}
	.st38{clip-path:url(#SVGID_24_);fill:#008BD8;}
	.st39{fill:#CAEFFF;}
	.st40{opacity:0.1;}
	.st41{fill:#3C0000;}
	.st42{fill:#C00000;}
	.st43{fill:#23292D;}
	.st44{fill:#F2F2F2;}
	.st45{opacity:0.6;fill:#3C5366;}
	.st46{fill:#3C5366;}
	.st47{fill:#1B2A35;}
	.st48{fill:#7B0000;}
	.st49{fill:#9EC3F2;}
	.st50{fill:#4D84C1;}
	.st51{opacity:0.74;fill:#7B0000;}
	.st52{opacity:0.74;fill:#C00000;}
	.st53{fill:#CBDCF4;}
	.st54{fill:#500000;}
	.st55{fill:#56AAE8;}
	.st56{fill:#FF9999;}
	.st57{opacity:0.3;fill:#FFFFFF;}
	.st58{opacity:0.3;}
	.st59{fill:#F98706;}
	.st60{fill:#FFCC00;}
	.st61{fill:#0092DB;}
	.st62{fill:#00B7FF;}
	.st63{fill:#50D6FF;}
	.st64{fill:#88E0FF;}
	.st65{fill:#DDA800;}
	.st66{fill:#F4C42A;}
	.st67{fill:#FFDB4D;}
	.st68{opacity:0.4;fill:#441F00;}
	.st69{fill:#CE8032;}
	.st70{fill:#6B8900;}
	.st71{fill:#9AC400;}
	.st72{fill:#C2DD00;}
	.st73{opacity:0.2;}
	.st74{fill:#E6F1FF;}
	.st75{fill:#0B0B0C;}
	.st76{fill:#0080FF;}
	.st77{fill:#FFED83;}
	.st78{fill:#AA6500;}
	.st79{clip-path:url(#SVGID_26_);}
	.st80{opacity:0.2;fill:#48A0FF;}
	.st81{fill:#E27100;}
	.st82{fill:#FFB000;}
	.st83{fill:#FFAA00;}
	.st84{fill:#FFDF7B;}
	.st85{opacity:0.2;fill:#F98706;}
	.st86{fill:#B6E7FF;}
	.st87{fill:#D9F4FF;}
	.st88{fill:#379AF4;}
	.st89{fill:#8FD4FF;}
	.st90{fill:#5FBBFF;}
	.st91{opacity:0.2;fill:#379AF4;}
	.st92{fill:#FFF0C5;}
	.st93{fill:#7599BC;}
	.st94{fill:#1D1D38;}
	.st95{opacity:0.15;fill:#0B0019;}
	.st96{opacity:0.05;fill:#FFFFFF;}
	.st97{fill:#618099;}
	.st98{fill:#494968;}
	.st99{fill:#595972;}
	.st100{fill:#E9BC00;}
	.st101{opacity:0.5;}
	.st102{fill:#DDDFE4;}
	.st103{opacity:0.3;fill:#0B0019;}
	.st104{opacity:0.08;fill:#FFFFFF;}
	.st105{fill:#5A5A84;}
	.st106{fill:#B3B3CE;}
	.st107{fill:#FD1B64;}
	.st108{fill:#D6004D;}
	.st109{fill:#920006;}
	.st110{fill:#8585A8;}
	.st111{fill:#171723;}
	.st112{opacity:0.1;fill:#FFFFFF;}
	.st113{opacity:0.2;fill:#0B0019;}
	.st114{fill:#547D9B;}
	.st115{fill:#A1D5FF;}
	.st116{fill:#00254D;}
	.st117{opacity:0.1;fill:#3E0A75;}
	.st118{opacity:0.4;fill:#FFFFFF;}
	.st119{fill:#2D5171;}
	.st120{fill:#B88352;}
	.st121{fill:#EFC478;}
	.st122{fill:#76838E;}
	.st123{fill:#B7A1E2;}
	.st124{fill:#FF4385;}
	.st125{fill:#D30041;}
	.st126{fill:#ED065F;}
	.st127{opacity:0.8;fill:#FFFFFF;}
	.st128{fill:#5D422A;}
	.st129{opacity:0.3;fill:#3E0A75;}
	.st130{fill:#FF7187;}
	.st131{fill:#CE4A69;}
	.st132{fill:#444468;}
	.st133{fill:#1A1A23;}
	.st134{fill:#1F95DD;}
	.st135{fill:#DA0000;}
	.st136{fill:#2C2C4C;}
	.st137{fill:#BCBCE8;}
	.st138{fill:#222B33;}
	.st139{fill:#394854;}
	.st140{fill:#273544;}
	.st141{fill:#86A9BF;}
	.st142{fill:#F79984;}
	.st143{fill:#0A0F11;}
	.st144{fill:#E07868;}
	.st145{fill:#D35440;}
	.st146{fill:#FFC2B8;}
	.st147{fill:#A53A2F;}
	.st148{fill:#C64E36;}
	.st149{fill:#070000;}
	.st150{fill:#230200;}
	.st151{fill:#540000;}
	.st152{fill:#AF8F08;}
	.st153{fill:#16D8C0;}
	.st154{fill:#75EFDD;}
	.st155{fill:#00AF96;}
	.st156{fill:#00846E;}
	.st157{fill:#FFE161;}
	.st158{fill:#05C4A8;}
	.st159{fill:#F3E9FF;}
	.st160{fill:#FFC5DB;}
	.st161{fill:#E5D2FF;}
	.st162{fill:#CDB3FF;}
	.st163{opacity:0.2;fill:#3E0A75;}
	.st164{fill:#A8003D;}
	.st165{fill:#AA6D35;}
	.st166{fill:#FFD6B8;}
	.st167{fill:#FFE697;}
	.st168{fill:#FFDD88;}
	.st169{fill:#FF5986;}
	.st170{opacity:0.4;fill:#C40059;}
	.st171{fill:#CC004E;}
	.st172{fill:#2D2D2D;}
	.st173{opacity:0.6;}
	.st174{fill:#3D3D3D;}
	.st175{fill:#4F4F4F;}
	.st176{fill:#636363;}
	.st177{fill:#E9F5FF;}
	.st178{fill:#C1E0F4;}
	.st179{fill:#E50000;}
	.st180{fill:#FF7373;}
	.st181{fill:#F25F5F;}
	.st182{fill:#FFB200;}
	.st183{opacity:0.5;fill:#FF7373;}
	.st184{fill:#FFCF7B;}
	.st185{fill:#00CEC3;}
	.st186{fill:#00EAD9;}
	.st187{fill:#00A599;}
	.st188{fill:#007F73;}
	.st189{fill:#DD5050;}
	.st190{fill:#FFA6A6;}
	.st191{fill:#45793B;}
	.st192{fill:#35612A;}
	.st193{fill:#235317;}
	.st194{fill:#5E8F44;}
	.st195{fill:#65954D;}
	.st196{fill:#930000;}
	.st197{fill:#F00000;}
	.st198{fill:#EAB80D;}
	.st199{fill:#FFD226;}
</style>
<g id="Credits_10_Birthday">
</g>
<g id="Credits_5000">
</g>
<g id="Credits_3000">
</g>
<g id="Credits_2000">
</g>
<g id="Credits_1000">
</g>
<g id="Credits_750">
</g>
<g id="Credits_500">
</g>
<g id="Credits_300">
</g>
<g id="Credits_200">
	<rect class="st0" width="512" height="512"/>
	<g>
		<path class="st132" d="M218.522,466.545c-3.67-1.048-7.133-2.867-10.204-5.311c-3.075-2.447-5.755-5.519-7.859-9.071
			c-2.104-3.553-3.628-7.583-4.39-11.943L132.84,78.334c-0.515-2.949-0.619-5.826-0.354-8.57c0.264-2.742,0.896-5.349,1.851-7.761
			c0.955-2.41,2.232-4.626,3.789-6.586c1.555-1.958,3.388-3.662,5.456-5.05l-16.067,10.792c-2.046,1.374-3.859,3.057-5.399,4.99
			c-1.541,1.936-2.807,4.122-3.753,6.499c-0.948,2.38-1.576,4.951-1.841,7.653c-0.265,2.704-0.167,5.539,0.338,8.444l61.901,356.352
			c0.746,4.292,2.245,8.259,4.318,11.755c2.072,3.495,4.716,6.517,7.749,8.923c3.031,2.404,6.449,4.191,10.073,5.219
			c3.619,1.027,7.442,1.297,11.288,0.669l161.832-32.062C370.13,440.235,222.186,467.591,218.522,466.545z"/>
		<g>
			<path class="st133" d="M300.45,40.045c3.529-0.22,7.035,0.368,10.353,1.619c3.313,1.25,6.441,3.161,9.219,5.59
				c2.776,2.427,5.205,5.372,7.125,8.692c1.919,3.319,3.329,7.016,4.068,10.948l63.798,339.698c0.768,4.088,0.79,8.097,0.171,11.846
				c-0.619,3.754-1.88,7.25-3.678,10.308c-1.801,3.063-4.141,5.687-6.916,7.69c-2.779,2.007-5.994,3.391-9.539,3.967
				l-148.632,27.388c-3.863,0.629-7.705,0.353-11.343-0.686c-3.643-1.04-7.081-2.846-10.13-5.272
				c-3.052-2.429-5.713-5.479-7.801-9.005c-2.089-3.527-3.602-7.528-4.358-11.856L130.021,81.73
				c-0.726-4.154-0.629-8.163,0.167-11.853c0.795-3.686,2.287-7.053,4.351-9.93c2.061-2.872,4.693-5.255,7.771-6.978
				c3.073-1.721,6.59-2.785,10.429-3.024L300.45,40.045z"/>
		</g>
		<g>
			<path class="st134" d="M312.852,190.777c2.209-0.207,4.409,0.102,6.495,0.838c2.084,0.735,4.053,1.895,5.805,3.39
				c1.75,1.494,3.282,3.323,4.492,5.396c1.209,2.073,2.096,4.393,2.556,6.869l9.973,53.718c0.463,2.495,0.457,4.93,0.049,7.195
				c-0.408,2.267-1.217,4.364-2.361,6.183c-1.144,1.821-2.623,3.363-4.368,4.515c-1.747,1.154-3.761,1.918-5.973,2.182l-60.21,7.169
				l-35.43,43.344l3.461-39.538l-7.365,0.877c-2.336,0.278-4.662,0.015-6.867-0.698c-2.208-0.714-4.293-1.879-6.144-3.403
				c-1.852-1.525-3.469-3.409-4.737-5.56c-1.269-2.151-2.188-4.567-2.647-7.156l-9.867-55.725c-0.455-2.568-0.407-5.066,0.066-7.382
				c0.473-2.314,1.372-4.445,2.62-6.282c1.246-1.835,2.841-3.376,4.708-4.513c1.865-1.135,4.001-1.867,6.333-2.086L312.852,190.777z
				"/>
		</g>
		<g>
			<path class="st135" d="M260.533,218.884c0.775-0.082,1.546-0.073,2.313,0.022c0.767,0.095,1.53,0.277,2.29,0.542
				c0.759,0.265,1.515,0.612,2.267,1.038c0.752,0.426,1.499,0.932,2.243,1.513c0.243,0.191,0.481,0.389,0.716,0.593
				c0.235,0.204,0.467,0.413,0.698,0.625c0.231,0.212,0.46,0.426,0.691,0.64c0.23,0.214,0.461,0.427,0.695,0.638
				c0.144-0.244,0.286-0.493,0.429-0.742c0.142-0.25,0.285-0.5,0.43-0.75c0.145-0.25,0.292-0.498,0.444-0.743
				c0.152-0.245,0.308-0.486,0.471-0.721c0.398-0.57,0.821-1.106,1.274-1.599c0.452-0.493,0.934-0.943,1.449-1.341
				c0.515-0.398,1.063-0.745,1.649-1.032c0.585-0.286,1.208-0.512,1.872-0.67c0.128-0.03,0.255-0.058,0.383-0.084
				c0.128-0.026,0.255-0.05,0.382-0.071c0.127-0.022,0.254-0.041,0.381-0.059c0.127-0.018,0.254-0.033,0.38-0.046
				c0.789-0.083,1.571-0.085,2.345-0.006c0.774,0.079,1.539,0.238,2.295,0.477c0.756,0.239,1.502,0.557,2.237,0.955
				c0.735,0.397,1.459,0.874,2.172,1.428c0.994,0.771,1.868,1.611,2.625,2.517c0.757,0.906,1.398,1.877,1.926,2.911
				c0.528,1.034,0.942,2.13,1.247,3.285c0.305,1.155,0.499,2.37,0.586,3.64c0.081,1.169,0.069,2.306-0.023,3.415
				c-0.092,1.109-0.264,2.19-0.503,3.248c-0.239,1.058-0.544,2.093-0.902,3.109c-0.359,1.017-0.77,2.015-1.222,2.998
				c-0.631,1.375-1.325,2.696-2.073,3.97c-0.748,1.275-1.551,2.505-2.397,3.697c-0.847,1.193-1.738,2.348-2.663,3.474
				c-0.926,1.127-1.886,2.224-2.87,3.301c-0.385,0.422-0.777,0.838-1.172,1.249c-0.396,0.411-0.795,0.819-1.196,1.225
				c-0.401,0.406-0.804,0.81-1.205,1.216c-0.402,0.406-0.802,0.812-1.2,1.223c-0.03,0.031-0.059,0.06-0.089,0.086
				c-0.029,0.026-0.058,0.049-0.088,0.069s-0.06,0.036-0.091,0.048s-0.063,0.021-0.097,0.025c-0.024,0.003-0.049,0.003-0.076,0.002
				s-0.053-0.006-0.082-0.013c-0.028-0.007-0.058-0.017-0.089-0.029c-0.031-0.012-0.063-0.028-0.097-0.046
				c-1.445-0.773-2.882-1.568-4.304-2.393c-1.423-0.826-2.832-1.682-4.224-2.578c-1.392-0.896-2.766-1.833-4.117-2.818
				c-1.352-0.986-2.681-2.02-3.983-3.113c-0.847-0.712-1.678-1.444-2.486-2.202c-0.808-0.759-1.593-1.543-2.349-2.36
				c-0.756-0.817-1.483-1.666-2.174-2.554c-0.691-0.888-1.347-1.813-1.961-2.783c-0.485-0.766-0.934-1.545-1.34-2.34
				c-0.406-0.795-0.77-1.605-1.085-2.432c-0.315-0.827-0.58-1.671-0.79-2.535c-0.21-0.863-0.364-1.746-0.456-2.65
				c-0.145-1.441-0.083-2.859,0.164-4.211c0.247-1.351,0.679-2.635,1.274-3.808c0.595-1.173,1.352-2.235,2.25-3.143
				c0.897-0.907,1.935-1.661,3.092-2.217c0.313-0.151,0.626-0.286,0.938-0.406c0.312-0.12,0.623-0.226,0.934-0.316
				c0.311-0.091,0.621-0.166,0.931-0.228C259.916,218.963,260.225,218.916,260.533,218.884z"/>
		</g>
		<g>
			<path class="st96" d="M390.524,382.697l-59.31-315.801c-0.738-3.932-2.149-7.629-4.067-10.948
				c-1.919-3.32-4.349-6.265-7.125-8.692c-2.779-2.429-5.906-4.341-9.219-5.59c-3.319-1.251-6.824-1.84-10.354-1.619l-121.173,8.12
				L390.524,382.697z"/>
			<path class="st96" d="M383.274,437.313c0.448-0.279,0.889-0.567,1.316-0.875c2.775-2.003,5.114-4.627,6.916-7.69
				c1.798-3.058,3.059-6.554,3.678-10.308c0.619-3.75,0.597-7.758-0.171-11.846L331.214,66.896
				c-0.738-3.932-2.149-7.629-4.067-10.948c-1.919-3.32-4.349-6.265-7.125-8.692c-2.779-2.429-5.906-4.341-9.219-5.59
				c-3.319-1.251-6.824-1.84-10.354-1.619l-147.711,9.899c-3.839,0.24-7.356,1.304-10.429,3.024
				c-0.105,0.058-0.204,0.124-0.307,0.184L383.274,437.313z"/>
			<path class="st96" d="M373.5,292.049L331.214,66.896c-0.738-3.932-2.149-7.629-4.067-10.948c-1.919-3.32-4.349-6.265-7.125-8.692
				c-2.779-2.429-5.906-4.341-9.219-5.59c-3.319-1.251-6.824-1.84-10.354-1.619l-76.379,5.118L373.5,292.049z"/>
		</g>
		
			<ellipse transform="matrix(0.9483 -0.3175 0.3175 0.9483 -5.2587 99.5356)" class="st133" cx="302.799" cy="65.904" rx="7.363" ry="8.415"/>
		<path class="st136" d="M218.521,466.545c-3.67-1.048-7.133-2.867-10.204-5.311c-3.075-2.447-5.756-5.519-7.859-9.071
			c-2.104-3.553-3.628-7.583-4.39-11.943L170.92,296.286l-21.091-17.746l28.932,166.558c0.746,4.292,2.245,8.259,4.318,11.755
			c2.072,3.495,4.715,6.517,7.749,8.923c3.031,2.404,6.449,4.191,10.073,5.219c3.619,1.027,7.442,1.297,11.288,0.669l161.832-32.062
			C370.13,440.235,222.186,467.591,218.521,466.545z"/>
		<path class="st110" d="M395.012,406.594L331.215,66.896c-0.739-3.932-2.149-7.629-4.068-10.948
			c-1.919-3.32-4.349-6.265-7.125-8.692c-2.778-2.429-5.906-4.341-9.22-5.59c-3.318-1.251-6.823-1.84-10.353-1.619l-147.712,9.899
			c-3.839,0.24-7.356,1.304-10.429,3.024c-3.078,1.724-5.71,4.106-7.771,6.978c-2.064,2.877-3.556,6.244-4.351,9.93
			c-0.796,3.69-0.892,7.699-0.167,11.853l62.766,359.244c0.756,4.328,2.27,8.329,4.358,11.856c2.088,3.526,4.749,6.576,7.802,9.005
			c3.049,2.427,6.487,4.232,10.13,5.272c3.638,1.039,7.479,1.315,11.343,0.686l148.632-27.388c3.545-0.577,6.76-1.961,9.539-3.968
			c2.774-2.003,5.114-4.627,6.915-7.69c1.799-3.058,3.06-6.554,3.678-10.308C395.803,414.691,395.781,410.682,395.012,406.594z
			 M391.602,415.369c-0.594,3.601-1.804,6.955-3.529,9.889c-1.728,2.938-3.973,5.456-6.635,7.378
			c-2.666,1.925-5.751,3.253-9.151,3.807l-142.6,26.276c-3.707,0.603-7.392,0.339-10.882-0.658c-3.495-0.998-6.793-2.73-9.719-5.058
			c-2.928-2.33-5.481-5.257-7.485-8.64c-2.004-3.384-3.456-7.223-4.181-11.375L135.4,84.225c-0.696-3.985-0.603-7.831,0.16-11.372
			c0.762-3.537,2.194-6.767,4.175-9.527c1.977-2.756,4.502-5.041,7.455-6.695c2.948-1.651,6.322-2.672,10.006-2.902l141.717-9.497
			c3.386-0.211,6.75,0.353,9.933,1.554c3.179,1.199,6.18,3.033,8.845,5.363c2.663,2.329,4.994,5.154,6.836,8.339
			c1.841,3.185,3.194,6.731,3.902,10.504l63.008,334.011C392.174,407.926,392.195,411.771,391.602,415.369z"/>
		<path class="st137" d="M139.49,63.686c0.083-0.119,0.16-0.243,0.245-0.361c1.977-2.756,4.502-5.041,7.455-6.695
			c2.948-1.651,6.322-2.672,10.006-2.902l141.717-9.497c3.386-0.211,6.75,0.353,9.933,1.554c3.179,1.199,6.18,3.033,8.845,5.363
			c2.663,2.329,4.994,5.154,6.836,8.339c1.841,3.185,3.194,6.731,3.902,10.504l63.008,334.011c0.737,3.922,0.758,7.768,0.165,11.365
			c-0.594,3.601-1.804,6.955-3.529,9.889c-1.621,2.757-3.702,5.136-6.151,7.008l2.719,4.134c2.752-1.999,5.075-4.608,6.865-7.652
			c1.799-3.058,3.06-6.554,3.678-10.308c0.619-3.75,0.597-7.758-0.171-11.846L331.215,66.896c-0.739-3.932-2.149-7.629-4.068-10.948
			c-1.919-3.32-4.349-6.265-7.125-8.692c-2.778-2.429-5.906-4.341-9.22-5.59c-3.318-1.251-6.823-1.84-10.353-1.619l-147.712,9.899
			c-3.839,0.24-7.356,1.304-10.429,3.024c-2.439,1.366-4.592,3.151-6.409,5.26L139.49,63.686z"/>
	</g>
</g>
<g id="Credits_100">
</g>
<g id="Credits_75">
</g>
<g id="Credits_50">
</g>
<g id="Credits_25">
</g>
<g id="Credits_10">
</g>
<g id="Credits_5">
</g>
<g id="Credits_1">
</g>
</svg>
