<?xml version="1.0" encoding="utf-8"?>
<!-- Generator: Adobe Illustrator 24.0.3, SVG Export Plug-In . SVG Version: 6.00 Build 0)  -->
<svg version="1.1" xmlns="http://www.w3.org/2000/svg" xmlns:xlink="http://www.w3.org/1999/xlink" x="0px" y="0px"
	 viewBox="0 0 512 512" style="enable-background:new 0 0 512 512;" xml:space="preserve">
<style type="text/css">
	.st0{fill:none;}
	.st1{fill:#FFFFFF;}
	.st2{fill:#ED0F49;}
	.st3{fill:#FFEBCA;}
	.st4{fill:#9B4231;}
	.st5{fill:#EAB363;}
	.st6{opacity:0.2;enable-background:new    ;}
	.st7{fill:#F7B5E5;}
	.st8{fill:#F9437C;}
	.st9{fill:#FFD7E5;}
	.st10{fill:#FF76A0;}
	.st11{fill:#BBD5FF;}
	.st12{fill:#85BC00;}
	.st13{fill:#00D871;}
	.st14{fill:#FFA300;}
	.st15{fill:#FF99FF;}
	.st16{fill:#E20569;}
	.st17{fill:#4BE08E;}
	.st18{fill:#06FFEC;}
	.st19{fill:#FFA403;}
	.st20{fill:#76D1FF;}
	.st21{fill:#6F00FF;}
	.st22{fill:#0050C4;}
	.st23{fill:#9772D3;}
	.st24{fill:#FFE564;}
	.st25{clip-path:url(#SVGID_2_);fill:#E5E5E5;}
	.st26{clip-path:url(#SVGID_4_);fill:#008BD8;}
	.st27{clip-path:url(#SVGID_6_);fill:#008BD8;}
	.st28{clip-path:url(#SVGID_8_);fill:#008BD8;}
	.st29{fill:#FFC639;}
	.st30{fill:#FF7900;}
	.st31{clip-path:url(#SVGID_10_);fill:#E5E5E5;}
	.st32{clip-path:url(#SVGID_12_);fill:#008BD8;}
	.st33{clip-path:url(#SVGID_14_);fill:#008BD8;}
	.st34{clip-path:url(#SVGID_16_);fill:#008BD8;}
	.st35{clip-path:url(#SVGID_18_);fill:#E5E5E5;}
	.st36{clip-path:url(#SVGID_20_);fill:#008BD8;}
	.st37{clip-path:url(#SVGID_22_);fill:#008BD8;}
	.st38{clip-path:url(#SVGID_24_);fill:#008BD8;}
	.st39{fill:#CAEFFF;}
	.st40{opacity:0.1;}
	.st41{fill:#3C0000;}
	.st42{fill:#C00000;}
	.st43{fill:#23292D;}
	.st44{fill:#F2F2F2;}
	.st45{opacity:0.6;fill:#3C5366;}
	.st46{fill:#3C5366;}
	.st47{fill:#1B2A35;}
	.st48{fill:#7B0000;}
	.st49{fill:#9EC3F2;}
	.st50{fill:#4D84C1;}
	.st51{opacity:0.74;fill:#7B0000;}
	.st52{opacity:0.74;fill:#C00000;}
	.st53{fill:#CBDCF4;}
	.st54{fill:#500000;}
	.st55{fill:#56AAE8;}
	.st56{fill:#FF9999;}
	.st57{opacity:0.3;fill:#FFFFFF;}
	.st58{opacity:0.3;}
	.st59{fill:#F98706;}
	.st60{fill:#FFCC00;}
	.st61{fill:#0092DB;}
	.st62{fill:#00B7FF;}
	.st63{fill:#50D6FF;}
	.st64{fill:#88E0FF;}
	.st65{fill:#DDA800;}
	.st66{fill:#F4C42A;}
	.st67{fill:#FFDB4D;}
	.st68{opacity:0.4;fill:#441F00;}
	.st69{fill:#CE8032;}
	.st70{fill:#6B8900;}
	.st71{fill:#9AC400;}
	.st72{fill:#C2DD00;}
	.st73{opacity:0.2;}
	.st74{fill:#E6F1FF;}
	.st75{fill:#0B0B0C;}
	.st76{fill:#0080FF;}
	.st77{fill:#FFED83;}
	.st78{fill:#AA6500;}
	.st79{clip-path:url(#SVGID_26_);}
	.st80{opacity:0.2;fill:#48A0FF;}
	.st81{fill:#E27100;}
	.st82{fill:#FFB000;}
	.st83{fill:#FFAA00;}
	.st84{fill:#FFDF7B;}
	.st85{opacity:0.2;fill:#F98706;}
	.st86{fill:#B6E7FF;}
	.st87{fill:#D9F4FF;}
	.st88{fill:#379AF4;}
	.st89{fill:#8FD4FF;}
	.st90{fill:#5FBBFF;}
	.st91{opacity:0.2;fill:#379AF4;}
	.st92{fill:#FFF0C5;}
	.st93{fill:#7599BC;}
	.st94{fill:#1D1D38;}
	.st95{opacity:0.15;fill:#0B0019;}
	.st96{opacity:0.05;fill:#FFFFFF;}
	.st97{fill:#618099;}
	.st98{fill:#494968;}
	.st99{fill:#595972;}
	.st100{fill:#E9BC00;}
	.st101{opacity:0.5;}
	.st102{fill:#DDDFE4;}
	.st103{opacity:0.3;fill:#0B0019;}
	.st104{opacity:0.08;fill:#FFFFFF;}
	.st105{fill:#5A5A84;}
	.st106{fill:#B3B3CE;}
	.st107{fill:#FD1B64;}
	.st108{fill:#D6004D;}
	.st109{fill:#920006;}
	.st110{fill:#8585A8;}
	.st111{fill:#171723;}
	.st112{opacity:0.1;fill:#FFFFFF;}
	.st113{opacity:0.2;fill:#0B0019;}
	.st114{fill:#547D9B;}
	.st115{fill:#A1D5FF;}
	.st116{fill:#00254D;}
	.st117{opacity:0.1;fill:#3E0A75;}
	.st118{opacity:0.4;fill:#FFFFFF;}
	.st119{fill:#2D5171;}
	.st120{fill:#B88352;}
	.st121{fill:#EFC478;}
	.st122{fill:#76838E;}
	.st123{fill:#B7A1E2;}
	.st124{fill:#FF4385;}
	.st125{fill:#D30041;}
	.st126{fill:#ED065F;}
	.st127{opacity:0.8;fill:#FFFFFF;}
	.st128{fill:#5D422A;}
	.st129{opacity:0.3;fill:#3E0A75;}
	.st130{fill:#FF7187;}
	.st131{fill:#CE4A69;}
	.st132{fill:#444468;}
	.st133{fill:#1A1A23;}
	.st134{fill:#1F95DD;}
	.st135{fill:#DA0000;}
	.st136{fill:#2C2C4C;}
	.st137{fill:#BCBCE8;}
	.st138{fill:#222B33;}
	.st139{fill:#394854;}
	.st140{fill:#273544;}
	.st141{fill:#86A9BF;}
	.st142{fill:#F79984;}
	.st143{fill:#0A0F11;}
	.st144{fill:#E07868;}
	.st145{fill:#D35440;}
	.st146{fill:#FFC2B8;}
	.st147{fill:#A53A2F;}
	.st148{fill:#C64E36;}
	.st149{fill:#070000;}
	.st150{fill:#230200;}
	.st151{fill:#540000;}
	.st152{fill:#AF8F08;}
	.st153{fill:#16D8C0;}
	.st154{fill:#75EFDD;}
	.st155{fill:#00AF96;}
	.st156{fill:#00846E;}
	.st157{fill:#FFE161;}
	.st158{fill:#05C4A8;}
	.st159{fill:#F3E9FF;}
	.st160{fill:#FFC5DB;}
	.st161{fill:#E5D2FF;}
	.st162{fill:#CDB3FF;}
	.st163{opacity:0.2;fill:#3E0A75;}
	.st164{fill:#A8003D;}
	.st165{fill:#AA6D35;}
	.st166{fill:#FFD6B8;}
	.st167{fill:#FFE697;}
	.st168{fill:#FFDD88;}
	.st169{fill:#FF5986;}
	.st170{opacity:0.4;fill:#C40059;}
	.st171{fill:#CC004E;}
	.st172{fill:#2D2D2D;}
	.st173{opacity:0.6;}
	.st174{fill:#3D3D3D;}
	.st175{fill:#4F4F4F;}
	.st176{fill:#636363;}
	.st177{fill:#E9F5FF;}
	.st178{fill:#C1E0F4;}
	.st179{fill:#E50000;}
	.st180{fill:#FF7373;}
	.st181{fill:#F25F5F;}
	.st182{fill:#FFB200;}
	.st183{opacity:0.5;fill:#FF7373;}
	.st184{fill:#FFCF7B;}
	.st185{fill:#00CEC3;}
	.st186{fill:#00EAD9;}
	.st187{fill:#00A599;}
	.st188{fill:#007F73;}
	.st189{fill:#DD5050;}
	.st190{fill:#FFA6A6;}
	.st191{fill:#45793B;}
	.st192{fill:#35612A;}
	.st193{fill:#235317;}
	.st194{fill:#5E8F44;}
	.st195{fill:#65954D;}
	.st196{fill:#930000;}
	.st197{fill:#F00000;}
	.st198{fill:#EAB80D;}
	.st199{fill:#FFD226;}
</style>
<g id="Credits_10_Birthday">
</g>
<g id="Credits_5000">
</g>
<g id="Credits_3000">
</g>
<g id="Credits_2000">
</g>
<g id="Credits_1000">
</g>
<g id="Credits_750">
</g>
<g id="Credits_500">
</g>
<g id="Credits_300">
	<rect class="st0" width="512" height="512"/>
	<g>
		<g>
			<path class="st114" d="M396.831,187.604c-2.453,11.185-6.284,21.75-11.449,31.337c-12.698,23.57-31.921,38.362-54.13,41.651
				c-8.404,1.245-16.771,0.765-24.895-1.229c-35.07-8.61-65.598-45.444-74.818-93.636l-7.938,0.545
				c5.533,29.902,18.973,56.624,38.204,75.747c12.912,12.84,27.471,21.319,42.577,25.027c9.223,2.264,18.652,2.749,28.028,1.36
				c24.735-3.663,46.017-19.9,59.926-45.718c5.512-10.232,9.599-21.492,12.208-33.397L396.831,187.604z"/>
			
				<ellipse transform="matrix(0.9258 -0.3781 0.3781 0.9258 -32.3139 128.9223)" class="st114" cx="312.161" cy="146.753" rx="77.896" ry="104.365"/>
			
				<ellipse transform="matrix(0.9258 -0.3781 0.3781 0.9258 -29.1121 133.7921)" class="st115" cx="326.163" cy="141.034" rx="77.896" ry="104.365"/>
			<circle class="st116" cx="235.962" cy="165.701" r="11.057"/>
			<circle class="st114" cx="229.644" cy="168.071" r="11.057"/>
			
				<ellipse transform="matrix(0.9258 -0.3781 0.3781 0.9258 -29.1121 133.7921)" class="st0" cx="326.163" cy="141.034" rx="77.896" ry="104.365"/>
			<path class="st117" d="M247.203,69.883c-19.432,25.304-23.354,66.662-7.156,106.322c21.793,53.36,71.747,83.431,111.574,67.165
				c2.362-0.965,4.633-2.075,6.816-3.314c2.425-0.644,4.824-1.44,7.187-2.405c16.199-6.616,28.228-19.88,35.332-36.878
				C310.073,192.595,266.369,118.842,247.203,69.883z"/>
			<path class="st118" d="M317.492,40.501L261.97,186.787c8.65,15.198,19.699,27.826,31.943,37.158l63.282-166.732
				C344.726,47.991,331.075,42.169,317.492,40.501z"/>
			<path class="st118" d="M398.277,111.582c-6.39-15.646-15.204-29.286-25.471-40.347l-61.924,163.154
				c14.257,6.818,29.294,9.326,43.547,6.586l46.472-122.443C400.092,116.211,399.221,113.894,398.277,111.582z"/>
		</g>
		<g>
			<rect x="45.189" y="329.198" class="st116" width="44.626" height="142.802"/>
			<rect x="52.626" y="329.198" class="st119" width="11.9" height="142.802"/>
			<rect x="77.914" y="329.198" class="st116" width="11.9" height="142.802"/>
			<rect x="51.139" y="85.244" class="st116" width="32.726" height="243.954"/>
			<rect x="56.593" y="85.244" class="st119" width="8.727" height="243.954"/>
			<rect x="75.138" y="85.244" class="st116" width="8.727" height="243.954"/>
			<rect x="45.189" y="339.61" class="st120" width="44.626" height="11.9"/>
			<rect x="52.626" y="339.61" class="st121" width="11.9" height="11.9"/>
		</g>
		<g>
			<rect x="111.813" y="384.784" class="st116" width="44.626" height="86.276"/>
			<path class="st122" d="M135.588,164.63h-2.925c-1.657,0-3,1.343-3,3v217.154h8.925V167.63
				C138.588,165.973,137.245,164.63,135.588,164.63z"/>
			<rect x="119.251" y="384.784" class="st119" width="11.9" height="86.276"/>
			<rect x="144.539" y="384.784" class="st116" width="11.9" height="86.276"/>
			<rect x="111.813" y="399.659" class="st120" width="44.626" height="11.9"/>
			<rect x="119.251" y="399.659" class="st121" width="11.9" height="11.9"/>
			<path class="st122" d="M167.326,212.231h-64.914c-1.381,0-2.5-1.119-2.5-2.5v-2.438c0-1.381,1.119-2.5,2.5-2.5h64.914
				c1.381,0,2.5,1.119,2.5,2.5v2.438C169.826,211.112,168.707,212.231,167.326,212.231z"/>
			<path class="st122" d="M156.914,197.356h-44.088c-1.381,0-2.5-1.119-2.5-2.5v-2.438c0-1.381,1.119-2.5,2.5-2.5h44.088
				c1.381,0,2.5,1.119,2.5,2.5v2.438C159.414,196.237,158.295,197.356,156.914,197.356z"/>
			<path class="st122" d="M156.914,227.106h-44.088c-1.381,0-2.5-1.119-2.5-2.5v-2.438c0-1.381,1.119-2.5,2.5-2.5h44.088
				c1.381,0,2.5,1.119,2.5,2.5v2.438C159.414,225.987,158.295,227.106,156.914,227.106z"/>
			<path class="st122" d="M149.476,183.968h-29.213c-1.381,0-2.5-1.119-2.5-2.5v-2.438c0-1.381,1.119-2.5,2.5-2.5h29.213
				c1.381,0,2.5,1.119,2.5,2.5v2.438C151.976,182.849,150.857,183.968,149.476,183.968z"/>
			<path class="st122" d="M149.476,241.982h-29.213c-1.381,0-2.5-1.119-2.5-2.5v-2.438c0-1.381,1.119-2.5,2.5-2.5h29.213
				c1.381,0,2.5,1.119,2.5,2.5v2.438C151.976,240.862,150.857,241.982,149.476,241.982z"/>
		</g>
		<g>
			<path class="st123" d="M255.284,337.421c0,0-3.661,69.566,49.428,126.317c0,0,56.751,16.476,113.502,0
				c0,0,56.751-54.92,47.598-126.317C465.812,337.421,363.294,308.13,255.284,337.421z"/>
			<path class="st124" d="M274.982,348.656c0,0-2.979,56.606,40.22,102.785c0,0,46.179,13.407,92.358,0
				c0,0,46.179-44.689,38.731-102.785C446.29,348.656,362.871,324.822,274.982,348.656z"/>
			<path class="st125" d="M294.68,359.892c0,0-2.297,43.647,31.012,79.253c0,0,35.607,10.337,71.213,0
				c0,0,35.607-34.458,29.864-79.253C426.769,359.892,362.447,341.514,294.68,359.892z"/>
			<path class="st126" d="M312.591,358.789c0,0-1.987,37.756,26.827,68.557c0,0,30.801,8.942,61.602,0
				c0,0,30.801-29.807,25.833-68.557C426.853,358.789,371.213,342.892,312.591,358.789z"/>
			<path class="st124" d="M334.087,350.677c0,0-1.731,34.222,23.369,62.139c0,0,26.831,8.105,53.663,0
				c0,0,26.831-27.017,22.504-62.139C433.623,350.677,385.153,336.268,334.087,350.677z"/>
			<g>
				<path class="st1" d="M413.671,367.455H411c-3.049,0-5.522-2.472-5.522-5.522v-21.995c0-3.049,2.472-5.522,5.522-5.522h2.671
					c3.049,0,5.522,2.472,5.522,5.522v21.995C419.193,364.983,416.721,367.455,413.671,367.455z"/>
				<path class="st127" d="M413.671,392.389H411c-3.049,0-5.522-2.472-5.522-5.522v-2.671c0-3.049,2.472-5.522,5.522-5.522h2.671
					c3.049,0,5.522,2.472,5.522,5.522v2.671C419.193,389.917,416.721,392.389,413.671,392.389z"/>
			</g>
			<path class="st116" d="M255.284,273.347c0,0,102.518-32.952,210.528,0v64.074c0,0-100.687-25.629-210.528,0V273.347z"/>
			<path class="st119" d="M277.621,332.872c22.921-4.024,45.152-5.988,65.819-6.612v-67.073
				c-27.277,1.331-50.192,5.162-65.819,8.504V332.872z"/>
			<path class="st116" d="M427.886,264.268v66.359c23.654,3.162,37.926,6.794,37.926,6.794v-64.074
				C453.038,269.45,440.345,266.485,427.886,264.268z"/>
			<path class="st120" d="M255.284,323.761v13.66c109.841-25.629,210.528,0,210.528,0v-13.66
				C465.812,323.761,365.125,298.131,255.284,323.761z"/>
			<path class="st121" d="M343.439,312.6c-20.667,0.623-42.898,2.588-65.819,6.612v13.66c0.001,0,0.001,0,0.002,0
				c8.553-1.501,17.008-2.716,25.323-3.68c0.09-0.01,0.18-0.021,0.27-0.031c8.155-0.941,16.171-1.643,24.01-2.139
				c0.284-0.018,0.567-0.036,0.85-0.053c2.458-0.151,4.9-0.285,7.321-0.397c0.221-0.01,0.439-0.019,0.659-0.029
				c2.481-0.112,4.945-0.208,7.384-0.281V312.6z"/>
			<path class="st128" d="M427.886,330.627c0.477,0.064,0.942,0.128,1.41,0.192c0.366,0.05,0.731,0.1,1.091,0.15
				c0.484,0.067,0.964,0.135,1.44,0.202c0.334,0.047,0.664,0.095,0.993,0.142c0.48,0.069,0.96,0.138,1.43,0.207
				c0.248,0.036,0.488,0.073,0.733,0.109c0.904,0.134,1.789,0.268,2.658,0.403c0.286,0.044,0.574,0.088,0.857,0.132
				c0.454,0.071,0.901,0.142,1.346,0.212c0.272,0.043,0.541,0.087,0.81,0.13c0.452,0.073,0.904,0.146,1.346,0.218
				c0.052,0.008,0.101,0.017,0.153,0.025c0.994,0.163,1.956,0.325,2.894,0.486c0.209,0.036,0.419,0.072,0.625,0.107
				c0.421,0.073,0.836,0.145,1.246,0.217c0.202,0.036,0.401,0.071,0.6,0.106c0.41,0.073,0.819,0.145,1.216,0.217
				c0.091,0.016,0.178,0.032,0.269,0.049c0.813,0.147,1.598,0.292,2.357,0.434c0.167,0.031,0.337,0.063,0.501,0.094
				c0.361,0.068,0.712,0.135,1.06,0.202c0.172,0.033,0.342,0.066,0.511,0.098c0.34,0.066,0.677,0.131,1.004,0.195
				c0.092,0.018,0.177,0.035,0.267,0.053c0.659,0.13,1.289,0.255,1.892,0.378c0.137,0.028,0.277,0.056,0.411,0.083
				c0.286,0.058,0.561,0.115,0.833,0.171c0.147,0.03,0.29,0.06,0.433,0.09c0.263,0.054,0.523,0.109,0.772,0.161
				c0.099,0.021,0.192,0.041,0.289,0.061c0.485,0.103,0.944,0.201,1.376,0.295c0.104,0.022,0.21,0.046,0.311,0.068
				c0.209,0.045,0.406,0.089,0.602,0.132c0.123,0.027,0.242,0.053,0.36,0.08c0.178,0.04,0.354,0.079,0.52,0.116
				c0.099,0.022,0.19,0.043,0.285,0.064c0.286,0.065,0.552,0.126,0.799,0.182c0.099,0.023,0.201,0.046,0.294,0.068
				c0.119,0.028,0.227,0.053,0.336,0.079c0.096,0.022,0.186,0.044,0.273,0.064c0.09,0.021,0.178,0.042,0.258,0.061
				c0.116,0.028,0.218,0.052,0.315,0.076c0.072,0.017,0.136,0.033,0.197,0.048c0.082,0.02,0.158,0.038,0.221,0.054
				c0.053,0.013,0.091,0.023,0.132,0.033c0.032,0.008,0.056,0.014,0.079,0.02c0.032,0.008,0.054,0.013,0.072,0.018
				c0.032,0.008,0.052,0.013,0.052,0.013v-13.66c0,0-14.272-3.632-37.926-6.794V330.627z"/>
			<path class="st129" d="M282.242,266.734c-16.99,3.41-26.958,6.614-26.958,6.614v64.074c0,0-3.661,69.566,49.428,126.317
				c0,0,56.751,16.476,113.502,0c0,0,6.733-6.516,15.186-17.975C300.753,406.787,283.635,306.599,282.242,266.734z"/>
		</g>
		<g>
			<rect x="186.121" y="427.013" class="st116" width="50.744" height="44.401"/>
			<rect x="192.464" y="411.79" class="st116" width="38.058" height="15.223"/>
			<rect x="192.781" y="333.137" class="st120" width="38.058" height="78.653"/>
			<rect x="185.807" y="427.013" class="st119" width="16.193" height="44.401"/>
			<rect x="192.464" y="333.137" class="st121" width="16.492" height="78.653"/>
			<rect x="224.178" y="333.137" class="st128" width="6.343" height="78.653"/>
			<path class="st130" d="M211.81,267.17h-0.317c-8.758,0-15.54,14.711-15.54,23.469v42.498h31.715v-42.498
				C227.667,281.881,220.567,267.17,211.81,267.17z"/>
			<path class="st131" d="M211.81,267.17h-0.317v65.967h16.175v-42.498C227.667,281.881,220.567,267.17,211.81,267.17z"/>
		</g>
	</g>
</g>
<g id="Credits_200">
</g>
<g id="Credits_100">
</g>
<g id="Credits_75">
</g>
<g id="Credits_50">
</g>
<g id="Credits_25">
</g>
<g id="Credits_10">
</g>
<g id="Credits_5">
</g>
<g id="Credits_1">
</g>
</svg>
