<?xml version="1.0" encoding="utf-8"?>
<!-- Generator: Adobe Illustrator 26.0.1, SVG Export Plug-In . SVG Version: 6.00 Build 0)  -->
<svg version="1.1" id="Layer_1" xmlns="http://www.w3.org/2000/svg" xmlns:xlink="http://www.w3.org/1999/xlink" x="0px" y="0px"
	 width="512px" height="512px" viewBox="0 0 512 512" style="enable-background:new 0 0 512 512;" xml:space="preserve">
<style type="text/css">
	.st0{fill:#FFFFFF;}
	.st1{fill:#FFD422;}
	.st2{fill:#FF548B;}
	.st3{fill:#FFCC00;}
</style>
<g>
	<g id="Layer_1_00000093152673905482706770000014441925124559130806_">
	</g>
	<g id="Layer_2_copy">
	</g>
	<g id="Layer_2_00000157282394330484355090000016940724451891351189_">
		<g>
			<path class="st0" d="M465.9,233.6c-0.7-13.3-3.8-26.3-9.1-38.7l5.7-18.9l1.3-4.3c2-6.6,1-13.7-2.6-19.5s-9.5-9.8-16.3-11
				l-4.4-0.8l-35.4-6.2c-3.2-2.2-6.5-4.3-9.8-6.4c-18.4-11.2-39.3-19.9-62-25.8c-22.4-5.8-46-8.7-70.2-8.7c-3.3,0-6.6,0.1-9.9,0.2
				c-13,0.4-26,1.7-38.5,3.8c-44.1,7.4-84.1,25.2-112.7,50.1c-1,0.9-2.1,1.9-3.3,2.9c-2,1.6-3.9,3.2-5.7,4.7
				c-32.2,28-48.8,63.8-46.8,100.7c1.5,28.2,13.9,55.1,35.8,78c10.7,11.2,23.6,21.1,38.1,29.6c-2.2,3.7-3.6,7.9-4.2,12.4
				c-1.6,13.9,5.7,27.1,18.2,33c2.2,1,22,9.9,47,9.9c3.3,0,6.6-0.2,9.8-0.5c2.7-0.3,5.4-0.6,8.1-1.1c11.2-1.9,31.2-7.1,48.3-21.1
				c0.7,0,1.4,0,2,0c3.2,0,6.5-0.1,9.6-0.2c13-0.4,26-1.7,38.5-3.8c44.1-7.4,84.1-25.2,112.7-50.1c1-0.9,2.1-1.9,3.3-2.9
				c2-1.6,3.9-3.2,5.7-4.7C451.2,306.3,467.8,270.5,465.9,233.6z"/>
			<g>
				<path class="st1" d="M77.4,254.3c-3.4-63.8,71.9-118.1,168-121.3c96.2-3.2,176.9,46,180.3,109.8c3.4,63.8-71.9,118.1-168,121.3
					c-7.7,0.3-15.4,0.2-22.9-0.2c-11.8,14.7-31.4,21.2-47,22.7c-22,2.1-40.8-6.7-40.8-6.7c14.5-1.7,23.5-6.6,29.9-12.6
					c3.9-3.7,5.9-7.8,6.7-11.6C123.1,339.2,79.8,300.6,77.4,254.3z"/>
				<path class="st1" d="M210.9,136.4c11.1-1.9,22.6-3,34.5-3.4c96.2-3.2,176.9,46,180.3,109.8c3,56-54.5,104.6-133.6,117.9
					c-11.1,1.9-22.6,3-34.5,3.4c-7.7,0.3-15.4,0.2-22.9-0.2c-10.3,12.9-26.7,19.5-41.2,21.9c-2,0.3-4,0.6-5.9,0.8
					c-22,2.1-40.8-6.7-40.8-6.7c1.4-0.2,2.8-0.4,4.1-0.6c12.2-2,20.1-6.6,25.8-12c3.9-3.7,5.9-7.8,6.7-11.6
					C123,339.3,79.7,300.6,77.3,254.3C74.4,198.3,131.9,149.7,210.9,136.4 M209.6,128.7c-39.8,6.7-75.6,22.5-100.9,44.5
					c-26.5,23.1-40.2,52-38.6,81.3c2.4,46,42.3,86.9,102.5,106.1c-0.2,0.3-0.5,0.5-0.7,0.7c-5.7,5.4-12.7,8.6-22.2,10.2
					c-1.2,0.2-2.4,0.4-3.7,0.5c-0.1,0-0.2,0-0.4,0c-3.1,0.5-5.5,3.2-5.9,6.6c-0.4,3.5,1.4,7,4.5,8.4c0.8,0.4,20.8,9.6,44.4,7.3
					c2.1-0.2,4.2-0.5,6.4-0.8c10.5-1.8,29.5-6.9,43-21.7c6.7,0.3,13.4,0.3,20.1,0.1c11.9-0.4,23.8-1.6,35.3-3.5
					c39.8-6.7,75.6-22.5,100.9-44.5c26.5-23.1,40.2-52,38.6-81.3c-1.8-33.7-22.8-64.4-59.1-86.6c-35.2-21.4-81-32.4-128.8-30.8
					C233.1,125.5,221.2,126.7,209.6,128.7L209.6,128.7z"/>
			</g>
			<g>
				<path class="st2" d="M86.3,246.6c-3.4-63.8,71.9-118.1,168-121.3c96.2-3.2,176.9,46,180.3,109.8s-71.9,118.1-168,121.3
					c-7.7,0.3-15.4,0.2-22.9-0.2c-11.8,14.7-31.4,21.2-47,22.7c-22,2.1-40.8-6.7-40.8-6.7c14.5-1.7,23.5-6.6,29.9-12.6
					c3.9-3.7,5.9-7.8,6.7-11.6C132.1,331.6,88.8,292.9,86.3,246.6z"/>
				<path d="M219.9,128.7c11.1-1.9,22.6-3,34.5-3.4c96.2-3.2,176.9,46,180.3,109.8c3,56-54.5,104.6-133.6,117.9
					c-11.1,1.9-22.6,3-34.5,3.4c-7.7,0.3-15.4,0.2-22.9-0.2c-10.3,12.9-26.7,19.5-41.2,21.9c-2,0.3-4,0.6-5.9,0.8
					c-22,2.1-40.8-6.7-40.8-6.7c1.4-0.2,2.8-0.4,4.1-0.6c12.2-2,20.1-6.6,25.8-12c3.9-3.7,5.9-7.8,6.7-11.6
					C132,331.6,88.7,292.9,86.3,246.6C83.4,190.6,140.9,142,219.9,128.7 M218.6,121c-39.8,6.7-75.6,22.5-100.9,44.5
					c-26.5,23.1-40.2,52-38.6,81.3c2.4,46,42.3,86.9,102.5,106.1c-0.2,0.3-0.5,0.5-0.7,0.7c-5.7,5.4-12.7,8.6-22.2,10.2
					c-1.2,0.2-2.4,0.4-3.7,0.5c-0.1,0-0.2,0-0.4,0c-3.1,0.5-5.5,3.2-5.9,6.6c-0.4,3.5,1.4,7,4.5,8.4c0.8,0.4,20.8,9.6,44.4,7.3
					c2.1-0.2,4.2-0.5,6.4-0.8c10.5-1.8,29.5-6.9,43-21.7c6.7,0.3,13.4,0.3,20.1,0.1c11.9-0.4,23.8-1.6,35.3-3.5
					c39.8-6.7,75.6-22.5,100.9-44.5c26.5-23.1,40.2-52,38.6-81.3c-1.8-33.7-22.8-64.4-59.1-86.6c-35.2-21.4-81-32.4-128.8-30.8
					C242,117.9,230.1,119,218.6,121L218.6,121z"/>
			</g>
			<g>
				<polygon points="423.1,166.9 379.7,160.4 377.5,160.1 377.4,162.3 372.7,266 372.6,268.1 374.7,268.1 396.5,268 398,268 
					398.4,266.5 424.8,169.4 425.3,167.2 				"/>
				<path d="M385.6,272.1L385.6,272.1c-0.2,0-0.4,0-0.6,0c-3.6,0.1-7.1,1.1-9.7,2.8c-2.9,1.9-4.4,4.5-4.3,7.3
					c0.1,5.2,6.3,9.4,14,9.4c0.2,0,0.4,0,0.6,0c3.6-0.1,7.1-1.1,9.7-2.8c2.9-1.9,4.4-4.5,4.3-7.3
					C399.4,276.2,393.3,272.1,385.6,272.1z"/>
			</g>
			<path d="M371.7,229.4l-42.7-0.5h-1.9l-0.1,1.9l-1.4,22.3l-0.1,2.1h2.1l14.8,0.4c-4.8,6.5-11.2,10.1-18,10.1
				c-14.3,0-25.9-16-25.9-35.7c0-9.4,2.6-17.4,7.7-23.1c4.6-5.2,11.1-8.1,18.2-8.1c10.3,0,16.6,8.2,20.2,15.1l0.9,1.7l1.7-0.8
				l0.5-0.2c0.4-0.2,0.7-0.3,1.1-0.5c2.2-1,4.6-2.3,7.3-3.6c4.1-2.1,8.4-4.3,11.9-5.6l1.9-0.7l-0.7-1.9c-4-10.4-10.4-19.9-18.1-26.6
				c-8.2-7.3-17.4-11.1-26.6-11.1c-26.9,0-48.8,29.3-48.8,65.3s21.9,65.3,48.8,65.3c26,0,46.5-33,49.3-63.7l0.2-2.2L371.7,229.4z"/>
			<g>
				<path class="st3" d="M333.2,290.7c-26.3,0-47.6-28.5-47.6-63.5s21.4-63.5,47.6-63.5c17.9,0,34.2,13.2,42.4,34.4l0.7,1.9
					l-1.9,0.7c-5.7,2.1-11.2,4.3-16.5,6.7c-0.4,0.2-0.7,0.3-1.1,0.5l-2.2,1l-0.9-1.7c-4.7-9.2-12.4-14.6-20.5-14.6
					c-13.9,0-25.2,15.5-25.2,34.6s11.3,34.6,25.2,34.6c6.6,0,12.8-3.5,17.4-9.7l-16.6-0.4l1.7-22.1l45.8,0.5l-0.2,2.2
					C378.4,264.5,356.8,290.7,333.2,290.7z"/>
				<path d="M333.2,165.6c17.6,0,32.9,13.4,40.5,33.1c-5.6,2.1-11.2,4.3-16.6,6.8c-0.5,0.2-1,0.5-1.5,0.7
					c-4.9-9.5-13.1-15.7-22.3-15.7c-15,0-27.2,16.4-27.2,36.6s12.2,36.6,27.2,36.6c8.5,0,16.2-5.3,21.1-13.6l-18.1-0.4l1.4-18.2
					l41.7,0.5c-2.7,30.4-22.8,56.6-46.1,56.6c-25.2,0-45.6-27.5-45.6-61.5C287.6,193.2,308,165.6,333.2,165.6 M333.2,161.6
					c-13.5,0-26.1,7-35.5,19.6c-9.1,12.3-14.2,28.6-14.2,45.9s5,33.6,14.2,45.9c9.4,12.7,22,19.6,35.5,19.6
					c12.4,0,24.4-6.5,33.9-18.4c9-11.3,14.8-26.2,16.2-41.9l0.4-4.3l-4.3-0.1l-41.7-0.5h-3.8l-0.3,3.7l-1.4,18.2l-0.3,4.2l4.2,0.1
					l10.2,0.2c-3.8,3.8-8.4,5.8-13.1,5.8c-12.8,0-23.2-14.6-23.2-32.6s10.4-32.6,23.2-32.6c7.4,0,14.4,5.1,18.7,13.6l1.8,3.4
					l3.5-1.6l0.5-0.2c0.3-0.2,0.7-0.3,1-0.5c5.3-2.4,10.8-4.5,16.4-6.7l3.8-1.4l-1.5-3.8C368.9,175.3,352,161.6,333.2,161.6
					L333.2,161.6z"/>
			</g>
			<polygon points="266.8,179 266.6,178.2 244.6,179.1 242.5,223.3 237.1,179.9 217.5,180.9 207.2,302.5 232.1,302.5 232.1,252.7 
				245.6,274.3 255.2,255.9 263.3,303.5 289,301.5 			"/>
			<g>
				<polygon class="st3" points="225.6,174.3 243.4,173.5 250.2,227.5 252.7,172.6 273,171.7 295,293.1 271.3,294.9 262.9,245.2 
					252.7,264.7 238.3,241.7 238.3,294 215.5,294 				"/>
				<path d="M269.6,297l-7.8-45.6l-9,17.3l-12.5-20.1V296h-27l10.5-123.5l21.4-1.1l4.1,32.7l1.5-33.4l23.9-1L297.4,295L269.6,297z
					 M263.8,239l9.2,53.7l19.7-1.5l-21.3-117.5l-16.7,0.7l-2.5,53.1l-4,0.2l-6.5-52.2l-14.2,0.7L217.7,292h18.7v-57.3l16.2,26
					L263.8,239z"/>
			</g>
			<path d="M166.8,175.7c-30.1,0-54.6,28.9-54.6,64.3s24.5,64.3,54.6,64.3s54.6-28.9,54.6-64.3S196.9,175.7,166.8,175.7z
				 M166.8,273.9c-15.5,0-28.2-9.7-28.2-28.3s12.6-33.8,28.2-33.8c15.5,0,28.2,15.2,28.2,33.8S182.3,273.9,166.8,273.9z"/>
			<g>
				<path class="st3" d="M172.2,299.6c-26.3,0-47.6-28.5-47.6-63.5s21.4-63.5,47.6-63.5s47.6,28.5,47.6,63.5
					S198.5,299.6,172.2,299.6z M172.2,201.4c-13.9,0-25.2,15.5-25.2,34.6s11.3,34.6,25.2,34.6s25.2-15.5,25.2-34.6
					S186.1,201.4,172.2,201.4z"/>
				<path d="M172.2,174.5c25.2,0,45.6,27.5,45.6,61.5s-20.4,61.5-45.6,61.5S126.6,270,126.6,236S147,174.5,172.2,174.5 M172.2,272.7
					c15,0,27.2-16.4,27.2-36.6s-12.2-36.6-27.2-36.6S145,215.9,145,236.1C145.1,256.3,157.2,272.7,172.2,272.7 M172.2,170.5
					c-13.5,0-26.1,7-35.5,19.6c-9.1,12.3-14.2,28.6-14.2,45.9s5,33.6,14.2,45.9c9.4,12.7,22,19.6,35.5,19.6s26.1-7,35.5-19.6
					c9.1-12.3,14.2-28.6,14.2-45.9s-5-33.6-14.2-45.9C198.3,177.5,185.7,170.5,172.2,170.5L172.2,170.5z M172.2,268.7
					c-12.8,0-23.2-14.6-23.2-32.6s10.4-32.6,23.2-32.6s23.2,14.6,23.2,32.6S185,268.7,172.2,268.7L172.2,268.7z"/>
			</g>
			<g>
				<g>
					<polygon class="st3" points="382.8,265.8 390.6,158 438.2,166.3 408.2,266.4 					"/>
					<path d="M392.4,160.4l43.2,7.5l-28.9,96.4l-21.8-0.5L392.4,160.4 M388.7,155.7l-0.3,4.4L381,263.6l-0.3,4.2l4.2,0.1l21.8,0.5
						l3,0.1l0.9-2.9l28.9-96.4l1.3-4.3l-4.4-0.8l-43.2-7.5L388.7,155.7L388.7,155.7z"/>
				</g>
				<g>
					<path class="st3" d="M395.1,289.6c-8,0-14.3-4.3-14.3-9.7s6.3-9.7,14.3-9.7s14.3,4.3,14.3,9.7S403.1,289.6,395.1,289.6z"/>
					<path d="M395.1,272.2c6.8,0,12.3,3.5,12.3,7.7c0,4.3-5.5,7.7-12.3,7.7s-12.3-3.5-12.3-7.7C382.9,275.6,388.3,272.2,395.1,272.2
						 M395.1,268.2c-9.1,0-16.3,5.1-16.3,11.7s7.1,11.7,16.3,11.7s16.3-5.1,16.3-11.7C411.4,273.3,404.2,268.2,395.1,268.2
						L395.1,268.2z"/>
				</g>
			</g>
			<path class="st0" d="M188.3,148.1c0.7-0.3,1.3-0.5,2-0.8l1.9-0.7c1.3-0.4,2.5-0.9,3.8-1.3c2.5-0.8,5-1.6,7.5-2.3
				c5-1.4,10.1-2.6,15.2-3.7c10.2-2.1,20.5-3.5,30.7-4.3c5.2-0.4,10.3-0.5,15.5-0.6c5.2,0,10.3,0.2,15.4,0.6
				c10.2,0.7,20.4,2.3,30.3,4.7c-10.1-1.3-20.2-1.8-30.3-1.5c-5,0.1-10.1,0.6-15.1,1.1c-5,0.6-10,1.3-14.9,2.2
				c-9.9,1.8-19.6,4.2-29.1,7.3c-4.7,1.5-9.4,3.2-14,5c-2.3,0.9-4.6,1.9-6.8,2.9c-1.1,0.5-2.2,1-3.3,1.5l-1.6,0.8
				c-0.5,0.3-1.1,0.6-1.5,0.8l-5.7,3.1l-5.8-12.4L188.3,148.1z"/>
			<path class="st0" d="M371.4,315.8c-0.6,0.4-1.1,0.8-1.6,1.1l-1.6,1c-1,0.7-2.1,1.3-3.1,2c-2.1,1.3-4.2,2.5-6.3,3.6
				c-4.2,2.3-8.6,4.4-12.9,6.3c-8.7,3.8-17.8,6.9-26.9,9.3c-4.6,1.2-9.2,2.1-13.9,2.9c-4.7,0.7-9.4,1.3-14.1,1.7
				c-9.5,0.7-19,0.4-28.5-0.7c9.5-0.1,18.8-1,27.9-2.9c4.5-0.9,9-2.1,13.4-3.4c4.4-1.4,8.8-2.9,13-4.6c8.5-3.4,16.8-7.5,24.7-12.3
				c4-2.4,7.8-4.9,11.6-7.6c1.9-1.3,3.7-2.7,5.5-4.2c0.9-0.7,1.8-1.4,2.7-2.2l1.3-1.1c0.4-0.4,0.9-0.8,1.2-1.1l4.5-4.3l8.1,12.8
				L371.4,315.8z"/>
		</g>
	</g>
</g>
</svg>
