<?xml version="1.0" encoding="utf-8"?>
<!-- Generator: Adobe Illustrator 26.0.1, SVG Export Plug-In . SVG Version: 6.00 Build 0)  -->
<svg version="1.1" id="Layer_1" xmlns="http://www.w3.org/2000/svg" xmlns:xlink="http://www.w3.org/1999/xlink" x="0px" y="0px"
	 width="512px" height="512px" viewBox="0 0 512 512" style="enable-background:new 0 0 512 512;" xml:space="preserve">
<style type="text/css">
	.st0{enable-background:new    ;}
	.st1{fill:#FFFFFF;}
	.st2{fill:url(#SVGID_1_);}
	.st3{fill:url(#SVGID_00000052103941832483261990000013893604803432713360_);}
	.st4{fill:url(#SVGID_00000183949202930570226680000007328987757175061889_);}
	.st5{fill:#E56948;}
	.st6{opacity:0.8;fill:#E56948;enable-background:new    ;}
	.st7{opacity:0.6;fill:#E56948;enable-background:new    ;}
	.st8{opacity:0.4;fill:#E56948;enable-background:new    ;}
	.st9{opacity:0.2;fill:#E56948;enable-background:new    ;}
	.st10{opacity:0.23;fill:#DA7B64;enable-background:new    ;}
	.st11{opacity:0.4;fill:#DA7B64;enable-background:new    ;}
	.st12{opacity:0.5;fill:#DA7B64;enable-background:new    ;}
	.st13{opacity:0.8;fill:#DA7B64;enable-background:new    ;}
	.st14{fill:#DA7B64;}
	.st15{fill:url(#SVGID_00000096028823486745061300000005049591837871840169_);}
	.st16{opacity:0.6;fill:#C1361B;enable-background:new    ;}
	.st17{opacity:0.55;fill:#C1361B;enable-background:new    ;}
	.st18{opacity:0.49;fill:#C1361B;enable-background:new    ;}
	.st19{opacity:0.44;fill:#C1361B;enable-background:new    ;}
	.st20{opacity:0.38;fill:#C1361B;enable-background:new    ;}
	.st21{opacity:0.33;fill:#C1361B;enable-background:new    ;}
	.st22{opacity:0.27;fill:#C1361B;enable-background:new    ;}
	.st23{opacity:0.22;fill:#C1361B;enable-background:new    ;}
	.st24{opacity:0.16;fill:#C1361B;enable-background:new    ;}
	.st25{opacity:0.11;fill:#C1361B;enable-background:new    ;}
</style>
<g>
	<g id="Layer_1_1_">
		<g class="st0">
			<path class="st1" d="M180.7,45.2L180.7,45.2c-16.5,0-33.1,3.8-48,11c-9.3,4.5-14.7,14.4-13.4,24.7c1.2,9.7,3.8,19.1,7.4,28
				c-19.4,10.2-35.4,25.3-47.2,44.7c-15.8,26-23.8,58.9-23.8,97.7l0,0l0,0c0,0.1,0,0.1,0,0.2c0,1.5,0,3,0.1,4.7c0,0.4,0,0.8,0,1.2
				v0.3c0,1.2,0.1,2.3,0.2,3.5v0.3c0,0.4,0.1,0.9,0.1,1.3c0.1,1.4,0.2,2.8,0.3,4.2c0,0.2,0,0.5,0.1,0.7c0.1,1.4,0.3,3,0.5,4.6
				c0.1,0.4,0.1,0.8,0.2,1.3v0.3c0.2,1.1,0.3,2.1,0.5,3.2v0.1c0.1,0.5,0.2,1,0.3,1.6c0.2,1.2,0.4,2.4,0.7,3.6v0.1
				c0.1,0.3,0.1,0.6,0.2,0.9c0.3,1.4,0.6,2.8,1,4.4c0.1,0.4,0.2,0.9,0.3,1.3l0.1,0.3c0.2,1,0.5,1.9,0.7,2.9c0.2,0.6,0.3,1.2,0.5,1.8
				c0.3,1,0.6,2.1,0.9,3.1l0.1,0.3c0.1,0.4,0.2,0.7,0.3,1.1c0.4,1.3,0.8,2.7,1.3,4.1c0.2,0.5,0.3,0.9,0.5,1.4l0.1,0.4
				c0.3,0.9,0.6,1.7,0.9,2.6c0.2,0.6,0.4,1.2,0.7,1.9c0.3,0.9,0.7,1.8,1,2.7l0.2,0.4c0.2,0.4,0.3,0.8,0.5,1.2c0.5,1.2,1,2.5,1.6,3.8
				c0.2,0.5,0.4,1,0.7,1.5l0.2,0.4c0.3,0.8,0.7,1.5,1,2.3c0.3,0.6,0.6,1.3,0.9,1.9c0.4,0.8,0.7,1.5,1.1,2.2l0.2,0.4
				c0.2,0.5,0.5,0.9,0.7,1.4c0.6,1.2,1.2,2.4,1.9,3.6c0.3,0.5,0.6,1.1,0.9,1.6l0.2,0.4c0.4,0.7,0.7,1.3,1.1,2s0.8,1.3,1.1,2
				c0.4,0.6,0.7,1.2,1.1,1.9l0.2,0.4c0.3,0.5,0.6,1.1,1,1.6c0.7,1.1,1.4,2.2,2,3.3c0.4,0.6,0.7,1.2,1.1,1.7l0.2,0.3
				c0.4,0.5,0.7,1.1,1.1,1.6c0.5,0.7,0.9,1.4,1.4,2.1c0.3,0.5,0.7,1,1.1,1.5l0.2,0.2c0.4,0.6,0.9,1.2,1.3,1.9
				c0.1,0.1,0.2,0.3,0.3,0.4l0,0c1.1,1.5,2.2,3.1,3.5,4.7l0.2,0.2c0.3,0.4,0.5,0.7,0.8,1.1c0.5,0.7,1.1,1.4,1.7,2.1
				c0.3,0.4,0.6,0.8,0.9,1.2c2,2.4,4,4.9,6,7.3l0.2,0.3c0.2,0.2,0.4,0.5,0.6,0.7c0.6,0.7,1.3,1.5,1.9,2.2c0.3,0.3,0.6,0.6,0.9,0.9
				c2.2,2.4,4.4,4.8,6.7,7.2l0.2,0.2l0.4,0.4c0.7,0.7,1.5,1.5,2.2,2.2l0.7,0.7l0,0c2.4,2.4,4.9,4.8,7.4,7.1l0.1,0.1l0.3,0.3
				c0.8,0.7,1.6,1.5,2.4,2.2l0.6,0.5c2.7,2.4,5.4,4.8,8.1,7c0.9,0.7,1.7,1.5,2.6,2.2l0.5,0.4c3.6,3,7.4,5.9,11.2,8.7l0.5,0.3
				c3.7,2.8,7.5,5.5,11.4,8.2l0.1,0.1l0.4,0.3c0.9,0.6,1.8,1.3,2.7,1.9l0.1,0.1c2.8,1.9,5.7,3.8,8.6,5.6l0.7,0.4
				c0.9,0.6,1.7,1.1,2.6,1.6l0.4,0.2l0.2,0.1c2.7,1.7,5.4,3.3,8.1,4.9l1.1,0.7c0.8,0.4,1.5,0.9,2.3,1.3l0.3,0.2c0,0,0,0,0.1,0
				s0.2,0.1,0.3,0.1c7.4,4.2,15.1,8.4,22.9,12.2c0.2,0.1,0.5,0.2,0.8,0.4c23,10.5,37,11.8,46.7,11.8c13.9,0,28-3.5,43.1-10.8
				c0.1,0,0.1-0.1,0.2-0.1l0.3-0.1l0.5-0.3c0.5-0.2,0.9-0.5,1.4-0.7c28.9-14.5,70.5-39.5,104.1-75.9c16.4-17.8,29.3-36.7,38.3-56.1
				c10.2-22.2,15.4-45.3,15.4-68.7l0,0l0,0c0-22.5-3.1-43.5-9.2-62.3c0-0.1,0-0.1-0.1-0.2c-0.2-0.5-0.3-0.9-0.5-1.3l-0.1-0.4
				c-8.4-24.7-21.8-45.1-39.8-60.6c-11.2-9.7-24-17.2-38.1-22.5c1.3-4.8,2.2-9.7,2.8-14.6c0.2-1.4,0.2-2.8,0.2-4.2
				c-0.4-9-5.7-17.1-13.9-20.8c-13.9-6.4-28.6-9.6-43.9-9.6c-18.1,0-36,4.7-51.7,13.6c-4.3,2.4-8.3,5.1-12.1,8
				c-7.2-7-15.3-12.9-24.2-17.7C217.2,49.8,199,45.2,180.7,45.2L180.7,45.2L180.7,45.2z"/>
		</g>
	</g>
	
		<linearGradient id="SVGID_1_" gradientUnits="userSpaceOnUse" x1="240.8" y1="393.9431" x2="352.1" y2="393.9431" gradientTransform="matrix(1 0 0 -1 0 512)">
		<stop  offset="0" style="stop-color:#6BA24D"/>
		<stop  offset="1" style="stop-color:#0C7A35"/>
	</linearGradient>
	<path class="st2" d="M280.3,89.1c-21.5,12.6-36.2,34.8-39.3,60.1l0,0l0,0c-0.1,0.5-0.1,1-0.2,1.6l1.6-0.9
		c22.6,10.2,48.6,10.4,70.2-2.1c22-12.8,36.8-35.8,39.5-61.6C329.1,75.3,302.4,76.4,280.3,89.1z"/>
	
		<linearGradient id="SVGID_00000156575377230231827350000014551922168888028801_" gradientUnits="userSpaceOnUse" x1="143.1" y1="400.9" x2="266.4" y2="400.9" gradientTransform="matrix(1 0 0 -1 0 512)">
		<stop  offset="0" style="stop-color:#6BA24D"/>
		<stop  offset="1" style="stop-color:#0C7A35"/>
	</linearGradient>
	<path style="fill:url(#SVGID_00000156575377230231827350000014551922168888028801_);" d="M266.4,144.5L266.4,144.5L266.4,144.5
		c-3.6-27.6-20.1-51.6-44.5-64.9c-24.5-13.3-53.8-14-78.8-1.9c3.6,27.6,20.1,51.8,44.5,64.9C212.1,155.9,241.3,156.6,266.4,144.5
		L266.4,144.5C266.4,144.6,266.4,144.5,266.4,144.5z"/>
	
		<radialGradient id="SVGID_00000107576015825543616910000008299431961058825376_" cx="350.89" cy="329.94" r="273.74" gradientTransform="matrix(1 0 0 -1 0 512)" gradientUnits="userSpaceOnUse">
		<stop  offset="0" style="stop-color:#F4C0B2"/>
		<stop  offset="0.53" style="stop-color:#F17A50"/>
		<stop  offset="0.81" style="stop-color:#ED341C"/>
		<stop  offset="1" style="stop-color:#822C1A"/>
	</radialGradient>
	<path style="fill:url(#SVGID_00000107576015825543616910000008299431961058825376_);" d="M259.9,128.4c99,68.8,86.7,245.6,0,317.7
		C330.2,419.5,440,350.7,440,251.2S373.2,94,259.9,128.4z"/>
	<path class="st5" d="M440,251.2c0,99.5-109.8,168.2-180.1,194.9c1.6-1.4,3.2-2.8,4.8-4.2c68-26.9,172.1-95.9,172.1-191.2
		c0-96.5-65.4-152.7-173.9-120.1c-1-0.7-2-1.5-3-2.2C373.2,94,440,151.7,440,251.2z"/>
	<path class="st6" d="M436.8,250.7c0,95.3-104.1,164.3-172.1,191.2c1.5-1.3,2.9-2.7,4.3-4c65.7-27.2,164.6-96.2,164.6-187.7
		c0-93.5-64-148.2-167.8-117.4c-1-0.7-1.9-1.5-2.9-2.2C371.4,98,436.8,154.3,436.8,250.7z"/>
	<path class="st7" d="M433.6,250.2c0,91.5-98.9,160.5-164.6,187.7c1.3-1.3,2.6-2.6,3.9-4c63.4-27.4,157.5-96.4,157.5-184.2
		c0-90.5-62.6-143.7-161.8-114.7c-0.9-0.8-1.9-1.5-2.8-2.2C369.6,102,433.6,156.8,433.6,250.2z"/>
	<path class="st8" d="M430.4,249.7c0,87.8-94.1,156.8-157.5,184.2c1.2-1.3,2.4-2.6,3.6-3.9c61-27.5,150.7-96.6,150.7-180.8
		c0-87.5-61.2-139.3-155.9-112c-0.9-0.8-1.8-1.5-2.7-2.3C367.8,106,430.4,159.3,430.4,249.7z"/>
	<path class="st9" d="M427.2,249.2c0,84.2-89.7,153.3-150.7,180.8c1.1-1.3,2.2-2.5,3.3-3.8C338.6,398.5,424,329.5,424,248.8
		c0-84.6-59.8-134.9-150.1-109.2c-0.9-0.8-1.7-1.5-2.6-2.3C366,110,427.2,161.7,427.2,249.2z"/>
	<path class="st10" d="M320.8,345.6c29.2-49.1,26.5-105.4,5.3-149c-17-34.9-36.5-52.1-57.1-61.3c-1.6-1.3-3.2-2.5-4.8-3.8
		c23.2,8.1,45.8,24.1,66.1,65.7c22.2,45.4,24.6,104.7-11.5,155.6C319.5,350.4,320.1,348,320.8,345.6z"/>
	<path class="st11" d="M323.5,334.8c21.6-46.4,18.1-98-1.6-138.8c-13.5-27.8-29.3-44.6-46.4-55c-2.1-2-4.4-3.9-6.6-5.8
		c20.6,9.2,40.2,26.5,57.1,61.3c21.2,43.6,23.9,99.9-5.3,149C321.8,342,322.7,338.4,323.5,334.8z"/>
	<path class="st12" d="M326.8,317.3c12.3-40.3,9.1-83.8-9-121.9c-9.2-19.2-20-33.3-31.7-43.6c-3.3-3.8-6.8-7.4-10.5-10.8
		c17,10.3,32.9,27.2,46.4,55c19.7,40.8,23.1,92.4,1.6,138.8C324.8,329,325.9,323.2,326.8,317.3z"/>
	<path class="st13" d="M329.6,280.6c2.1-29.5-3.4-59.1-16-85.8c0,0,0,0,0-0.1c-2.1-4.3-4.2-8.3-6.5-12.1
		c-3.1-5.9-6.5-11.5-10.2-16.9c0-0.1-0.1-0.2-0.2-0.2c-3.3-4.7-6.8-9.3-10.6-13.6c11.7,10.3,22.5,24.4,31.7,43.6
		c18.1,38.1,21.3,81.6,9,121.9C328.6,305.2,329.5,292.9,329.6,280.6z"/>
	<path class="st14" d="M329.6,280.6c0.2-22.8-3.1-45.6-9.8-67.4c-3.3-10.6-7.5-20.8-12.7-30.6c2.2,3.8,4.4,7.8,6.5,12.1
		c3.1,6.4,0,0.1,0,0.1C326.2,221.6,331.7,251.1,329.6,280.6z"/>
	
		<radialGradient id="SVGID_00000172428140836427959430000008033245421842971541_" cx="195.24" cy="312.42" r="258.5" gradientTransform="matrix(1 0 0 -1 0 512)" gradientUnits="userSpaceOnUse">
		<stop  offset="0" style="stop-color:#F4C0B2"/>
		<stop  offset="0.29" style="stop-color:#F28965"/>
		<stop  offset="0.53" style="stop-color:#F17A50"/>
		<stop  offset="0.81" style="stop-color:#ED341C"/>
		<stop  offset="1" style="stop-color:#822C1A"/>
	</radialGradient>
	<path style="fill:url(#SVGID_00000172428140836427959430000008033245421842971541_);" d="M259.9,128.4
		C138.6,91.6,79.7,151.7,79.7,251.2s106.8,167,180.1,194.9C346.6,374,358.9,197.2,259.9,128.4z"/>
	<path class="st16" d="M259.9,128.4C138.6,91.6,79.7,151.7,79.7,251.2c0,75.1,60.9,132,122.3,167.4c35.4,20.3,80.6,8.1,100.9-27.2
		c0.8-1.3,1.5-2.7,2.2-4C346.8,303,337.6,182.4,259.9,128.4z M304.3,382.6c-17.6,37-61.9,52.6-98.9,35c-1.9-0.9-3.8-1.9-5.6-3
		c-59.4-34.8-117.6-90.1-117.6-162.8c0-92.8,52.2-150.7,159.8-124.9c12.4,3,23.9,9.1,33.2,17.9C335.4,201.7,340.7,306.6,304.3,382.6
		z"/>
	<path class="st17" d="M275.1,144.8c-9.3-8.7-20.7-14.9-33.1-17.9C134.5,101.2,82.2,159,82.2,251.8c0,72.7,58.2,128,117.6,162.8
		c35.3,20.7,80.8,8.9,101.5-26.4c1.1-1.8,2.1-3.7,3-5.6C340.7,306.6,335.4,201.7,275.1,144.8z M303,379c-18.4,39.4-67,54.1-104.4,32
		c-57.7-34.1-113.8-88-113.8-158.6c0-90.8,51.1-147.4,156.1-122.4c12.4,2.9,23.9,9.1,33.2,17.8C332.3,203.3,337.8,304.8,303,379z"/>
	<path class="st18" d="M274,147.8c-9.3-8.8-20.7-14.9-33.2-17.8c-105-25-156.1,31.7-156.1,122.4c0,70.6,56.1,124.5,113.8,158.6
		c37.4,22.1,86,7.4,104.4-32C337.8,304.8,332.3,203.3,274,147.8z M302.2,374.3c-18.1,40.1-67.2,55.7-105,33.1
		c-56-33.4-110-85.8-110-154.4c0-88.4,49.5-143.8,151.4-120.2c13.4,3.1,25.6,9.7,35.4,19.3C329.1,206,334.5,302.6,302.2,374.3
		L302.2,374.3z"/>
	<path class="st19" d="M274.1,152.1c-9.8-9.6-22.1-16.2-35.4-19.3C136.8,109.2,87.2,164.6,87.2,253c0,68.6,54,121,110,154.4
		c37.8,22.5,86.9,7,105-33.1C334.5,302.6,329.1,206,274.1,152.1z M301.3,369.6C285,407.1,241.5,424.3,204,408
		c-3.1-1.3-6.1-2.9-9-4.6c-53.9-32.8-105.3-83.6-105.3-149.7c0-86.4,48.3-140.6,147.7-117.8c13.4,3,25.6,9.7,35.4,19.3
		C325.7,207.3,331.6,299.8,301.3,369.6z"/>
	<path class="st20" d="M272.9,155.2c-9.8-9.6-22.1-16.3-35.4-19.3C138.1,113,89.7,167.2,89.7,253.6c0,66.1,51.3,116.9,105.3,149.7
		c34.9,21.2,80.4,10.1,101.7-24.8c1.8-2.9,3.3-5.9,4.6-9C331.6,299.8,325.7,207.3,272.9,155.2z M300.5,364.7
		c-17.5,42.3-68.7,58.6-107.7,34.5c-51.9-32.1-100.5-81.2-100.5-145c0-84.4,47.2-137.4,144.1-115.3c13.4,3,25.7,9.7,35.4,19.3
		C322.4,208.6,328.6,297,300.5,364.7L300.5,364.7z"/>
	<path class="st21" d="M271.7,158.3c-9.8-9.6-22.1-16.3-35.4-19.3c-96.9-22.1-144.1,30.8-144.1,115.3c0,63.7,48.7,112.9,100.5,145
		c38.9,24.1,90.1,7.8,107.7-34.5C328.6,297,322.4,208.6,271.7,158.3z M299.1,361.1c-17.1,42.5-68.9,58.8-107.7,34.5
		c-50.1-31.4-96.6-79.1-96.6-140.7c0-82.4,45.9-134.2,140.4-112.8c13.4,3,25.7,9.7,35.4,19.3C319.3,210.2,325.6,295.2,299.1,361.1z"
		/>
	<path class="st22" d="M270.6,161.4c-9.7-9.7-22-16.4-35.4-19.4c-94.5-21.3-140.4,30.4-140.4,112.9c0,61.6,46.5,109.3,96.6,140.7
		c38.8,24.3,90.6,8,107.7-34.5C325.6,295.2,319.3,210.2,270.6,161.4z M298.7,354.7c-16.6,44.4-69.7,62.3-109.6,36.7
		c-48-30.7-91.9-76.7-91.9-135.9c0-80.4,44.7-130.9,136.7-110.4c14,3.1,26.8,10.3,36.7,20.6C315.8,212.5,322.3,291.7,298.7,354.7z"
		/>
	<path class="st23" d="M270.7,165.7c-9.9-10.3-22.7-17.5-36.7-20.6c-92-20.5-136.7,30-136.7,110.4c0,59.2,43.9,105.2,91.9,135.9
		c39.9,25.6,93,7.7,109.6-36.7C322.3,291.7,315.8,212.5,270.7,165.7z M297.3,350.9c-16.1,44.6-69.9,62.5-109.6,36.7
		c-46.1-30-87.9-74.5-87.9-131.5c0-78.1,43.2-127.3,131.9-108.2c14.4,3,27.6,10.3,37.9,20.9C312.7,214.1,319.4,290,297.3,350.9z"/>
	<path class="st24" d="M269.5,168.8c-10.2-10.6-23.4-17.9-37.9-20.9C142.9,128.8,99.7,178,99.7,256.1c0,57,41.8,101.6,87.9,131.5
		c39.8,25.8,93.5,7.9,109.6-36.7C319.4,290,312.7,214.1,269.5,168.8z M296.3,345.8c-15.6,45.8-70.6,64.3-110.9,37.5
		c-43.9-29.2-83.1-72.1-83.1-126.6c0-76,42-124.1,128.2-105.7c15,3.2,28.7,10.9,39.1,22.2C309.5,216.7,316.1,287.7,296.3,345.8
		L296.3,345.8z"/>
	<path class="st25" d="M269.6,173.2c-10.4-11.3-24.1-19.1-39.1-22.2c-86.2-18.3-128.2,29.7-128.2,105.7c0,54.5,39.1,97.4,83.1,126.6
		c40.3,26.8,95.3,8.4,110.9-37.5C316.1,287.7,309.5,216.7,269.6,173.2z"/>
	<path class="st1" d="M223.6,430.2c25.8,11.8,44.6,14.2,72.4,0l-0.6,19.7l-73.1-0.7C222.4,449.2,222.9,436.2,223.6,430.2z"/>
</g>
</svg>
