<?xml version="1.0" encoding="utf-8"?>
<!-- Generator: Adobe Illustrator 24.0.3, SVG Export Plug-In . SVG Version: 6.00 Build 0)  -->
<svg version="1.1" xmlns="http://www.w3.org/2000/svg" xmlns:xlink="http://www.w3.org/1999/xlink" x="0px" y="0px"
	 viewBox="0 0 512 512" style="enable-background:new 0 0 512 512;" xml:space="preserve">
<style type="text/css">
	.st0{fill:none;}
	.st1{fill:#FFFFFF;}
	.st2{fill:#ED0F49;}
	.st3{fill:#FFEBCA;}
	.st4{fill:#9B4231;}
	.st5{fill:#EAB363;}
	.st6{opacity:0.2;enable-background:new    ;}
	.st7{fill:#F7B5E5;}
	.st8{fill:#F9437C;}
	.st9{fill:#FFD7E5;}
	.st10{fill:#FF76A0;}
	.st11{fill:#BBD5FF;}
	.st12{fill:#85BC00;}
	.st13{fill:#00D871;}
	.st14{fill:#FFA300;}
	.st15{fill:#FF99FF;}
	.st16{fill:#E20569;}
	.st17{fill:#4BE08E;}
	.st18{fill:#06FFEC;}
	.st19{fill:#FFA403;}
	.st20{fill:#76D1FF;}
	.st21{fill:#6F00FF;}
	.st22{fill:#0050C4;}
	.st23{fill:#9772D3;}
	.st24{fill:#FFE564;}
	.st25{clip-path:url(#SVGID_2_);fill:#E5E5E5;}
	.st26{clip-path:url(#SVGID_4_);fill:#008BD8;}
	.st27{clip-path:url(#SVGID_6_);fill:#008BD8;}
	.st28{clip-path:url(#SVGID_8_);fill:#008BD8;}
	.st29{fill:#FFC639;}
	.st30{fill:#FF7900;}
	.st31{clip-path:url(#SVGID_10_);fill:#E5E5E5;}
	.st32{clip-path:url(#SVGID_12_);fill:#008BD8;}
	.st33{clip-path:url(#SVGID_14_);fill:#008BD8;}
	.st34{clip-path:url(#SVGID_16_);fill:#008BD8;}
	.st35{clip-path:url(#SVGID_18_);fill:#E5E5E5;}
	.st36{clip-path:url(#SVGID_20_);fill:#008BD8;}
	.st37{clip-path:url(#SVGID_22_);fill:#008BD8;}
	.st38{clip-path:url(#SVGID_24_);fill:#008BD8;}
	.st39{fill:#CAEFFF;}
	.st40{opacity:0.1;}
	.st41{fill:#3C0000;}
	.st42{fill:#C00000;}
	.st43{fill:#23292D;}
	.st44{fill:#F2F2F2;}
	.st45{opacity:0.6;fill:#3C5366;}
	.st46{fill:#3C5366;}
	.st47{fill:#1B2A35;}
	.st48{fill:#7B0000;}
	.st49{fill:#9EC3F2;}
	.st50{fill:#4D84C1;}
	.st51{opacity:0.74;fill:#7B0000;}
	.st52{opacity:0.74;fill:#C00000;}
	.st53{fill:#CBDCF4;}
	.st54{fill:#500000;}
	.st55{fill:#56AAE8;}
	.st56{fill:#FF9999;}
	.st57{opacity:0.3;fill:#FFFFFF;}
	.st58{opacity:0.3;}
	.st59{fill:#F98706;}
	.st60{fill:#FFCC00;}
	.st61{fill:#0092DB;}
	.st62{fill:#00B7FF;}
	.st63{fill:#50D6FF;}
	.st64{fill:#88E0FF;}
	.st65{fill:#DDA800;}
	.st66{fill:#F4C42A;}
	.st67{fill:#FFDB4D;}
	.st68{opacity:0.4;fill:#441F00;}
	.st69{fill:#CE8032;}
	.st70{fill:#6B8900;}
	.st71{fill:#9AC400;}
	.st72{fill:#C2DD00;}
	.st73{opacity:0.2;}
	.st74{fill:#E6F1FF;}
	.st75{fill:#0B0B0C;}
	.st76{fill:#0080FF;}
	.st77{fill:#FFED83;}
	.st78{fill:#AA6500;}
	.st79{clip-path:url(#SVGID_26_);}
	.st80{opacity:0.2;fill:#48A0FF;}
	.st81{fill:#E27100;}
	.st82{fill:#FFB000;}
	.st83{fill:#FFAA00;}
	.st84{fill:#FFDF7B;}
	.st85{opacity:0.2;fill:#F98706;}
	.st86{fill:#B6E7FF;}
	.st87{fill:#D9F4FF;}
	.st88{fill:#379AF4;}
	.st89{fill:#8FD4FF;}
	.st90{fill:#5FBBFF;}
	.st91{opacity:0.2;fill:#379AF4;}
	.st92{fill:#FFF0C5;}
	.st93{fill:#7599BC;}
	.st94{fill:#1D1D38;}
	.st95{opacity:0.15;fill:#0B0019;}
	.st96{opacity:0.05;fill:#FFFFFF;}
	.st97{fill:#618099;}
	.st98{fill:#494968;}
	.st99{fill:#595972;}
	.st100{fill:#E9BC00;}
	.st101{opacity:0.5;}
	.st102{fill:#DDDFE4;}
	.st103{opacity:0.3;fill:#0B0019;}
	.st104{opacity:0.08;fill:#FFFFFF;}
	.st105{fill:#5A5A84;}
	.st106{fill:#B3B3CE;}
	.st107{fill:#FD1B64;}
	.st108{fill:#D6004D;}
	.st109{fill:#920006;}
	.st110{fill:#8585A8;}
	.st111{fill:#171723;}
	.st112{opacity:0.1;fill:#FFFFFF;}
	.st113{opacity:0.2;fill:#0B0019;}
	.st114{fill:#547D9B;}
	.st115{fill:#A1D5FF;}
	.st116{fill:#00254D;}
	.st117{opacity:0.1;fill:#3E0A75;}
	.st118{opacity:0.4;fill:#FFFFFF;}
	.st119{fill:#2D5171;}
	.st120{fill:#B88352;}
	.st121{fill:#EFC478;}
	.st122{fill:#76838E;}
	.st123{fill:#B7A1E2;}
	.st124{fill:#FF4385;}
	.st125{fill:#D30041;}
	.st126{fill:#ED065F;}
	.st127{opacity:0.8;fill:#FFFFFF;}
	.st128{fill:#5D422A;}
	.st129{opacity:0.3;fill:#3E0A75;}
	.st130{fill:#FF7187;}
	.st131{fill:#CE4A69;}
	.st132{fill:#444468;}
	.st133{fill:#1A1A23;}
	.st134{fill:#1F95DD;}
	.st135{fill:#DA0000;}
	.st136{fill:#2C2C4C;}
	.st137{fill:#BCBCE8;}
	.st138{fill:#222B33;}
	.st139{fill:#394854;}
	.st140{fill:#273544;}
	.st141{fill:#86A9BF;}
	.st142{fill:#F79984;}
	.st143{fill:#0A0F11;}
	.st144{fill:#E07868;}
	.st145{fill:#D35440;}
	.st146{fill:#FFC2B8;}
	.st147{fill:#A53A2F;}
	.st148{fill:#C64E36;}
	.st149{fill:#070000;}
	.st150{fill:#230200;}
	.st151{fill:#540000;}
	.st152{fill:#AF8F08;}
	.st153{fill:#16D8C0;}
	.st154{fill:#75EFDD;}
	.st155{fill:#00AF96;}
	.st156{fill:#00846E;}
	.st157{fill:#FFE161;}
	.st158{fill:#05C4A8;}
	.st159{fill:#F3E9FF;}
	.st160{fill:#FFC5DB;}
	.st161{fill:#E5D2FF;}
	.st162{fill:#CDB3FF;}
	.st163{opacity:0.2;fill:#3E0A75;}
	.st164{fill:#A8003D;}
	.st165{fill:#AA6D35;}
	.st166{fill:#FFD6B8;}
	.st167{fill:#FFE697;}
	.st168{fill:#FFDD88;}
	.st169{fill:#FF5986;}
	.st170{opacity:0.4;fill:#C40059;}
	.st171{fill:#CC004E;}
	.st172{fill:#2D2D2D;}
	.st173{opacity:0.6;}
	.st174{fill:#3D3D3D;}
	.st175{fill:#4F4F4F;}
	.st176{fill:#636363;}
	.st177{fill:#E9F5FF;}
	.st178{fill:#C1E0F4;}
	.st179{fill:#E50000;}
	.st180{fill:#FF7373;}
	.st181{fill:#F25F5F;}
	.st182{fill:#FFB200;}
	.st183{opacity:0.5;fill:#FF7373;}
	.st184{fill:#FFCF7B;}
	.st185{fill:#00CEC3;}
	.st186{fill:#00EAD9;}
	.st187{fill:#00A599;}
	.st188{fill:#007F73;}
	.st189{fill:#DD5050;}
	.st190{fill:#FFA6A6;}
	.st191{fill:#45793B;}
	.st192{fill:#35612A;}
	.st193{fill:#235317;}
	.st194{fill:#5E8F44;}
	.st195{fill:#65954D;}
	.st196{fill:#930000;}
	.st197{fill:#F00000;}
	.st198{fill:#EAB80D;}
	.st199{fill:#FFD226;}
</style>
<g id="Credits_10_Birthday">
</g>
<g id="Credits_5000">
</g>
<g id="Credits_3000">
</g>
<g id="Credits_2000">
</g>
<g id="Credits_1000">
</g>
<g id="Credits_750">
</g>
<g id="Credits_500">
</g>
<g id="Credits_300">
</g>
<g id="Credits_200">
</g>
<g id="Credits_100">
</g>
<g id="Credits_75">
</g>
<g id="Credits_50">
</g>
<g id="Credits_25">
</g>
<g id="Credits_10">
</g>
<g id="Credits_5">
</g>
<g id="Credits_1">
	<rect class="st0" width="512" height="512"/>
	<g>
		<g>
			<g>
				<path class="st191" d="M270.949,312.388c-2.143,2.347-3.695,5.115-4.467,8.195c-0.009,0.009-0.009,0.027-0.018,0.037
					l-0.264,1.24c-0.093,0.507-0.159,1.004-0.197,1.511c-0.396,4.093,0.62,8.167,2.774,11.837
					c4.616,7.914,14.452,14.014,26.742,14.756c0.63,0.028,1.261,0.056,1.91,0.066c20.32,0.272,39.06-15.657,39.06-15.657
					s-4.513-8.016-12.412-15.788c-0.348-0.348-0.725-0.704-1.091-1.051c-4.561-4.309-10.165-8.42-16.597-10.917
					c-0.376-0.15-0.752-0.281-1.138-0.423c-2.472-0.873-4.946-1.483-7.362-1.849c-2.003-0.309-3.968-0.451-5.887-0.431
					C283.315,303.987,275.67,307.187,270.949,312.388z"/>
				<path class="st192" d="M266.464,320.582l0.001,0.037l-0.264,1.24c-0.093,0.507-0.159,1.004-0.197,1.511
					c-0.396,4.093,0.62,8.167,2.774,11.837c4.616,7.914,14.452,14.014,26.742,14.756c0.63,0.028,1.261,0.056,1.91,0.066
					c20.32,0.272,39.06-15.657,39.06-15.657l-70.007-13.788L266.464,320.582z"/>
			</g>
			<g>
				<polygon class="st192" points="266.469,320.578 267.093,323.571 235.104,317.369 235.607,314.577 				"/>
			</g>
		</g>
		<g>
			<path class="st193" d="M83.677,438.618c0.056,0.05,0.113,0.1,0.169,0.148c1.905,1.579,4.735,1.322,6.319-0.582L253.994,239.61
				c0.298-0.358,0.541-0.762,0.713-1.195l46.574-115.653c0.925-2.294-0.186-4.902-2.489-5.826c-2.299-0.922-4.912,0.19-5.835,2.486
				l-46.313,115.002L83.265,432.46C81.73,434.302,81.927,437.014,83.677,438.618z"/>
		</g>
		<g>
			<path class="st193" d="M87.788,442.39c0.045,0.041,0.092,0.081,0.139,0.121c1.89,1.599,4.722,1.366,6.324-0.524L276.18,225.596
				l81.07-90.539c1.636-1.829,1.493-4.628-0.309-6.281c-0.015-0.015-0.03-0.028-0.047-0.043c-1.847-1.647-4.684-1.489-6.335,0.355
				L269.45,219.67c-0.027,0.029-0.054,0.06-0.078,0.091L87.401,436.201C85.84,438.039,86.025,440.771,87.788,442.39z"/>
		</g>
		<g>
			<path class="st193" d="M92.621,446.822c1.741,1.597,4.447,1.574,6.161-0.091l92.008-91.119L405.649,182.96
				c1.931-1.551,2.235-4.371,0.681-6.298c-1.545-1.922-4.377-2.232-6.308-0.68L184.999,348.767c-0.11,0.09-0.216,0.182-0.314,0.279
				l-92.161,91.266c-1.773,1.723-1.813,4.561-0.084,6.332C92.498,446.706,92.559,446.765,92.621,446.822z"/>
		</g>
		<g>
			<g>
				<path class="st191" d="M174.51,192.776c3.244-25.34,26.438-45.837,26.438-45.837s24.611,18.785,29.671,43.822
					c4.909,24.292-8.654,45.203-26.438,45.837C186.393,237.241,171.362,217.357,174.51,192.776z"/>
				<path class="st192" d="M174.51,192.776c3.244-25.34,26.438-45.837,26.438-45.837l4.87,89.544l-1.637,0.115
					C186.393,237.241,171.362,217.357,174.51,192.776z"/>
			</g>
			<g>
				<polygon class="st192" points="205.818,236.483 202.193,235.18 204.294,276.074 207.867,275.941 				"/>
			</g>
		</g>
		<g>
			<path class="st192" d="M84.707,439.564c1.712,1.57,4.372,1.58,6.097-0.032l95.269-90.669l119.096-86.944
				c1.999-1.459,2.436-4.261,0.973-6.259c-1.467-2-4.27-2.43-6.27-0.97l-119.315,87.102c-0.146,0.107-0.285,0.222-0.416,0.344
				l-95.468,90.855c-1.81,1.693-1.905,4.525-0.212,6.332C84.544,439.406,84.624,439.488,84.707,439.564z"/>
		</g>
		<g>
			<path class="st192" d="M76.45,428.386c0.002,0.002,0.004,0.004,0.006,0.006c1.829,1.672,4.666,1.546,6.34-0.279L203.68,294.28
				c0.201-0.221,0.377-0.457,0.533-0.709l56.804-93.879c1.281-2.117,0.595-4.871-1.521-6.149c-2.12-1.279-4.878-0.599-6.159,1.518
				l-56.575,93.498L76.176,422.065C74.507,423.885,74.629,426.717,76.45,428.386z"/>
		</g>
		<g>
			<path class="st192" d="M90.536,444.91c0.022,0.02,0.042,0.04,0.067,0.058c1.859,1.637,4.692,1.462,6.332-0.391l109.816-126.021
				l100.322-107.423c1.689-1.811,1.59-4.643-0.223-6.33c-0.009-0.008-0.017-0.016-0.025-0.023c-1.814-1.663-4.634-1.556-6.315,0.245
				L200.145,312.492c-0.028,0.03-0.054,0.06-0.079,0.09L90.209,438.649C88.588,440.479,88.742,443.263,90.536,444.91z"/>
		</g>
		<g>
			<path class="st193" d="M329.487,204.291c-1.815,1.972-23.104,5.948-31.117-1.401c-8.013-7.35-5.839-28.86-4.024-30.833
				c0,0,9.276,12.573,15.966,18.711C317.001,196.904,329.487,204.291,329.487,204.291z"/>
			<path class="st194" d="M250.617,174.737c0,0,14.868-4.148,28.166-0.954c14.275,3.427,28.892,14.678,28.892,14.678l-9.88-16.829
				c0,0-6.894-4.226-20.749-6.198C254.164,162.178,250.617,174.737,250.617,174.737z"/>
			<path class="st195" d="M316.782,197.436c0,0,0.275,0.639,0.762,1.772c0.157,0.344,0.324,0.74,0.513,1.171
				c0.687,1.589,1.623,3.75,2.724,6.304c2.025,4.633,4.615,10.584,7.31,16.718c5.761,13.108,5.45,32.25,5.413,34.018
				c-0.004,0.054-0.003,0.098-0.003,0.112c0,0.015,0,0.015,0,0.015s0,0,0.007-0.008c0.418-0.389,14.688-13.792,9.581-35.955
				c-3.137-13.607-8.162-16.444-8.162-16.444s-0.016,0.001-0.008-0.007l-2.113-0.894l-9.863-4.184
				c-0.008-0.006-0.008-0.006-0.008-0.006l-0.57-0.238L316.782,197.436z"/>
			<path class="st196" d="M342.772,78.242l11.197,8.727l14.354,11.194l4.983,3.883l24.828,19.355l16.21,12.638l6.852,5.34
				c0,0,2.059-5.306-2.52-14.027c-1.449-2.773-3.574-5.882-6.646-9.286c-3.841-4.251-9.159-8.945-16.513-13.973
				c-2.792-1.904-5.556-3.724-8.286-5.427c-1.904-1.203-3.789-2.346-5.649-3.437c-1.157-0.689-2.304-1.341-3.437-1.98
				c-2.395-1.353-4.742-2.618-7.023-3.767c-3.03-1.535-5.947-2.909-8.723-4.082c-0.723-0.307-1.437-0.603-2.142-0.879
				C353.26,79.737,347.252,78.218,342.772,78.242z"/>
			<path class="st42" d="M311.817,127.653c-21.832,23.716-14.575,44.464,0.543,59.703c0.843,0.845,1.714,1.687,2.6,2.499
				c9.208,8.447,19.229,13.734,30.192,12.675c9.059-0.874,18.771-6.084,29.194-17.408c19.748-21.453,33.745-42.215,40-51.083
				c0.22-0.3,0.43-0.593,0.622-0.861c0.761-1.075,1.39-1.929,1.864-2.538c1.24-1.581,1.829-3.358,1.846-5.288
				c0.124-7.282-7.781-16.707-17.85-25.958c-11.624-10.662-24.12-19.207-33.862-18.759c-0.91,0.038-1.794,0.158-2.66,0.365
				c-1.041,0.246-1.991,0.547-2.966,0.983c-0.361,0.155-0.709,0.336-1.082,0.538c-0.622,0.331-1.27,0.725-1.981,1.216
				c-0.451,0.287-0.928,0.621-1.434,1.001c-0.848,0.623-1.797,1.357-2.871,2.23c-0.288,0.236-0.584,0.48-0.887,0.731
				c-1.416,1.161-2.922,2.441-4.522,3.821C338.334,100.422,324.782,113.568,311.817,127.653z"/>
			<path class="st197" d="M329.461,133.908c-15.564,16.908-21.096,39.499-17.101,53.448c1.176,4.126,3.192,7.492,6.029,9.735
				c0.038,0.036,0.077,0.071,0.132,0.093c0.223,0.19,0.454,0.359,0.691,0.52c0.43,0.295,0.87,0.584,1.306,0.856
				c0.808,0.526,1.611,1.02,2.415,1.486c0,0,0,0,0.008,0.006c2.941,1.71,5.873,3.07,8.776,4.088c1.063,0.387,2.129,0.721,3.201,0.99
				c-0.008,0.008,0.008,0.007,0.008,0.007c17.32,4.66,33.361-2.942,44.9-21.067c14.006-21.971,25.561-32.671,41.369-44.691
				c-1.991-2.212-4.072-4.278-6.23-6.201c-5.364-4.791-11.146-8.707-16.832-11.777c-6.732-3.644-13.349-6.123-19.001-7.502
				c-0.845-0.203-1.667-0.384-2.466-0.545c-0.165-0.037-0.331-0.06-0.497-0.098c-4.66-0.885-10.653-1.317-17.808,0.745
				C350.164,116.351,340.456,121.965,329.461,133.908z"/>
			<path class="st196" d="M375.851,106.79c17.818,34.904,5.077,58.961,5.077,58.961l-38.16-87.504
				C354.338,79.454,364.35,84.258,375.851,106.79z"/>
			<g>
				<path class="st196" d="M364.305,81.001c0.865-0.208,1.749-0.327,2.66-0.365c1.256,2.34,2.652,4.622,4.157,6.847
					c8.351,12.381,20.091,22.82,30.277,29.646c6.649,4.467,9.446,4.774,9.834,4.586c0.007-0.007,0.366-1.081-1.997-4.821
					c-2.217-3.522-6.193-8.012-10.706-12.295c1.01,1.128,1.894,2.223,2.501,3.181c0.473,0.763,1.939,3.08,0.517,4.436
					c-1.154,1.13-3.162,0.619-6.529-1.626c-5.611-3.773-12.449-10.431-15.226-14.838c-0.85-1.338-1.789-3.072-1.647-4.501
					c0.058-0.547,0.268-1.041,0.693-1.452c0.926-0.897,2.882-1.605,9.214,2.644c8.692,5.828,19.277,16.123,23.571,22.951
					c0.143,0.233,0.281,0.458,0.408,0.675c2.25,3.738,2.632,6.232,1.205,7.629c-0.724,0.695-2.905,2.815-13.412-4.235
					c-4.681-3.134-9.791-7.265-14.835-11.892c-7.682-7.047-16.62-16.332-22.589-24.167c-0.364-0.477-0.719-0.946-1.06-1.417
					C362.313,81.548,363.263,81.247,364.305,81.001z M386.478,94.789c1.376,0.918,2.801,1.954,4.229,3.064
					c-1.15-0.726-2.44-1.38-3.477-1.186c-0.341,0.058-0.649,0.204-0.922,0.469c-0.518,0.499-0.611,1.099-0.51,1.678
					c-1.512-1.644-2.773-3.216-3.631-4.574c-0.24-0.393-0.433-0.726-0.587-1.011c-0.309-0.57-0.467-0.971-0.538-1.238
					C381.743,92.133,383.343,92.684,386.478,94.789z"/>
			</g>
			<path class="st42" d="M342.768,78.246c21.807,1.81,38.205,41.648,40.929,55.07c2.322,11.424,5.141,29.552-17.913,54.598
				c-23.053,25.043-45.344,18.551-61.662-0.345c-14.583-16.889-19.124-39.158,2.305-57.991
				C330.547,108.378,335.125,99.834,342.768,78.246z"/>
			<path class="st192" d="M288.069,187.166c-7.312,4.769-12.755,22.292-12.755,22.292s11.494-5.793,18.73-7.978
				c12.156-3.678,26.394-0.695,26.394-0.695s-15.155-13.888-19.069-17.477C297.456,179.717,294.237,183.141,288.069,187.166z"/>
		</g>
		<g>
			<path class="st191" d="M288.854,194.49c-1.03,2.473-19.667,13.487-29.714,9.322c-10.052-4.168-15.389-25.122-14.359-27.595
				c0,0,13.029,8.644,21.419,12.123C274.589,191.817,288.854,194.49,288.854,194.49z"/>
			<path class="st194" d="M204.616,193.681c0,0,12.546-8.978,26.136-10.522c14.584-1.661,32.179,3.913,32.179,3.913l-15.057-12.435
				c0,0-7.926-1.614-21.621,1.27C203.639,180.669,204.616,193.681,204.616,193.681z"/>
			<path class="st195" d="M274.566,192.392c0,0,0.475,0.505,1.325,1.404c0.264,0.27,0.556,0.585,0.881,0.925
				c1.192,1.258,2.811,2.967,4.724,4.992c3.492,3.661,7.966,8.366,12.604,13.21c9.907,10.347,16.182,28.438,16.752,30.111
				c0.015,0.051,0.03,0.093,0.036,0.108c0.006,0.012,0.006,0.012,0.006,0.012s0,0,0.004-0.009c0.258-0.51,9.069-17.98-3.331-37.058
				c-7.616-11.712-13.309-12.659-13.309-12.659s-0.015,0.006-0.01-0.003l-2.292-0.119l-10.703-0.559
				c-0.008-0.003-0.008-0.003-0.008-0.003l-0.618-0.03L274.566,192.392z"/>
			<path class="st196" d="M258.098,71.521l13.515,4.371l17.328,5.61l6.012,1.946l29.965,9.698l19.566,6.333l8.269,2.676
				c0,0,0.114-5.689-7.18-12.319c-2.311-2.11-5.375-4.305-9.429-6.453c-5.065-2.681-11.674-5.272-20.307-7.484
				c-3.275-0.833-6.499-1.599-9.648-2.267c-2.2-0.479-4.364-0.908-6.486-1.298c-1.324-0.252-2.626-0.473-3.909-0.685
				c-2.714-0.453-5.352-0.839-7.89-1.139c-3.372-0.405-6.587-0.701-9.595-0.853c-0.785-0.039-1.558-0.074-2.315-0.092
				C268.464,69.34,262.299,69.966,258.098,71.521z"/>
			<path class="st42" d="M245.964,128.524c-12.376,29.746,1.558,46.758,20.99,55.91c1.083,0.506,2.189,1,3.3,1.46
				c11.55,4.789,22.778,6.331,32.714,1.588c8.212-3.916,15.549-12.132,21.457-26.335c11.195-26.905,17.223-51.198,20.059-61.667
				c0.103-0.357,0.201-0.703,0.288-1.021c0.345-1.272,0.645-2.288,0.881-3.022c0.623-1.909,0.567-3.78-0.08-5.6
				c-2.379-6.883-13.04-13.038-25.674-18.286c-14.579-6.046-29.25-9.801-38.249-6.051c-0.842,0.347-1.631,0.761-2.372,1.252
				c-0.896,0.588-1.685,1.194-2.451,1.939c-0.284,0.269-0.553,0.557-0.833,0.876c-0.471,0.522-0.944,1.114-1.442,1.819
				c-0.328,0.423-0.66,0.901-1.005,1.432c-0.585,0.875-1.223,1.887-1.933,3.075c-0.191,0.32-0.385,0.65-0.584,0.99
				c-0.932,1.575-1.909,3.291-2.936,5.137C261.537,93.876,253.314,110.86,245.964,128.524z"/>
			<path class="st197" d="M264.686,128.371c-8.823,21.206-6.272,44.321,2.267,56.063c2.52,3.474,5.571,5.948,9.004,7.087
				c0.049,0.021,0.098,0.04,0.156,0.041c0.275,0.103,0.55,0.184,0.83,0.253c0.505,0.13,1.015,0.25,1.521,0.358
				c0.937,0.217,1.862,0.407,2.78,0.571c0,0,0,0,0.008,0.003c3.35,0.601,6.571,0.876,9.649,0.842c1.131,0,2.248-0.049,3.347-0.164
				c-0.006,0.009,0.01,0.003,0.01,0.003c17.87-1.544,30.334-14.167,34.96-35.14c5.622-25.43,12.808-39.435,23.537-56.131
				c-2.631-1.4-5.294-2.628-7.981-3.697c-6.683-2.668-13.457-4.37-19.854-5.312c-7.576-1.122-14.643-1.189-20.426-0.554
				c-0.865,0.099-1.697,0.21-2.502,0.332c-0.168,0.021-0.332,0.056-0.502,0.076c-4.681,0.762-10.46,2.404-16.476,6.787
				C278.116,104.799,270.919,113.391,264.686,128.371z"/>
			<path class="st196" d="M298.971,87.035c28.712,26.703,24.994,53.661,24.994,53.661l-65.869-69.17
				C269.38,68.705,280.435,69.797,298.971,87.035z"/>
			<g>
				<path class="st196" d="M279.277,66.752c0.741-0.49,1.53-0.904,2.372-1.252c1.982,1.769,4.078,3.437,6.254,5.011
					c12.092,8.778,26.703,14.573,38.615,17.505c7.779,1.925,10.511,1.256,10.814,0.948c0.004-0.01-0.029-1.14-3.531-3.849
					c-3.29-2.55-8.567-5.411-14.277-7.891c1.337,0.715,2.543,1.442,3.442,2.134c0.706,0.555,2.878,2.231,2.008,3.993
					c-0.696,1.456-2.759,1.66-6.694,0.704c-6.565-1.628-15.274-5.547-19.394-8.737c-1.258-0.967-2.735-2.275-3.093-3.667
					c-0.133-0.535-0.105-1.07,0.153-1.603c0.562-1.157,2.158-2.492,9.566-0.663c10.165,2.503,23.643,8.559,30.017,13.506
					c0.215,0.169,0.42,0.334,0.614,0.494c3.396,2.744,4.61,4.957,3.75,6.756c-0.444,0.901-1.764,3.638-14.057,0.605
					c-5.471-1.344-11.689-3.478-18.014-6.1c-9.637-3.996-21.22-9.665-29.514-14.986c-0.508-0.325-1.001-0.643-1.483-0.968
					C277.592,67.946,278.381,67.34,279.277,66.752z M304.838,72.126c1.608,0.395,3.304,0.879,5.026,1.435
					c-1.33-0.29-2.767-0.463-3.675,0.073c-0.299,0.172-0.539,0.415-0.703,0.759c-0.316,0.643-0.198,1.241,0.094,1.749
					c-1.984-1.028-3.706-2.072-4.979-3.056c-0.36-0.286-0.657-0.536-0.898-0.75c-0.485-0.428-0.773-0.752-0.931-0.979
					C299.479,71.25,301.17,71.222,304.838,72.126z"/>
			</g>
			<path class="st135" d="M258.096,71.526c21.11-5.754,50.182,26.072,57.345,37.751c6.101,9.939,14.967,26.007,1.897,57.418
				c-13.069,31.411-36.237,32.93-58.052,20.753c-19.495-10.883-31.4-30.252-17.725-55.272
				C256.948,104.014,258.32,94.42,258.096,71.526z"/>
			<path class="st195" d="M244.068,192.558c-5.236,6.981-4.338,25.304-4.338,25.304s8.811-9.37,14.858-13.897
				c10.161-7.612,24.56-9.678,24.56-9.678s-19.001-7.865-23.909-9.901C250.328,182.35,248.48,186.668,244.068,192.558z"/>
		</g>
		<g>
			<path class="st191" d="M330.339,264.597c-2.244,1.469-23.86,0.117-29.823-8.968c-5.966-9.087,1.423-29.41,3.667-30.877
				c0,0,5.907,14.458,10.887,22.044C320.047,254.38,330.339,264.597,330.339,264.597z"/>
			<path class="st194" d="M261.129,216.651c0,0,15.433-0.384,27.543,5.966c12.996,6.813,24.407,21.296,24.407,21.296l-5.449-18.733
				c0,0-5.646-5.784-18.594-11.084C267.65,205.342,261.129,216.651,261.129,216.651z"/>
			<path class="st195" d="M319.705,254.844c0,0,0.108,0.683,0.303,1.903c0.067,0.372,0.131,0.796,0.209,1.261
				c0.277,1.709,0.653,4.032,1.095,6.779c0.826,4.988,1.876,11.39,2.983,17.996c2.366,14.117-2.634,32.601-3.103,34.305
				c-0.016,0.05-0.028,0.093-0.031,0.109c-0.004,0.015-0.004,0.015-0.004,0.015s0,0,0.011-0.007
				c0.501-0.277,17.625-9.777,18.116-32.515c0.297-13.959-3.879-17.94-3.879-17.94s-0.016-0.003-0.006-0.008l-1.829-1.384
				l-8.536-6.469c-0.005-0.007-0.005-0.007-0.005-0.007l-0.494-0.371L319.705,254.844z"/>
			<path class="st196" d="M374.16,145.641l8.714,11.198l11.17,14.365l3.877,4.983l19.321,24.839l12.612,16.216l5.332,6.853
				c0,0,3.3-4.641,1-14.216c-0.723-3.041-2.021-6.576-4.164-10.627c-2.678-5.06-6.684-10.913-12.579-17.586
				c-2.24-2.526-4.474-4.969-6.703-7.29c-1.549-1.631-3.097-3.2-4.634-4.714c-0.952-0.95-1.905-1.864-2.846-2.759
				c-1.99-1.897-3.954-3.698-5.884-5.369c-2.561-2.229-5.052-4.276-7.455-6.091c-0.625-0.473-1.245-0.937-1.862-1.377
				C383.96,149.655,378.508,146.711,374.16,145.641z"/>
			<path class="st42" d="M332.021,185.973c-26.988,17.655-25.045,39.543-14.13,58.017c0.609,1.025,1.247,2.054,1.907,3.059
				c6.854,10.442,15.271,18.017,26.161,19.673c8.996,1.369,19.691-1.308,32.577-9.737c24.41-15.97,43.076-32.676,51.318-39.742
				c0.287-0.237,0.563-0.469,0.815-0.682c1.001-0.857,1.82-1.531,2.43-2.004c1.59-1.231,2.597-2.81,3.087-4.677
				c1.908-7.029-3.441-18.099-10.935-29.532c-8.652-13.18-18.669-24.522-28.224-26.469c-0.892-0.186-1.778-0.286-2.668-0.296
				c-1.07-0.017-2.066,0.042-3.118,0.226c-0.386,0.065-0.771,0.152-1.182,0.256c-0.684,0.169-1.408,0.393-2.218,0.695
				c-0.508,0.168-1.054,0.374-1.637,0.62c-0.976,0.396-2.074,0.875-3.331,1.459c-0.338,0.158-0.684,0.322-1.04,0.492
				c-1.657,0.781-3.433,1.651-5.32,2.599C364.413,166.058,348.048,175.488,332.021,185.973z"/>
			<path class="st197" d="M347.589,196.353c-19.238,12.585-30.147,33.134-29.698,47.637c0.128,4.287,1.257,8.045,3.456,10.914
				c0.028,0.044,0.057,0.086,0.105,0.12c0.17,0.241,0.353,0.46,0.543,0.675c0.346,0.392,0.699,0.777,1.057,1.149
				c0.652,0.706,1.312,1.383,1.976,2.032c0,0,0,0,0.005,0.007c2.432,2.378,4.941,4.414,7.506,6.11
				c0.934,0.634,1.887,1.221,2.859,1.742c-0.009,0.006,0.006,0.008,0.006,0.008c15.648,8.754,33.066,5.308,48.703-9.442
				c18.972-17.874,32.8-25.423,51.077-33.211c-1.386-2.633-2.898-5.145-4.517-7.535c-4.024-5.957-8.669-11.169-13.427-15.534
				c-5.635-5.181-11.441-9.203-16.582-11.924c-0.771-0.404-1.522-0.78-2.257-1.131c-0.151-0.076-0.306-0.138-0.458-0.216
				c-4.3-1.997-10.003-3.883-17.447-3.634C371.972,184.396,361.181,187.462,347.589,196.353z"/>
			<path class="st196" d="M399.223,181.408c8.707,38.199-9.551,58.406-9.551,58.406l-15.518-94.172
				C385.075,149.643,393.603,156.75,399.223,181.408z"/>
			<g>
				<path class="st196" d="M394.359,153.582c0.89,0.01,1.776,0.11,2.668,0.296c0.642,2.575,1.437,5.13,2.35,7.655
					c5.058,14.046,13.877,27.039,22.076,36.147c5.349,5.959,7.987,6.94,8.409,6.852c0.008-0.006,0.619-0.959-0.753-5.162
					c-1.285-3.957-4.038-9.283-7.362-14.539c0.702,1.34,1.291,2.619,1.644,3.696c0.271,0.856,1.123,3.46-0.587,4.428
					c-1.396,0.813-3.218-0.176-5.931-3.174c-4.513-5.032-9.509-13.16-11.12-18.112c-0.494-1.503-0.979-3.415-0.492-4.767
					c0.191-0.516,0.515-0.943,1.029-1.239c1.117-0.642,3.188-0.851,8.283,4.818c6.998,7.777,14.734,20.348,17.219,28.016
					c0.082,0.26,0.16,0.513,0.229,0.755c1.264,4.174,1.022,6.686-0.703,7.689c-0.873,0.498-3.507,2.019-11.965-7.386
					c-3.768-4.184-7.708-9.438-11.463-15.157c-5.719-8.711-12.104-19.899-15.969-28.957c-0.236-0.552-0.465-1.094-0.68-1.633
					C392.293,153.624,393.289,153.565,394.359,153.582z M412.472,172.372c1.107,1.228,2.236,2.58,3.348,4.005
					c-0.936-0.985-2.027-1.935-3.08-2.002c-0.344-0.026-0.679,0.042-1.009,0.231c-0.623,0.357-0.862,0.916-0.907,1.501
					c-1.062-1.964-1.898-3.795-2.396-5.322c-0.137-0.44-0.243-0.81-0.322-1.125c-0.159-0.626-0.213-1.056-0.219-1.331
					C408.534,168.639,409.948,169.566,412.472,172.372z"/>
			</g>
			<path class="st135" d="M374.154,145.642c20.699,7.09,26.818,49.726,26.164,63.404c-0.553,11.643-2.27,29.908-30.768,48.55
				c-28.498,18.643-48.514,6.896-59.697-15.416c-9.992-19.941-8.93-42.64,16.47-55.659
				C354.909,171.867,361.445,164.702,374.154,145.642z"/>
			<path class="st195" d="M294.39,237.862c-8.262,2.837-17.839,18.494-17.839,18.494s12.564-2.807,20.116-3.156
				c12.69-0.59,25.76,5.782,25.76,5.782s-11.284-17.171-14.197-21.609C305.316,232.936,301.355,235.469,294.39,237.862z"/>
		</g>
		<g>
			<g>
				<path class="st191" d="M206.861,261.669c16.859-10.366,40.49-6.389,40.49-6.389s0.634,23.916-12.006,39.127
					c-12.262,14.755-31.464,16.769-40.488,6.386C185.825,290.419,190.509,271.724,206.861,261.669z"/>
				<path class="st192" d="M206.861,261.669c16.859-10.366,40.49-6.389,40.49-6.389l-51.633,46.446l-0.861-0.933
					C185.825,290.419,190.509,271.724,206.861,261.669z"/>
			</g>
			<g>
				<polygon class="st192" points="195.718,301.725 194.745,298.911 171.111,320.048 172.924,322.131 				"/>
			</g>
		</g>
		<polygon class="st198" points="159.226,386.852 158.481,385.858 158.369,385.707 156.835,383.52 153.968,379.455 153.959,379.427 
			153.845,379.277 150.714,374.837 148.739,372.021 148.524,371.73 146.907,369.421 146.032,368.192 145.373,367.252 
			142.035,362.512 141.547,361.818 136.75,355.004 136.571,354.75 139.289,351.793 142.017,348.827 142.157,349.024 
			146.737,355.529 147.442,356.534 150.601,361.02 152.096,363.132 152.896,364.268 153.846,365.629 154.494,366.54 
			155.953,368.614 159.158,373.167 159.629,373.842 159.713,373.946 161.039,375.833 163.86,379.849 163.926,379.934 
			164.716,381.371 		"/>
		<polygon class="st199" points="139.294,351.79 167.864,378.326 173.576,372.665 144.738,345.877 		"/>
		<polygon class="st199" points="148.184,397.806 147.621,397.187 142.796,391.94 142.119,391.189 141.875,390.925 139.431,388.26 
			136.704,385.293 135.81,384.326 135.18,383.622 133.319,381.596 129.66,377.606 129.05,376.958 129.03,376.921 122.938,370.294 
			122.608,369.928 122.599,369.919 125.682,366.577 126.981,365.169 128.053,364.006 128.344,364.315 132.368,368.708 
			134.211,370.717 134.428,370.951 135.114,371.711 138.518,375.41 140.334,377.391 141.622,378.789 142.007,379.211 
			144.63,382.074 147.676,385.397 147.808,385.547 148.1,385.857 151.382,389.433 153.121,391.32 153.883,392.156 		"/>
		<polygon class="st199" points="159.544,386.561 158.481,385.858 158.322,385.754 151.88,381.52 151.805,381.483 147.507,378.658 
			145.684,377.457 144.32,376.565 144.123,376.424 142.176,375.156 139.956,373.692 134.936,370.387 134.635,370.2 132.368,368.708 
			127.348,365.404 126.981,365.169 128.053,364.006 132.425,359.246 132.735,359.443 139.722,364.033 140.304,364.427 
			145.1,367.563 146.032,368.192 147.264,368.99 149.586,370.519 150.019,370.801 152.651,372.529 157.146,375.475 157.654,375.814 
			157.71,375.851 161.039,378.047 163.831,379.878 163.926,379.934 165.308,380.844 		"/>
		<polyline class="st198" points="160.56,385.547 154.777,391.282 153.694,390.692 151.382,389.433 147.047,387.077 
			146.548,386.805 146.333,386.683 142.505,384.61 138.979,382.685 138.067,382.187 136.901,381.549 134.466,380.225 
			129.66,377.606 128.88,377.185 128.815,377.156 120.718,372.753 120.248,372.491 122.608,369.928 125.682,366.577 
			126.097,366.801 133.92,371.064 134.193,371.204 135.114,371.711 139.581,374.142 141.951,375.419 143.991,376.536 
			144.226,376.658 145.684,377.457 147.621,378.507 152.275,381.032 152.294,381.051 152.331,381.07 156.835,383.52 
			159.215,384.806 160.56,385.547 		"/>
	</g>
</g>
</svg>
