<?xml version="1.0" encoding="utf-8"?>
<!-- Generator: Adobe Illustrator 24.0.3, SVG Export Plug-In . SVG Version: 6.00 Build 0)  -->
<svg version="1.1" xmlns="http://www.w3.org/2000/svg" xmlns:xlink="http://www.w3.org/1999/xlink" x="0px" y="0px"
	 viewBox="0 0 512 512" style="enable-background:new 0 0 512 512;" xml:space="preserve">
<style type="text/css">
	.st0{fill:none;}
	.st1{fill:#FFFFFF;}
	.st2{fill:#ED0F49;}
	.st3{fill:#FFEBCA;}
	.st4{fill:#9B4231;}
	.st5{fill:#EAB363;}
	.st6{opacity:0.2;enable-background:new    ;}
	.st7{fill:#F7B5E5;}
	.st8{fill:#F9437C;}
	.st9{fill:#FFD7E5;}
	.st10{fill:#FF76A0;}
	.st11{fill:#BBD5FF;}
	.st12{fill:#85BC00;}
	.st13{fill:#00D871;}
	.st14{fill:#FFA300;}
	.st15{fill:#FF99FF;}
	.st16{fill:#E20569;}
	.st17{fill:#4BE08E;}
	.st18{fill:#06FFEC;}
	.st19{fill:#FFA403;}
	.st20{fill:#76D1FF;}
	.st21{fill:#6F00FF;}
	.st22{fill:#0050C4;}
	.st23{fill:#9772D3;}
	.st24{fill:#FFE564;}
	.st25{clip-path:url(#SVGID_2_);fill:#E5E5E5;}
	.st26{clip-path:url(#SVGID_4_);fill:#008BD8;}
	.st27{clip-path:url(#SVGID_6_);fill:#008BD8;}
	.st28{clip-path:url(#SVGID_8_);fill:#008BD8;}
	.st29{fill:#FFC639;}
	.st30{fill:#FF7900;}
	.st31{clip-path:url(#SVGID_10_);fill:#E5E5E5;}
	.st32{clip-path:url(#SVGID_12_);fill:#008BD8;}
	.st33{clip-path:url(#SVGID_14_);fill:#008BD8;}
	.st34{clip-path:url(#SVGID_16_);fill:#008BD8;}
	.st35{clip-path:url(#SVGID_18_);fill:#E5E5E5;}
	.st36{clip-path:url(#SVGID_20_);fill:#008BD8;}
	.st37{clip-path:url(#SVGID_22_);fill:#008BD8;}
	.st38{clip-path:url(#SVGID_24_);fill:#008BD8;}
	.st39{fill:#CAEFFF;}
	.st40{opacity:0.1;}
	.st41{fill:#3C0000;}
	.st42{fill:#C00000;}
	.st43{fill:#23292D;}
	.st44{fill:#F2F2F2;}
	.st45{opacity:0.6;fill:#3C5366;}
	.st46{fill:#3C5366;}
	.st47{fill:#1B2A35;}
	.st48{fill:#7B0000;}
	.st49{fill:#9EC3F2;}
	.st50{fill:#4D84C1;}
	.st51{opacity:0.74;fill:#7B0000;}
	.st52{opacity:0.74;fill:#C00000;}
	.st53{fill:#CBDCF4;}
	.st54{fill:#500000;}
	.st55{fill:#56AAE8;}
	.st56{fill:#FF9999;}
	.st57{opacity:0.3;fill:#FFFFFF;}
	.st58{opacity:0.3;}
	.st59{fill:#F98706;}
	.st60{fill:#FFCC00;}
	.st61{fill:#0092DB;}
	.st62{fill:#00B7FF;}
	.st63{fill:#50D6FF;}
	.st64{fill:#88E0FF;}
	.st65{fill:#DDA800;}
	.st66{fill:#F4C42A;}
	.st67{fill:#FFDB4D;}
	.st68{opacity:0.4;fill:#441F00;}
	.st69{fill:#CE8032;}
	.st70{fill:#6B8900;}
	.st71{fill:#9AC400;}
	.st72{fill:#C2DD00;}
	.st73{opacity:0.2;}
	.st74{fill:#E6F1FF;}
	.st75{fill:#0B0B0C;}
	.st76{fill:#0080FF;}
	.st77{fill:#FFED83;}
	.st78{fill:#AA6500;}
	.st79{clip-path:url(#SVGID_26_);}
	.st80{opacity:0.2;fill:#48A0FF;}
	.st81{fill:#E27100;}
	.st82{fill:#FFB000;}
	.st83{fill:#FFAA00;}
	.st84{fill:#FFDF7B;}
	.st85{opacity:0.2;fill:#F98706;}
	.st86{fill:#B6E7FF;}
	.st87{fill:#D9F4FF;}
	.st88{fill:#379AF4;}
	.st89{fill:#8FD4FF;}
	.st90{fill:#5FBBFF;}
	.st91{opacity:0.2;fill:#379AF4;}
	.st92{fill:#FFF0C5;}
	.st93{fill:#7599BC;}
	.st94{fill:#1D1D38;}
	.st95{opacity:0.15;fill:#0B0019;}
	.st96{opacity:0.05;fill:#FFFFFF;}
	.st97{fill:#618099;}
	.st98{fill:#494968;}
	.st99{fill:#595972;}
	.st100{fill:#E9BC00;}
	.st101{opacity:0.5;}
	.st102{fill:#DDDFE4;}
	.st103{opacity:0.3;fill:#0B0019;}
	.st104{opacity:0.08;fill:#FFFFFF;}
	.st105{fill:#5A5A84;}
	.st106{fill:#B3B3CE;}
	.st107{fill:#FD1B64;}
	.st108{fill:#D6004D;}
	.st109{fill:#920006;}
	.st110{fill:#8585A8;}
	.st111{fill:#171723;}
	.st112{opacity:0.1;fill:#FFFFFF;}
	.st113{opacity:0.2;fill:#0B0019;}
	.st114{fill:#547D9B;}
	.st115{fill:#A1D5FF;}
	.st116{fill:#00254D;}
	.st117{opacity:0.1;fill:#3E0A75;}
	.st118{opacity:0.4;fill:#FFFFFF;}
	.st119{fill:#2D5171;}
	.st120{fill:#B88352;}
	.st121{fill:#EFC478;}
	.st122{fill:#76838E;}
	.st123{fill:#B7A1E2;}
	.st124{fill:#FF4385;}
	.st125{fill:#D30041;}
	.st126{fill:#ED065F;}
	.st127{opacity:0.8;fill:#FFFFFF;}
	.st128{fill:#5D422A;}
	.st129{opacity:0.3;fill:#3E0A75;}
	.st130{fill:#FF7187;}
	.st131{fill:#CE4A69;}
	.st132{fill:#444468;}
	.st133{fill:#1A1A23;}
	.st134{fill:#1F95DD;}
	.st135{fill:#DA0000;}
	.st136{fill:#2C2C4C;}
	.st137{fill:#BCBCE8;}
	.st138{fill:#222B33;}
	.st139{fill:#394854;}
	.st140{fill:#273544;}
	.st141{fill:#86A9BF;}
	.st142{fill:#F79984;}
	.st143{fill:#0A0F11;}
	.st144{fill:#E07868;}
	.st145{fill:#D35440;}
	.st146{fill:#FFC2B8;}
	.st147{fill:#A53A2F;}
	.st148{fill:#C64E36;}
	.st149{fill:#070000;}
	.st150{fill:#230200;}
	.st151{fill:#540000;}
	.st152{fill:#AF8F08;}
	.st153{fill:#16D8C0;}
	.st154{fill:#75EFDD;}
	.st155{fill:#00AF96;}
	.st156{fill:#00846E;}
	.st157{fill:#FFE161;}
	.st158{fill:#05C4A8;}
	.st159{fill:#F3E9FF;}
	.st160{fill:#FFC5DB;}
	.st161{fill:#E5D2FF;}
	.st162{fill:#CDB3FF;}
	.st163{opacity:0.2;fill:#3E0A75;}
	.st164{fill:#A8003D;}
	.st165{fill:#AA6D35;}
	.st166{fill:#FFD6B8;}
	.st167{fill:#FFE697;}
	.st168{fill:#FFDD88;}
	.st169{fill:#FF5986;}
	.st170{opacity:0.4;fill:#C40059;}
	.st171{fill:#CC004E;}
	.st172{fill:#2D2D2D;}
	.st173{opacity:0.6;}
	.st174{fill:#3D3D3D;}
	.st175{fill:#4F4F4F;}
	.st176{fill:#636363;}
	.st177{fill:#E9F5FF;}
	.st178{fill:#C1E0F4;}
	.st179{fill:#E50000;}
	.st180{fill:#FF7373;}
	.st181{fill:#F25F5F;}
	.st182{fill:#FFB200;}
	.st183{opacity:0.5;fill:#FF7373;}
	.st184{fill:#FFCF7B;}
	.st185{fill:#00CEC3;}
	.st186{fill:#00EAD9;}
	.st187{fill:#00A599;}
	.st188{fill:#007F73;}
	.st189{fill:#DD5050;}
	.st190{fill:#FFA6A6;}
	.st191{fill:#45793B;}
	.st192{fill:#35612A;}
	.st193{fill:#235317;}
	.st194{fill:#5E8F44;}
	.st195{fill:#65954D;}
	.st196{fill:#930000;}
	.st197{fill:#F00000;}
	.st198{fill:#EAB80D;}
	.st199{fill:#FFD226;}
</style>
<g id="Credits_10_Birthday">
</g>
<g id="Credits_5000">
</g>
<g id="Credits_3000">
</g>
<g id="Credits_2000">
</g>
<g id="Credits_1000">
</g>
<g id="Credits_750">
</g>
<g id="Credits_500">
</g>
<g id="Credits_300">
</g>
<g id="Credits_200">
</g>
<g id="Credits_100">
</g>
<g id="Credits_75">
</g>
<g id="Credits_50">
</g>
<g id="Credits_25">
</g>
<g id="Credits_10">
	<rect class="st0" width="512" height="512"/>
	<g id="_x31_0Credits">
		<path class="st169" d="M437.453,183.596l-68.508-29.23c0,0-39.278-20.096-62.114-12.788c0,0-18.269,6.394-47.499,30.144
			c0,0-18.269,12.788-12.788,21.009c0,0,9.134,5.481,15.529,0c6.394-5.481,28.317-27.403,28.317-27.403s17.355-21.009,43.845-10.048
			c26.49,10.961,86.777,43.845,86.777,43.845L437.453,183.596z"/>
		<path class="st170" d="M404.569,189.99c19.426,10.103,16.442,9.134,16.442,9.134l16.442-15.529l-22.836-10.048
			C409.859,176.937,404.569,182.683,404.569,189.99z"/>
		<path class="st169" d="M152.459,267.633c0,0-17.355,0.913-36.538-13.702s-51.153-41.105-51.153-41.105l-11.875-10.048
			c0,0-5.481-4.567-9.134,0c-3.654,4.567-1.827,21.923-1.827,21.923v3.654c0,0-3.654-0.913-0.913,5.481c0,0,0.913,4.567,5.481,4.567
			s3.654-6.394,3.654-6.394V216.48c0,0,31.057,35.624,84.037,81.296l15.529,13.702L152.459,267.633z"/>
		<path class="st169" d="M233.755,252.104c0,0-27.403-19.182-59.374-14.615c-31.97,4.567-43.845,56.633-21.009,85.864
			s53.893,40.191,53.893,40.191s28.317,15.529,57.547-9.134c29.23-24.663,42.932-43.845,54.806-81.296l12.788-4.567
			c0,0,12.788,54.806,51.153,57.547c0,0,21.923,2.74,51.153-37.451s43.845-84.037,25.576-105.046c0,0-19.182-21.923-52.066,20.096
			c0,0-2.74,7.308-10.961,3.654c-8.221-3.654-35.624-14.615-57.547,22.836l-6.394,10.048l-3.654,3.654l-15.529,3.654
			c0,0-16.442-19.182-37.451-19.182c0,0-18.269,1.827-34.711,19.182C241.976,247.537,237.409,252.104,233.755,252.104z"/>
		<path class="st169" d="M237.409,255.758c0,0-27.403-19.182-59.374-14.615c-31.97,4.567-43.845,56.633-21.009,85.863
			c22.836,29.23,53.893,40.191,53.893,40.191s28.317,15.529,57.547-9.134c29.23-24.663,42.932-43.845,54.806-81.296l12.788-4.567
			c0,0,12.788,54.806,51.153,57.547c0,0,21.923,2.74,51.153-37.451c29.23-40.191,43.845-84.037,25.576-105.046
			c0,0-19.182-21.923-52.066,20.096c0,0-2.74,7.308-10.961,3.654c-8.221-3.654-35.624-14.615-57.547,22.836l-6.394,10.048
			l-3.654,3.654l-15.529,3.654c0,0-16.442-19.182-37.451-19.182c0,0-18.269,1.827-34.711,19.182
			C245.63,251.191,241.063,255.758,237.409,255.758z"/>
		<path class="st170" d="M171.137,242.978c-10.141,3.992-17.666,13.187-21.931,24.549c-5.9-0.471-19.088-2.779-33.285-13.596
			c-19.182-14.615-51.153-41.105-51.153-41.105l-11.875-10.048c0,0-5.481-4.567-9.134,0c-3.654,4.567-1.827,21.923-1.827,21.923
			v3.654c0,0-3.654-0.913-0.913,5.481c0,0,0.913,4.567,5.481,4.567s3.654-6.394,3.654-6.394V216.48c0,0,31.057,35.624,84.037,81.296
			l14.028,12.378c1.949,6.058,4.858,11.797,8.808,16.852c22.836,29.23,53.893,40.191,53.893,40.191s28.317,15.529,57.547-9.134
			c7.836-6.611,14.547-12.829,20.414-19.11C229.779,318.259,191.747,274.121,171.137,242.978z"/>
		<path d="M404.569,222.874c0,0-22.836-15.529-42.932,2.74s-11.875,52.066-11.875,52.066s9.134,39.278,35.624,39.278
			s55.72-60.287,55.72-60.287s19.182-43.845,4.567-54.806c-14.615-10.961-32.884,18.269-32.884,18.269
			S409.136,225.614,404.569,222.874z"/>
		<path class="st171" d="M141.782,304.475c0,0-7.023-15.652,0-38.122l2.723,0.557c0,0-6.127,19.626,0,39.404"/>
		<path class="st172" d="M449.562,230.307c-2.444-10.489-8.079-19.153-16.743-24.157c-1.696-0.98-3.461-1.772-5.272-2.416
			c-8.304,6.076-14.757,16.401-14.757,16.401s-3.654,5.481-8.221,2.74c0,0-10.609-7.204-23.726-6.016
			c-6.075,5.397-11.611,12.106-16.137,19.943c-16.741,28.986-13.388,62.258,7.489,74.316c6.41,3.702,13.728,4.964,21.275,4.11
			c24.017-9.848,47.637-58.555,47.637-58.555S446.724,243.828,449.562,230.307z"/>
		<path class="st171" d="M115.921,253.931c-19.182-14.615-51.153-41.105-51.153-41.105l-11.875-10.048c0,0-5.481-4.567-9.134,0
			c-0.861,1.076-1.414,2.865-1.762,4.966c0.342-1.734,2.118-7.478,9.983-0.399c9.134,8.221,74.57,67.572,91.178,64.386l1.617-4.773
			C137.919,265.77,127.24,262.555,115.921,253.931z"/>
		<g>
			<path class="st171" d="M157.026,327.006c-22.836-29.23-10.961-81.296,21.009-85.863c31.97-4.567,59.374,14.615,59.374,14.615
				c3.654,0,8.221-4.567,8.221-4.567c16.442-17.355,34.711-19.182,34.711-19.182c14.855,0,27.418,9.585,33.509,15.204
				c-2.239-2.482-17.744-18.857-37.162-18.857c0,0-18.269,1.827-34.711,19.182c0,0-4.567,4.567-8.221,4.567
				c0,0-27.403-19.182-59.374-14.615c-31.97,4.567-43.845,56.633-21.009,85.864c3.73,4.775,7.681,9.053,11.679,12.885
				C162.31,333.384,159.614,330.319,157.026,327.006z"/>
			<path class="st171" d="M317.792,251.191l15.529-3.654l3.654-3.654l6.394-10.048c21.923-37.451,49.326-26.49,57.547-22.836
				c8.221,3.654,10.961-3.654,10.961-3.654c26.183-33.456,43.679-26.375,49.722-22.1c-0.421-0.561-0.847-1.117-1.31-1.649
				c0,0-19.182-21.923-52.066,20.096c0,0-2.74,7.308-10.961,3.654c-8.221-3.654-35.624-14.615-57.547,22.836l-6.394,10.048
				l-3.654,3.654l-15.478,3.642C316.503,249.688,317.792,251.191,317.792,251.191z"/>
			<path class="st171" d="M336.061,272.2l-2.396,0.856c2.697,8.802,9.962,28.529,23.931,41.317
				C341.921,297.296,336.061,272.2,336.061,272.2z"/>
		</g>
		<path class="st0" d="M404.569,222.874c0,0-22.836-15.529-42.932,2.74s-11.875,52.066-11.875,52.066s9.134,39.278,35.624,39.278
			s55.72-60.287,55.72-60.287s19.182-43.845,4.567-54.806c-14.615-10.961-32.884,18.269-32.884,18.269
			S409.136,225.614,404.569,222.874z"/>
		<g class="st173">
			<path class="st9" d="M147.638,286.92c-0.03,0-0.061-0.001-0.091-0.002c-0.826-0.05-1.457-0.759-1.408-1.586
				c0.021-0.363,2.497-36.353,32.49-42.914c0.809-0.176,1.609,0.335,1.786,1.145c0.177,0.809-0.335,1.608-1.145,1.786
				c-27.757,6.072-30.115,39.821-30.135,40.162C149.085,286.306,148.425,286.92,147.638,286.92z"/>
		</g>
		<g>
			<path class="st171" d="M236.496,265.806c1.626,0.65,3.364,0.251,4.932-0.523c-4.109-1.401-16.343-5.1-29.222-4.427
				C225.417,261.501,236.496,265.806,236.496,265.806z"/>
			<path class="st171" d="M285.015,242.564c16.46,2.758,15.421,27.809,15.421,27.809s-3.654,43.845-36.538,73.989
				c-11.412,10.461-22.161,14.428-31.337,15.153c10.385,0.821,23.547-2.151,37.731-15.153
				c32.884-30.144,36.538-73.989,36.538-73.989S308.127,239.226,285.015,242.564z"/>
		</g>
		<g class="st173">
			<path class="st9" d="M236.951,260.455c-0.313,0-0.629-0.098-0.899-0.3c-10.546-7.91-30.228-11.563-30.425-11.6
				c-0.815-0.148-1.355-0.929-1.207-1.744c0.148-0.815,0.932-1.354,1.744-1.207c0.834,0.151,20.572,3.813,31.688,12.15
				c0.663,0.497,0.797,1.438,0.3,2.1C237.857,260.248,237.407,260.455,236.951,260.455z"/>
		</g>
		<g class="st173">
			<path class="st9" d="M244.259,257.715c-0.354,0-0.708-0.124-0.993-0.376c-0.621-0.549-0.679-1.497-0.13-2.117
				c0.22-0.249,5.468-6.14,13.52-11.662c10.784-7.394,21.431-10.479,30.782-8.92c0.817,0.136,1.369,0.909,1.233,1.726
				c-0.136,0.817-0.912,1.372-1.726,1.233c-20.859-3.479-41.357,19.379-41.562,19.61
				C245.087,257.544,244.674,257.715,244.259,257.715z"/>
		</g>
		<g class="st173">
			<path class="st9" d="M341.084,244.013c-0.186,0-0.374-0.035-0.557-0.108c-0.769-0.308-1.143-1.18-0.835-1.949
				c0.133-0.334,3.345-8.277,9.642-16.56c8.44-11.103,18.407-17.375,28.822-18.14c0.835-0.051,1.545,0.561,1.606,1.386
				c0.061,0.826-0.56,1.545-1.386,1.606c-23.163,1.699-35.774,32.511-35.899,32.822
				C342.242,243.657,341.679,244.013,341.084,244.013z"/>
		</g>
		<path d="M238.322,265.806c0,0-49.326-19.182-63.941,17.355c-14.615,36.538,31.057,67.595,31.057,67.595
			s27.403,23.749,60.287-6.394c32.884-30.144,36.538-73.989,36.538-73.989s1.827-43.845-37.451-21.923
			c0,0-10.961,7.308-16.442,12.788C248.37,261.239,242.89,267.633,238.322,265.806z"/>
		<path class="st0" d="M238.322,265.806c0,0-49.326-19.182-63.941,17.355c-14.615,36.538,31.057,67.595,31.057,67.595
			s27.403,23.749,60.287-6.394c32.884-30.144,36.538-73.989,36.538-73.989s1.827-43.845-37.451-21.923
			c0,0-10.961,7.308-16.442,12.788C248.37,261.239,242.89,267.633,238.322,265.806z"/>
		<path class="st172" d="M282.578,242.352c-4.711,0.264-10.541,2.065-17.766,6.098c0,0-10.961,7.308-16.442,12.788
			c0,0-5.481,6.394-10.048,4.567c0,0-15.534-6.04-31.75-4.884c-5.119,6.663-9.584,14.317-13.088,22.793
			c-7.128,17.24-9.061,34.879-6.506,50.071c8.952,10.502,18.46,16.97,18.46,16.97s27.403,23.75,60.287-6.394
			c21.825-20.007,30.772-46.044,34.323-61.297C299.094,266.226,293.005,251.546,282.578,242.352z"/>
		<path class="st174" d="M276.12,257.246c-7.23-2.99-15.198-2.862-23.051-0.169c-1.731,1.408-3.376,2.838-4.699,4.162
			c0,0-5.481,6.394-10.048,4.567c0,0-0.157-0.061-0.441-0.164c-9.117,7.272-17.191,17.939-22.576,30.964
			c-9.542,23.078-7.905,46.883,2.608,60.829c11.091,3.743,28.506,4.625,47.813-13.073c17.801-16.318,27.034-36.647,31.761-51.866
			C296.219,275.959,288.725,262.458,276.12,257.246z"/>
		<path class="st175" d="M281.683,279.721c-15.087-6.238-34.969,7.213-44.408,30.043c-7.993,19.332-5.932,39.186,4.046,48.605
			c7.49-1.885,15.758-6.082,24.405-14.008c15.699-14.391,24.733-31.902,29.891-46.277
			C293.528,289.392,288.763,282.649,281.683,279.721z"/>
		<path class="st176" d="M282.288,297.787c-9.735-4.025-22.565,4.655-28.656,19.387c-5.705,13.798-3.474,28.011,4.83,33.064
			c2.385-1.682,4.808-3.626,7.263-5.876c11.879-10.889,19.942-23.565,25.397-35.317
			C289.705,303.724,286.694,299.609,282.288,297.787z"/>
		<path class="st174" d="M446.543,241.775c-1.917-7.638-6.048-13.879-12.319-17.501c-16.026-9.256-39.883,2.055-53.287,25.263
			s-11.278,49.525,4.747,58.781c4.396,2.539,9.384,3.521,14.581,3.144c21.484-14.87,40.841-54.791,40.841-54.791
			S443.9,250.282,446.543,241.775z"/>
		<path class="st175" d="M441.106,256.671c0,0,0.954-2.182,2.273-5.689c-1.583-3.406-3.941-6.169-7.069-7.975
			c-11.508-6.647-28.992,2.083-39.05,19.498c-10.058,17.415-8.883,36.922,2.625,43.568c1.545,0.892,3.2,1.499,4.927,1.853
			C424.407,291.108,441.106,256.671,441.106,256.671z"/>
		<path class="st176" d="M434.868,257.651c-7.426-4.289-18.708,1.344-25.198,12.582c-6.49,11.238-5.732,23.825,1.694,28.114
			c0.67,0.387,1.372,0.69,2.098,0.919c11.423-13.011,20.925-29.776,25.205-37.843C437.698,259.86,436.442,258.561,434.868,257.651z"
			/>
		<g>
			<path class="st171" d="M402.742,222.874c2.509,1.506,4.738,0.528,6.242-0.657c-3.056-1.785-12.357-6.508-23.297-5.295
				C395.55,217.986,402.742,222.874,402.742,222.874z"/>
			<path class="st171" d="M451.154,201.865c-3.517-2.638-7.246-2.944-10.881-1.894c1.207,0.398,2.402,1.015,3.573,1.894
				c14.615,10.961-4.567,54.806-4.567,54.806s-26.849,55.368-52.402,59.974c1.285,0.201,2.613,0.313,3.99,0.313
				c26.49,0,55.72-60.287,55.72-60.287S465.769,212.826,451.154,201.865z"/>
		</g>
	</g>
</g>
<g id="Credits_5">
</g>
<g id="Credits_1">
</g>
</svg>
