<?xml version="1.0" encoding="utf-8"?>
<!-- Generator: Adobe Illustrator 26.0.1, SVG Export Plug-In . SVG Version: 6.00 Build 0)  -->
<svg version="1.1" id="Layer_1" xmlns="http://www.w3.org/2000/svg" xmlns:xlink="http://www.w3.org/1999/xlink" x="0px" y="0px"
	 width="512px" height="512px" viewBox="0 0 512 512" style="enable-background:new 0 0 512 512;" xml:space="preserve">
<style type="text/css">
	.st0{fill:#FFFFFF;}
	.st1{fill:#FF126D;}
	.st2{fill:#F458AA;}
	.st3{fill:#E65199;}
	.st4{fill:#F759AC;}
	.st5{fill:#FF88D2;}
	.st6{fill:#C83E82;}
	.st7{opacity:0.5;fill:#AF156D;enable-background:new    ;}
	.st8{opacity:0.75;fill:#FFFFFF;enable-background:new    ;}
</style>
<g>
	<path class="st0" d="M261.3,471.9c-0.6,0-1.2,0-1.8,0c-18.9-0.6-25.8-12.3-27.8-17.3l-6.8-16.7c-1.9-4.7-5.2-17.2,6.3-30.4
		c0.3-0.3,0.5-0.6,0.8-0.9l-71.8-175c-1-0.3-1.9-0.7-2.9-1.1c-0.1,0-0.2-0.1-0.2-0.1c-8.1-3.3-19-10.8-25.5-27.5
		c-0.6-1.6-1.2-3.3-1.7-5c-1.1-3.7-2-7.6-2.7-11.9c-0.1-0.8-0.2-1.5-0.3-2.3c-0.2-1.4-0.4-2.9-0.5-4.5c-0.3-2.6-0.5-5.3-0.6-8.3
		c-0.1-1.3-0.1-2.6-0.2-3.8c-0.1-2.1-0.1-4-0.2-5.9v-0.5c-0.1-2.2-0.3-4.5-0.5-6.7v-0.1c-0.1-1.3-0.3-2.7-0.6-4
		c-0.1-0.4-0.2-0.8-0.2-1.2c-0.8-3.6-1.4-6.4-1.9-9.1c-0.7-3.3-1.1-6.7-1.4-10.3c-0.1-1.1-0.1-2.2-0.2-3.3c-0.1-4.4,0-8.5,0.2-11.7
		c0-0.2,0-0.5,0-0.7c0.1-1.7,0.3-3.3,0.6-5c0.2-1.6,0.5-3.3,0.9-4.9c0-0.2,0.1-0.5,0.2-0.8c0.2-0.9,0.4-1.8,0.6-2.8
		c0.1-0.5,0.3-1,0.4-1.5l0.1-0.5c0.1-0.5,0.3-1,0.4-1.5c0.2-0.7,0.4-1.3,0.6-2l0.1-0.3c0.1-0.4,0.3-0.8,0.4-1.2
		c0.3-0.8,0.6-1.6,0.9-2.4c0.1-0.4,0.3-0.7,0.4-1c0.4-0.9,0.7-1.7,1.1-2.6c0.1-0.3,0.2-0.5,0.3-0.8c0.4-0.9,0.8-1.7,1.3-2.7
		c0.1-0.2,0.2-0.4,0.3-0.6c0.5-0.9,1-1.9,1.6-2.9c0.1-0.1,0.1-0.3,0.2-0.4c5.6-9.6,13.3-17.8,22.3-23.7c0.2-0.2,0.5-0.3,0.7-0.5
		c1.8-1.2,3.7-2.3,5.8-3.3c0.2-0.1,0.4-0.2,0.6-0.3c1.7-0.9,3.2-1.5,4.6-2.1c0.5-0.2,0.9-0.4,1.4-0.5c17.9-6.1,38.3-4.3,57.6,5
		c17,8.3,31.5,21.9,39.8,37.3c0.3,0.5,0.5,1,0.8,1.5c0,0,0.3,0.6,0.7,1.5c0.7,1.5,1.3,3.1,1.9,4.7c0.6,1.7,1.1,3.1,1.5,4.4
		c3.3,11.3,6,23.5,4,37.1l87.1,213c0.4,0,0.8,0,1.2,0.1c17.7,1.2,24.2,12.4,26.2,17.2l6.9,16.8c2.1,5,5.4,18.1-7.6,31.9
		c-3.8,4-8.8,8-15.5,12.4c-11.5,7.5-27.3,15.5-44.4,22.6s-34,12.4-47.5,15.2C272.2,471.2,266.3,471.9,261.3,471.9z M267.3,439
		L267.3,439L267.3,439z M269.2,419.6L269.2,419.6C269.2,419.7,269.2,419.6,269.2,419.6z M349.8,406L349.8,406L349.8,406L349.8,406z
		 M169.2,113.5L169.2,113.5L169.2,113.5z M180.1,96.5L180.1,96.5L180.1,96.5z M153.8,56.4C153.8,56.4,153.7,56.4,153.8,56.4
		C153.7,56.4,153.8,56.4,153.8,56.4z"/>
	<path class="st1" d="M365.1,380.2l6.9,16.7c2.6,6.2-21.8,22.1-54.5,35.6s-61.2,19.2-63.7,13l-6.8-16.7c1.4,3.3,10.1,3.2,22.8,0.4
		c14-3.3,27.7-7.8,40.9-13.4c15.3-6.3,28.8-13.1,38.5-19.2C360.2,389.5,366.5,383.5,365.1,380.2z"/>
	<path class="st2" d="M365.1,380.2c1.4,3.3-4.9,9.4-16,16.3c-9.7,6.1-23.2,13-38.5,19.2c-13.2,5.6-26.9,10.1-40.9,13.4
		c-12.8,2.9-21.4,2.9-22.8-0.4c-2.6-6.2,21.8-22.1,54.5-35.5S362.6,374,365.1,380.2z"/>
	<path class="st3" d="M177.8,142.3l35.2-14.5c13.4-5.5,28.7,0.9,34.2,14.3l93.3,227.4c5.5,13.4-0.9,28.7-14.3,34.2L291,418.2
		c-13.4,5.5-28.7-0.9-34.2-14.3l-93.3-227.4C158,163.1,164.4,147.8,177.8,142.3z"/>
	<g>
		<path class="st4" d="M233,151.5l-10.4,4.3c-4,1.6-4.5,9.4-1.3,17.3l75.4,181.6c6.8,15,31,4.6,24.7-10.2L246,162.9
			C242.9,155,237,149.9,233,151.5z"/>
	</g>
	<path class="st5" d="M230.5,152.8l-5.2,2.1c-2,0.8-2.1,5.1-0.2,9.6c0,0,55.2,130.3,56.4,133.1c2.9,6.1,14.9,0.3,12.4-5.1
		c-1.7-3.7-56.4-133.1-56.4-133.1C235.6,155,232.5,152,230.5,152.8z"/>
	<path class="st6" d="M275.4,396.3L182,168.9c-5.5-13.4,0.9-28.7,14.3-34.2l-18.5,7.6c-13.4,5.5-19.7,20.8-14.3,34.2l93.3,227.3
		c5.5,13.4,20.8,19.7,34.2,14.3l18.5-7.6C296.1,415.9,280.9,409.6,275.4,396.3z"/>
	<path class="st7" d="M164,176.6c-5.6-13.4,0.7-28.7,14.1-34.3l35.1-14.6c13.4-5.6,28.7,0.7,34.3,14.1l0.3,0.7
		c-2.4,9.4-5.9,18.9-10.5,28.2c-13,26.3-32.3,46.1-52.3,56.1L164,176.6z"/>
	<path class="st3" d="M149.2,159.8c-0.1-2.7-0.3-5.5-0.6-8.2s-0.7-5.3-1.2-8c-0.7-3-1.3-5.9-1.8-8.6c-1.3-6.3-1.2-12.9-0.9-19.3
		c0.2-2.4,0.5-4.7,1-7c2.7-13.4,10.3-25.2,21.5-32.4c1.4-0.9,2.9-1.8,4.5-2.5l0,0c0.9-0.5,1.8-0.9,2.8-1.3
		c25.4-8.7,56.6,8.8,68.4,31c0,0,0.3,0.6,0.6,1.4c0.5,1.1,1,2.2,1.4,3.4c0.4,1,0.7,1.9,0.9,2.7c6.8,23.2,6.7,38-20.9,66.4
		c-2,2.2-4,4.3-6.1,6.4c-10.1,10.1-22.7,17.6-35.7,23.6c-0.4,0.2-0.7,0.3-1.1,0.5c-2.5,0.9-5.2,1.5-7.8,1.9c-2.7,0-5.4-0.6-7.9-1.6
		C150.1,201.5,149.7,176,149.2,159.8z"/>
	<path class="st6" d="M339.2,366.6c0,0,8.9,19.7,16.7,15.8c0,0,8.1,6.9-39.2,27.8s-61.4,14.4-61.4,14.4s7.4-6-0.6-25.7L339.2,366.6z
		"/>
	<path class="st3" d="M355.9,382.4c-7.8,3.9-17.9-18.5-17.9-18.5L272.9,390l13.2,31.5c8.1-2.3,18.5-6,30.7-11.4
		C363.9,389.3,355.9,382.4,355.9,382.4z"/>
	<path class="st6" d="M235.3,163.5c-2,2.2-4,4.3-6.1,6.4c-10.1,10.1-22.6,17.7-35.6,23.7c-0.4,0.2-0.7,0.3-1.1,0.5
		c-2.5,0.9-5.1,1.6-7.7,2c-2.7,0-5.3-0.5-7.8-1.5c-15.8-6.4-15.9-31.6-16.1-47.6c-0.1-2.7-0.2-5.4-0.5-8.1c-0.2-2.6-0.6-5.3-1.1-7.9
		c-0.6-3-1.2-5.8-1.7-8.5c-1.2-6.2-1.1-12.7-0.7-19c0.2-2.3,0.6-4.6,1.1-6.9c1.6-7.3,4.6-14.2,8.9-20.1
		c-11.1,7.2-18.5,18.9-21.2,32.2c-0.5,2.3-0.8,4.7-1,7c-0.3,6.4-0.4,13,0.9,19.3c0.5,2.8,1.1,5.6,1.8,8.6c0.6,2.6,1,5.3,1.2,8
		c0.3,2.7,0.4,5.4,0.6,8.2c0.4,16.2,0.8,41.8,16.9,48.4c2.5,1,5.2,1.5,7.9,1.6c2.7-0.4,5.3-1.1,7.8-1.9c0.4-0.2,0.7-0.3,1.1-0.5
		c13-5.9,25.6-13.5,35.7-23.6c2.1-2.1,4.1-4.2,6.1-6.4c7.6-7.8,13.1-14.6,17-20.8C239.8,158.8,237.7,161.1,235.3,163.5z"/>
	<path class="st5" d="M172.1,152.6c0,0-5,28.3,7.8,31.7c12.8,3.3,34.5-13.3,34.5-13.3S176,195.4,172.1,152.6z"/>
	<path class="st8" d="M183.5,76.5c1.2-0.2,2.2-0.2,3.2-0.3c1,0,2.1,0,3.1,0s2,0.1,3.1,0.2l3,0.4c4,0.7,8,1.9,11.8,3.5
		c1.9,0.8,3.8,1.9,5.6,2.9L216,85c0.4,0.3,0.9,0.6,1.3,0.9l1.3,1c2.4,1.8,4.7,4.1,6.8,6.5c0.9,1,0.7,1.4-0.3,0.6
		c-2.3-1.9-4.7-3.7-7.3-5l-1.3-0.8c-0.4-0.2-0.9-0.4-1.4-0.6l-2.7-1.2c-1.9-0.6-3.7-1.3-5.6-1.7c-3.7-0.9-7.5-1.3-11.3-1.1l-2.8,0.2
		c-0.9,0.1-1.9,0.2-2.8,0.4c-0.9,0.2-1.8,0.3-2.7,0.5s-1.8,0.5-2.6,0.7l0,0c-1.8,0.6-3.6-0.8-4.1-3.3s0.6-5,2.4-5.6
		C183.2,76.6,183.3,76.5,183.5,76.5z"/>
</g>
</svg>
