<?xml version="1.0" encoding="utf-8"?>
<!-- Generator: Adobe Illustrator 24.3.0, SVG Export Plug-In . SVG Version: 6.00 Build 0)  -->
<svg version="1.1" id="Layer_1" xmlns="http://www.w3.org/2000/svg" xmlns:xlink="http://www.w3.org/1999/xlink" x="0px" y="0px"
	 viewBox="0 0 512 512" style="enable-background:new 0 0 512 512;" xml:space="preserve">
<style type="text/css">
	.st0{fill:#FFFFFF;}
	.st1{fill:#351E19;}
	.st2{fill:#190D0C;}
	.st3{fill:#C60000;}
	.st4{fill:#AF0000;}
	.st5{fill:url(#SVGID_1_);}
	.st6{fill:#E89F6F;}
	.st7{fill:#E27E4B;}
	.st8{fill:#E29D5E;}
	.st9{fill:#E08F4C;}
	.st10{fill:#E5A87F;}
	.st11{fill:#D38D67;}
	.st12{opacity:0.6;fill:#7F502D;}
	.st13{fill:#EF7F8F;}
	.st14{fill:url(#SVGID_2_);}
	.st15{fill:#E25476;}
	.st16{fill:#D4495F;}
	.st17{fill:#A52C40;}
	.st18{fill:#841A34;}
	.st19{fill:#FFD3BB;}
	.st20{fill:#FFD3B6;}
	.st21{fill:#E5996E;}
</style>
<g>
	<g id="_11">
		<path class="st0" d="M224.4,69c3.1,0,6.2,0.3,9.3,1c5.4,1.3,10.9,1.3,16.3,0c3-0.7,6.1-1,9.2-1c24.5,0,60.4,19.8,73.4,78.8
			c4.4-7.8,9.8-18,17.7-18.9c2.2-0.3,4.6-0.5,7-0.6c2-1.2,4.2-1.9,6.5-1.9c1.5,0,3.1,0.3,4.5,0.9l12.1,4.9c3,1.3,4.9,4.2,4.9,7.4
			c1.1,1.9,1.8,4,2.2,6.2c0.1,0.3,0.2,0.6,0.2,1s0.1,0.5,0.2,0.8s0.1,0.6,0.2,0.9s0.1,0.6,0.1,0.8s0.1,0.6,0.1,0.9s0,0.6,0,0.9
			s0,0.6,0,0.9s0,0.6,0,0.9l-0.1,0.9c0,0.3-0.1,0.6-0.1,0.9s-0.1,0.6-0.1,0.8s-0.1,0.7-0.2,1s-0.1,0.5-0.2,0.8s-0.2,0.7-0.3,1.1
			s-0.2,0.5-0.2,0.8c-0.1,0.4-0.3,0.8-0.5,1.2c-0.1,0.2-0.2,0.4-0.3,0.6c-0.3,0.6-0.6,1.2-0.9,1.8c-5.6,10.1-28.6,68.1-28.6,68.1
			s-10.6,25.1-11.6,29.7s-10.3,31.6-16.6,44.8c-2,4.6-3.5,9.4-4.4,14.3c2.3,0.3,4.5,1.3,6.3,2.9c6.7,6.3,16.8,25,16.8,25l1.7,4.7
			c2.7-1.1,5.5-1.6,8.4-1.6c9,0,17.4,4.7,21.9,12.5c6.7,11,20.2,42.6,22.7,59.7c1.3,9.1,2.4,16.9,2.2,24c0.2,0.8,0.4,1.2,0.4,1.2
			H173.7c-0.3-12-0.3-22.9,0.3-30c1.7-21.9-0.4-59-0.5-59.1s0.5,5.5,0.5,5.5s-0.1-1.5-0.5-5.9c-1.1-13.1-14.2-37-18.3-46.4
			c-9.6-21.9-23.7-53.9-30.1-73.5s-23.1-60.9-24.8-66.9c-1.1-3.8-4-11.7-3.8-18.8l-1.4-3.7c-1.6-4.2,0.5-9,4.7-10.6l8.3-3.2
			c1.5-0.6,3.2-0.9,4.8-0.9c0.4,0,0.8,0,1.1,0.1c2.1-0.8,4.2-1.3,6.4-1.6l0,0c1.1-0.1,2.3-0.2,3.5-0.3h0.2h1.2h0.5
			c0.6,0,1.3,0,1.9,0.1c0.9,0.1,1.7,0.2,2.5,0.5l0,0c7.5,2.2,14.3,11.4,16.9,15.4l0,0l0.3,0.4l0,0l0.2,0.4l0,0l0.2,0.3l0,0l0.1,0.2
			v0.1l0.1,0.1l0,0c0,0,0,0.1,0.1,0.1l1.5,3.1C161.8,90,199.1,69,224.4,69 M173.5,358.9L173.5,358.9 M224.4,45L224.4,45
			c-20.8,0-41.6,8.9-58.7,25c-11.5,10.8-20.8,24.3-27.8,40.4l-0.8-0.2c-2.5-0.8-5.2-1.2-7.8-1.4c-1-0.1-2-0.1-3-0.1h-0.9h-1.6h-0.6
			c-2,0.1-4,0.2-5.9,0.5l0,0c-2.3,0.3-4.7,0.8-6.9,1.4c-3.7,0.3-7.4,1.1-10.9,2.4l-8.3,3.2c-16.6,6.4-24.8,25.1-18.4,41.6
			c0.7,6.3,2,12.5,4,18.5c0.2,0.7,0.4,1.3,0.5,1.8c0.9,3.4,3.1,9,8.9,24.3c5.6,14.6,12.6,32.8,16.1,43.6
			c6.3,19.4,19.4,49.3,28.9,71.1l2,4.6c1.1,2.5,2.6,5.6,4.3,9.1c2.6,5.3,5.8,12,8.3,18.1c3.3,8,3.7,11.2,3.8,11.5
			c0.1,2.1,2,36.2,0.5,55.8c-0.6,7.4-0.7,18.3-0.3,32.5c0.3,13,11,23.4,24,23.4h230.8c13.3,0,24-10.7,24-24c0-1.3-0.1-2.6-0.3-3.9
			c0-7.8-1.1-15.7-2.5-24.8c-3.1-20.9-17.7-55.1-26-68.7s-21.4-22-36.5-23.7c-3.3-5.6-6.9-10.9-10.9-16
			c6.4-14.5,14.4-37.3,16.1-44.7c1-3.3,6.2-16,10.5-26.1l0.2-0.5c10.8-27.2,24.2-59.8,27.2-65.2c0.6-1.1,1.2-2.3,1.8-3.5
			c0.3-0.6,0.5-1.1,0.6-1.4c0.2-0.6,0.6-1.3,0.9-2.3c0.2-0.7,0.4-1.2,0.5-1.5l0,0l0,0c0.1-0.5,0.4-1.2,0.6-2.1
			c0.2-0.7,0.3-1.3,0.4-1.6V162c0.1-0.5,0.3-1.2,0.4-2.1c0.1-0.7,0.2-1.3,0.3-1.7V158c0.1-0.6,0.2-1.3,0.2-2s0.1-1.3,0.1-1.9
			s0-1.1,0-1.9c0-0.6,0-1.2,0-1.9s-0.1-1.2-0.1-1.9s-0.1-1.3-0.2-1.9s-0.1-1.1-0.2-1.7s-0.2-1.1-0.3-1.9c-0.1-0.5-0.2-1.1-0.4-1.6
			c0-0.2-0.1-0.5-0.2-0.8c-0.5-2.6-1.3-5.1-2.3-7.6c-2.2-10.4-9.4-19-19.2-22.9l-12-5c-4.3-1.7-8.8-2.6-13.4-2.6
			c-4.3,0-8.6,0.8-12.6,2.3c-1.2,0.1-2.5,0.2-3.8,0.4c-1.3,0.2-2.6,0.4-3.9,0.7C337,91.6,327.7,79,316.2,68.4
			c-16.8-15.1-37-23.4-57.1-23.4c-5,0-10,0.6-14.9,1.7c-1.7,0.4-3.4,0.4-5.1,0C234.4,45.6,229.4,45,224.4,45z"/>
		<polygon class="st1" points="335.1,189.8 296.9,112.6 254.4,97.7 241.8,119.2 229.1,97.7 186.6,112.6 148.4,189.8 153.9,234.8 
			239.6,277.9 246.5,277.9 329.7,234.8 		"/>
		<path class="st2" d="M187.4,133.6c0,0-30.8,72.8-9,124.5s-28.5-34.6-28.5-34.6l-3-43.4l29.2-54.4L187.4,133.6z"/>
		<path class="st2" d="M296.1,133.6c0,0,30.8,72.8,9,124.5s28.5-34.6,28.5-34.6l3-43.4l-29.2-54.4L296.1,133.6z"/>
		<path class="st3" d="M336.1,169.9C327,84.3,275.9,63.8,249.9,70c-5.4,1.3-10.9,1.3-16.3,0c-26.9-6.5-80.6,15.7-87,108.9
			c-0.4,6.4-0.7,13.2-0.6,20.3v0.6c0,0.6,0,1.1,0,1.7c1.5,108.4,76.7,125.2,95.5,125.6c20,0.4,94.6-17.2,96-125.7c0-0.6,0-1.1,0-1.7
			c0-1.1,0-2.2,0-3.3C337.5,187.6,337,178.7,336.1,169.9z M241.8,268.5c-1.3,0-2.6,0-3.8-0.2c-2.5-0.2-4.9-0.6-7.3-1.2
			c-0.5-0.1-1-0.2-1.5-0.4c-2.3-0.6-4.5-1.3-6.6-2c-3.3-1-6.6-2.1-9.7-3.3c-2.5-0.9-4.9-1.9-7.3-2.9c-1.4-0.6-2.9-1.2-4.3-1.9
			c-3.1-1.4-6.1-2.9-8.9-4.4c-2.1-1.1-4.1-2.3-6.1-3.5c-2.1-1.3-4.3-2.7-6.3-4.1c-24.5-17.2-29.6-35.9-30.7-43.2
			c-0.2-1.2-0.3-2.3-0.3-3.5c0-0.1,0-0.2,0-0.2c3.8-22.1,17.1-40.1,39.6-53.3c18.1-10.7,37.7-15.5,47.8-17.4c3.6-0.7,7.4-0.7,11,0
			c10,1.9,29.6,6.7,47.8,17.4c22.4,13.2,35.8,31.1,39.6,53.3c0,0.1,0,0.2,0,0.2c0,1.1-0.1,2.3-0.3,3.4c-1,6.8-5.7,24.5-27.8,41.1
			c-2.4,1.8-4.9,3.5-7.4,5.1c-1.5,1-3.1,1.9-4.7,2.8c-3.2,1.8-6.6,3.6-10.2,5.3c-0.9,0.4-2,0.9-3.1,1.4c-2.7,1.2-5.5,2.4-8.4,3.5
			c-2.6,1-5.4,2-8.3,3c-2.6,0.9-5.4,1.7-8.3,2.6l-1.8,0.5c-2.5,0.7-5.1,1.2-7.8,1.5C244.9,268.4,243.3,268.4,241.8,268.5z"/>
		<path class="st4" d="M337.4,188.6c-3.6-16-12.5-28.2-23.4-37.7c2.5-3.5,3.4-8,2.5-12.2c-3.1,2.5-6.5,4.6-10.1,6.3
			c-2.5-1.8-5.1-3.4-7.7-4.9c5.8-5.8,10.3-12.7,13.3-20.3c-4.5,7.4-11.1,13.4-18.9,17.3c-3.1-1.6-6.2-3-9.3-4.3
			c5.5-6.1,8.9-13.9,9.4-22.2c-0.7,8.4-7.1,15.2-14.3,18.3c-0.9,0.4-1.7,0.7-2.6,1c-4.4-1.6-8.7-2.9-12.6-4.1l0,0
			c8.2-9.2,12-21.5,10.5-33.8c-1.7,8.3-4.4,16.6-9.2,23.3c-2.1,3-4.7,5.7-7.7,7.8c-0.4,0.2-0.7,0.5-1.1,0.7
			c-3.4-0.8-6.4-1.4-8.9-1.9c-0.6-0.1-1.1-0.2-1.7-0.2L242.1,78l-3.6,43.7c-0.8,0.1-1.6,0.2-2.4,0.3c-2.2,0.4-4.9,0.9-7.9,1.6
			c-0.3-0.2-0.5-0.3-0.8-0.5c-3-2.2-5.6-4.8-7.7-7.8c-4.8-6.7-7.5-15-9.2-23.3c-1.5,12.1,2.2,24.3,10.2,33.5
			c-4.1,1.1-8.5,2.5-13.1,4.1c-0.6-0.2-1.2-0.5-1.9-0.7c-7.2-3.1-13.5-9.9-14.3-18.3c0.6,8,3.8,15.7,9.1,21.8
			c-3.2,1.3-6.4,2.8-9.6,4.4c-7.5-3.9-13.7-9.8-18.1-17c2.9,7.4,7.2,14.2,12.8,19.8c-2.7,1.6-5.4,3.2-8,5c-3.3-1.6-6.4-3.6-9.3-5.9
			c-0.9,3.9-0.2,8.1,2,11.4c-11.4,9.5-20.6,22.1-24.3,38.4c-0.1,3.4-0.2,6.9-0.1,10.6v0.6c0,0.6,0,1.1,0,1.7l4.2-0.2
			c-0.2-1.1-0.3-2.1-0.3-3.2c3.2-18.6,13.1-32.4,25.2-42.7c3.4-2.8,7-5.5,10.7-7.8c1.8-1.1,3.5-2.2,5.3-3.2c2.8-1.6,5.7-3,8.5-4.4
			c2.1-1,4.3-1.9,6.4-2.8c5.1-2.1,10.4-3.9,15.7-5.4c1.7-0.5,3.2-0.9,4.8-1.3c2.9-0.8,5.6-1.4,7.9-1.8l2-0.4
			c0.6-0.1,1.1-0.2,1.7-0.3c2.7-0.4,5.5-0.3,8.2,0.1l0.9,0.1c1,0.2,2.1,0.4,3.2,0.6c2.3,0.5,4.8,1.1,7.7,1.8
			c1.3,0.3,2.6,0.7,3.9,1.1c5.6,1.6,11,3.5,16.4,5.7c2,0.8,4,1.7,6,2.6c2.9,1.4,5.9,2.9,8.8,4.6c1.6,0.9,3.3,1.9,4.9,3
			c3.9,2.4,7.5,5.2,11,8.1c11.9,10.2,21.4,23.9,24.6,42.1c0,1.1-0.1,2.1-0.3,3.2l4.2,0.2c0-0.6,0-1.1,0-1.7c0-1.1,0-2.2,0-3.3
			C337.5,193.8,337.5,191.2,337.4,188.6z"/>
		<linearGradient id="SVGID_1_" gradientUnits="userSpaceOnUse" x1="250.5815" y1="128.0629" x2="250.5815" y2="447.5999">
			<stop  offset="0" style="stop-color:#EDC3A0"/>
			<stop  offset="0.97" style="stop-color:#E29D5E"/>
			<stop  offset="1" style="stop-color:#E29C5C"/>
		</linearGradient>
		<path class="st5" d="M402,422.8c-2.5-17.1-16-48.7-22.7-59.6c-4.5-7.8-12.9-12.6-21.9-12.5c-2.9,0-5.7,0.5-8.4,1.6l-1.7-4.7
			c0,0-10.1-18.8-16.8-25c-1.8-1.5-4-2.6-6.3-2.9c0.9-4.9,2.4-9.7,4.4-14.3c6.3-13.2,15.6-40.2,16.6-44.8s11.6-29.8,11.6-29.8
			s23-57.9,28.6-68.1s2.7-20.2-4-28s-21-7.1-31.1-5.9c-10.1,1.2-16.3,17.7-21.3,24.8s-14.3,34-19.9,44.1s-27.9,57-30.9,64.8
			s-11,32.7-12,37.3c-0.8,3.8-12.1,23.7-16.1,30.8l0,0c-0.8-1.3-1.5-2.6-2-4c-1.7-6.1-24.7-26.4-29.7-31.6s-12.5-26.1-14.6-33.7
			s-18.3-34.4-21.6-40.1s-13.3-29.1-17.5-37.8s-16.2-33.3-16.2-33.3s-10-17-20.6-17.7s-18.3,2.8-26.8,9.7s-2.2,23.2-0.5,29.2
			s18.4,47.3,24.8,66.9c6.3,19.6,20.5,51.5,30.1,73.5c4.1,9.4,17.2,33.3,18.3,46.4s0,0.4,0,0.4s2.1,37.2,0.5,59.1
			c-0.5,7.1-0.6,18.1-0.3,30h230.4C404.5,440.5,403.4,432.4,402,422.8z"/>
		<path class="st6" d="M113.5,134.9c0,0,14.4,10.3,24.4,39.3c3.6,10.4,13,43,16.7,49.6s25.5,40.8,27.8,49.6s9.6,22.2,15,28.4
			s17.2,25.4,17.2,25.4c6.6,3.3,13.9,5,21.2,4.9c11.4-0.4,3.9-3.3,7.9-11.5c-7.3-8.5-21.6-21.3-25.4-25.3
			c-4.9-5.3-12.5-26.1-14.6-33.7s-18.3-34.4-21.6-40.1s-13.3-29.1-17.5-37.8s-16.2-33.3-16.2-33.3s-10-17-20.6-17.7
			c-2.4-0.2-4.8-0.1-7.2,0.2C120.9,133.5,113.5,134.9,113.5,134.9z"/>
		<path class="st6" d="M218.3,295.2c-4.9-5.3-12.5-26.1-14.6-33.7s-18.3-34.4-21.6-40.1s-13.3-29.1-17.5-37.8s-16.2-33.3-16.2-33.3
			s-8.4-14.4-18-17.2c4.1,8.8,11.9,25.7,15.1,33c4.5,10.1,15.4,37.3,19,43.9s21.3,37.7,23.6,46.5c2.3,8.8,10.5,33,15.9,39.1
			s30.5,29.7,32.4,36.7c0.2,0.5,0.3,1,0.6,1.5c2.2-4.2,4.6-8.9,6.8-13.2C236.4,312,222.1,299.2,218.3,295.2z"/>
		<path class="st7" d="M218.3,295.2c-4.9-5.3-12.5-26.1-14.6-33.7s-18.3-34.4-21.6-40.1s-13.3-29.1-17.5-37.8s-16.2-33.3-16.2-33.3
			s-8.4-14.4-18-17.2c4.1,8.8,11.9,25.7,15.1,33c4.5,10.1,15.4,37.3,19,43.9s21.3,37.7,23.6,46.5c2.3,8.8,10.5,33,15.9,39.1
			s30.5,29.7,32.4,36.7c0.2,0.5,0.3,1,0.6,1.5c2.2-4.2,4.6-8.9,6.8-13.2C236.4,312,222.1,299.2,218.3,295.2z"/>
		<path class="st8" d="M384.5,387c-6.7-17.5-44.4-34-44.4-34l-22.2-33.1c0,0,65.5-161.2,70-172.5c-1.1-9.3-7.8-17.6-21.1-18.6
			c0,8.3,2.2,19.6-4.5,36.2s-25.2,59.3-26.6,63c-2.8,7-16.6,37.8-17.8,43.4c-0.9,4.5-8.8,27.4-15.5,42.4c-2,4.5-8.9,22.5-6.5,30.5
			c3.1,10.2,18.3,13.2,22.4,21.4s6.6,16.5,13,21.5s15.5,0,15.5,0c0.4-0.2,14,0.9,18.9,9.3c7.1,12.3,16.9,33.1,20,51.7h18.9
			C404.5,448,391.1,404.6,384.5,387z"/>
		<path class="st9" d="M402,422.8c-2.5-17.1-16-48.7-22.7-59.6c-4.5-7.8-12.9-12.6-21.9-12.5c-2.9,0-5.7,0.5-8.4,1.6l-1.7-4.7
			c0,0-10.1-18.8-16.8-25c-1.8-1.5-4-2.6-6.3-2.9c0.9-4.9,2.4-9.7,4.4-14.3c6.3-13.2,15.6-40.2,16.6-44.8s11.6-29.8,11.6-29.8
			s23-57.9,28.6-68.1c5.2-9.4,3.1-18.8-2.6-26.3c-0.2,4.1-1.3,8.1-3.2,11.7c-6.1,11.7-31.2,78.9-31.2,78.9s-11.6,29.2-12.7,34.5
			s-11.3,36.6-18.1,51.9c-2.1,4.6-3.5,10.4-4.8,16.5c2.6,0.4,5,1.6,6.9,3.4c7.3,7.2,18.3,29,18.3,29l1.8,5.4c2.9-1.2,6-1.9,9.2-1.8
			c5.5,0,16.5,1.8,23.9,14.5C380,393,394,427.9,397.4,448h6.7C404.5,440.5,403.4,432.4,402,422.8z"/>
		<path class="st10" d="M317.8,257.2c-1.4-22.2-5.2-36.1-22.4-49.9c-12.4-11.6-24.6-12.8-32.7-12.7c-4,0.1-8,0.4-11.9,1
			c-2.6,0.4-5.2,0.6-7.9,0.7c-4.1-0.1-8.2-0.4-12.3-1c-5.7-0.8-11.4-1.2-17.1-1.2c-6.9,0.1-12.6,1.3-17.4,3.7
			c-13.2,6.1-21.2,18.2-24.5,36.9c-4.6,25.9,3.9,71,4.9,76c5.4,27.9,15.1,42.3,19,47.3c9.6,12.1,26.2,20.6,35,22.7
			c4.2,0.9,8.5,1.2,12.7,1.1c7.2-0.1,17.2-1.2,24-3.9c11-4.6,19.9-13.1,24.8-24c5-10.7,11.6-27,13.6-33.6l0.7-2.2
			C311.8,301,319,276.1,317.8,257.2z"/>
		<path class="st11" d="M317.7,251.3c-1.3-20.2-5.1-32.8-22.3-45.3c-12.4-10.5-24.6-11.6-32.7-11.5c-4,0.1-8,0.4-11.9,0.9
			c-2.9,0.3-5.6,0.6-7.9,0.7c-4.1-0.1-8.2-0.4-12.3-0.9c-5.7-0.7-11.4-1.1-17.1-1.1c-6.9,0.1-12.6,1.2-17.4,3.4
			c-13.2,5.6-21.2,16.6-24.6,33.6c-4.6,23.5,3.9,64.5,4.8,69c5.4,25.3,15.1,38.4,19,42.9c9.6,11,26.2,18.6,34.9,20.6
			c4.2,0.8,8.5,1.1,12.7,1c7.2-0.1,17.2-1.1,24-3.6c10.7-3.9,19.6-11.7,24.8-21.9c5-9.7,11.6-24.5,13.6-30.5c0.2-0.5,0.4-1.2,0.7-2
			C311.7,291.1,318.8,268.5,317.7,251.3z"/>
		<path class="st12" d="M243.1,173.8c-14.6,0-36.2-6.6-50.8,0c-7.9,3.3-18.6,10.4-23.2,32.3c-4.6,21.9,1.1,61.3,4.5,78.8
			c3.4,17.5,10.2,36.1,19.2,47c9,10.9,26,19.7,34.9,21.9s28.2,1.1,37.3-2.2c10.2-3.6,18.6-11,23.7-20.8
			c5.7-10.9,13.5-28.5,15.7-35.1c2.2-6.6,15.8-41.6,14.6-64.6c-1.2-23-5.1-34.4-21.4-47C278,166,257.7,173.8,243.1,173.8z"/>
		<path class="st13" d="M242.9,172.6c-14.4,0-35.6-6.2-50,0c-7.8,3.1-18.3,9.8-22.8,30.5s1.1,57.9,4.4,74.4s10,34.1,18.9,44.4
			s25.6,18.6,34.4,20.7s27.8,1,36.7-2.1c10-3.4,18.3-10.4,23.3-19.6c5.6-10.3,13.3-26.9,15.5-33.1s15.6-39.3,14.4-61
			s-5-32.5-21.1-44.4C277.3,165.3,257.3,172.6,242.9,172.6z"/>
		<linearGradient id="SVGID_2_" gradientUnits="userSpaceOnUse" x1="290.2569" y1="326.5599" x2="199.0458" y2="168.5779">
			<stop  offset="0" style="stop-color:#EB7285"/>
			<stop  offset="1" style="stop-color:#D7576D"/>
		</linearGradient>
		<path class="st14" d="M242.9,172.6c-14.4,0-35.6-6.2-50,0c-7.8,3.1-18.3,9.8-22.8,30.5s1.1,57.9,4.4,74.4s10,34.1,18.9,44.4
			s25.6,18.6,34.4,20.7s27.8,1,36.7-2.1c10-3.4,18.3-10.4,23.3-19.6c5.6-10.3,13.3-26.9,15.5-33.1s15.6-39.3,14.4-61
			s-5-32.5-21.1-44.4C277.3,165.3,257.3,172.6,242.9,172.6z"/>
		<path class="st15" d="M310,269.3L310,269.3c-14.1,27.1-32.8,45.9-38.7,52.5c-9.1,10.3-28.6,11.4-42.2,11.4s-25.1-9.3-36.5-21.7
			S171,245.4,171,245.4c-0.4-4.4-1.1-8.8-2.2-13.1c0.9,15.2,2.9,30.2,5.8,45.1c3.3,16.5,10,34.1,18.9,44.4s25.6,18.6,34.4,20.7
			c3.8,0.7,7.6,1.1,11.4,1.1c8.7-0.1,18.3-1.2,24-3.1c10.2-3.3,18.8-10.3,24-19.6c5.7-10.3,13.7-26.9,16-33.1
			C304.2,285.2,307,278.2,310,269.3z"/>
		<path class="st16" d="M303.5,188c-2.1-2-4.4-3.9-6.8-5.6c-19.4-17-39.4-9.8-53.9-9.8s-35.6-6.2-50,0c-7.8,3.1-18.3,9.8-22.8,30.5
			c-1.9,8.6-1.2,27.7-0.5,39.4c5.1-14.2,15.6-29.6,21.3-33.7c15.4-11.3,33.3-13.1,38.4-13.1s9,5.6,10.3,11.3s1.3,18.8,2.6,22.5
			s2.6,1.9,2.6,0c0-3.8-1.1-24.1,4.3-29.7s12.2-8.1,26.5-6.1s34.6,28.5,37.6,66.2c2-8.1,5.4-23.1,4.7-32.9s-2.1-20.6-5.9-27.9
			c-2.2-3.1-4.5-6.1-6.9-8.9L303.5,188z"/>
		<path class="st17" d="M296.7,182.4c-19.4-17-39.4-9.8-53.9-9.8s-35.6-6.2-50,0c-7.8,3.1-18.3,9.8-22.8,30.5
			c-0.8,3.9-1.3,7.9-1.4,11.9l7.8-11c3.7-5.2,7.5-9.2,10.9-11.4c9-5.9,19.2-7.1,26.1-7.1c2.6,0,5.3-0.3,7.9-0.5
			c2.5-0.3,5-0.4,7.6-0.4c0.6,0.4,1.3,1,2,1.6c2.9,2.4,7.6,6.4,13.2,3.8c1.2-0.6,2.3-1.2,3.4-1.9c1.1-0.8,2.3-1.4,3.5-1.9
			c2-0.6,11.6-1.5,18-1.6h0.1c3.6,0,18.7,4.3,26.8,10l0,0c4,2.9,7.9,6,11.5,9.5l8.9,8.5C314,199.6,308.8,191.3,296.7,182.4z"/>
		<path class="st18" d="M300.1,188.6c4.4,3.1,8.5,6.5,12.3,10.2c-3.1-6.4-8-11.8-15.6-17.4c-19.4-17-39.4-9.8-53.9-9.8
			s-35.6-6.2-50,0c-7.5,3-17.6,9.3-22.3,28.2c3.5-4.9,7.9-10.1,12.8-13.3c11.1-7.2,23.3-8.3,30-8.3s13.5-0.9,17.2,0.1
			c4.4,1.1,6.1,3,10.2,3c5.1,0,4.8-1,8.1-2.1s14.4-1.8,20-1.9S291.2,182.4,300.1,188.6z"/>
		<path class="st19" d="M99.8,138.6l8.3-3.2c7-2.7,14.8,0.7,17.5,7.7l0,0l6.9,17.9c2.5,6.5-0.7,13.8-7.2,16.3l0,0l-1.2,0.5
			c-8.6,3.3-18.4-0.9-21.7-9.6l-7.3-19C93.5,144.9,95.6,140.2,99.8,138.6L99.8,138.6z"/>
		<path class="st20" d="M350.1,173.8l5.4,2.2c8,3.1,17-0.9,20.1-8.9c0.1-0.1,0.1-0.3,0.2-0.4l9-24.3c1.5-4-0.4-8.6-4.4-10.3
			l-12.1-4.9c-6.4-2.5-13.7,0.7-16.2,7.1c0,0.1-0.1,0.2-0.1,0.4l-8.6,23.2C341.1,164.2,344,171.2,350.1,173.8z"/>
		<path class="st6" d="M132.5,160.7l-6.7-17.4c-1.9-4.9-6.4-8.2-11.6-8.7c2.7,4.6,4.8,9.6,6.4,14.7c3,9.3,3.9,19.1,2.7,28.8
			c0.4-0.1,0.8-0.2,1.2-0.4l0.7-0.2C131.7,174.8,135,167.3,132.5,160.7z"/>
		<path class="st21" d="M380.4,132.1L380.4,132.1c-0.5,2-1,3.9-1.6,5.9c-5.1,17-14.6,30.6-24.9,37.3l1.5,0.6
			c8,3.2,17.1-0.8,20.2-8.8c0.1-0.1,0.1-0.3,0.2-0.4l9-24.3C386.4,138.4,384.4,133.8,380.4,132.1z"/>
	</g>
</g>
</svg>
