<?xml version="1.0" encoding="utf-8"?>
<!-- Generator: Adobe Illustrator 24.0.3, SVG Export Plug-In . SVG Version: 6.00 Build 0)  -->
<svg version="1.1" xmlns="http://www.w3.org/2000/svg" xmlns:xlink="http://www.w3.org/1999/xlink" x="0px" y="0px"
	 viewBox="0 0 512 512" style="enable-background:new 0 0 512 512;" xml:space="preserve">
<style type="text/css">
	.st0{fill:none;}
	.st1{fill:#FFFFFF;}
	.st2{fill:#ED0F49;}
	.st3{fill:#FFEBCA;}
	.st4{fill:#9B4231;}
	.st5{fill:#EAB363;}
	.st6{opacity:0.2;enable-background:new    ;}
	.st7{fill:#F7B5E5;}
	.st8{fill:#F9437C;}
	.st9{fill:#FFD7E5;}
	.st10{fill:#FF76A0;}
	.st11{fill:#BBD5FF;}
	.st12{fill:#85BC00;}
	.st13{fill:#00D871;}
	.st14{fill:#FFA300;}
	.st15{fill:#FF99FF;}
	.st16{fill:#E20569;}
	.st17{fill:#4BE08E;}
	.st18{fill:#06FFEC;}
	.st19{fill:#FFA403;}
	.st20{fill:#76D1FF;}
	.st21{fill:#6F00FF;}
	.st22{fill:#0050C4;}
	.st23{fill:#9772D3;}
	.st24{fill:#FFE564;}
	.st25{clip-path:url(#SVGID_2_);fill:#E5E5E5;}
	.st26{clip-path:url(#SVGID_4_);fill:#008BD8;}
	.st27{clip-path:url(#SVGID_6_);fill:#008BD8;}
	.st28{clip-path:url(#SVGID_8_);fill:#008BD8;}
	.st29{fill:#FFC639;}
	.st30{fill:#FF7900;}
	.st31{clip-path:url(#SVGID_10_);fill:#E5E5E5;}
	.st32{clip-path:url(#SVGID_12_);fill:#008BD8;}
	.st33{clip-path:url(#SVGID_14_);fill:#008BD8;}
	.st34{clip-path:url(#SVGID_16_);fill:#008BD8;}
	.st35{clip-path:url(#SVGID_18_);fill:#E5E5E5;}
	.st36{clip-path:url(#SVGID_20_);fill:#008BD8;}
	.st37{clip-path:url(#SVGID_22_);fill:#008BD8;}
	.st38{clip-path:url(#SVGID_24_);fill:#008BD8;}
	.st39{fill:#CAEFFF;}
	.st40{opacity:0.1;}
	.st41{fill:#3C0000;}
	.st42{fill:#C00000;}
	.st43{fill:#23292D;}
	.st44{fill:#F2F2F2;}
	.st45{opacity:0.6;fill:#3C5366;}
	.st46{fill:#3C5366;}
	.st47{fill:#1B2A35;}
	.st48{fill:#7B0000;}
	.st49{fill:#9EC3F2;}
	.st50{fill:#4D84C1;}
	.st51{opacity:0.74;fill:#7B0000;}
	.st52{opacity:0.74;fill:#C00000;}
	.st53{fill:#CBDCF4;}
	.st54{fill:#500000;}
	.st55{fill:#56AAE8;}
	.st56{fill:#FF9999;}
	.st57{opacity:0.3;fill:#FFFFFF;}
	.st58{opacity:0.3;}
	.st59{fill:#F98706;}
	.st60{fill:#FFCC00;}
	.st61{fill:#0092DB;}
	.st62{fill:#00B7FF;}
	.st63{fill:#50D6FF;}
	.st64{fill:#88E0FF;}
	.st65{fill:#DDA800;}
	.st66{fill:#F4C42A;}
	.st67{fill:#FFDB4D;}
	.st68{opacity:0.4;fill:#441F00;}
	.st69{fill:#CE8032;}
	.st70{fill:#6B8900;}
	.st71{fill:#9AC400;}
	.st72{fill:#C2DD00;}
	.st73{opacity:0.2;}
	.st74{fill:#E6F1FF;}
	.st75{fill:#0B0B0C;}
	.st76{fill:#0080FF;}
	.st77{fill:#FFED83;}
	.st78{fill:#AA6500;}
	.st79{clip-path:url(#SVGID_26_);}
	.st80{opacity:0.2;fill:#48A0FF;}
	.st81{fill:#E27100;}
	.st82{fill:#FFB000;}
	.st83{fill:#FFAA00;}
	.st84{fill:#FFDF7B;}
	.st85{opacity:0.2;fill:#F98706;}
	.st86{fill:#B6E7FF;}
	.st87{fill:#D9F4FF;}
	.st88{fill:#379AF4;}
	.st89{fill:#8FD4FF;}
	.st90{fill:#5FBBFF;}
	.st91{opacity:0.2;fill:#379AF4;}
	.st92{fill:#FFF0C5;}
	.st93{fill:#7599BC;}
	.st94{fill:#1D1D38;}
	.st95{opacity:0.15;fill:#0B0019;}
	.st96{opacity:0.05;fill:#FFFFFF;}
	.st97{fill:#618099;}
	.st98{fill:#494968;}
	.st99{fill:#595972;}
	.st100{fill:#E9BC00;}
	.st101{opacity:0.5;}
	.st102{fill:#DDDFE4;}
	.st103{opacity:0.3;fill:#0B0019;}
	.st104{opacity:0.08;fill:#FFFFFF;}
	.st105{fill:#5A5A84;}
	.st106{fill:#B3B3CE;}
	.st107{fill:#FD1B64;}
	.st108{fill:#D6004D;}
	.st109{fill:#920006;}
	.st110{fill:#8585A8;}
	.st111{fill:#171723;}
	.st112{opacity:0.1;fill:#FFFFFF;}
	.st113{opacity:0.2;fill:#0B0019;}
	.st114{fill:#547D9B;}
	.st115{fill:#A1D5FF;}
	.st116{fill:#00254D;}
	.st117{opacity:0.1;fill:#3E0A75;}
	.st118{opacity:0.4;fill:#FFFFFF;}
	.st119{fill:#2D5171;}
	.st120{fill:#B88352;}
	.st121{fill:#EFC478;}
	.st122{fill:#76838E;}
	.st123{fill:#B7A1E2;}
	.st124{fill:#FF4385;}
	.st125{fill:#D30041;}
	.st126{fill:#ED065F;}
	.st127{opacity:0.8;fill:#FFFFFF;}
	.st128{fill:#5D422A;}
	.st129{opacity:0.3;fill:#3E0A75;}
	.st130{fill:#FF7187;}
	.st131{fill:#CE4A69;}
	.st132{fill:#444468;}
	.st133{fill:#1A1A23;}
	.st134{fill:#1F95DD;}
	.st135{fill:#DA0000;}
	.st136{fill:#2C2C4C;}
	.st137{fill:#BCBCE8;}
	.st138{fill:#222B33;}
	.st139{fill:#394854;}
	.st140{fill:#273544;}
	.st141{fill:#86A9BF;}
	.st142{fill:#F79984;}
	.st143{fill:#0A0F11;}
	.st144{fill:#E07868;}
	.st145{fill:#D35440;}
	.st146{fill:#FFC2B8;}
	.st147{fill:#A53A2F;}
	.st148{fill:#C64E36;}
	.st149{fill:#070000;}
	.st150{fill:#230200;}
	.st151{fill:#540000;}
	.st152{fill:#AF8F08;}
	.st153{fill:#16D8C0;}
	.st154{fill:#75EFDD;}
	.st155{fill:#00AF96;}
	.st156{fill:#00846E;}
	.st157{fill:#FFE161;}
	.st158{fill:#05C4A8;}
	.st159{fill:#F3E9FF;}
	.st160{fill:#FFC5DB;}
	.st161{fill:#E5D2FF;}
	.st162{fill:#CDB3FF;}
	.st163{opacity:0.2;fill:#3E0A75;}
	.st164{fill:#A8003D;}
	.st165{fill:#AA6D35;}
	.st166{fill:#FFD6B8;}
	.st167{fill:#FFE697;}
	.st168{fill:#FFDD88;}
	.st169{fill:#FF5986;}
	.st170{opacity:0.4;fill:#C40059;}
	.st171{fill:#CC004E;}
	.st172{fill:#2D2D2D;}
	.st173{opacity:0.6;}
	.st174{fill:#3D3D3D;}
	.st175{fill:#4F4F4F;}
	.st176{fill:#636363;}
	.st177{fill:#E9F5FF;}
	.st178{fill:#C1E0F4;}
	.st179{fill:#E50000;}
	.st180{fill:#FF7373;}
	.st181{fill:#F25F5F;}
	.st182{fill:#FFB200;}
	.st183{opacity:0.5;fill:#FF7373;}
	.st184{fill:#FFCF7B;}
	.st185{fill:#00CEC3;}
	.st186{fill:#00EAD9;}
	.st187{fill:#00A599;}
	.st188{fill:#007F73;}
	.st189{fill:#DD5050;}
	.st190{fill:#FFA6A6;}
	.st191{fill:#45793B;}
	.st192{fill:#35612A;}
	.st193{fill:#235317;}
	.st194{fill:#5E8F44;}
	.st195{fill:#65954D;}
	.st196{fill:#930000;}
	.st197{fill:#F00000;}
	.st198{fill:#EAB80D;}
	.st199{fill:#FFD226;}
</style>
<g id="Credits_10_Birthday">
</g>
<g id="Credits_5000">
</g>
<g id="Credits_3000">
	<rect class="st0" width="512" height="512"/>
	<g>
		<g>
			<ellipse class="st61" cx="244.444" cy="285.57" rx="195.511" ry="80.439"/>
			<ellipse class="st62" cx="244.444" cy="268.993" rx="177.636" ry="78.141"/>
			<ellipse class="st63" cx="244.444" cy="263.427" rx="155.292" ry="60.94"/>
			<path class="st64" d="M397.27,242.064c0,0-48.928-60.048-213.504-41.144c0,0-116.76,20.016-116.76,64.496
				c0,0,1.112,13.344,27.8,11.12s37.808,0,55.6,8.896s45.592,16.68,85.624,0s107.864,0,107.864,0S446.198,293.216,397.27,242.064z"
				/>
			<path class="st65" d="M404.205,234.178c0,0-49.157-60.329-214.504-41.337c0,0-117.307,20.11-117.307,64.798
				c0,0,1.117,13.406,27.93,11.172s37.985,0,55.86,8.938c17.875,8.938,45.806,16.758,86.025,0c40.219-16.758,108.369,0,108.369,0
				S453.362,285.57,404.205,234.178z"/>
			<path class="st66" d="M381.695,223.959c0,0-41.519-46.869-181.174-32.114c0,0-99.08,15.623-99.08,50.34
				c0,0,0.944,10.415,23.59,8.679s32.083,0,47.181,6.943c15.098,6.943,38.688,13.019,72.658,0c33.97-13.019,91.531,0,91.531,0
				S423.214,263.884,381.695,223.959z"/>
			<path class="st67" d="M350.85,215.768c0,0-31.998-36.12-139.626-24.749c0,0-76.358,12.04-76.358,38.796
				c0,0,0.727,8.027,18.18,6.689c17.453-1.338,24.725,0,36.361,5.351s29.816,10.033,55.996,0s70.54,0,70.54,0
				S382.848,246.537,350.85,215.768z"/>
		</g>
		<ellipse class="st68" cx="308.583" cy="229.328" rx="57.946" ry="11.943"/>
		<path class="st69" d="M312.564,230.74c0,0,55.609-48.879,39.389-130.131h11.585c0,0,21.984,64.193-5.613,133.98
			C357.925,234.589,330.328,247.879,312.564,230.74z"/>
		<path class="st68" d="M363.199,100.609h-11.246c16.219,81.253-39.389,130.131-39.389,130.131
			c3.124,3.014,6.555,5.072,10.083,6.441C330.603,229.577,378.955,179.545,363.199,100.609z"/>
		<g>
			<path class="st70" d="M444.215,57.99l-26.781,9.182l-17.599-6.887l3.826,12.243l-14.539,8.417l-11.478-6.121l2.296,12.243
				l-22.19,22.19c0,0-6.887-26.782,16.069-48.207C396.774,39.625,433.503,43.451,444.215,57.99z"/>
			<path class="st70" d="M266.692,45.747l14.539,7.652l13.773-3.826l-6.121,7.652l13.008,5.356l16.834-4.591l-6.121,10.713
				l13.008,10.713l16.069-1.53l-7.652,7.652l23.721,23.721c0,0,4.591-32.138-19.895-54.328S279.7,40.391,266.692,45.747z"/>
			<path class="st71" d="M358.001,108.887l29.94,4.02l0.321-7.339l8.62,10.085l15.791,4.559l6.446-13.332l7.958,19.142l10.222,3.942
				l4.034-6.927l3.989,12.381l15.919,7.733c0,0-7.337-39.44-51.34-50.987S358.001,108.887,358.001,108.887z"/>
			<path class="st72" d="M357.749,109.257c0,0,16.834,9.182,20.66,16.834l6.121-3.826l-2.296,13.008l8.417,16.069l9.947-5.356
				l-6.887,15.304l2.296,8.417h4.591l-3.061,7.652l3.061,9.947c0,0,31.373-26.782,3.061-63.51
				C403.661,123.796,386.826,98.545,357.749,109.257z"/>
			<path class="st71" d="M357.749,103.901c0,0-46.676-37.494-85.701-16.834c0,0-18.364,11.478-16.834,30.607l26.016-4.591
				l10.713-17.599l2.296,11.478h12.243l12.243-11.478l-1.223,11.125L357.749,103.901z"/>
			<path class="st72" d="M358.411,109.869l-24.435,13.103l-2.322-6.878l-4.544,12.261l-12.207,9.23l-9.224-10.677l-1.45,20.666
				l-7.625,6.916l-5.377-5.335l0.05,13.008l-11.43,12.287c0,0-4.745-39.772,29.593-64.391S358.411,109.869,358.411,109.869z"/>
		</g>
		<g>
			<path class="st73" d="M453.796,411.56l-24.003-127.544c-0.531-2.817-1.536-5.453-2.9-7.808c-1.364-2.356-3.087-4.431-5.054-6.127
				c-1.968-1.697-4.179-3.013-6.52-3.85c-2.342-0.837-4.813-1.194-7.297-0.968l-59.856,5.427
				c-12.609,1.552-10.921,15.098-10.921,15.098c-2.299-13.429-16.149-12.644-16.149-12.644l0,0L128.89,290.57
				c-2.756,0.25-5.279,1.091-7.481,2.4c-2.204,1.31-4.088,3.087-5.561,5.208c-1.475,2.122-2.539,4.588-3.105,7.271
				c-0.566,2.685-0.632,5.586-0.111,8.578l23.426,138.441c0.529,3.039,1.598,5.863,3.076,8.365c1.479,2.502,3.366,4.682,5.534,6.435
				c2.167,1.753,4.613,3.079,7.209,3.875c2.594,0.795,5.337,1.061,8.101,0.694l193.939-25.761c9.584-3.046,8.165-14.5,8.165-14.5
				c1.346,7.864,6.652,10.851,10.819,11.978l66.836-8.878c2.489-0.331,4.747-1.228,6.702-2.565c1.952-1.337,3.6-3.114,4.87-5.207
				c1.269-2.091,2.16-4.499,2.599-7.097C454.347,417.21,454.335,414.42,453.796,411.56z"/>
			<path class="st74" d="M462.643,402.714L438.64,275.17c-0.531-2.817-1.536-5.453-2.9-7.808c-1.364-2.356-3.087-4.431-5.054-6.127
				c-1.968-1.697-4.179-3.013-6.52-3.85c-2.342-0.837-4.813-1.194-7.297-0.968l-59.856,5.427
				c-12.609,1.552-10.921,15.098-10.921,15.098c-2.299-13.429-16.149-12.644-16.149-12.644l0,0l-192.209,17.426
				c-2.756,0.25-5.279,1.091-7.481,2.4c-2.204,1.31-4.088,3.087-5.561,5.208c-1.475,2.122-2.539,4.588-3.105,7.271
				c-0.566,2.685-0.632,5.586-0.111,8.578l23.426,138.441c0.529,3.039,1.598,5.863,3.076,8.365c1.479,2.502,3.366,4.682,5.534,6.435
				c2.167,1.753,4.613,3.079,7.209,3.875c2.594,0.795,5.337,1.061,8.101,0.694l193.939-25.761c9.584-3.046,8.165-14.5,8.165-14.5
				c1.346,7.864,6.652,10.851,10.819,11.978l66.836-8.878c2.489-0.331,4.747-1.228,6.702-2.565c1.952-1.337,3.6-3.114,4.87-5.207
				c1.269-2.091,2.16-4.498,2.599-7.097C463.194,408.363,463.181,405.573,462.643,402.714z"/>
			<g>
				<path class="st75" d="M369.17,417.26c-0.85,0-1.599-0.613-1.743-1.479l-1.745-10.471c-0.161-0.964,0.491-1.876,1.454-2.036
					c0.974-0.162,1.876,0.491,2.036,1.454l1.745,10.472c0.161,0.964-0.491,1.875-1.454,2.036
					C369.365,417.252,369.266,417.26,369.17,417.26z M365.099,392.826c-0.85,0-1.599-0.613-1.743-1.479l-1.745-10.472
					c-0.161-0.964,0.491-1.876,1.454-2.036c0.972-0.163,1.876,0.491,2.036,1.454l1.745,10.472c0.161,0.964-0.491,1.876-1.454,2.036
					C365.293,392.818,365.195,392.826,365.099,392.826z M361.026,368.392c-0.85,0-1.599-0.613-1.743-1.479l-1.745-10.471
					c-0.161-0.964,0.491-1.876,1.454-2.036c0.97-0.159,1.876,0.491,2.036,1.454l1.745,10.472c0.161,0.964-0.491,1.876-1.454,2.036
					C361.22,368.384,361.122,368.392,361.026,368.392z M356.953,343.959c-0.85,0-1.599-0.613-1.743-1.479l-1.745-10.472
					c-0.161-0.964,0.491-1.876,1.454-2.036c0.969-0.159,1.876,0.491,2.036,1.454l1.745,10.471c0.161,0.964-0.491,1.876-1.454,2.036
					C357.148,343.951,357.049,343.959,356.953,343.959z M352.882,319.525c-0.85,0-1.599-0.613-1.743-1.479l-1.745-10.471
					c-0.161-0.964,0.491-1.876,1.454-2.036c0.968-0.16,1.876,0.491,2.036,1.454l1.745,10.471c0.161,0.964-0.491,1.876-1.454,2.036
					C353.076,319.517,352.978,319.525,352.882,319.525z M348.809,295.091c-0.85,0-1.599-0.613-1.743-1.479l-1.745-10.472
					c-0.161-0.964,0.491-1.876,1.454-2.036c0.975-0.163,1.876,0.491,2.036,1.454l1.745,10.471c0.161,0.964-0.491,1.876-1.454,2.036
					C349.004,295.084,348.905,295.091,348.809,295.091z"/>
			</g>
			<g>
				<g>
					<path class="st76" d="M188.444,312.946c0.339-0.033,0.685-0.018,1.04,0.043c0.355,0.061,0.717,0.169,1.087,0.324
						c0.37,0.155,0.748,0.357,1.134,0.607c0.385,0.249,0.778,0.546,1.179,0.89c0.881,0.757,1.685,1.566,2.41,2.425
						c0.725,0.859,1.371,1.769,1.937,2.731c0.566,0.961,1.051,1.974,1.454,3.038c0.403,1.064,0.723,2.18,0.96,3.347
						c0.433,2.136,0.869,4.272,1.305,6.408c0.436,2.137,0.873,4.274,1.309,6.411c0.436,2.138,0.872,4.277,1.305,6.416
						c0.434,2.14,0.866,4.281,1.294,6.423c0.04,0.205,0.092,0.38,0.157,0.534s0.144,0.286,0.239,0.403s0.206,0.219,0.336,0.312
						c0.13,0.093,0.278,0.179,0.447,0.262c3.079,1.514,6.154,3.027,9.225,4.54c3.067,1.511,6.131,3.021,9.19,4.532
						c3.056,1.509,6.107,3.019,9.154,4.529c3.044,1.509,6.083,3.018,9.118,4.53c0.591,0.296,1.177,0.607,1.76,0.929
						c0.582,0.321,1.161,0.652,1.74,0.985c0.578,0.333,1.155,0.67,1.733,1.002c0.578,0.333,1.157,0.662,1.74,0.981
						c0.377,0.206,0.718,0.444,1.027,0.71c0.309,0.266,0.586,0.561,0.834,0.882c0.249,0.321,0.47,0.669,0.667,1.04
						c0.197,0.372,0.37,0.768,0.523,1.185c0.27,0.733,0.505,1.472,0.711,2.216c0.206,0.744,0.382,1.492,0.535,2.244
						c0.153,0.752,0.282,1.509,0.394,2.268c0.112,0.759,0.206,1.521,0.288,2.285c0.022,0.2,0.011,0.384-0.027,0.549
						c-0.038,0.165-0.105,0.31-0.194,0.434c-0.09,0.123-0.203,0.224-0.336,0.298c-0.133,0.075-0.285,0.123-0.451,0.143
						c-0.041,0.005-0.084,0.008-0.127,0.009c-0.043,0.001-0.087,0.001-0.132-0.002s-0.09-0.007-0.137-0.013
						c-0.046-0.006-0.093-0.015-0.141-0.025c-0.67-0.144-1.34-0.289-2.009-0.435c-0.67-0.146-1.34-0.292-2.009-0.438
						c-0.67-0.146-1.34-0.293-2.009-0.439c-0.67-0.146-1.339-0.292-2.008-0.437c-2.842-0.62-5.688-1.241-8.537-1.862
						c-2.853-0.622-5.709-1.244-8.569-1.867c-2.864-0.624-5.731-1.248-8.602-1.873c-2.875-0.626-5.753-1.253-8.635-1.88
						c-0.051-0.011-0.103-0.021-0.157-0.031s-0.11-0.019-0.169-0.029c-0.059-0.01-0.121-0.02-0.188-0.03
						c-0.067-0.011-0.138-0.022-0.215-0.035c0.059,0.44,0.117,0.875,0.174,1.307c0.057,0.432,0.114,0.861,0.17,1.287
						c0.057,0.426,0.113,0.85,0.17,1.273c0.057,0.423,0.115,0.845,0.174,1.266c0.264,1.918,0.528,3.837,0.793,5.756
						c0.265,1.919,0.529,3.839,0.794,5.759c0.264,1.921,0.528,3.842,0.791,5.764c0.263,1.923,0.525,3.846,0.785,5.771
						c0.021,0.168,0.053,0.321,0.097,0.462c0.044,0.142,0.099,0.272,0.168,0.394c0.068,0.122,0.15,0.237,0.246,0.347
						c0.096,0.11,0.206,0.216,0.331,0.32c1.193,0.983,2.385,1.969,3.576,2.955c1.19,0.986,2.38,1.973,3.569,2.96
						c1.188,0.986,2.377,1.972,3.565,2.956c1.188,0.984,2.375,1.966,3.564,2.945c0.148,0.121,0.28,0.248,0.399,0.381
						c0.119,0.133,0.224,0.273,0.316,0.421c0.092,0.149,0.171,0.306,0.238,0.474s0.122,0.347,0.166,0.539
						c0.084,0.37,0.172,0.741,0.261,1.111c0.089,0.37,0.181,0.741,0.273,1.111c0.092,0.37,0.184,0.741,0.276,1.111
						c0.092,0.37,0.182,0.74,0.271,1.11c0.056,0.229,0.068,0.446,0.043,0.645c-0.025,0.199-0.088,0.378-0.181,0.533
						s-0.217,0.283-0.364,0.379c-0.148,0.096-0.319,0.16-0.508,0.184c-0.05,0.006-0.101,0.01-0.153,0.011
						c-0.052,0.001-0.105-0.001-0.16-0.007c-0.054-0.005-0.109-0.013-0.165-0.025c-0.056-0.011-0.113-0.026-0.17-0.043
						c-0.53-0.162-1.061-0.326-1.591-0.491c-0.53-0.165-1.061-0.331-1.592-0.498c-0.531-0.167-1.061-0.334-1.592-0.501
						c-0.531-0.167-1.061-0.334-1.592-0.5c-1.167-0.365-2.334-0.729-3.502-1.093c-1.168-0.365-2.337-0.729-3.507-1.095
						c-1.17-0.366-2.341-0.732-3.512-1.099c-1.172-0.367-2.345-0.736-3.519-1.106c-0.06-0.019-0.119-0.035-0.175-0.048
						c-0.057-0.013-0.112-0.023-0.166-0.03c-0.054-0.007-0.107-0.01-0.16-0.01s-0.104,0.003-0.155,0.009
						c-0.049,0.006-0.098,0.015-0.147,0.028c-0.049,0.012-0.097,0.028-0.146,0.047c-0.049,0.019-0.098,0.041-0.147,0.067
						s-0.099,0.054-0.15,0.086c-1.42,0.918-2.842,1.836-4.265,2.753c-1.425,0.918-2.851,1.836-4.28,2.754
						c-1.429,0.919-2.86,1.838-4.293,2.757c-1.434,0.92-2.869,1.842-4.305,2.764c-0.088,0.056-0.174,0.107-0.258,0.151
						c-0.084,0.044-0.167,0.083-0.247,0.115c-0.081,0.033-0.159,0.059-0.236,0.08c-0.077,0.021-0.152,0.036-0.225,0.045
						c-0.214,0.027-0.41,0.005-0.586-0.065c-0.176-0.07-0.333-0.187-0.467-0.35c-0.134-0.163-0.246-0.372-0.334-0.626
						s-0.151-0.551-0.187-0.891c-0.039-0.352-0.079-0.703-0.121-1.054c-0.042-0.351-0.085-0.702-0.129-1.054
						c-0.044-0.351-0.09-0.702-0.136-1.054s-0.094-0.703-0.142-1.055c-0.023-0.171-0.031-0.333-0.025-0.488
						c0.006-0.155,0.027-0.304,0.061-0.448c0.034-0.144,0.082-0.283,0.144-0.42s0.136-0.271,0.223-0.404
						c0.822-1.271,1.643-2.542,2.463-3.812c0.819-1.269,1.637-2.539,2.453-3.808c0.816-1.268,1.63-2.536,2.443-3.805
						c0.812-1.267,1.623-2.535,2.432-3.803c0.044-0.068,0.082-0.148,0.113-0.235c0.031-0.087,0.056-0.181,0.073-0.277
						c0.017-0.096,0.026-0.194,0.027-0.289c0.001-0.095-0.008-0.187-0.026-0.271c-0.522-2.333-1.046-4.665-1.571-6.997
						c-0.525-2.331-1.051-4.661-1.577-6.991c-0.526-2.329-1.054-4.658-1.581-6.986c-0.527-2.327-1.054-4.654-1.581-6.981
						c-0.006-0.026-0.014-0.053-0.022-0.081c-0.009-0.028-0.018-0.057-0.029-0.089c-0.011-0.032-0.023-0.066-0.037-0.103
						c-0.013-0.037-0.028-0.078-0.044-0.124c-0.36,0.174-0.718,0.348-1.075,0.521c-0.357,0.173-0.712,0.346-1.066,0.519
						c-0.354,0.173-0.708,0.346-1.061,0.519c-0.353,0.173-0.706,0.346-1.06,0.52c-2.855,1.395-5.716,2.792-8.582,4.191
						c-2.871,1.402-5.746,2.806-8.627,4.212c-2.885,1.409-5.776,2.82-8.671,4.234c-2.9,1.416-5.804,2.834-8.714,4.255
						c-0.048,0.023-0.097,0.046-0.145,0.07c-0.048,0.024-0.097,0.047-0.146,0.07s-0.098,0.045-0.148,0.065s-0.1,0.039-0.151,0.055
						c-0.234,0.034-0.452,0.032-0.65-0.002s-0.376-0.099-0.531-0.193s-0.287-0.216-0.393-0.362
						c-0.106-0.146-0.186-0.317-0.236-0.508c-0.205-0.794-0.397-1.59-0.57-2.387c-0.173-0.797-0.325-1.595-0.451-2.396
						c-0.126-0.8-0.224-1.603-0.288-2.407c-0.064-0.805-0.094-1.612-0.082-2.422c0.004-0.429,0.038-0.839,0.106-1.232
						c0.068-0.392,0.169-0.766,0.306-1.12c0.137-0.354,0.31-0.689,0.521-1.003c0.211-0.314,0.461-0.609,0.752-0.882
						c0.776-0.732,1.546-1.473,2.312-2.216c0.766-0.743,1.53-1.487,2.297-2.227c0.766-0.74,1.535-1.475,2.311-2.199
						c0.776-0.724,1.56-1.436,2.356-2.132c2.165-1.892,4.331-3.776,6.499-5.652c2.164-1.873,4.329-3.74,6.493-5.601
						c2.161-1.858,4.321-3.711,6.479-5.56c2.155-1.847,4.307-3.689,6.455-5.53c0.144-0.123,0.263-0.244,0.36-0.37
						c0.096-0.126,0.169-0.257,0.219-0.4c0.05-0.143,0.078-0.298,0.084-0.471c0.006-0.174-0.009-0.366-0.046-0.583
						c-0.317-1.903-0.633-3.805-0.946-5.706c-0.313-1.901-0.625-3.802-0.932-5.702c-0.308-1.9-0.612-3.8-0.913-5.7
						c-0.3-1.9-0.597-3.799-0.888-5.699c-0.092-0.599-0.18-1.201-0.261-1.804c-0.081-0.603-0.153-1.206-0.213-1.809
						c-0.06-0.603-0.107-1.204-0.136-1.802c-0.029-0.598-0.041-1.194-0.03-1.784c0.011-0.777,0.081-1.534,0.204-2.27
						c0.123-0.736,0.3-1.45,0.526-2.143c0.226-0.692,0.501-1.362,0.82-2.01c0.319-0.647,0.683-1.271,1.086-1.871
						c0.271-0.404,0.55-0.763,0.839-1.075c0.288-0.312,0.585-0.578,0.891-0.797c0.306-0.219,0.62-0.392,0.942-0.518
						C187.775,313.058,188.105,312.978,188.444,312.946z"/>
				</g>
			</g>
			<g>
				<g>
					<path class="st76" d="M246.209,321.334c-1.997,0-3.719-1.5-3.951-3.532c-0.248-2.185,1.322-4.157,3.507-4.405l77.851-8.847
						c2.171-0.247,4.156,1.321,4.405,3.506c0.248,2.185-1.322,4.157-3.507,4.405l-77.851,8.847
						C246.511,321.325,246.359,321.334,246.209,321.334z"/>
				</g>
				<g>
					<path class="st76" d="M251.517,340.796c-1.967,0-3.678-1.458-3.941-3.461c-0.288-2.18,1.247-4.18,3.426-4.467l57.061-7.52
						c2.179-0.286,4.18,1.247,4.467,3.427c0.288,2.18-1.247,4.18-3.426,4.467l-57.061,7.52
						C251.866,340.785,251.69,340.796,251.517,340.796z"/>
				</g>
				<g>
					<path class="st76" d="M367.167,307.005c-1.997,0-3.719-1.5-3.951-3.532c-0.248-2.185,1.322-4.157,3.507-4.405l58.339-6.629
						c2.175-0.248,4.156,1.321,4.405,3.506c0.248,2.185-1.322,4.157-3.507,4.405l-58.339,6.629
						C367.469,306.997,367.317,307.005,367.167,307.005z"/>
				</g>
				<g>
					<path class="st76" d="M371.709,326.555c-1.957,0-3.664-1.444-3.939-3.438c-0.3-2.178,1.222-4.187,3.4-4.487l42.731-5.891
						c2.17-0.302,4.187,1.221,4.487,3.4c0.3,2.178-1.222,4.187-3.4,4.487l-42.731,5.891
						C372.073,326.543,371.89,326.555,371.709,326.555z"/>
				</g>
				<g>
					<path class="st76" d="M268.325,421.301c-1.975,0-3.688-1.468-3.944-3.479c-0.277-2.181,1.266-4.175,3.446-4.452l24.328-3.096
						c2.181-0.277,4.174,1.265,4.452,3.446c0.277,2.181-1.266,4.175-3.446,4.452l-24.328,3.096
						C268.662,421.29,268.493,421.301,268.325,421.301z"/>
				</g>
				<g>
					<path class="st76" d="M305.26,416.777c-1.975,0-3.688-1.468-3.944-3.479c-0.277-2.181,1.266-4.174,3.446-4.451l8.847-1.126
						c2.187-0.283,4.174,1.265,4.452,3.447c0.277,2.181-1.266,4.174-3.446,4.451l-8.847,1.126
						C305.597,416.767,305.428,416.777,305.26,416.777z"/>
				</g>
				<g>
					<path class="st76" d="M386.871,404.492c-1.975,0-3.688-1.468-3.944-3.479c-0.277-2.181,1.266-4.174,3.446-4.452l24.328-3.096
						c2.183-0.281,4.175,1.265,4.452,3.446c0.277,2.181-1.266,4.174-3.446,4.452l-24.328,3.096
						C387.207,404.482,387.038,404.492,386.871,404.492z"/>
				</g>
				<g>
					<path class="st76" d="M423.805,399.969c-1.975,0-3.688-1.468-3.944-3.479c-0.277-2.181,1.266-4.174,3.446-4.452l8.847-1.126
						c2.188-0.278,4.174,1.265,4.452,3.446c0.277,2.181-1.266,4.174-3.446,4.452l-8.847,1.126
						C424.142,399.958,423.973,399.969,423.805,399.969z"/>
				</g>
				<g>
					<path class="st76" d="M342.416,412.354c-1.975,0-3.688-1.468-3.944-3.479c-0.277-2.181,1.266-4.174,3.446-4.452l8.847-1.126
						c2.183-0.278,4.175,1.266,4.452,3.447c0.277,2.181-1.266,4.174-3.446,4.451l-8.847,1.126
						C342.753,412.343,342.584,412.354,342.416,412.354z"/>
				</g>
			</g>
		</g>
		<ellipse class="st77" cx="263.907" cy="205.442" rx="51.311" ry="11.943"/>
		<ellipse class="st68" cx="171.017" cy="229.328" rx="69.889" ry="11.943"/>
		<g>
			
				<rect x="126.22" y="185.123" transform="matrix(-0.72 -0.694 0.694 -0.72 196.4371 454.1977)" class="st78" width="127.27" height="4.687"/>
			<g>
				<g>
					
						<ellipse transform="matrix(0.7408 -0.6717 0.6717 0.7408 -65.8501 149.2296)" class="st1" cx="160.437" cy="159.939" rx="90.157" ry="56.169"/>
					<g>
						<defs>
							
								<ellipse id="SVGID_25_" transform="matrix(0.7408 -0.6717 0.6717 0.7408 -65.8501 149.2296)" cx="160.437" cy="159.939" rx="90.157" ry="56.169"/>
						</defs>
						<clipPath id="SVGID_2_">
							<use xlink:href="#SVGID_25_"  style="overflow:visible;"/>
						</clipPath>
						<g style="clip-path:url(#SVGID_2_);">
							<polygon class="st42" points="144.257,139.433 203.75,212.962 240.021,159.882 							"/>
							<polygon class="st42" points="240.021,106.802 144.477,139.534 210.827,77.608 							"/>
							<polygon class="st42" points="159.516,86.454 144.477,139.534 112.629,113.879 							"/>
							<path class="st42" d="M141.531,141.751c0.292,0.437-58.98,20.785-58.98,20.785l-3.539,46.887L141.531,141.751z"/>
							<polygon class="st42" points="106.436,234.194 141.823,142.188 150.67,234.194 							"/>
						</g>
					</g>
				</g>
				<g>
					
						<ellipse transform="matrix(0.7408 -0.6717 0.6717 0.7408 -57.5432 132.4704)" class="st54" cx="142.875" cy="140.796" rx="8.667" ry="5.4"/>
				</g>
				<g>
					
						<ellipse transform="matrix(0.7408 -0.6717 0.6717 0.7408 -57.0228 131.2959)" class="st1" cx="141.614" cy="139.534" rx="8.667" ry="5.4"/>
				</g>
			</g>
		</g>
		<path class="st73" d="M131.819,110.74c-3.088,2.371-6.135,4.89-9.112,7.59c-36.886,33.447-49.895,79.191-29.057,102.171
			c20.838,22.98,67.632,14.495,104.518-18.952c0.825-0.748,1.624-1.509,2.425-2.269C112.263,191.568,121.368,137.776,131.819,110.74
			z"/>
		<path class="st80" d="M150.065,280.606l-12.329,1.118c-2.756,0.25-5.279,1.091-7.481,2.4c-2.204,1.31-4.088,3.087-5.561,5.208
			c-1.475,2.122-2.539,4.588-3.105,7.271c-0.566,2.685-0.632,5.586-0.111,8.578l23.426,138.441c0.529,3.039,1.598,5.863,3.076,8.365
			c1.479,2.502,3.366,4.682,5.534,6.435c2.167,1.753,4.613,3.079,7.209,3.875c2.594,0.795,5.337,1.061,8.101,0.694l181.83-24.152
			C185.304,396.516,155.432,311.823,150.065,280.606z"/>
	</g>
</g>
<g id="Credits_2000">
</g>
<g id="Credits_1000">
</g>
<g id="Credits_750">
</g>
<g id="Credits_500">
</g>
<g id="Credits_300">
</g>
<g id="Credits_200">
</g>
<g id="Credits_100">
</g>
<g id="Credits_75">
</g>
<g id="Credits_50">
</g>
<g id="Credits_25">
</g>
<g id="Credits_10">
</g>
<g id="Credits_5">
</g>
<g id="Credits_1">
</g>
</svg>
