<?xml version="1.0" encoding="utf-8"?>
<!-- Generator: Adobe Illustrator 24.0.3, SVG Export Plug-In . SVG Version: 6.00 Build 0)  -->
<svg version="1.1" xmlns="http://www.w3.org/2000/svg" xmlns:xlink="http://www.w3.org/1999/xlink" x="0px" y="0px"
	 viewBox="0 0 512 512" style="enable-background:new 0 0 512 512;" xml:space="preserve">
<style type="text/css">
	.st0{fill:none;}
	.st1{fill:#FFFFFF;}
	.st2{fill:#ED0F49;}
	.st3{fill:#FFEBCA;}
	.st4{fill:#9B4231;}
	.st5{fill:#EAB363;}
	.st6{opacity:0.2;enable-background:new    ;}
	.st7{fill:#F7B5E5;}
	.st8{fill:#F9437C;}
	.st9{fill:#FFD7E5;}
	.st10{fill:#FF76A0;}
	.st11{fill:#BBD5FF;}
	.st12{fill:#85BC00;}
	.st13{fill:#00D871;}
	.st14{fill:#FFA300;}
	.st15{fill:#FF99FF;}
	.st16{fill:#E20569;}
	.st17{fill:#4BE08E;}
	.st18{fill:#06FFEC;}
	.st19{fill:#FFA403;}
	.st20{fill:#76D1FF;}
	.st21{fill:#6F00FF;}
	.st22{fill:#0050C4;}
	.st23{fill:#9772D3;}
	.st24{fill:#FFE564;}
	.st25{clip-path:url(#SVGID_2_);fill:#E5E5E5;}
	.st26{clip-path:url(#SVGID_4_);fill:#008BD8;}
	.st27{clip-path:url(#SVGID_6_);fill:#008BD8;}
	.st28{clip-path:url(#SVGID_8_);fill:#008BD8;}
	.st29{fill:#FFC639;}
	.st30{fill:#FF7900;}
	.st31{clip-path:url(#SVGID_10_);fill:#E5E5E5;}
	.st32{clip-path:url(#SVGID_12_);fill:#008BD8;}
	.st33{clip-path:url(#SVGID_14_);fill:#008BD8;}
	.st34{clip-path:url(#SVGID_16_);fill:#008BD8;}
	.st35{clip-path:url(#SVGID_18_);fill:#E5E5E5;}
	.st36{clip-path:url(#SVGID_20_);fill:#008BD8;}
	.st37{clip-path:url(#SVGID_22_);fill:#008BD8;}
	.st38{clip-path:url(#SVGID_24_);fill:#008BD8;}
	.st39{fill:#CAEFFF;}
	.st40{opacity:0.1;}
	.st41{fill:#3C0000;}
	.st42{fill:#C00000;}
	.st43{fill:#23292D;}
	.st44{fill:#F2F2F2;}
	.st45{opacity:0.6;fill:#3C5366;}
	.st46{fill:#3C5366;}
	.st47{fill:#1B2A35;}
	.st48{fill:#7B0000;}
	.st49{fill:#9EC3F2;}
	.st50{fill:#4D84C1;}
	.st51{opacity:0.74;fill:#7B0000;}
	.st52{opacity:0.74;fill:#C00000;}
	.st53{fill:#CBDCF4;}
	.st54{fill:#500000;}
	.st55{fill:#56AAE8;}
	.st56{fill:#FF9999;}
	.st57{opacity:0.3;fill:#FFFFFF;}
	.st58{opacity:0.3;}
	.st59{fill:#F98706;}
	.st60{fill:#FFCC00;}
	.st61{fill:#0092DB;}
	.st62{fill:#00B7FF;}
	.st63{fill:#50D6FF;}
	.st64{fill:#88E0FF;}
	.st65{fill:#DDA800;}
	.st66{fill:#F4C42A;}
	.st67{fill:#FFDB4D;}
	.st68{opacity:0.4;fill:#441F00;}
	.st69{fill:#CE8032;}
	.st70{fill:#6B8900;}
	.st71{fill:#9AC400;}
	.st72{fill:#C2DD00;}
	.st73{opacity:0.2;}
	.st74{fill:#E6F1FF;}
	.st75{fill:#0B0B0C;}
	.st76{fill:#0080FF;}
	.st77{fill:#FFED83;}
	.st78{fill:#AA6500;}
	.st79{clip-path:url(#SVGID_26_);}
	.st80{opacity:0.2;fill:#48A0FF;}
	.st81{fill:#E27100;}
	.st82{fill:#FFB000;}
	.st83{fill:#FFAA00;}
	.st84{fill:#FFDF7B;}
	.st85{opacity:0.2;fill:#F98706;}
	.st86{fill:#B6E7FF;}
	.st87{fill:#D9F4FF;}
	.st88{fill:#379AF4;}
	.st89{fill:#8FD4FF;}
	.st90{fill:#5FBBFF;}
	.st91{opacity:0.2;fill:#379AF4;}
	.st92{fill:#FFF0C5;}
	.st93{fill:#7599BC;}
	.st94{fill:#1D1D38;}
	.st95{opacity:0.15;fill:#0B0019;}
	.st96{opacity:0.05;fill:#FFFFFF;}
	.st97{fill:#618099;}
	.st98{fill:#494968;}
	.st99{fill:#595972;}
	.st100{fill:#E9BC00;}
	.st101{opacity:0.5;}
	.st102{fill:#DDDFE4;}
	.st103{opacity:0.3;fill:#0B0019;}
	.st104{opacity:0.08;fill:#FFFFFF;}
	.st105{fill:#5A5A84;}
	.st106{fill:#B3B3CE;}
	.st107{fill:#FD1B64;}
	.st108{fill:#D6004D;}
	.st109{fill:#920006;}
	.st110{fill:#8585A8;}
	.st111{fill:#171723;}
	.st112{opacity:0.1;fill:#FFFFFF;}
	.st113{opacity:0.2;fill:#0B0019;}
	.st114{fill:#547D9B;}
	.st115{fill:#A1D5FF;}
	.st116{fill:#00254D;}
	.st117{opacity:0.1;fill:#3E0A75;}
	.st118{opacity:0.4;fill:#FFFFFF;}
	.st119{fill:#2D5171;}
	.st120{fill:#B88352;}
	.st121{fill:#EFC478;}
	.st122{fill:#76838E;}
	.st123{fill:#B7A1E2;}
	.st124{fill:#FF4385;}
	.st125{fill:#D30041;}
	.st126{fill:#ED065F;}
	.st127{opacity:0.8;fill:#FFFFFF;}
	.st128{fill:#5D422A;}
	.st129{opacity:0.3;fill:#3E0A75;}
	.st130{fill:#FF7187;}
	.st131{fill:#CE4A69;}
	.st132{fill:#444468;}
	.st133{fill:#1A1A23;}
	.st134{fill:#1F95DD;}
	.st135{fill:#DA0000;}
	.st136{fill:#2C2C4C;}
	.st137{fill:#BCBCE8;}
	.st138{fill:#222B33;}
	.st139{fill:#394854;}
	.st140{fill:#273544;}
	.st141{fill:#86A9BF;}
	.st142{fill:#F79984;}
	.st143{fill:#0A0F11;}
	.st144{fill:#E07868;}
	.st145{fill:#D35440;}
	.st146{fill:#FFC2B8;}
	.st147{fill:#A53A2F;}
	.st148{fill:#C64E36;}
	.st149{fill:#070000;}
	.st150{fill:#230200;}
	.st151{fill:#540000;}
	.st152{fill:#AF8F08;}
	.st153{fill:#16D8C0;}
	.st154{fill:#75EFDD;}
	.st155{fill:#00AF96;}
	.st156{fill:#00846E;}
	.st157{fill:#FFE161;}
	.st158{fill:#05C4A8;}
	.st159{fill:#F3E9FF;}
	.st160{fill:#FFC5DB;}
	.st161{fill:#E5D2FF;}
	.st162{fill:#CDB3FF;}
	.st163{opacity:0.2;fill:#3E0A75;}
	.st164{fill:#A8003D;}
	.st165{fill:#AA6D35;}
	.st166{fill:#FFD6B8;}
	.st167{fill:#FFE697;}
	.st168{fill:#FFDD88;}
	.st169{fill:#FF5986;}
	.st170{opacity:0.4;fill:#C40059;}
	.st171{fill:#CC004E;}
	.st172{fill:#2D2D2D;}
	.st173{opacity:0.6;}
	.st174{fill:#3D3D3D;}
	.st175{fill:#4F4F4F;}
	.st176{fill:#636363;}
	.st177{fill:#E9F5FF;}
	.st178{fill:#C1E0F4;}
	.st179{fill:#E50000;}
	.st180{fill:#FF7373;}
	.st181{fill:#F25F5F;}
	.st182{fill:#FFB200;}
	.st183{opacity:0.5;fill:#FF7373;}
	.st184{fill:#FFCF7B;}
	.st185{fill:#00CEC3;}
	.st186{fill:#00EAD9;}
	.st187{fill:#00A599;}
	.st188{fill:#007F73;}
	.st189{fill:#DD5050;}
	.st190{fill:#FFA6A6;}
	.st191{fill:#45793B;}
	.st192{fill:#35612A;}
	.st193{fill:#235317;}
	.st194{fill:#5E8F44;}
	.st195{fill:#65954D;}
	.st196{fill:#930000;}
	.st197{fill:#F00000;}
	.st198{fill:#EAB80D;}
	.st199{fill:#FFD226;}
</style>
<g id="Credits_10_Birthday">
</g>
<g id="Credits_5000">
</g>
<g id="Credits_3000">
</g>
<g id="Credits_2000">
</g>
<g id="Credits_1000">
</g>
<g id="Credits_750">
</g>
<g id="Credits_500">
</g>
<g id="Credits_300">
</g>
<g id="Credits_200">
</g>
<g id="Credits_100">
	<rect class="st0" width="512" height="512"/>
	<g>
		<g>
			<path class="st138" d="M90.537,270.851c14.119,100.712,73.029,177.726,131.581,172.016c4.022-0.392,7.932-1.178,11.732-2.308
				l81.626-8.78c-53.523-6.855-104.227-79.324-117.187-171.773c-13.156-93.842,17.225-175.134,68.798-190.409
				c-0.001,0-0.002,0-0.002,0.001l-90.515,8.266c-1.86,0.016-3.72,0.112-5.581,0.294C112.438,83.867,76.418,170.139,90.537,270.851z
				"/>
		</g>
		<g>
			<path class="st139" d="M200.721,274.8H91.12c15.086,98.767,73.214,173.702,130.998,168.067c4.021-0.392,7.933-1.177,11.732-2.308
				l81.626-8.78C264.845,425.294,216.742,360.088,200.721,274.8z"/>
		</g>
		<g>
			<g>
				<path class="st138" d="M388.64,236.797H278.987c1.036,5.369,1.948,10.816,2.722,16.338
					c13.155,93.84-17.224,175.131-68.796,190.409l90.514-8.266c1.859-0.016,3.72-0.112,5.581-0.294
					c58.552-5.71,94.572-91.983,80.453-192.695C389.204,240.45,388.927,238.621,388.64,236.797z"/>
			</g>
			<g>
				<polygon class="st140" points="212.912,443.544 212.914,443.544 212.914,443.544 				"/>
			</g>
		</g>
		<g>
			<path class="st141" d="M280.671,247.937C265.804,148.563,211.24,74.73,158.799,83.026c-52.44,8.296-82.899,95.58-68.032,194.953
				c14.868,99.374,69.431,173.207,121.872,164.911C265.08,434.594,295.539,347.311,280.671,247.937z M210.307,427.301
				c-45.222,7.154-92.889-60.625-106.469-151.39s12.072-170.143,57.293-177.297c45.222-7.154,92.889,60.625,106.469,151.39
				S255.529,420.147,210.307,427.301z"/>
		</g>
		<g>
			<path class="st139" d="M275.863,217.796H386.15c-19.182-89.185-73.497-154.31-127.508-149.042
				c-4.022,0.392-7.933,1.177-11.732,2.308l-81.626,8.78C212.079,85.835,256.719,141.987,275.863,217.796z"/>
		</g>
		<g>
			<g>
				<path class="st142" d="M373.497,117.847c0,0-12.031-15.858-41.078-14.043c-29.047,1.815-98.941,4.539-98.941,4.539
					s-19.062,1.815-27.231,17.247l-6.354,10.893c0,0-5.446,9.077,0,29.047s35.401,149.773,35.401,149.773
					s6.354,42.663,49.924,39.939s105.295-7.262,105.295-7.262s44.182-2.793,32.53-50.413
					c-11.652-47.62-37.536-154.618-37.536-154.618L373.497,117.847z"/>
			</g>
			<g>
				<path class="st143" d="M260.71,304.409c0,0,5.446,31.77,34.493,29.955s109.833-7.262,109.833-7.262s24.508-2.723,16.339-36.309
					c-8.169-33.585-37.216-153.404-37.216-153.404s-7.262-29.047-31.77-29.047c-24.508,0-107.11,3.631-107.11,3.631
					s-30.862-3.631-22.693,32.678C230.756,180.96,260.71,304.409,260.71,304.409z"/>
			</g>
			<g>
				<path class="st144" d="M396.594,334.298c0,0-61.724,4.539-105.295,7.262c-43.57,2.723-49.924-43.74-49.924-43.74
					s-29.955-129.803-35.401-149.773c-2.03-7.444-2.546-13.372-2.395-17.883l-3.685,6.318c0,0-5.446,9.077,0,29.047
					c5.446,19.97,35.401,149.773,35.401,149.773s6.354,42.663,49.924,39.939c43.57-2.723,105.295-7.262,105.295-7.262
					s32.162-2.04,34.361-32.222C425,330.284,396.594,334.298,396.594,334.298z"/>
			</g>
			<g>
				<path class="st145" d="M227.125,197.299c0-10.944-4.394-19.915-9.985-20.8v-0.078h-14.523v41.755h14.523v-0.078
					C222.731,217.213,227.125,208.242,227.125,197.299z"/>
			</g>
			<g>
				<ellipse class="st146" cx="203.524" cy="197.299" rx="10.893" ry="20.877"/>
			</g>
			<g>
				<path class="st145" d="M220.894,268.401l8.791,41.023c0,0,2.887,10.416,10.149,6.785c7.24-3.62,6.587-10.404,4.539-22.693
					c-1.815-10.893-9.077-38.124-9.077-38.124s-3.631-9.077-14.401-2.619C220.894,252.774,216.987,254.727,220.894,268.401z"/>
			</g>
			<g>
				<path class="st146" d="M220.771,269.008l8.169,38.124c0,0,3.631,9.985,8.169,6.354c4.539-3.631,6.354-10.893,3.631-20.877
					c-2.723-9.985-8.169-34.493-8.169-34.493s-3.631-8.169-11.8-3.631C220.771,254.485,217.14,256.3,220.771,269.008z"/>
			</g>
		</g>
		<g>
			<path class="st138" d="M101.178,249.454c0,0,3.689,101.824,70.834,91.494c0,0,42.058-0.738,24.788-95.476
				C196.8,245.473,147.912,175.274,101.178,249.454z"/>
		</g>
		<g>
			<path class="st147" d="M188.108,277.832c-3.866-21.27-21.062-35.956-38.408-32.803c-17.346,3.153-28.274,22.951-24.407,44.221
				c3.866,21.27,21.062,35.956,38.408,32.803C181.047,318.9,191.974,299.101,188.108,277.832z M162.246,314.048
				c-13.741,2.498-27.363-9.136-30.425-25.985c-3.062-16.849,5.594-32.532,19.335-35.03c13.741-2.498,27.363,9.136,30.425,25.985
				C184.643,295.867,175.987,311.551,162.246,314.048z"/>
		</g>
		<g>
			<path class="st1" d="M257.407,312.803c-0.518,0-0.986-0.355-1.11-0.881c-0.315-1.349-31.62-135.238-38.382-163.789
				c-6.987-29.499,8.389-36.021,9.047-36.284c0.584-0.233,1.248,0.05,1.482,0.635c0.233,0.583-0.049,1.244-0.63,1.48l0,0
				c-0.582,0.239-14.184,6.18-7.679,33.643c6.763,28.553,38.068,162.446,38.384,163.795c0.143,0.613-0.238,1.226-0.851,1.369
				C257.58,312.793,257.492,312.803,257.407,312.803z"/>
		</g>
		<g class="st73">
			<path class="st1" d="M411.027,325.181c6.662-3.272,15.812-11.928,10.349-34.388c-8.169-33.585-37.216-153.404-37.216-153.404
				s-7.262-29.047-31.77-29.047c-22.123,0-91.571,2.958-104.883,3.534C292.331,140.333,369.657,204.394,411.027,325.181z"/>
		</g>
		<g>
			<path class="st148" d="M327.745,296.855c-3.104-0.228-6.245-0.731-9.337-1.493l0.91-3.69c2.885,0.712,5.814,1.181,8.706,1.393
				L327.745,296.855z M340.361,296.291l-0.622-3.749c1.196-0.198,2.4-0.444,3.578-0.73c1.668-0.405,3.331-0.903,4.943-1.479
				l1.28,3.578c-1.737,0.621-3.528,1.157-5.325,1.594C342.946,295.813,341.649,296.077,340.361,296.291z M306.581,291.102
				c-2.78-1.328-5.535-2.888-8.187-4.636l2.092-3.173c2.507,1.653,5.11,3.126,7.734,4.38L306.581,291.102z M360.835,288.28
				l-2.081-3.18c2.426-1.588,4.765-3.419,6.952-5.441l2.58,2.79C365.944,284.614,363.438,286.576,360.835,288.28z M288.563,278.735
				c-2.257-2.091-4.443-4.36-6.497-6.744l2.878-2.481c1.962,2.277,4.048,4.442,6.201,6.437L288.563,278.735z M376.595,273.016
				l-3.085-2.22c1.699-2.36,3.276-4.903,4.689-7.556l3.355,1.785C380.062,267.829,378.393,270.518,376.595,273.016z M274.62,261.995
				c-1.668-2.596-3.233-5.321-4.652-8.1l3.385-1.728c1.362,2.668,2.864,5.283,4.465,7.773L274.62,261.995z M386.497,253.541
				l-3.598-1.22c0.943-2.781,1.746-5.679,2.389-8.614l3.713,0.813C388.327,247.592,387.486,250.627,386.497,253.541z
				 M265.026,242.479c-1.047-2.906-1.972-5.905-2.752-8.911l3.679-0.955c0.751,2.895,1.643,5.781,2.65,8.579L265.026,242.479z
				 M390.807,232.189l-3.788-0.293c0.177-2.3,0.268-4.652,0.268-6.991c0-0.655-0.007-1.313-0.021-1.972l3.799-0.079
				c0.015,0.686,0.022,1.369,0.022,2.052C391.087,227.342,390.993,229.792,390.807,232.189z M259.883,221.367
				c-0.41-3.09-0.678-6.219-0.795-9.299l3.797-0.144c0.113,2.961,0.37,5.97,0.765,8.942L259.883,221.367z M386.254,211.015
				c-0.436-2.94-1.016-5.905-1.724-8.814l3.664-1.02c0.016,0.061,0.03,0.122,0.043,0.184c0.721,2.959,1.323,6.039,1.775,9.092
				L386.254,211.015z M263.21,199.978l-3.784-0.354c0.292-3.12,0.746-6.233,1.349-9.252l3.726,0.744
				C263.924,194.007,263.489,196.989,263.21,199.978z M380.966,190.664c-1.061-2.803-2.261-5.573-3.568-8.233l3.411-1.676
				c1.359,2.767,2.608,5.648,3.71,8.564L380.966,190.664z M267.683,179.633l-3.576-1.287c1.07-2.971,2.315-5.871,3.701-8.62
				l3.394,1.711C269.884,174.049,268.7,176.806,267.683,179.633z M371.44,172.076c-1.669-2.498-3.47-4.913-5.353-7.178l2.923-2.429
				c1.967,2.366,3.848,4.888,5.591,7.496L371.44,172.076z M277.444,161.365l-3.033-2.29c1.92-2.543,4.014-4.927,6.224-7.086
				l2.656,2.719C281.217,156.734,279.25,158.974,277.444,161.365z M357.815,156.327c-2.247-1.998-4.606-3.852-7.01-5.509
				l2.157-3.129c2.532,1.745,5.015,3.696,7.379,5.798L357.815,156.327z M292.546,147.453l-1.994-3.235
				c2.7-1.663,5.55-3.089,8.472-4.238l1.391,3.537C297.702,144.583,295.054,145.908,292.546,147.453z M340.492,144.995
				c-2.731-1.222-5.534-2.231-8.331-2.998l1.005-3.665c2.983,0.818,5.971,1.893,8.879,3.195L340.492,144.995z M311.758,140.56
				l-0.514-3.765c3.118-0.425,6.311-0.57,9.472-0.434l-0.163,3.797C317.62,140.031,314.652,140.165,311.758,140.56z"/>
		</g>
		<g>
			<path class="st1" d="M337.078,223.299c-0.689,0-1.386-0.187-2.013-0.58c-1.779-1.114-2.318-3.459-1.204-5.238l19.366-30.928
				c1.113-1.779,3.456-2.319,5.237-1.204c1.779,1.114,2.318,3.459,1.204,5.238l-19.366,30.928
				C339.581,222.667,338.343,223.299,337.078,223.299z"/>
		</g>
		<g>
			<path class="st1" d="M337.079,223.299c-0.822,0-1.65-0.265-2.346-0.813l-52.897-41.583c-1.65-1.297-1.937-3.686-0.639-5.336
				c1.298-1.651,3.687-1.935,5.336-0.639l52.897,41.583c1.65,1.297,1.936,3.686,0.639,5.336
				C339.319,222.801,338.205,223.299,337.079,223.299z"/>
		</g>
	</g>
</g>
<g id="Credits_75">
</g>
<g id="Credits_50">
</g>
<g id="Credits_25">
</g>
<g id="Credits_10">
</g>
<g id="Credits_5">
</g>
<g id="Credits_1">
</g>
</svg>
